<?xml version="1.0" encoding="utf-8"?>
<!-- Generator: Adobe Illustrator 26.0.3, SVG Export Plug-In . SVG Version: 6.00 Build 0)  -->
<svg version="1.1" id="Layer_1" xmlns="http://www.w3.org/2000/svg" xmlns:xlink="http://www.w3.org/1999/xlink" x="0px" y="0px"
	 width="157px" height="135.6px" viewBox="0 0 157 135.6" style="enable-background:new 0 0 157 135.6;" xml:space="preserve">
<style type="text/css">
	.st0{fill:#B2B2B2;}
</style>
<g>
	<path class="st0" d="M9.4,56.3c2.1,1.5,4.5,1.6,6.5,0.1c0.7-0.5,1.1-0.5,1.7,0.1c5.8,5.6,11.7,11.2,17.5,16.9
		c0.2,0.2,0.6,0.3,0.3,0.8c-0.5,0-1,0-1.5,0c-1.3,0.1-2.1,0.8-2.1,2c0,5.4-0.5,10.8,0.7,16.1c3.1,13.9,13.3,23.6,27.6,26
		c0.9,0.2,1.2,0.5,1.2,1.5c-0.1,3,0,6,0,9c0,1.4,0.5,2.4,1.9,2.7c3.8,0,7.6,0,11.4,0c14.2,0,28.4,0,42.5,0c0.6,0,1.1,0,1.7,0.1
		c1.5-0.3,2.1-1.3,2.1-2.7c0-3,0-6,0-9c0-1,0.4-1.3,1.3-1.4c14.5-2.4,25.3-12.9,27.8-27.4c0.8-4.9,0.3-9.9,0.4-14.8
		c0-1.2-0.8-1.9-1.9-2c-0.6-0.1-1.2,0-2,0c0.8-2.7,1.6-5.2,2.4-7.8c1-3.1,1.6-6.3,2.8-9.3c0-0.5,0-1,0-1.5c-1-1.4-2.3-1.6-3.8-0.9
		c-1.8,0.8-3.6,1.4-5.4,2.1c-5.3,2.2-10.7,4.1-15.6,7.2c-3.3,2-5.8,4.7-6.3,8.7c-0.2,1.3-0.7,1.4-1.7,1.4c-10.6,0-21.2,0-31.8,0
		c-1,0-1.8-0.3-2.7-0.9C76.8,68,69.3,62.8,61.8,57.5c-9.5-6.6-18.9-13.2-28.3-19.9c-0.4-0.2-1.1-0.2-0.8-1.2c1.3-4.1,0.9-5.3-2.4-8
		c-3.2-2.6-6.2-2.3-8.8,0.8c-4,4.9-8,9.7-12,14.6c-1.4,1.7-3,3.3-3.9,5.4c0,0.9,0,1.8,0,2.8C6.4,53.8,7.8,55.2,9.4,56.3z M26.6,31.2
		c1,0.6,2.1,1.3,2.4,2.1c0,0.9-0.3,1.3-0.6,1.6c-4.8,5.8-9.6,11.6-14.3,17.4c-0.9,1.1-1.7,1-2.7,0.2c-2-1.7-2.1-1.8-0.4-3.8
		c4.6-5.6,9.2-11.2,13.8-16.7C25.2,31.4,25.8,30.6,26.6,31.2z M30.8,41c11.5,8,23,16.1,34.5,24.1c3.7,2.6,7.5,5.2,11.2,7.9
		c0.4,0.3,0.8,0.6,1.6,1.1c-12,0-23.6,0-35.1,0c-0.5,0-1-0.1-1.4-0.5c-7.3-7.1-14.7-14.1-22-21.2c3.2-3.9,6.3-7.6,9.4-11.5
		C29.7,40,30.2,40.6,30.8,41z M115.2,127.2c-14.3,0-28.7,0-43,0c-1.8,0-3.7,0-5.5,0c-0.8,0-1.1-0.2-1-1c0.1-2,0.1-4.1,0-6.1
		c0-1.1,0.3-1.4,1.3-1.3c8,0,16.1,0,24.1,0c8,0,16.1,0,24.1,0c1.2,0,1.6,0.2,1.5,1.5c-0.1,1.9-0.1,3.8,0,5.6
		C116.8,127.2,116.1,127.2,115.2,127.2z M144.7,94.5c-4,12.2-14.8,19.9-28.2,20c-17,0.1-33.9,0.1-50.9,0c-14.4-0.1-25.6-9-28.8-22.6
		c-1-4.2-0.7-8.5-0.7-12.8c0-0.5,0.2-0.7,0.7-0.7c0.4,0,0.8,0,1.2,0c17.7,0,35.4,0,53.2,0c17.8,0,35.5,0,53.3,0
		c1.3,0,1.6,0.3,1.6,1.6C146.1,84.9,146.3,89.7,144.7,94.5z M142.1,73.5c-0.2,0.5-0.4,0.7-1,0.7c-1.5,0-2.9,0-4.8,0
		c0.8-0.9,1.4-1.6,2-2.3c1-1.2,0.9-2.4,0-3.2c-0.9-0.8-2.2-0.6-3.1,0.4c-1,1.1-2,2.3-3.1,3.4c-0.6,0.6-1,1.7-1.8,1.7
		c-1.7,0.2-3.5,0.1-5.2,0c-0.6,0-0.4-0.6-0.3-1c0.3-1.5,1.1-2.8,2.3-3.9c1.9-1.7,4.1-2.9,6.5-4c4.1-1.9,8.3-3.6,12.7-5.3
		C144.9,64.7,143.6,69.1,142.1,73.5z"/>
	<path class="st0" d="M83.8,33.7c-1.5,2.1-1.7,4.3-0.4,6.6c1.5,2.7,3.8,4.2,6.9,4.4c0.9,0.1,1.4,0.2,1.5,1.2c0.1,1.1,0.9,2,1.6,2.9
		c1,1.2,3.1,0.9,3.7,2.1c0.6,1.2,0.4,2.9,1.2,4.2c2.1,3.8,6.8,6.1,10.8,2.5c1.4-1.2,2-1.1,3.6,0.2c3,2.3,6.1,2.2,8.8-0.4
		c1.6-1.6,2.6-3.5,2.8-5.8c0-0.8,0.2-1.1,1-1.3c2.4-0.5,3.9-2.1,4.4-4.5c0.2-0.9,0.6-1,1.3-1c2.9-0.2,5.2-1.5,6.8-4
		c1.6-2.4,1.4-4.9-0.3-7.2c-1.6-2.1-1.6-2.3,0-4.5c1.8-2.4,1.9-5,0.2-7.5c-1.6-2.3-3.8-3.6-6.7-3.8c-0.9,0-1.2-0.3-1.3-1.2
		c-0.2-1.2-0.9-2.1-1.7-3c-1-1.1-3.1-0.9-3.6-2c-0.6-1.2-0.5-2.9-1.2-4.2c-2.1-3.9-6.9-6.2-10.8-2.5c-1.2,1.1-2.3,1-3.5,0
		c-1.2-1.1-2.6-1.8-4.3-1.8c-3.6,0-7.1,3.6-7.4,7.6c-0.1,0.9-0.3,1.3-1.2,1.5c-2.3,0.5-3.7,2.1-4.2,4.3c-0.2,1-0.6,1.1-1.5,1.2
		c-2.9,0.2-5.2,1.6-6.8,4.1c-1.5,2.3-1.3,4.8,0.3,7C85.6,31.2,85.6,31.2,83.8,33.7z M98.8,45.3c-0.3,0.6-1,0.9-1.7,0.8
		c-0.6-0.1-1.1-0.5-1.2-1.2c-0.2-0.7,0-1.4,0.6-1.7c1.3-0.8,2.7-1.6,4.6-2.3C100.2,42.6,99.5,43.9,98.8,45.3z M118.8,53.7
		c-1.3,1.6-2.2,1.7-3.8,0.4c-2.9-2.2-5.6-2.3-8.4-0.3c-0.8,0.6-1.5,1.7-2.8,1c-1.5-0.8-2.3-2-2.4-3.6c0-0.1,0-0.2,0-0.3
		c0-0.7,0.1-1.4,0.5-2.1c1.5-2.9,2.9-5.9,4.4-8.8c0.2-0.4,0.2-1.1,1-0.8c0.6,0.2,1.4,0.3,1.2,1.4c-0.1,0.6-0.1,1.2,0.1,1.8
		c0.3,1.2,1.1,1.9,2.3,1.8c1.1-0.1,1.8-0.8,1.9-2c0-0.6,0.1-1.2,0-1.8c-0.1-0.9,0.6-0.9,1.1-1.1c0.6-0.3,0.8,0.2,1,0.6
		c1.5,3,3.1,6,4.5,9.1C120.2,50.6,120,52.3,118.8,53.7z M106.2,31.1c0.1-2.4,2.1-4.3,4.4-4.3c2.5,0,4.4,2,4.4,4.5
		c0,2.5-2,4.4-4.5,4.3C108.1,35.5,106.2,33.5,106.2,31.1z M124.3,46c-0.7,0.3-1.4,0-1.7-0.6c-0.8-1.2-1.4-2.6-2.1-3.9
		c-0.2-0.4,0-0.7,0.4-0.5c1.4,0.7,2.9,1.2,4.1,2.3c0.3,0.3,0.4,0.7,0.4,1.1C125.4,45.2,125,45.7,124.3,46z M128.4,22.4
		c2-1,4.5-0.2,5.7,1.6c0.5,0.8,0.6,1.6-0.1,2.4c-3,3.2-2.8,6.7,0,9.7c0.7,0.8,0.6,1.6,0,2.5c-1.2,1.7-3.5,2.5-5.4,1.5
		c-3.2-1.5-6.3-3.1-9.4-4.7c-0.4-0.2-0.8-0.4-0.5-0.9c0.3-0.4,0.1-1.2,0.9-1.2c0.5,0,1,0,1.5,0c1.6-0.1,2.6-0.9,2.6-2.2
		c0-1.3-1-2.1-2.7-2.1c-0.2,0-0.3,0-0.5,0c0,0,0,0,0,0c-0.4,0-0.8,0.1-1.2,0c-0.6-0.1-0.5-0.8-0.7-1.2c-0.3-0.6,0.3-0.6,0.6-0.8
		C122.3,25.4,125.3,23.9,128.4,22.4z M122.3,17.3c0.4-0.7,1-1.1,1.7-1c0.7,0.1,1.2,0.6,1.3,1.3c0.1,0.8-0.1,1.4-0.8,1.8
		c-1.3,0.7-2.6,1.4-4,2.1c-0.1-0.1-0.2-0.2-0.3-0.3C121,19.9,121.6,18.6,122.3,17.3z M102.9,8.3c1-1,2-1.2,3.2-0.1
		c3.2,2.6,5.8,2.6,9.1,0.1c1.4-1.1,2.1-1,3.4,0.2c1.3,1.3,1.7,3.3,0.9,5.1c-1.5,3.1-3,6.1-4.5,9.1c-0.2,0.4-0.3,0.9-1,0.6
		c-0.5-0.3-1.3-0.2-1.2-1.1c0.1-0.6,0.1-1.2,0-1.8c-0.2-1.3-0.9-2.1-2.2-2.1c-1.3,0.1-2,0.8-2,2.2c0,0.6,0,1.1,0,1.7
		c0.1,0.9-0.7,0.9-1.2,1.1c-0.7,0.3-0.7-0.3-0.9-0.7c-1.5-3-3-6-4.5-9c-0.3-0.6-0.5-1.3-0.5-1.9C101.4,10.2,101.9,9.1,102.9,8.3z
		 M96.3,16.8c0.8-0.9,1.8-0.6,2.3,0.2c0.9,1.3,1.6,2.8,2.3,4.7c-1.7-0.9-3.2-1.5-4.4-2.4C95.6,18.7,95.5,17.7,96.3,16.8z M87.2,24
		c1.1-1.7,3.5-2.6,5.4-1.7c3.2,1.5,6.4,3.1,9.5,4.7c0.4,0.2,0.8,0.4,0.5,0.9c-0.3,0.4-0.1,1.2-0.9,1.2c-0.4,0-0.7,0-1.1,0
		c-2,0-3.1,0.8-3,2.2c0,1.3,1.1,2.1,3,2.1c0.4,0,0.7,0,1.1,0c0.9-0.1,0.7,0.7,1,1.1c0.4,0.6-0.2,0.8-0.6,1c-3,1.5-6.1,3.1-9.1,4.5
		c-2,1-4.3,0.3-5.6-1.5c-0.6-0.9-0.6-1.6,0-2.5c2.9-3.8,2.9-5.8,0-9.7C86.7,25.6,86.7,24.8,87.2,24z"/>
	<path class="st0" d="M53.8,36.6c1.2,5.4,3.9,9.5,9.7,10.6c2.8,0.5,5.8,0.5,8.7,0.7c1,0.1,1.7-0.5,2.1-1.4c1.1-2.3,2.2-4.6,3.3-6.9
		c0.7-1.4,1-3,0.9-5c0-0.4,0-1.2-0.2-2c-0.8-3.3-2.8-5.7-5.3-7.8C67.5,20,61.1,16.1,54.9,12c-1.7-1.1-3.5-0.1-3.4,2
		c0.1,2.4,0.2,4.9,0.4,7.3C52.4,26.5,52.7,31.6,53.8,36.6z M61.3,21.4c3.6,2.5,7.3,4.9,10.3,8c2.4,2.5,3.5,5.3,2,8.7
		c-0.4,1-0.9,1.9-1.4,2.9c-0.6-0.1-0.7-0.6-0.9-1c-2.1-3.6-4.2-7.3-6.4-10.9c-0.6-1-1.3-1.5-2.5-1.3c-1,0.2-1.5,0.8-1.7,1.8
		c-0.2,0.8,0.3,1.4,0.6,2c2,3.4,3.9,6.8,5.9,10.1c0.3,0.5,0.6,1,1,1.8c-1.5-0.1-2.8-0.2-4.1-0.4c-2.6-0.5-4.4-2-5.4-4.4
		c-1.2-2.8-1.6-5.9-1.9-8.9c-0.4-3.9-0.8-7.8-1-11.9C58,19.1,59.6,20.2,61.3,21.4z"/>
</g>
</svg>
