<?xml version="1.0" encoding="utf-8"?>
<!-- Generator: Adobe Illustrator 26.0.3, SVG Export Plug-In . SVG Version: 6.00 Build 0)  -->
<svg version="1.1" id="Layer_1" xmlns="http://www.w3.org/2000/svg" xmlns:xlink="http://www.w3.org/1999/xlink" x="0px" y="0px"
	 width="157px" height="135.6px" viewBox="0 0 157 135.6" style="enable-background:new 0 0 157 135.6;" xml:space="preserve">
<style type="text/css">
	.st0{fill:#B2B2B2;}
</style>
<g>
	<path class="st0" d="M-258.7,145.7c2.1,1.5,4.5,1.6,6.5,0.1c0.7-0.5,1.1-0.5,1.7,0.1c5.8,5.6,11.7,11.2,17.5,16.9
		c0.2,0.2,0.6,0.3,0.3,0.8c-0.5,0-1,0-1.5,0c-1.3,0.1-2.1,0.8-2.1,2c0,5.4-0.5,10.8,0.7,16.1c3.1,13.9,13.3,23.6,27.6,26
		c0.9,0.2,1.2,0.5,1.2,1.5c-0.1,3,0,6,0,9c0,1.4,0.5,2.4,1.9,2.7c3.8,0,7.6,0,11.4,0c14.2,0,28.4,0,42.5,0c0.6,0,1.1,0,1.7,0.1
		c1.5-0.3,2.1-1.3,2.1-2.7c0-3,0-6,0-9c0-1,0.4-1.3,1.3-1.4c14.5-2.4,25.3-12.9,27.8-27.4c0.8-4.9,0.3-9.9,0.4-14.8
		c0-1.2-0.8-1.9-1.9-2c-0.6-0.1-1.2,0-2,0c0.8-2.7,1.6-5.2,2.4-7.8c1-3.1,1.6-6.3,2.8-9.3c0-0.5,0-1,0-1.5c-1-1.4-2.3-1.6-3.8-0.9
		c-1.8,0.8-3.6,1.4-5.4,2.1c-5.3,2.2-10.7,4.1-15.6,7.2c-3.3,2-5.8,4.7-6.3,8.7c-0.2,1.3-0.7,1.4-1.7,1.4c-10.6,0-21.2,0-31.8,0
		c-1,0-1.8-0.3-2.7-0.9c-7.5-5.3-15.1-10.6-22.6-15.8c-9.5-6.6-18.9-13.2-28.3-19.9c-0.4-0.2-1.1-0.2-0.8-1.2c1.3-4.1,0.9-5.3-2.4-8
		c-3.2-2.6-6.2-2.3-8.8,0.8c-4,4.9-8,9.7-12,14.6c-1.4,1.7-3,3.3-3.9,5.4c0,0.9,0,1.8,0,2.8C-261.7,143.2-260.3,144.5-258.7,145.7z
		 M-241.5,120.5c1,0.6,2.1,1.3,2.4,2.1c0,0.9-0.3,1.3-0.6,1.6c-4.8,5.8-9.6,11.6-14.3,17.4c-0.9,1.1-1.7,1-2.7,0.2
		c-2-1.7-2.1-1.8-0.4-3.8c4.6-5.6,9.2-11.2,13.8-16.7C-242.9,120.7-242.3,120-241.5,120.5z M-237.3,130.4c11.5,8,23,16.1,34.5,24.1
		c3.7,2.6,7.5,5.2,11.2,7.9c0.4,0.3,0.8,0.6,1.6,1.1c-12,0-23.6,0-35.1,0c-0.5,0-1-0.1-1.4-0.5c-7.3-7.1-14.7-14.1-22-21.2
		c3.2-3.9,6.3-7.6,9.4-11.5C-238.4,129.3-237.9,129.9-237.3,130.4z M-152.9,216.6c-14.3,0-28.7,0-43,0c-1.8,0-3.7,0-5.5,0
		c-0.8,0-1.1-0.2-1-1c0.1-2,0.1-4.1,0-6.1c0-1.1,0.3-1.4,1.3-1.3c8,0,16.1,0,24.1,0c8,0,16.1,0,24.1,0c1.2,0,1.6,0.2,1.5,1.5
		c-0.1,1.9-0.1,3.8,0,5.6C-151.3,216.6-152,216.6-152.9,216.6z M-123.4,183.8c-4,12.2-14.8,19.9-28.2,20c-17,0.1-33.9,0.1-50.9,0
		c-14.4-0.1-25.6-9-28.8-22.6c-1-4.2-0.7-8.5-0.7-12.8c0-0.5,0.2-0.7,0.7-0.7c0.4,0,0.8,0,1.2,0c17.7,0,35.4,0,53.2,0
		c17.8,0,35.5,0,53.3,0c1.3,0,1.6,0.3,1.6,1.6C-122,174.2-121.8,179.1-123.4,183.8z M-126,162.8c-0.2,0.5-0.4,0.7-1,0.7
		c-1.5,0-2.9,0-4.8,0c0.8-0.9,1.4-1.6,2-2.3c1-1.2,0.9-2.4,0-3.2c-0.9-0.8-2.2-0.6-3.1,0.4c-1,1.1-2,2.3-3.1,3.4
		c-0.6,0.6-1,1.7-1.8,1.7c-1.7,0.2-3.5,0.1-5.2,0c-0.6,0-0.4-0.6-0.3-1c0.3-1.5,1.1-2.8,2.3-3.9c1.9-1.7,4.1-2.9,6.5-4
		c4.1-1.9,8.3-3.6,12.7-5.3C-123.2,154-124.5,158.5-126,162.8z"/>
	<path class="st0" d="M-184.3,123c-1.5,2.1-1.7,4.3-0.4,6.6c1.5,2.7,3.8,4.2,6.9,4.4c0.9,0.1,1.4,0.2,1.5,1.2c0.1,1.1,0.9,2,1.6,2.9
		c1,1.2,3.1,0.9,3.7,2.1c0.6,1.2,0.4,2.9,1.2,4.2c2.1,3.8,6.8,6.1,10.8,2.5c1.4-1.2,2-1.1,3.6,0.2c3,2.3,6.1,2.2,8.8-0.4
		c1.6-1.6,2.6-3.5,2.8-5.8c0-0.8,0.2-1.1,1-1.3c2.4-0.5,3.9-2.1,4.4-4.5c0.2-0.9,0.6-1,1.3-1c2.9-0.2,5.2-1.5,6.8-4
		c1.6-2.4,1.4-4.9-0.3-7.2c-1.6-2.1-1.6-2.3,0-4.5c1.8-2.4,1.9-5,0.2-7.5c-1.6-2.3-3.8-3.6-6.7-3.8c-0.9,0-1.2-0.3-1.3-1.2
		c-0.2-1.2-0.9-2.1-1.7-3c-1-1.1-3.1-0.9-3.6-2c-0.6-1.2-0.5-2.9-1.2-4.2c-2.1-3.9-6.9-6.2-10.8-2.5c-1.2,1.1-2.3,1-3.5,0
		c-1.2-1.1-2.6-1.8-4.3-1.8c-3.6,0-7.1,3.6-7.4,7.6c-0.1,0.9-0.3,1.3-1.2,1.5c-2.3,0.5-3.7,2.1-4.2,4.3c-0.2,1-0.6,1.1-1.5,1.2
		c-2.9,0.2-5.2,1.6-6.8,4.1c-1.5,2.3-1.3,4.8,0.3,7C-182.5,120.6-182.5,120.6-184.3,123z M-169.3,134.6c-0.3,0.6-1,0.9-1.7,0.8
		c-0.6-0.1-1.1-0.5-1.2-1.2c-0.2-0.7,0-1.4,0.6-1.7c1.3-0.8,2.7-1.6,4.6-2.3C-167.9,131.9-168.6,133.3-169.3,134.6z M-149.3,143.1
		c-1.3,1.6-2.2,1.7-3.8,0.4c-2.9-2.2-5.6-2.3-8.4-0.3c-0.8,0.6-1.5,1.7-2.8,1c-1.5-0.8-2.3-2-2.4-3.6c0-0.1,0-0.2,0-0.3
		c0-0.7,0.1-1.4,0.5-2.1c1.5-2.9,2.9-5.9,4.4-8.8c0.2-0.4,0.2-1.1,1-0.8c0.6,0.2,1.4,0.3,1.2,1.4c-0.1,0.6-0.1,1.2,0.1,1.8
		c0.3,1.2,1.1,1.9,2.3,1.8c1.1-0.1,1.8-0.8,1.9-2c0-0.6,0.1-1.2,0-1.8c-0.1-0.9,0.6-0.9,1.1-1.1c0.6-0.3,0.8,0.2,1,0.6
		c1.5,3,3.1,6,4.5,9.1C-147.9,140-148.1,141.6-149.3,143.1z M-161.9,120.4c0.1-2.4,2.1-4.3,4.4-4.3c2.5,0,4.4,2,4.4,4.5
		c0,2.5-2,4.4-4.5,4.3C-160,124.9-161.9,122.9-161.9,120.4z M-143.8,135.3c-0.7,0.3-1.4,0-1.7-0.6c-0.8-1.2-1.4-2.6-2.1-3.9
		c-0.2-0.4,0-0.7,0.4-0.5c1.4,0.7,2.9,1.2,4.1,2.3c0.3,0.3,0.4,0.7,0.4,1.1C-142.7,134.6-143.1,135.1-143.8,135.3z M-139.7,111.8
		c2-1,4.5-0.2,5.7,1.6c0.5,0.8,0.6,1.6-0.1,2.4c-3,3.2-2.8,6.7,0,9.7c0.7,0.8,0.6,1.6,0,2.5c-1.2,1.7-3.5,2.5-5.4,1.5
		c-3.2-1.5-6.3-3.1-9.4-4.7c-0.4-0.2-0.8-0.4-0.5-0.9c0.3-0.4,0.1-1.2,0.9-1.2c0.5,0,1,0,1.5,0c1.6-0.1,2.6-0.9,2.6-2.2
		c0-1.3-1-2.1-2.7-2.1c-0.2,0-0.3,0-0.5,0c0,0,0,0,0,0c-0.4,0-0.8,0.1-1.2,0c-0.6-0.1-0.5-0.8-0.7-1.2c-0.3-0.6,0.3-0.6,0.6-0.8
		C-145.8,114.8-142.8,113.2-139.7,111.8z M-145.8,106.7c0.4-0.7,1-1.1,1.7-1c0.7,0.1,1.2,0.6,1.3,1.3c0.1,0.8-0.1,1.4-0.8,1.8
		c-1.3,0.7-2.6,1.4-4,2.1c-0.1-0.1-0.2-0.2-0.3-0.3C-147.1,109.3-146.5,107.9-145.8,106.7z M-165.2,97.6c1-1,2-1.2,3.2-0.1
		c3.2,2.6,5.8,2.6,9.1,0.1c1.4-1.1,2.1-1,3.4,0.2c1.3,1.3,1.7,3.3,0.9,5.1c-1.5,3.1-3,6.1-4.5,9.1c-0.2,0.4-0.3,0.9-1,0.6
		c-0.5-0.3-1.3-0.2-1.2-1.1c0.1-0.6,0.1-1.2,0-1.8c-0.2-1.3-0.9-2.1-2.2-2.1c-1.3,0.1-2,0.8-2,2.2c0,0.6,0,1.1,0,1.7
		c0.1,0.9-0.7,0.9-1.2,1.1c-0.7,0.3-0.7-0.3-0.9-0.7c-1.5-3-3-6-4.5-9c-0.3-0.6-0.5-1.3-0.5-1.9C-166.7,99.5-166.2,98.5-165.2,97.6z
		 M-171.8,106.1c0.8-0.9,1.8-0.6,2.3,0.2c0.9,1.3,1.6,2.8,2.3,4.7c-1.7-0.9-3.2-1.5-4.4-2.4C-172.5,108-172.6,107-171.8,106.1z
		 M-180.9,113.4c1.1-1.7,3.5-2.6,5.4-1.7c3.2,1.5,6.4,3.1,9.5,4.7c0.4,0.2,0.8,0.4,0.5,0.9c-0.3,0.4-0.1,1.2-0.9,1.2
		c-0.4,0-0.7,0-1.1,0c-2,0-3.1,0.8-3,2.2c0,1.3,1.1,2.1,3,2.1c0.4,0,0.7,0,1.1,0c0.9-0.1,0.7,0.7,1,1.1c0.4,0.6-0.2,0.8-0.6,1
		c-3,1.5-6.1,3.1-9.1,4.5c-2,1-4.3,0.3-5.6-1.5c-0.6-0.9-0.6-1.6,0-2.5c2.9-3.8,2.9-5.8,0-9.7C-181.4,114.9-181.4,114.2-180.9,113.4
		z"/>
	<path class="st0" d="M-214.3,126c1.2,5.4,3.9,9.5,9.7,10.6c2.8,0.5,5.8,0.5,8.7,0.7c1,0.1,1.7-0.5,2.1-1.4c1.1-2.3,2.2-4.6,3.3-6.9
		c0.7-1.4,1-3,0.9-5c0-0.4,0-1.2-0.2-2c-0.8-3.3-2.8-5.7-5.3-7.8c-5.6-4.9-11.9-8.8-18.2-12.8c-1.7-1.1-3.5-0.1-3.4,2
		c0.1,2.4,0.2,4.9,0.4,7.3C-215.7,115.8-215.4,121-214.3,126z M-206.8,110.7c3.6,2.5,7.3,4.9,10.3,8c2.4,2.5,3.5,5.3,2,8.7
		c-0.4,1-0.9,1.9-1.4,2.9c-0.6-0.1-0.7-0.6-0.9-1c-2.1-3.6-4.2-7.3-6.4-10.9c-0.6-1-1.3-1.5-2.5-1.3c-1,0.2-1.5,0.8-1.7,1.8
		c-0.2,0.8,0.3,1.4,0.6,2c2,3.4,3.9,6.8,5.9,10.1c0.3,0.5,0.6,1,1,1.8c-1.5-0.1-2.8-0.2-4.1-0.4c-2.6-0.5-4.4-2-5.4-4.4
		c-1.2-2.8-1.6-5.9-1.9-8.9c-0.4-3.9-0.8-7.8-1-11.9C-210.1,108.5-208.5,109.6-206.8,110.7z"/>
</g>
<g>
	<path class="st0" d="M73.6,48.1C73.6,48.1,73.7,48.1,73.6,48.1C73.7,48.1,73.7,48.1,73.6,48.1C73.7,48.1,73.6,48.1,73.6,48.1z"/>
	<path class="st0" d="M50.7,102.3c6.2,0,12.5,0,18.7,0c1.8,0,3-1,3-2.6c0-1.6-1.2-2.6-3-2.6c-3.3,0-6.7,0-10,0c-1,0-1.3-0.2-1.3-1.2
		c0-9.8,0-19.7,0-29.5c0-2.1,0.3-4.2,1.1-6.2c2.5-6.7,7.4-10.6,14.5-12c0,0,0.1,0,0.1,0c0,0,0,0.1,0,0.1c0,2.5,0,4.9,0,7.3
		c0,1.8,1,2.8,2.8,2.9c0.5,0,1,0.1,1.4,0c0.9-0.1,1,0.3,1,1c0,2.2,0,4.3,0,6.5c0,1.7,1.1,2.9,2.6,2.9c1.5,0,2.5-1.2,2.5-2.9
		c0-1.8,0-3.6,0-5.3c0-2.2,0-2.2,2.2-2.2c2,0,3-1,3-3c0-2.1,0-4.2,0-6.2c0-0.8,0.1-1,1-0.9c8.2,1.6,14.5,9,14.6,17.4
		c0.1,10.1,0,20.3,0,30.4c0,0.8-0.2,1-1,1c-3.4-0.1-6.8,0-10.3,0c-1.9,0-3.1,1-3.1,2.6c0,1.6,1.2,2.6,3.1,2.6c3.9,0,7.9,0,11.8,0
		c2.4,0,4.8,0,7.2,0c1.6,0,2.7-1.2,2.6-2.6c0-1.4-1.1-2.5-2.6-2.5c-0.5,0-1-0.1-1.4,0c-1,0.2-1.2-0.2-1.2-1.2c0-9.8,0-19.5,0-29.3
		c0-1.6-0.1-3.1-0.4-4.7c-1.8-8.7-6.9-14.7-15.1-17.9c-0.8-0.3-0.9-0.6-0.6-1.4c1.4-3.8-0.2-7.8-3.8-9.6c-0.7-0.4-1-0.8-0.9-1.6
		c0.1-1.7,0-3.4,0-5.1c0-4.2-0.3-4.5-4.4-4.6c-0.8,0-0.8-0.3-0.8-0.9c0-1.2,0.1-2.4,0-3.6c0-0.8,0.2-1.2,0.9-1.6
		c2.7-1.4,4.2-3.6,4.3-6.7c0.1-3-1.2-5.3-3.8-7c-0.8-0.5-1.8-0.7-2.7-1.1c-0.9,0-1.7,0-2.6,0c-0.3,0.4-0.8,0.3-1.2,0.4
		c-2.9,1-5.1,3.7-5.3,6.8c-0.2,3.4,1.2,6,4.2,7.6c0.7,0.4,1,0.7,1,1.5c-0.1,1.3-0.1,2.5,0,3.8c0,0.6-0.2,0.8-0.8,0.8
		c-4.2,0.2-4.4,0.4-4.4,4.6c0,1.8,0,3.6,0,5.5c0,0.6-0.2,0.8-0.7,1.1c-4,2.1-5.5,5.8-4,9.9c0.3,0.8,0,0.9-0.6,1.1
		c-8.2,3.2-13.3,9-15.1,17.7c-0.3,1.6-0.4,3.2-0.4,4.8c0,9.7,0,19.5,0,29.2c0,1.1-0.2,1.5-1.3,1.3c-1.7-0.2-3.1,0.2-3.9,1.8
		c0,0.5,0,1,0,1.6C48.4,101.6,49.3,102.3,50.7,102.3z M81.6,53.1c-2.7,0-2.7,0-2.7-2.6c0-2.6,0-2.6,2.5-2.6c2.7,0,2.7,0,2.7,2.6
		C84.1,53.1,84.1,53.1,81.6,53.1z M78.9,8.8c0.1-1.4,1.3-2.5,2.7-2.5c1.4,0,2.6,1.3,2.5,2.7c-0.1,1.4-1.3,2.5-2.7,2.5
		C80,11.5,78.8,10.2,78.9,8.8z M81.5,27.1c2.7,0,2.7,0,2.7,2.7c0,2.5,0,2.5-2.5,2.5c-2.7,0-2.7,0-2.7-2.7
		C78.9,27.1,78.9,27.1,81.5,27.1z M76.6,37.5c1.7,0,3.4,0,5.1,0c1.6,0,3.2,0,4.8,0c1.7,0,2.8,1.1,2.9,2.5c0,1.5-1.1,2.6-2.9,2.7
		c-3.3,0-6.6,0-9.9,0c-1.7,0-2.9-1.1-2.9-2.7C73.8,38.6,74.9,37.5,76.6,37.5z"/>
	<path class="st0" d="M83.6,134c5.3-0.9,8.7-4.1,10.3-9.1c0.3-0.9,0.6-1.1,1.5-1.1c9.9,0,19.8,0,29.6,0c0.6,0,1.1,0,1.4,0.7
		c1.6,3.1,4.4,4.7,7.7,4.5c3.2-0.3,5.8-2.4,6.9-5.7c0.1-0.2,0-0.4,0.3-0.5c0-1,0-1.9,0-2.9c-0.1-0.1-0.2-0.2-0.2-0.3
		c-0.8-3.4-3.3-5.8-6.7-6.2c-3.2-0.4-6.4,1.3-7.9,4.3c-0.4,0.8-0.8,0.8-1.5,0.8c-9.9,0-19.8,0-29.6,0c-0.9,0-1.2-0.3-1.5-1.1
		c-1.5-4.7-4.7-7.7-9.4-9c-3.6-0.9-6.6-0.1-9,2.7c-0.8,1-1.7,2-2.6,2.9c-2,2.1-4.4,3.4-7.2,3.9c-1.7,0.3-3.3,0.5-5,0.5
		c-1.3,0-2.1,0.7-2.5,1.9c-0.3,1.1,0,2,1,2.7c0.2,0.2,0.5,0.4,0.7,0.5c6.4,4.3,12.8,8.3,20.3,10.4c0.6,0,1.2,0,1.8,0
		C82.5,133.9,83.1,134,83.6,134z M133.5,123.9c-1.4,0-2.6-1.3-2.5-2.7c0.1-1.4,1.3-2.5,2.7-2.5c1.4,0,2.6,1.3,2.5,2.7
		C136,122.8,134.8,123.9,133.5,123.9z M80.1,128.8c-4.3-1.3-8-3.6-12-5.9c4.4-1.2,7.6-3.7,10.3-7c0,0,0.1-0.1,0.1-0.1
		c2.6-2.9,5.1-3.1,8.1-0.5c1,0.8,1.6,1.8,2.2,3.3c-2.3,0-4.5,0-6.7,0c-0.6,0-1.2,0-1.8,0.3c-1,0.5-1.6,1.8-1.3,2.8
		c0.3,1.2,1.3,2,2.5,2c1.2,0,2.4,0,3.6,0c1.2,0,2.3,0,3.7,0c-0.9,2.4-2.6,4-4.9,4.8C82.7,129.1,81.4,129.2,80.1,128.8z"/>
	<path class="st0" d="M83.6,134c-0.6-0.1-1.1-0.2-1.6,0.2c0.5,0,1,0,1.6,0c0,0,0-0.1,0-0.1C83.6,134.1,83.6,134.1,83.6,134z"/>
	<path class="st0" d="M73.3,88.4c3.9-4.3,4-8.7,0.2-13.1c-0.6-0.8-1.3-1.5-1.8-2.4c-0.7-1.1-0.7-2.2,0-3.3c0.5-0.7,1.1-1.4,1.5-2.1
		c0.8-1.1,0.6-2.4-0.3-3.3c-0.9-0.9-2.2-1-3.2-0.3c-2.5,1.6-4.3,6.1-3.6,8.9c0.5,2.2,1.7,3.9,3.2,5.5c0.8,0.9,1.6,1.9,1.8,3.3
		C71,83,70.1,84,69.3,85c-1.1,1.3-1.1,2.8,0.1,3.8C70.5,89.9,72.1,89.7,73.3,88.4z"/>
	<path class="st0" d="M91.2,79.9c0.9,1.2,0.9,2.4,0.1,3.6c-0.5,0.7-1,1.3-1.5,2c-0.8,1.1-0.6,2.4,0.3,3.3c0.9,0.9,2.2,1,3.2,0.3
		c2.4-1.6,4.2-6,3.6-8.8c-0.5-2.4-1.9-4.2-3.5-6c-2-2.3-2-3.6-0.1-5.9c0.3-0.3,0.6-0.7,0.8-1c0.9-1.7-0.3-3.8-2.2-3.8
		c-0.8,0-1.4,0.3-2.1,1c-3.9,4.1-4.1,8.6-0.5,13C90,78.3,90.6,79.1,91.2,79.9z"/>
	<path class="st0" d="M81.6,102.3c1.4,0,2.6-1.3,2.5-2.7c-0.1-1.4-1.3-2.5-2.6-2.5c-1.4,0-2.5,1.2-2.5,2.6
		C78.9,101.1,80.1,102.3,81.6,102.3z"/>
</g>
</svg>
