<?xml version="1.0" encoding="utf-8"?>
<!-- Generator: Adobe Illustrator 26.0.3, SVG Export Plug-In . SVG Version: 6.00 Build 0)  -->
<svg version="1.1" id="Layer_1" xmlns="http://www.w3.org/2000/svg" xmlns:xlink="http://www.w3.org/1999/xlink" x="0px" y="0px"
	 width="157px" height="135.6px" viewBox="0 0 157 135.6" style="enable-background:new 0 0 157 135.6;" xml:space="preserve">
<style type="text/css">
	.st0{fill:#B2B2B2;}
</style>
<g>
	<path class="st0" d="M58.8,20.9C58.8,20.9,58.8,20.9,58.8,20.9C58.8,20.9,58.8,20.9,58.8,20.9C58.8,20.9,58.8,20.9,58.8,20.9z"/>
	<path class="st0" d="M37.3,129.1c0.4-13.5-1.1-26.9-3.1-40.3c-1.1-7-0.8-14.1,0.8-21c3.2-14.7,6.5-29.3,9.7-44
		c1.1-4.8,2.1-9.6,3.2-14.4c0.6-2.3,3-3.7,5.2-3.2c2.5,0.6,3.9,2.8,3.5,5.2c-0.5,2.4-0.9,4.9-1.4,7.3c-1.9,10-3.8,20.1-5.8,30.1
		c-0.3,1.6,0.2,2.7,1.5,2.9c1.2,0.3,2.1-0.5,2.4-2.1c1.8-9.5,3.6-19.1,5.5-28.8c0,0,0,0,0-0.1c0,0,0,0,0,0.1
		c0.6,1.4,0.7,2.8,0.9,4.1c1.6,8.3,3.1,16.5,4.7,24.8c0.1,0.6,0.2,1.1,0.7,1.5c0.7,0.5,1.4,0.8,2.2,0.3c1.1-0.6,1.2-1.6,0.9-2.7
		c-0.6-3.1-1.2-6.2-1.8-9.3c-1.7-9.3-3.5-18.5-5.2-27.8c-0.5-2.8,0.8-5,3.5-5.6c2.4-0.5,4.6,1,5.2,3.6c1.1,4.9,2.1,9.9,3.2,14.9
		c2.6,12.4,5.3,24.8,7.9,37.2c0.9,4.2,2,8.4,2.4,12.7c0.3,3.1,0.1,6.3,0.1,9.4c0,1.2,0.7,2,1.9,2c1.1,0,1.9-0.7,2-1.9
		c0.6-5.9,0-11.7-1.3-17.4c-0.5-2.2-0.9-4.4-1.4-6.7c2.7,0.8,5.2,1.6,7.7,2.4c1.5,0.5,2.5,0,2.9-1.2c0.4-1.1-0.3-2.1-1.8-2.6
		c-2.1-0.7-4.2-1.5-6.4-2C84.4,56.1,83,54.9,83,52c0-0.5-0.2-1-0.3-1.4c-1.1-5.1-2.2-10.2-3.3-15.3c0.3-0.1,0.4,0.1,0.4,0.3
		c0.7,1.5,1.4,3.1,2.1,4.6c1.8,4.2,4.9,6.9,9.3,8.1c1.4,0.4,2.8,0.7,4.2,0.9c1.1,0.2,1.8,0.8,2.5,1.7c3.9,5,9,7,15.2,5.9
		c1.7-0.3,3-0.2,4.5,0.6c4.9,2.6,6.8,7,5,12.2c-1.9,5.7-3.9,11.4-5.9,17.1c-1.1,3.3-3.4,5.4-6.7,6.4c-1.7,0.5-3.4,1-5.1,1.5
		c-8.5,2.5-17,5-25.5,7.4c-2.5,0.7-4.5-1-4.4-3.5c0.1-1.6,1.1-2.5,3.3-3.2c8.2-2.5,16.5-5,24.7-7.5c2.8-0.8,4.8-2.5,5.7-5.3
		c0.9-2.8,1.8-5.7,2.7-8.5c0.4-1.4,0-2.5-1-2.8c-1.2-0.4-2.2,0.1-2.7,1.6c-0.9,2.7-1.8,5.5-2.6,8.3c-0.5,1.5-1.4,2.4-2.9,2.9
		c-0.7,0.2-1.4,0.4-2,0.6c-7.9,2.4-15.9,4.8-23.8,7.3c-4,1.2-6.1,5.2-5,9.1c1.1,3.8,5.1,6.1,9,5c11.8-3.5,23.9-6.5,35.5-10.8
		c0,0.6,0,1.4,0,2.1c0,7.9,0,15.7,0,23.6c0,1.4,0.7,2.1,1.9,2.1c1.2,0,1.9-0.7,2-2c0-0.4,0-0.7,0-1.1c0-9.6,0-19.1,0-28.7
		c0-0.9,0.2-1.8,0.5-2.6c2.1-6.1,4.3-12.2,6.3-18.4c1.5-4.5,0.6-8.6-2.2-12.4c-1.2-1.6-2.9-2.8-4.6-3.8c7.3-6.2,6.9-14.7,4.1-19.8
		c-3.3-5.9-9.9-9.4-16.6-7.7c-9.6,2.4-13.2,9.1-12.3,18.6c-0.3-0.1-0.6-0.2-0.9-0.2c-4.4-0.7-7.4-3.1-9-7.3c-1.8-4.8-4-9.4-6-14.1
		c-2-4.8-4.4-9.5-5.4-14.7c-0.7-3.7-3.5-6-7.2-6.5h0c0,0,0,0,0,0c-0.6,0-1.3,0-1.9,0c-1.9,0.3-3.7,1.1-5,2.5
		c-0.6,0.6-0.8,0.4-1.3-0.1c-1.3-1.4-3-2.2-4.9-2.4c-0.7,0-1.5,0-2.2,0c-3.6,0.4-6.4,3.1-7.2,6.7c-4.3,19.7-8.7,39.4-13,59
		c-0.8,3.7-1.1,7.5-1.3,11.3c0,0.5,0,1.1,0,1.6c0,0.5,0,1.1,0,1.6c0.3,5.6,1.2,11.2,2,16.7c0.7,5.1,1.2,10.2,1.5,15.3
		c0.2,4.8,0.4,9.6,0.2,14.3c0,1.4,0.2,2.5,1.4,3.3c0.3,0,0.5,0,0.8,0C36.9,131.5,37.2,130.5,37.3,129.1z M110.3,53.2
		c-6.3,0-11.6-5.2-11.6-11.6c0-6.3,5.2-11.5,11.6-11.5c6.4,0,11.6,5.2,11.6,11.6C121.9,48,116.7,53.2,110.3,53.2z"/>
	<path class="st0" d="M83.7,129.1c-0.1-3.3-0.1-6.5,0.1-9.8c0.2-2.9,0.3-5.8,0.4-8.7c0-1.2-0.7-1.9-1.8-2c-1.1-0.1-1.9,0.5-2.1,1.6
		c-0.1,0.5-0.2,1-0.2,1.5c-0.3,5.7-0.3,11.4-0.3,17.1c0,1.4,0.2,2.5,1.4,3.3c0.3,0,0.5,0,0.8,0C83.3,131.5,83.7,130.5,83.7,129.1z"
		/>
	<path class="st0" d="M58.8,53.8c-8.4-0.1-15.4,6.8-15.5,15.3c-0.1,8.4,6.7,15.3,14.9,15.5c8.5,0.2,15.9-6.7,15.8-15.4
		C74.1,60.9,67.3,53.9,58.8,53.8z M58.7,80.8c-6.2,0.1-11.5-5.2-11.6-11.5c0-6.3,5.1-11.5,11.5-11.5c6.4,0,11.5,5.1,11.6,11.4
		C70.2,75.5,65,80.7,58.7,80.8z"/>
</g>
</svg>
