<?xml version="1.0" encoding="utf-8"?>
<!-- Generator: Adobe Illustrator 26.0.3, SVG Export Plug-In . SVG Version: 6.00 Build 0)  -->
<svg version="1.1" id="Layer_1" xmlns="http://www.w3.org/2000/svg" xmlns:xlink="http://www.w3.org/1999/xlink" x="0px" y="0px"
	 width="157px" height="135.6px" viewBox="0 0 157 135.6" style="enable-background:new 0 0 157 135.6;" xml:space="preserve">
<style type="text/css">
	.st0{fill:#B2B2B2;}
</style>
<g>
	<path class="st0" d="M130.8,128.8c0.2-0.3,0.5-0.3,0.8-0.3c5.4,0.9,10.8-3,11.8-8.4c0-0.1,0.1-0.1,0.2-0.2c0-1.1,0-2.3,0-3.4
		c-0.5-1.6-1-3.3-2.1-4.7c-0.2-0.3-0.2-0.6-0.1-0.9c0.3-2.7-0.3-5.1-1.9-7.3c-0.3-0.5-0.4-0.8-0.2-1.4c2.2-4.4,3.5-9,4-13.8
		c0-0.1,0.1-0.2,0.2-0.3c0-2.4,0-4.9,0-7.3c-0.3-1.6-0.6-3.2-0.9-4.8c-3-12.7-10.4-21.9-22.1-27.6c-3-1.5-4.5-3.7-4.3-7.1
		c0-0.7,0.2-1,0.9-1c0.9,0.1,1.8,0.1,2.7-0.2c4.2-1.1,6.1-5.8,3.7-9.5c-0.4-0.6-0.4-1,0-1.7c1.3-2,1.4-4.2,0.3-6.3
		c-1.1-2.1-3-3.2-5.4-3.3c-2.2-0.1-2.2-0.1-2.2-2.2c0-2.3,0-4.6,0-6.9c0-4.4-1.2-6.2-5.2-7.6c-4.9,0-9.8,0-14.7,0
		c0,0.6-0.5,0.5-0.8,0.7c-2.7,1.1-4.1,3.1-4.1,6.1c0,2.7,0,5.4,0,8.1c0,2.1-0.1,2.2-2.2,2.2c-2.9,0.1-5.2,1.8-6,4.4
		c-0.5,1.6-0.2,3.1,0.6,4.4c0.5,0.9,0.6,1.6,0,2.5c-2.3,4.1,0.5,8.8,5.1,8.9c2.4,0.1,2.6,0.3,2.4,2.7c-0.3,2.8-1.7,4.7-4.2,5.9
		c-7.9,3.7-13.9,9.4-18.2,17c-1.7,3-2.9,6.2-3.7,9.5c-0.4,1.7-0.6,1.8-2.4,1.3c-9.6-2.9-19.2-2.8-28.7,0.4c-1.7,0.6-3.2,1.4-4.6,2.4
		c-2.9,2.1-4.6,5.5-1.6,9.3c0.8,1,0.7,1.3-0.5,1.8c-2.3,1-4.6,2-6.5,3.6c-3.9,3.1-3.9,7.5,0,10.7c0.9,0.8,1.9,1.4,2.9,2
		c0.9,0.6,0.9,0.9,0,1.4c-1.2,0.7-2.5,1.1-3.7,1.9c-2.5,1.5-4.7,3.3-5.9,6.1c-0.1,0.3-0.2,0.7-0.7,0.6c0,1,0,2.1,0,3.1
		c2.3,6,7.7,8.1,13.1,9.9c4.9,1.7,10,2.4,15.1,2.9c0.3,0,0.7-0.2,0.9,0.3c0.4,0,0.9,0,1.3,0c0.1-0.3,0.3-0.3,0.5-0.2c0,0,0,0,0,0
		c0,0,0,0,0,0c0.2,0,0.3,0,0.5,0c0,0,0,0,0,0c0.3,0,0.5,0,0.8,0c0.4,0,0.8-0.2,1.1,0.2c1.6,0,3.1,0,4.7,0c0.2-0.3,0.5-0.3,0.8-0.2
		c0,0,0,0,0,0c0.2,0,0.3,0,0.5,0c0,0,0,0,0,0c0.2,0,0.4,0,0.5,0c0,0,0,0,0,0c0,0,0,0,0,0c0.3,0,0.5,0,0.8,0c0,0,0,0,0,0
		c0.2,0,0.5-0.1,0.5,0.2c0.2,0,0.3,0,0.5,0c1.8-0.6,3.7-0.5,5.6-0.8c5.9-0.9,11.8-2.1,17.1-5c3.1-1.7,5.8-3.8,6.8-7.5
		c3.2,1.7,6.4,3,9.9,3.8c2.9,0.7,5.9,1,9,1c0.6,0,1.1,0.1,1.6,0.5c2.5,1.9,5.3,3,8.4,3.5c0.3,0,0.6,0,0.8,0.3
		c1.7,2.3,4.1,3.4,6.7,4.1c1,0,1.9,0,2.9,0C126.6,132.3,129.1,131.1,130.8,128.8z M138.3,82.1c-2.1,1.8-4.6,2.7-7.2,3.3
		c-5.1,1.2-10.3,2-15.5,0.4c-4.1-1.2-7.8-3.3-11.7-5.4c6.3-3.7,12.5-7.1,20.1-6.3c3.9,0.4,7.7,0.9,11.3,2.5c1.1,0.5,2.2,1.1,3.1,1.9
		C139.5,79.8,139.5,81.1,138.3,82.1z M95.3,9.2c0-1.5,0.8-2.3,2.3-2.3c4.1,0,8.2,0,12.3,0c1.4,0,2.2,0.8,2.2,2.2c0,3.2,0,6.4,0,9.6
		c0,0.8-0.3,0.8-0.9,0.8c-2.5,0-5.1,0-7.6,0c-2.4,0-4.9,0-7.3,0c-0.7,0-1-0.1-1-0.9C95.3,15.5,95.3,12.3,95.3,9.2z M89.6,23.7
		c4.8,0,9.5,0,14.3,0c4.7,0,9.3,0,14,0c1.7,0,2.6,0.8,2.6,2.1c0,1.3-0.9,2.1-2.6,2.1c-9.5,0-19,0-28.4,0c-1.6,0-2.6-0.8-2.6-2.1
		C86.9,24.5,87.9,23.7,89.6,23.7z M89.6,36.3c-1.7,0-2.7-0.8-2.7-2.1c0-1.3,1-2.1,2.6-2.1c9.4,0,18.9,0,28.3,0
		c1.7,0,2.6,0.8,2.6,2.1c0,1.3-0.9,2.1-2.6,2.1c-4.8,0-9.5,0-14.3,0C98.9,36.3,94.3,36.3,89.6,36.3z M71.5,69.3
		c3.7-7.5,9.2-13.3,16.8-16.8c4.8-2.2,7.2-5.7,7-11c0-0.8,0.2-1,1-1c4.9,0,9.9,0,14.8,0c0.8,0,1,0.2,1,1c-0.2,5.2,2.3,8.7,7,10.9
		c8.7,4.2,14.7,10.9,18.1,19.9c0.1,0.2,0.1,0.3,0.2,0.7c-5.7-2.4-11.5-3.3-17.4-3.1c-4.7,0.1-8.9,1.9-13,4c-2.1,1.1-4.1,2.3-6.1,3.5
		c-0.8,0.5-1.4,0.5-2.2,0c-3.8-2.2-7.6-4.2-11.7-5.8c-4.7-1.9-9.4-2.1-14.3-1.4c-0.5,0.1-0.9,0.1-1.4,0.2
		C71,69.9,71.3,69.6,71.5,69.3z M31.2,82.8c1.1-1,2.4-1.7,3.8-2.2c5.7-2.2,11.5-2.6,17.5-2.2c3.9,0.2,7.7,0.9,11.3,2.5
		c1.2,0.5,2.4,1.1,3.3,2.1c1.2,1.2,1.2,2.1,0,3.3c-1.3,1.3-2.9,2-4.5,2.6c-4.4,1.6-8.9,2.1-13.6,2.1c-4.7-0.1-9.5-0.6-14-2.4
		c-1.4-0.5-2.7-1.2-3.8-2.2C29.9,85.1,29.9,84.1,31.2,82.8z M22.8,101.1c-1.2-1.3-1.2-2.4,0-3.7c1-1.2,2.4-1.9,3.8-2.6
		c0.9-0.4,1.8-0.8,2.7-1.1c2.6-1,5-1.2,7.8-0.4c8.9,2.5,17.9,2.2,26.8-0.7c0.4-0.1,0.7-0.3,1.1-0.2c3.1,0.7,6.1,1.7,8.8,3.3
		c3.6,2.3,3.6,4.4,0,6.6c-3.7,2.3-7.8,3.3-11.9,4c-4.7,0.8-9.4,1.1-15.5,1c-5.8-0.2-12.9-1-19.5-3.9
		C25.2,103.1,23.9,102.3,22.8,101.1z M79.3,120.9c-2.2,2.2-4.9,3.4-7.8,4.4c-7.3,2.5-14.8,3.3-22.5,3.4c-8.1-0.1-16.1-1-23.8-4
		c-1.9-0.7-3.8-1.7-5.4-3c-2.9-2.4-2.9-4.7,0-7c2.9-2.4,6.4-3.6,10-4.7c0.9-0.3,1.8-0.3,2.7,0c11.3,2.5,22.5,2.5,33.8-0.1
		c0.4-0.1,0.9-0.2,1.3-0.1c3.3,0.9,6.6,2,9.5,3.9c0.8,0.5,1.6,1.2,2.3,1.9C81,117.4,81,119.1,79.3,120.9z M112.3,120.5
		c-0.2,0.8-0.2,1.6-0.2,2.5c0.1,0.7-0.1,0.8-0.8,0.6c-4.7-1.4-9.2-6.9-9.5-11.7c2.9-0.2,5.6,0.2,8.3,1.4c0.7,0.3,0.9,1,1.3,1.6
		c0.6,0.9,1.7,1.7,1.8,2.6C113.3,118.4,112.5,119.5,112.3,120.5z M110.3,107.9c-0.2,0.8-0.3,0.9-1.1,0.6c-3.6-1.2-7.4-0.8-11.2-0.9
		c-0.8,0-0.6,0.5-0.6,0.9c-0.1,3.9,0.7,7.5,2.7,10.9c0.1,0.1,0.1,0.3,0.3,0.6c-2.4-0.1-4.6-0.6-6.8-1.2c-3.4-1-6.6-2.5-9.6-4.5
		c-0.2-0.1-0.5-0.3-0.6-0.4c-2.4-3.1-5.7-4.9-9.3-6.4c-0.1,0-0.2-0.2-0.3-0.3c1.5-0.8,2.9-1.6,4.2-2.7c3.5-3.2,3.5-7.3,0-10.5
		c-2-1.8-4.4-3-6.9-4c-0.4-0.2-0.9-0.2-1.3-0.6c0.2-0.2,0.3-0.4,0.5-0.6c2.7-3,2.6-6.5-0.5-9.1c-1.1-1-1.2-1.8-1-3.1
		c0.3-1.2,0.8-1.6,2-1.9c7.3-1.7,13.9-0.2,20.3,3.3c5.1,2.8,10.1,5.6,15.2,8.4c3.7,1.9,7.5,3.8,11.6,4.1c7.2,0.6,14.3-0.3,20.8-3.7
		c0.3-0.3,0.5-0.4,0.5,0.1c0,0.3,0,0.7-0.2,1c-0.3,4-1.4,7.9-3.1,11.6c-0.3,0.7-0.6,0.8-1.3,0.5c-2.8-1.2-5.5-1.1-8.2,0.2
		c-0.6,0.3-1.1,0.3-1.7,0C118.5,97.4,111.6,101,110.3,107.9z M128.9,116c0,1.1-0.9,2.1-2,2.1c-1.1,0-2.1-0.9-2.2-2
		c-0.1-1.2,0.9-2.2,2.1-2.2C127.9,114,128.9,114.9,128.9,116z M115.5,113.6c-0.8-1.1-1.3-2.4-1.3-3.3c0-3.8,2.6-6.6,5.8-6.8
		c3.3-0.2,6.2,2.1,6.7,5.3c0.1,0.6,0.2,1-0.7,1c-1.3,0.1-2.5,0.7-3.5,1.6c-0.4,0.4-0.8,0.5-1.3,0.5c-1.7,0.2-3.2,0.8-4.6,1.8
		C116.1,114.2,115.8,114.1,115.5,113.6z M128.9,123.1c-0.3,3.1-3.1,5.6-6.2,5.6c-2.9,0-5.4-1.9-6.1-4.7c-0.7-2.7,0.6-5.6,3-7
		c0.7-0.4,1-0.4,1.2,0.5c0.9,3.6,3.8,5.5,7.3,4.8C129,122,128.9,122.5,128.9,123.1z M135,105c1.8,1.5,2.7,3.5,2.1,5.8
		c-0.4,1.4-0.2,2.3,0.8,3.4c1.6,1.8,1.9,4,1,6.2c-0.9,2.3-2.6,3.5-5,3.9c-0.7,0.1-1.3,0.1-0.9-0.9c0-0.1,0-0.2,0-0.3
		c0-2.6-0.5-5.1,0-7.7c0.2-1.1-0.4-2.3-1.2-3.1c-0.8-0.8-0.9-1.7-0.9-2.8c0.1-2.1-0.7-4-1.8-5.8C131.4,103.1,133.3,103.5,135,105z"
		/>
	<path class="st0" d="M14.1,116c1.2-2.8,3.4-4.6,5.9-6.1c1.2-0.7,2.5-1.2,3.7-1.9c0.9-0.5,0.9-0.8,0-1.4c-1-0.6-2-1.3-2.9-2
		c-3.9-3.2-3.9-7.6,0-10.7c2-1.6,4.2-2.6,6.5-3.6c1.2-0.5,1.3-0.8,0.5-1.8c-3-3.7-1.3-7.2,1.6-9.3c1.4-1,3-1.8,4.6-2.4
		c9.5-3.2,19.1-3.2,28.7-0.4c1.7,0.5,1.9,0.5,2.4-1.3c0.8-3.3,2-6.5,3.7-9.5c4.2-7.6,10.2-13.3,18.2-17c2.5-1.2,4-3.1,4.2-5.9
		c0.2-2.4,0-2.6-2.4-2.7c-4.7-0.2-7.4-4.9-5.1-8.9c0.5-0.9,0.5-1.6,0-2.5c-0.8-1.4-1.1-2.8-0.6-4.4c0.8-2.7,3.1-4.4,6-4.4
		c2.1,0,2.2-0.1,2.2-2.2c0-2.7,0-5.4,0-8.1c0-3,1.4-5,4.1-6.1c0.3-0.1,0.8-0.1,0.8-0.7c-4,1.4-5.2,3.2-5.2,7.5c0,2.3,0,4.6,0,6.9
		c0,2.3,0,2.3-2.2,2.4c-2.4,0.1-4.3,1.2-5.4,3.3c-1.2,2.1-1.1,4.3,0.3,6.3c0.4,0.7,0.4,1,0,1.7c-2.4,3.6-0.5,8.4,3.7,9.5
		c1,0.3,1.9,0.2,2.9,0.2c0.5,0,0.7,0.1,0.8,0.7c0.2,3.5-1,5.7-4.2,7.3c-11.6,5.7-19,14.8-22.1,27.3c-0.2,0.7-0.3,0.9-1.1,0.6
		C54.4,73.3,45,73.3,35.7,76c-2.9,0.8-5.6,2-7.7,4.2c-2.5,2.6-2.5,5.8-0.2,8.5c0.2,0.3,0.6,0.5,0.7,0.9c-1.4,0.6-2.7,1.1-4,1.7
		c-1.3,0.6-2.5,1.4-3.6,2.3c-4.1,3.4-4.1,7.9,0,11.3c1.1,0.9,2.4,1.6,3.7,2.4c-0.5,0.2-0.8,0.4-1.2,0.5c-4.3,1.8-8.1,4.1-9.8,8.7
		C13.9,116.7,14,116.3,14.1,116z"/>
	<path class="st0" d="M45.7,132.7C45.7,132.7,45.7,132.7,45.7,132.7c0,0,0,0.1,0,0.1c0.3,0,0.7,0,1,0
		C46.4,132.6,46.1,132.8,45.7,132.7z"/>
	<path class="st0" d="M45.7,132.6C45.7,132.7,45.7,132.7,45.7,132.6C45.7,132.7,45.7,132.7,45.7,132.6c0.4,0.1,0.8,0,1.1,0.2
		C46.5,132.5,46.1,132.6,45.7,132.6z"/>
	<path class="st0" d="M45.6,132.7c-0.2,0-0.4,0-0.6,0c0,0-0.1,0-0.1,0c0,0,0,0.1,0,0.1c0.3,0,0.5,0,0.8,0
		C45.6,132.8,45.6,132.8,45.6,132.7z"/>
	<path class="st0" d="M45,132.7c0.2,0,0.4,0,0.6,0c0,0,0,0,0,0c0-0.1,0-0.1,0.1-0.1c-0.3,0-0.5,0-0.8,0c0,0,0,0.1,0,0.1
		C45,132.7,45,132.7,45,132.7z"/>
	<path class="st0" d="M45.6,132.7c0,0,0,0.1,0.1,0.1C45.7,132.8,45.7,132.8,45.6,132.7C45.7,132.7,45.6,132.7,45.6,132.7z"/>
	<path class="st0" d="M45.6,132.7C45.6,132.7,45.6,132.7,45.6,132.7C45.6,132.7,45.7,132.7,45.6,132.7
		C45.7,132.7,45.7,132.7,45.6,132.7C45.7,132.6,45.6,132.7,45.6,132.7z"/>
	<path class="st0" d="M51.5,132.9c0.3,0,0.5,0,0.8,0c0,0,0-0.1,0-0.1C52,132.8,51.7,132.6,51.5,132.9z"/>
	<path class="st0" d="M52.3,132.7C52.3,132.7,52.3,132.7,52.3,132.7c-0.3-0.1-0.6-0.2-0.8,0.1C51.7,132.6,52,132.8,52.3,132.7z"/>
	<path class="st0" d="M54,132.7c-0.2,0-0.4,0-0.7,0c0,0,0,0.1,0,0.1c0.3,0,0.5,0,0.8,0c0,0,0-0.1,0-0.1
		C54.1,132.7,54,132.7,54,132.7z"/>
	<path class="st0" d="M54,132.7c0,0,0.1,0,0.1,0c0,0,0-0.1,0-0.1c-0.3,0-0.5,0-0.8,0c0,0,0,0,0,0c0,0,0,0.1,0,0.1
		C53.6,132.7,53.8,132.7,54,132.7z"/>
	<path class="st0" d="M43.9,132.9c0.2,0,0.3,0,0.5,0c0,0,0-0.1,0-0.1C44.2,132.7,44,132.7,43.9,132.9z"/>
	<path class="st0" d="M44.4,132.7C44.4,132.7,44.4,132.7,44.4,132.7C44.4,132.6,44.4,132.6,44.4,132.7c-0.2-0.1-0.5-0.2-0.5,0.1
		C44,132.7,44.2,132.7,44.4,132.7z"/>
	<path class="st0" d="M44.8,132.7c-0.1,0-0.2,0-0.3,0c0,0,0,0,0,0c0,0,0,0,0,0.1c0,0.1-0.1,0.1-0.1,0.1c0.2,0,0.3,0,0.5,0
		C44.8,132.8,44.8,132.8,44.8,132.7z"/>
	<path class="st0" d="M44.5,132.7C44.5,132.7,44.5,132.7,44.5,132.7c0.1,0,0.2,0,0.3,0c0,0,0,0,0,0c0-0.1,0-0.1,0.1-0.1c0,0,0,0,0,0
		c0,0,0,0,0,0C44.7,132.6,44.6,132.6,44.5,132.7C44.4,132.6,44.4,132.6,44.5,132.7C44.4,132.7,44.5,132.7,44.5,132.7z"/>
	<path class="st0" d="M44.8,132.7c0,0,0,0.1,0.1,0.1C44.9,132.8,44.9,132.8,44.8,132.7C44.9,132.7,44.9,132.7,44.8,132.7z"/>
	<path class="st0" d="M44.8,132.7C44.8,132.7,44.8,132.7,44.8,132.7C44.9,132.7,44.9,132.7,44.8,132.7
		C44.9,132.7,44.9,132.7,44.8,132.7C44.9,132.6,44.9,132.6,44.8,132.7C44.9,132.6,44.9,132.7,44.8,132.7z"/>
	<path class="st0" d="M44.5,132.8C44.5,132.8,44.5,132.7,44.5,132.8C44.5,132.7,44.4,132.7,44.5,132.8
		C44.4,132.8,44.4,132.8,44.5,132.8C44.4,132.9,44.5,132.8,44.5,132.8z"/>
	<path class="st0" d="M44.5,132.7C44.5,132.7,44.4,132.7,44.5,132.7C44.4,132.7,44.4,132.7,44.5,132.7
		C44.4,132.7,44.5,132.7,44.5,132.7z"/>
	<path class="st0" d="M52.4,132.7C52.4,132.8,52.4,132.8,52.4,132.7c0,0.1-0.1,0.1-0.1,0.1c0.2,0,0.3,0,0.5,0c0,0,0-0.1,0-0.1
		C52.7,132.7,52.5,132.7,52.4,132.7z"/>
	<path class="st0" d="M52.4,132.7c0.1,0,0.3,0,0.4,0c0,0,0-0.1,0-0.1C52.6,132.6,52.5,132.6,52.4,132.7
		C52.3,132.6,52.3,132.6,52.4,132.7C52.3,132.6,52.3,132.6,52.4,132.7C52.3,132.7,52.3,132.7,52.4,132.7z"/>
	<path class="st0" d="M52.4,132.8C52.4,132.8,52.4,132.8,52.4,132.8C52.3,132.7,52.3,132.7,52.4,132.8
		C52.3,132.7,52.3,132.7,52.4,132.8C52.3,132.8,52.3,132.8,52.4,132.8C52.3,132.9,52.3,132.8,52.4,132.8z"/>
	<path class="st0" d="M52.3,132.7C52.3,132.7,52.3,132.7,52.3,132.7C52.3,132.7,52.3,132.7,52.3,132.7
		C52.3,132.6,52.3,132.6,52.3,132.7C52.3,132.7,52.3,132.7,52.3,132.7C52.3,132.7,52.3,132.7,52.3,132.7z"/>
	<path class="st0" d="M53.2,132.7c-0.1,0-0.2,0-0.3,0c0,0,0,0,0,0.1c0,0-0.1,0.1-0.1,0.1c0.2,0,0.3,0,0.5,0
		C53.2,132.8,53.2,132.8,53.2,132.7z"/>
	<path class="st0" d="M52.9,132.7c0.1,0,0.2,0,0.3,0c0,0,0,0,0,0c0,0,0.1-0.1,0.1-0.1c0,0,0,0,0,0C53.2,132.6,53,132.6,52.9,132.7
		C52.8,132.6,52.8,132.6,52.9,132.7C52.8,132.6,52.8,132.6,52.9,132.7C52.9,132.7,52.9,132.7,52.9,132.7z"/>
	<path class="st0" d="M53.3,132.7C53.3,132.7,53.3,132.7,53.3,132.7c-0.1,0-0.1,0.1,0,0.1C53.3,132.8,53.3,132.8,53.3,132.7
		C53.3,132.7,53.3,132.7,53.3,132.7z"/>
	<path class="st0" d="M53.2,132.7C53.2,132.7,53.2,132.7,53.2,132.7C53.3,132.7,53.3,132.7,53.2,132.7
		C53.3,132.7,53.3,132.7,53.2,132.7C53.3,132.7,53.3,132.7,53.2,132.7C53.3,132.6,53.3,132.7,53.2,132.7z"/>
	<path class="st0" d="M52.9,132.8C52.9,132.8,52.9,132.8,52.9,132.8C52.9,132.7,52.8,132.7,52.9,132.8
		C52.8,132.7,52.8,132.7,52.9,132.8C52.8,132.8,52.8,132.8,52.9,132.8C52.8,132.9,52.9,132.8,52.9,132.8z"/>
	<path class="st0" d="M52.8,132.7C52.8,132.7,52.9,132.7,52.8,132.7C52.9,132.7,52.9,132.7,52.8,132.7
		C52.8,132.6,52.8,132.6,52.8,132.7C52.8,132.7,52.8,132.7,52.8,132.7C52.8,132.7,52.8,132.7,52.8,132.7z"/>
	<path class="st0" d="M54.2,132.8C54.2,132.8,54.1,132.9,54.2,132.8c0.1,0.1,0.3,0.1,0.4,0.1C54.5,132.7,54.4,132.7,54.2,132.8
		C54.2,132.8,54.2,132.8,54.2,132.8z"/>
	<path class="st0" d="M54.1,132.6C54.1,132.6,54.1,132.6,54.1,132.6L54.1,132.6C54.2,132.7,54.2,132.7,54.1,132.6
		c0.2,0.1,0.4,0.1,0.5,0.2C54.6,132.5,54.3,132.6,54.1,132.6z"/>
	<path class="st0" d="M54.2,132.8C54.2,132.8,54.2,132.8,54.2,132.8C54.2,132.7,54.1,132.7,54.2,132.8
		C54.1,132.8,54.1,132.8,54.2,132.8C54.1,132.9,54.2,132.8,54.2,132.8z"/>
	<path class="st0" d="M54.2,132.7C54.2,132.7,54.2,132.7,54.2,132.7L54.2,132.7C54.1,132.7,54.1,132.7,54.2,132.7
		C54.1,132.7,54.2,132.7,54.2,132.7z"/>
	<path class="st0" d="M139.2,88c0.2-0.3,0.2-0.6,0.2-1c0-0.5-0.3-0.5-0.5-0.1C139.6,87.1,139.2,87.6,139.2,88z"/>
	<path class="st0" d="M139.2,88c0-0.4,0.4-0.9-0.3-1.1C139.3,87.2,138.9,87.7,139.2,88z"/>
	<path class="st0" d="M82.7,78.3c-3.5,0-6.3,2.8-6.3,6.3c0,3.4,2.8,6.3,6.3,6.3c3.5,0,6.3-2.8,6.3-6.3C89,81.1,86.2,78.3,82.7,78.3z
		 M82.7,86.7c-1.1,0-2.1-1-2-2.1c0-1.1,0.9-2.1,2.1-2.1c1.1,0,2.1,0.9,2.1,2C84.8,85.7,83.8,86.7,82.7,86.7z"/>
	<path class="st0" d="M99.5,90.9c-3.4,0-6.2,2.8-6.3,6.3c0,3.5,2.8,6.3,6.3,6.3c3.4,0,6.3-2.8,6.3-6.3
		C105.8,93.7,103,90.9,99.5,90.9z M99.6,99.3c-1.1,0-2.1-0.9-2.1-2c-0.1-1.2,0.9-2.2,2.1-2.2c1.1,0,2.1,0.9,2.1,2.1
		C101.6,98.3,100.7,99.2,99.6,99.3z"/>
	<path class="st0" d="M47.9,120.2c-5.5,0-11.1-0.3-16.6-1.2c-0.9-0.1-2-0.9-2.7-0.3c-0.6,0.6-0.5,1.9-0.9,2.8
		c-0.3,0.8-0.1,1,0.7,1.2c5,1.1,10,1.4,15.1,1.7c0.8,0,1.7,0,2.5,0c3,0,3,0,3-3C49.2,120.4,48.9,120.2,47.9,120.2z"/>
</g>
</svg>
