<?xml version="1.0" encoding="utf-8"?>
<!-- Generator: Adobe Illustrator 26.0.3, SVG Export Plug-In . SVG Version: 6.00 Build 0)  -->
<svg version="1.1" id="Layer_1" xmlns="http://www.w3.org/2000/svg" xmlns:xlink="http://www.w3.org/1999/xlink" x="0px" y="0px"
	 width="157px" height="135.6px" viewBox="0 0 157 135.6" style="enable-background:new 0 0 157 135.6;" xml:space="preserve">
<style type="text/css">
	.st0{fill:#B2B2B2;}
</style>
<g>
	<path class="st0" d="M81,72.1c0,0-0.1-0.1-0.1-0.1c0,0.1,0,0.1-0.1,0.2C80.9,72.1,80.9,72.1,81,72.1z"/>
	<path class="st0" d="M60.1,84.3c0.1-0.1,0.2-0.2,0.3-0.2c-0.1,0-0.2,0-0.3,0c0,0,0,0,0,0.1C60.1,84.2,60.1,84.3,60.1,84.3z"/>
	<path class="st0" d="M43.9,93.9c0,0.1-0.1,0.2-0.1,0.3c0.1,0,0.2-0.1,0.3-0.1c0,0-0.1,0-0.1-0.1C44,94,43.9,93.9,43.9,93.9z"/>
	<path class="st0" d="M115.2,55c0.1,0,0.2,0,0.3,0c-0.2-0.1-0.3-0.2-0.4-0.3c-0.1-0.2-0.1-0.4,0-0.6c-0.1,0.1-0.2,0.1-0.3,0.2
		C115,54.5,115.1,54.8,115.2,55z"/>
	<path class="st0" d="M39.4,91.6C39.3,91.6,39.3,91.6,39.4,91.6C39.3,91.7,39.3,91.7,39.4,91.6C39.4,91.7,39.4,91.6,39.4,91.6z"/>
	<path class="st0" d="M13.1,91.7c1.1,0.9,2.2,1.9,3.4,2.5c1.6,0.8,1.5,1.8,1,3.2c-1.9,5.1-3.5,10.2-3.9,15.7
		c-0.1,1.3-0.1,2.5,0.2,3.8c0.5,2.8,2.3,4.5,4.9,5.5c1.7,0.6,3.5,0.8,5.3,0.9l0,0c0,0,0,0,0,0c0.5,0,1,0,1.5,0v0l0,0
		c9.4-0.5,18.1-3.5,26.8-6.7c7.9-2.9,15.7-6.2,23.2-9.9c3.2-1.6,6.2-2.2,9.8-1.4c10.8,2.2,21.9,2.6,32.9,2.8
		c10.9,0.2,21.8-0.2,32.6-0.9c1.2-0.1,1.9-0.7,2.6-1.5c0-0.6,0-1.2,0-1.8c-0.9-1.3-2.1-1.6-3.7-1.4c-10.1,0.8-20.2,1-30.3,0.9
		c-10.8-0.1-21.7-0.4-32.4-2.5c-4.8-0.9-9-0.7-13.4,1.4c-10.8,5.3-21.9,10-33.4,13.4c-5.5,1.6-11.1,3.1-16.9,2.9
		c-4.5-0.1-5.7-1.7-5.1-6.1c0.8-6,2.8-11.6,5-17.2c0.7-2,1.6-3.9,2.4-5.8c0.5-1.4,0-2.7-1.2-3.2c-1.3-0.5-2.4,0-3.1,1.4
		c-0.2,0.4-0.4,0.8-0.5,1.2c-0.9,2-0.9,2.1-2.7,0.7c-3.3-2.5-6.5-5.1-8.9-8.7c-1.6-2.4-1.5-3.1,0.5-5.1c2.8-2.9,6-5.2,9.3-7.6
		c0.3-0.2,0.6-0.6,1-0.4c0.2,0.8,0.1,1.5-0.1,2.3c-0.5,2.4-1.2,4.8-1,7.4c0.1,1.4,0.7,2.4,1.8,3.2c0.8,0.6,1.8,1,2.8,1.3
		c0.5,0.2,1,0.3,1.2,0.9c1.1,2.4,2.6,4.6,3.4,7.3c1.3,4.3,6,5.6,9.5,2.8c0.6-0.4,1.1-0.9,1.6-1.3c0,0,0,0,0.1,0c0,0,0,0,0,0.1
		c-0.3,2-0.8,3.7-1.2,5.5c-0.5,2.1,1,3.6,3.1,3c0.9-0.3,1.8-0.6,2.6-0.9C51.9,96,59.6,92,65.5,85.5c2.3-2.5,4.2-5.4,5.2-8.7
		c0.5-1.5-0.2-2.8-1.5-3.2c-1.2-0.4-2.4,0.3-3,1.7c-0.4,0.9-0.8,1.8-1.1,2.7c-0.3,0.8-0.9,1.1-1.8,1.1c-2.7,0.2-5.3,0.5-8,0.8
		C53.6,80,52.8,81,53,82.5c0.2,1.3,1.3,2.1,2.9,2c1.3-0.1,2.5-0.2,4.1-0.4c0.1,0,0.2,0,0.3,0c-0.1,0.1-0.2,0.2-0.3,0.2
		c-4.8,4.4-10.1,7.2-16,9.8c-0.1,0-0.2,0.1-0.3,0.1c0-0.1,0.1-0.2,0.1-0.3c0.7-2.7,1.4-5.1,2-7.5c0.2-0.7,0.5-1.2,1-1.7
		c2.2-2,4.1-4.2,5.8-6.6c2.6-3.4,1.7-6.9,0.4-10.4c-0.4-1.1-1.5-1.5-2.7-1.2c-1.2,0.4-1.7,1.2-1.6,2.5c0.1,0.6,0.3,1.2,0.5,1.8
		c0.5,2.1,0.5,4.1-1.3,5.7c-1.2,1.1-2.3,2.4-3.4,3.6c-3,3.1-6.2,6.1-9.6,8.8c-1.4,1.1-2,0.9-2.6-0.8c-0.1-0.3-0.2-0.6-0.3-1
		c-0.8-2.8-2.5-5.2-3.9-7.6c-0.5-0.8-1.3-1.3-2.2-1.7c-2.5-1.1-2.5-1.1-2.1-3.8c0.1-0.6,0.2-1.2,0.4-1.7c0.8-2.5,0.7-5-0.2-7.5
		c-1.5-4.1-3-8.2-4.4-12.4c-0.2-0.6-0.6-1.2-0.4-1.9c1.1,0.5,2.1,0.9,3.2,1.1c4.8,1.1,9.6,0.7,14.4,0.4c8.3-0.5,16.6-1.5,24.6,1.8
		c1.2,0.5,2.4-0.2,2.9-1.3c0.5-1.2,0.1-2.2-1-2.9c-0.4-0.3-1-0.5-1.5-0.7c-3.9-1.5-7.9-1.9-12-2.1c-5.9-0.2-11.8,0.5-17.7,0.8
		C29.1,48,26,48,23,47.1c-3.4-1-4.7-3.5-3.7-6.9c0.6-2.1,1.7-3.8,3-5.5c2.2-2.8,4.6-5.2,6.4-8.4c2.6-4.7,7.6-5.7,12.6-6.2
		c0.5,0,0.8,0.3,1,0.7c2.6,3.3,6,5.4,10.1,6.5c3.9,1,7.8,2.1,11.3,4.2c3,1.8,3.7,3.5,3.2,7c-1-0.4-1.9-0.7-2.9-1
		c-5.8-2-11.8-2.4-17.8-3.2c-5-0.7-10-1.2-14.5-3.6c-1.5-0.8-2.8-0.4-3.4,0.8c-0.7,1.3-0.2,2.5,1.4,3.3c2.7,1.4,5.5,2.4,8.5,2.9
		c6.1,0.9,12.3,1.7,18.4,2.7c3.4,0.5,6.8,1.4,9.8,3.2c2.2,1.3,2.8,2.8,2.3,5.3c-0.5,2.2-1.6,3.9-3.3,5.4c-1.8,1.6-1.6,3.2,0.5,4.4
		c1.4,0.8,2.9,1.5,4.2,2.3c0.9,0.5,1.7,0.6,2.7,0.4c1.8-0.3,3.7-0.5,5.5-0.8c1.6-0.2,2.4-1.2,2.3-2.7c-0.1-1.4-1.2-2.2-2.9-2
		c-1.5,0.2-2.9,0.3-4.3,0.6c-1.2,0.3-2-0.1-2.9-0.8c0.5-0.7,0.9-1.3,1.3-1.9c1.9-3.6,2.7-7.4,0.3-11.1c-0.6-0.9-0.7-1.7-0.6-2.7
		c0.8-7.5-1.2-10.4-6.6-13.3c-0.6-0.3-1.1-0.6-1.7-0.8c-3.1-1.4-6.3-2.4-9.5-3.2c-2.7-0.7-5.1-1.9-7.2-4.1c3.1-1.3,6.2-1.7,9.4-1.2
		c3.5,0.5,5.7,2.2,6.9,5.5c0.6,1.7,1.6,2.4,3,1.9c1.4-0.4,2-1.7,1.4-3.5c-1.3-3.9-3.9-6.7-7.9-8c-3.3-1.1-6.7-1.1-10.1-0.4
		c-4.1,0.9-7.9,2.4-12.1,3c-6.5,0.9-11.5,4.3-14.1,10.7c-0.2,0.4-0.5,0.8-0.9,1.1c-6,5.3-8.6,12-8.1,19.9c0.1,0.8,0.1,1.6,0.2,2.3
		c0.6,3.6,2.1,6.9,3.3,10.3c0.9,2.7,1,2.7-1.3,4.3c-1,0.7-1.9,1.3-2.8,2.1c-3.8,3-7.7,5.8-9.8,10.4c0,0.8,0,1.6,0,2.3
		C5.1,84.7,9,88.3,13.1,91.7z"/>
	<path class="st0" d="M110.7,52.2c-1.5,1.5-2.4,3-2.7,5.1c-0.2,1.6-0.1,3.4-1.3,4.7c-2.1,2.4-4.4,4.6-6.8,6.6
		c-0.2,0.2-0.4,0.6-0.8,0.3c-0.1-0.3,0.1-0.4,0.2-0.6c1.6-2,3.1-4,4.6-6.1c0.9-1.2,0.8-2.5-0.2-3.3c-1-0.9-2.1-0.8-3.2,0
		c-0.4,0.3-0.7,0.6-1.1,0.9c-2.6,2.2-5.2,4.5-8,6.5c-3.2,2.3-6.6,4.1-10.5,5.6c-0.1,0-0.1,0-0.2,0.1c0-0.1,0-0.1,0.1-0.2
		c0.8-2.6,1.9-4.8,3.4-6.7c3.9-4.9,9-8.3,14.7-10.8c1-0.4,1.8-1,2.5-1.9c8.3-11.5,16.6-23,24.9-34.5c0.3-0.4,0.6-0.8,0.8-1.2
		c0.5-1.1,0.3-2.1-0.7-2.9c-1-0.8-2-0.7-2.9,0.1c-0.4,0.4-0.8,0.9-1.1,1.4c-8.1,11.2-16.2,22.4-24.2,33.6c-0.5,0.7-1,1.1-1.7,1.5
		c-3.9,1.6-7.4,3.8-10.6,6.4c-4.5,3.7-7.9,8.2-9.6,13.8c-0.5,1.8-0.5,3.6,1,5c1.5,1.4,3.3,1.2,5.1,0.7c0.3-0.1,0.6-0.2,0.8-0.3
		c3.9-1.4,7.5-3.4,10.9-5.9c1.9,4.2,5.4,5,8.8,1.9c1.8-1.7,3.6-3.4,5.5-5.1c2.1-1.9,3.8-4,3.9-6.9c0-0.7,0.5-0.9,1.2-0.9
		c1.8,0.1,3.5,0.1,5.3,0.1c3.6,0.1,7.2,0.2,10.8,0.2c1.5,0,2.5-1,2.5-2.3c0-1.3-1-2.3-2.5-2.4c-0.5,0-1,0-1.5,0c-4.2,0-8.4,0-12.6,0
		c-0.1,0-0.2,0-0.3,0c-0.1-0.2-0.2-0.5-0.3-0.7c0.1-0.1,0.2-0.1,0.3-0.2c0.3-0.2,0.6-0.3,0.8-0.5c6-6.1,12-12.1,18.1-18.2
		c6.5-6.5,13-13.1,19.5-19.7c0-0.7,0-1.4,0-2.1c-0.5-0.9-1.5-1.1-2.3-1.5c-0.1,0-0.2,0-0.3,0c-0.9,0.6-1.7,1.3-2.5,2.1
		C135.8,27,123.3,39.6,110.7,52.2z"/>
	<path class="st0" d="M148.9,45.5c-6,5.5-12,11.1-17.9,16.7c-0.7,0.7-1.4,1-2.4,0.8c-3.7-0.6-7.5-1.1-10.9,0.8
		c-5,2.7-9.6,6-13.5,10.1c-2.5,2.7-2.4,5,0,7.8c1.2,1.4,2.7,2.2,4.5,2.6c3.2,0.6,6.4,0.3,9.6,0.2c6.2-0.2,11.9-2.1,16.8-5.9
		c1.5-1.2,3.1-2.2,4.7-3.1c3.8-2.2,7.6-4.4,11.4-6.6c0.9-0.5,1.7-1.1,2.4-1.8c0-0.6,0-1.2,0-1.8c-1.4-1.8-2.2-1.9-4.3-0.7
		c-4.5,2.6-9.1,5.3-13.6,7.9c-1,0.6-1.9,1.2-2.7,1.9c-3.7,3.2-8.1,4.5-12.8,5.2c-2.8,0.4-5.6,0.4-8.5,0.3c-0.9,0-1.8-0.1-2.6-0.3
		c-1.8-0.5-2.1-1.8-0.8-3c3.3-3.3,7.2-5.9,11.1-8.3c2-1.2,4.2-1.2,6.4-0.9c0.8,0.1,1.6,0.1,2.3,0.3c2.6,0.8,4.5-0.3,6.3-2.1
		c5.8-5.6,11.8-11,17.6-16.5c0.6-0.5,1-1.1,1.6-1.7c0-0.6,0-1.2,0-1.8C151.8,43.8,150.8,43.8,148.9,45.5z"/>
</g>
</svg>
