<?xml version="1.0" standalone="no"?>
<!DOCTYPE svg PUBLIC "-//W3C//DTD SVG 1.1//EN" "http://www.w3.org/Graphics/SVG/1.1/DTD/svg11.dtd" >
<svg xmlns="http://www.w3.org/2000/svg" xmlns:xlink="http://www.w3.org/1999/xlink" version="1.1">
<metadata>
Created by FontForge 20170731 at Mon Dec 14 01:57:50 1998
 By Aleksey,,,
Copyright 1990-1998 Bitstream Inc.  All rights reserved.
</metadata>
<defs>
<font id="CheltenhamITCbyBT-Bold" horiz-adv-x="1024" >
  <font-face 
    font-family="ChelthmITC Bk BT"
    font-weight="700"
    font-stretch="normal"
    units-per-em="2048"
    panose-1="2 4 8 3 6 5 5 2 4 4"
    ascent="1556"
    descent="-492"
    x-height="1006"
    cap-height="1446"
    bbox="-342 -483 2437 1972"
    underline-thickness="172"
    underline-position="-469"
    unicode-range="U+0020-F002"
  />
<missing-glyph horiz-adv-x="1229" 
d="M102 -362v1806h1024v-1806h-1024zM217 -248h795v1577h-795v-1577z" />
    <glyph glyph-name=".notdef" horiz-adv-x="1229" 
d="M102 -362v1806h1024v-1806h-1024zM217 -248h795v1577h-795v-1577z" />
    <glyph glyph-name=".null" horiz-adv-x="0" 
 />
    <glyph glyph-name="nonmarkingreturn" horiz-adv-x="573" 
 />
    <glyph glyph-name="space" unicode=" " horiz-adv-x="573" 
 />
    <glyph glyph-name="exclam" unicode="!" horiz-adv-x="682" 
d="M342 328q73 0 124.5 -51.5t51.5 -124.5q0 -71 -53 -124t-125 -53q-73 0 -123.5 51t-50.5 126q0 73 51.5 124.5t124.5 51.5zM403 403h-124q-24 229 -72.5 504t-48.5 328q0 110 49 172.5t135 62.5q85 0 133.5 -62t48.5 -173q0 -53 -48.5 -328t-72.5 -504z" />
    <glyph glyph-name="quotedbl" unicode="&#x22;" horiz-adv-x="717" 
d="M553 846h-45l-84 463q-3 15 -3.5 22.5t-0.5 14.5q0 54 29.5 86t80.5 32t81 -31.5t30 -84.5q0 -16 -0.5 -24.5t-1.5 -15.5zM207 846h-43l-86 462q-3 16 -3.5 23.5t-0.5 14.5q0 54 29.5 86t80.5 32q52 0 82.5 -31.5t30.5 -84.5q0 -8 -1 -17t-3 -22z" />
    <glyph glyph-name="numbersign" unicode="#" horiz-adv-x="1575" 
d="M705 844l-84 -236h253l84 236h-253zM684 1466h248l-139 -393h241l140 393h247l-139 -393h270l-86 -229h-266l-82 -234h277l-84 -229h-275l-141 -393h-248l141 393h-241l-141 -393h-248l141 393h-276l86 229h272l82 234h-285l86 229h281z" />
    <glyph glyph-name="dollar" unicode="$" horiz-adv-x="1147" 
d="M508 1327q-62 -12 -95.5 -54t-33.5 -108q0 -63 32.5 -104t96.5 -60v326zM633 571v-421q93 16 141.5 70.5t48.5 141.5q0 77 -48 130t-142 79zM633 -184h-125v184q-185 12 -300.5 115.5t-115.5 253.5q0 86 43.5 133t124.5 47q63 0 103 -41.5t40 -106.5q0 -56 -43 -111.5
t-43 -66.5q0 -39 51.5 -65.5t139.5 -30.5v498q-172 45 -268.5 156t-96.5 263q0 162 99.5 274t265.5 136v139h125v-133h6q160 0 263.5 -82t103.5 -204q0 -70 -44 -111t-118 -41q-61 0 -95 34t-34 95q0 37 20.5 81.5t20.5 51.5q0 33 -29 50.5t-84 17.5h-10v-412
q221 -62 321.5 -174t100.5 -295q0 -174 -109.5 -292.5t-312.5 -166.5v-196z" />
    <glyph glyph-name="percent" unicode="%" horiz-adv-x="1716" 
d="M1323 90q53 0 74.5 72t21.5 266q0 190 -21.5 263t-74.5 73q-54 0 -77 -75.5t-23 -260.5q0 -190 22.5 -264t77.5 -74zM1659 428q0 -222 -85.5 -337.5t-250.5 -115.5q-167 0 -253.5 115.5t-86.5 337.5q0 220 87 335.5t253 115.5q165 0 250.5 -114.5t85.5 -336.5zM373 -25
l825 1495h141l-823 -1495h-143zM395 682q54 0 76.5 72.5t22.5 263.5q0 187 -23 262.5t-76 75.5t-75.5 -75t-22.5 -263q0 -192 22 -264t76 -72zM733 1018q0 -221 -86 -336t-252 -115t-252 114.5t-86 336.5q0 221 86.5 336.5t251.5 115.5q166 0 252 -115.5t86 -336.5z" />
    <glyph glyph-name="ampersand" unicode="&#x26;" horiz-adv-x="1630" 
d="M768 903q116 44 172.5 108t56.5 152q0 82 -48 135.5t-120 53.5q-81 0 -134.5 -53t-53.5 -132q0 -54 32.5 -122t94.5 -142zM907 186q-98 101 -190 217t-195 269q-85 -52 -117 -100t-32 -117q0 -139 101 -237.5t243 -98.5q50 0 96.5 16t93.5 51zM1503 762v-53
q0 -27 -13 -42.5t-40 -21.5q-25 -6 -40.5 -17.5t-39.5 -50.5q-5 -8 -23 -42q-64 -123 -130 -224q86 -100 134 -135t91 -35q29 0 59.5 13.5t63.5 40.5l69 -80q-69 -73 -144.5 -106.5t-168.5 -33.5q-87 0 -164 30.5t-151 92.5q-87 -62 -191 -92.5t-227 -30.5
q-256 0 -410.5 115.5t-154.5 298.5q0 137 103 235t323 167q-60 98 -87.5 175.5t-27.5 147.5q0 151 123.5 253.5t314.5 102.5q186 0 294 -84t108 -227q0 -104 -72.5 -185.5t-259.5 -180.5q66 -98 138.5 -191.5t152.5 -183.5q34 44 50.5 84.5t16.5 81.5q0 24 -11 38.5
t-38 24.5q-7 3 -18 7q-43 15 -43 57v51h413z" />
    <glyph glyph-name="quotesingle" unicode="'" horiz-adv-x="371" 
d="M207 846h-43l-86 462q-3 16 -3.5 23.5t-0.5 14.5q0 53 31 85.5t81 32.5q51 0 81 -31.5t30 -84.5q0 -8 -1 -17t-3 -22z" />
    <glyph glyph-name="parenleft" unicode="(" horiz-adv-x="872" 
d="M831 1493q-227 -37 -318 -215t-91 -635q0 -458 91 -636.5t318 -215.5v-90q-327 37 -519.5 291t-192.5 651q0 396 192 649.5t520 290.5v-90z" />
    <glyph glyph-name="parenright" unicode=")" horiz-adv-x="872" 
d="M41 -299v90q226 37 317 215t91 637t-91 636t-317 214v90q327 -35 520 -288.5t193 -651.5q0 -396 -193 -651.5t-520 -290.5z" />
    <glyph glyph-name="asterisk" unicode="*" 
d="M526 1065q75 44 144 145t131 101q41 0 73.5 -37t32.5 -82q0 -51 -30.5 -74.5t-121.5 -30.5q-76 -6 -122 -18t-88 -33q41 -23 90 -35t123 -16q84 -6 116.5 -31t32.5 -77q0 -47 -34 -83t-78 -36q-56 0 -125 102.5t-139 146.5q2 -86 48 -181t46 -121q0 -44 -31.5 -73.5
t-81.5 -29.5q-49 0 -80 28t-31 72q0 27 46.5 123.5t51.5 179.5q-77 -46 -144 -146.5t-126 -100.5q-45 0 -77.5 37t-32.5 84q0 43 31 70.5t83 31.5q10 1 28 2q140 10 218 51q-87 46 -228 52q-17 1 -25 1q-49 4 -78 32t-29 71q0 48 32.5 84.5t73.5 36.5q61 0 128 -99t143 -149
q-5 90 -50 183t-45 122q0 46 30.5 74t80.5 28t80.5 -28.5t30.5 -75.5q0 -22 -44.5 -117.5t-52.5 -183.5z" />
    <glyph glyph-name="plus" unicode="+" horiz-adv-x="1706" 
d="M735 1221h238v-494h479v-231h-479v-496h-238v496h-481v231h481v494z" />
    <glyph glyph-name="comma" unicode="," horiz-adv-x="573" 
d="M119 -293q107 97 146 157t46 123l-22 1q-93 0 -144 47.5t-51 134.5q0 85 51.5 134.5t139.5 49.5q86 0 137 -64.5t51 -174.5q0 -126 -65 -238.5t-218 -247.5z" />
    <glyph glyph-name="hyphen" unicode="-" horiz-adv-x="682" 
d="M90 612h504v-219h-504v219z" />
    <glyph glyph-name="period" unicode="." horiz-adv-x="573" 
d="M287 354q79 0 133.5 -54.5t54.5 -133.5q0 -78 -55.5 -134.5t-132.5 -56.5q-79 0 -135 56.5t-56 134.5t56 133t135 55z" />
    <glyph glyph-name="slash" unicode="/" horiz-adv-x="569" 
d="M-45 -190l479 1660h135l-481 -1660h-133z" />
    <glyph glyph-name="zero" unicode="0" horiz-adv-x="1147" 
d="M575 92q80 0 112 132t32 499q0 363 -32.5 497t-111.5 134q-81 0 -114 -134.5t-33 -496.5t33 -496.5t114 -134.5zM1081 723q0 -348 -136 -548t-372 -200t-371.5 199t-135.5 549q0 349 135.5 548t371.5 199q237 0 372.5 -199t135.5 -548z" />
    <glyph glyph-name="one" unicode="1" horiz-adv-x="1147" 
d="M270 0v47q0 39 62 68l20 10q36 18 49 41.5t13 73.5v45v977h-185v90l295 118h236v-1218q0 -62 10.5 -83.5t40.5 -43.5q8 -5 27 -14q53 -25 53 -64v-47h-621z" />
    <glyph glyph-name="two" unicode="2" horiz-adv-x="1147" 
d="M999 0h-936v176q57 66 160 185q422 485 422 708q0 127 -59 204t-154 77q-45 0 -80 -22t-35 -46q0 -10 46.5 -62t46.5 -116q0 -70 -45 -114t-117 -44q-79 0 -126.5 50t-47.5 132q0 148 128.5 244t332.5 96q217 0 351 -112t134 -291q0 -101 -47 -185.5t-144 -156.5
q-29 -22 -95 -68q-269 -187 -404 -354h426q54 0 79.5 12.5t47.5 44.5l12 21q33 53 63 53h64z" />
    <glyph glyph-name="three" unicode="3" horiz-adv-x="1147" 
d="M326 829q174 2 264 75.5t90 213.5q0 108 -59.5 172t-159.5 64q-44 0 -75.5 -17.5t-31.5 -38.5q0 -9 38 -57.5t38 -99.5q0 -70 -48 -113t-128 -43q-78 0 -123 45.5t-45 124.5q0 134 129 224.5t326 90.5q232 0 363.5 -98t131.5 -270q0 -132 -98 -216t-281 -108
q205 -23 305.5 -112t100.5 -248q0 -207 -156 -325t-428 -118q-210 0 -325 74t-115 209q0 87 53.5 137.5t143.5 50.5q72 0 119.5 -42.5t47.5 -108.5q0 -64 -43 -105t-43 -53q0 -17 35 -30t86 -13q126 0 189 75.5t63 225.5q0 172 -83.5 251t-266.5 79h-14v104z" />
    <glyph glyph-name="four" unicode="4" horiz-adv-x="1147" 
d="M201 545h387v567zM27 408v137l645 925h248v-925h192v-137h-192v-142q0 -71 10 -94t43 -45q9 -6 27 -16q51 -25 51 -64v-47h-617v47q0 38 63 68q13 6 21 10q35 17 47.5 40.5t12.5 74.5v45v123h-551z" />
    <glyph glyph-name="five" unicode="5" horiz-adv-x="1147" 
d="M133 719l39 727h522q79 0 114.5 15t70.5 50h84l-21 -372h-643l-16 -275q69 46 135 67t139 21q224 0 365 -132t141 -345q0 -221 -164.5 -360.5t-425.5 -139.5q-182 0 -298 80.5t-116 204.5q0 82 49 129t134 47q77 0 123.5 -42.5t46.5 -112.5q0 -52 -34 -100t-34 -54
q0 -18 28 -33.5t66 -15.5q121 0 188.5 92.5t67.5 257.5q0 172 -69.5 272.5t-188.5 100.5q-54 0 -99 -29t-97 -100z" />
    <glyph glyph-name="six" unicode="6" horiz-adv-x="1147" 
d="M442 459q0 -193 35 -276t115 -83q73 0 107 73.5t34 234.5q0 194 -37.5 283t-117.5 89q-40 0 -73 -24t-63 -74v-223zM451 850q53 33 107.5 48t121.5 15q177 0 289 -126.5t112 -325.5q0 -222 -127.5 -354t-343.5 -132q-250 0 -393 184t-143 509q0 355 176 577.5t450 222.5
q159 0 251.5 -68.5t92.5 -185.5q0 -74 -46 -119.5t-121 -45.5q-72 0 -112 41t-40 114q0 38 17.5 77.5t17.5 43.5q0 15 -21.5 28t-48.5 13q-98 0 -166 -142t-73 -374z" />
    <glyph glyph-name="seven" unicode="7" horiz-adv-x="1147" 
d="M123 1487q42 -22 84.5 -31.5t107.5 -9.5h17h788v-156q-197 -211 -308.5 -433.5t-111.5 -399.5q0 -56 20.5 -154t20.5 -141q0 -86 -53.5 -136.5t-144.5 -50.5q-99 0 -149 57t-50 169q0 247 493 941l1 1h-369q-65 0 -111 -14t-73 -42q-14 -14 -28 -42q-27 -50 -79 -50h-63z
" />
    <glyph glyph-name="eight" unicode="8" horiz-adv-x="1147" 
d="M664 889q67 39 100 99t33 142q0 111 -55 174.5t-150 63.5q-87 0 -141 -52.5t-54 -137.5q0 -98 63 -166.5t204 -122.5zM434 616q-57 -57 -82.5 -117t-25.5 -137q0 -124 63 -199t168 -75q93 0 151 57.5t58 149.5q0 95 -69 164t-263 157zM784 815q146 -66 215.5 -159.5
t69.5 -223.5q0 -205 -146 -331t-384 -126q-211 0 -341 107.5t-130 275.5q0 102 56.5 179.5t192.5 158.5q-104 73 -153 158t-49 193q0 183 132.5 303t340.5 120q212 0 331 -90t119 -250q0 -100 -55.5 -170t-198.5 -145z" />
    <glyph glyph-name="nine" unicode="9" horiz-adv-x="1147" 
d="M707 989q0 191 -36 275t-116 84q-73 0 -107 -74.5t-34 -233.5q0 -194 37.5 -284t117.5 -90q40 0 74 24t64 74v225zM698 598q-54 -34 -109.5 -50t-121.5 -16q-177 0 -289 127.5t-112 327.5q0 222 127 352.5t344 130.5q251 0 394.5 -184t143.5 -508q0 -355 -176 -578
t-450 -223q-159 0 -253 69t-94 185q0 75 46.5 120.5t121.5 45.5q72 0 112 -40.5t40 -112.5q0 -38 -17.5 -79t-17.5 -44q0 -15 21 -28t49 -13q98 0 167 143.5t74 374.5z" />
    <glyph glyph-name="colon" unicode=":" horiz-adv-x="682" 
d="M342 354q79 0 133.5 -54.5t54.5 -133.5q0 -78 -56 -134.5t-134 -56.5t-133 56t-55 135q0 78 55.5 133t134.5 55zM342 1028q79 0 133.5 -55.5t54.5 -134.5q0 -77 -56 -133t-134 -56t-133 55t-55 134q0 78 56 134t134 56z" />
    <glyph glyph-name="semicolon" unicode=";" horiz-adv-x="682" 
d="M342 1028q79 0 133.5 -55.5t54.5 -134.5q0 -77 -56 -133t-134 -56t-133 55t-55 134q0 78 56 134t134 56zM174 -293q107 97 146.5 156.5t48.5 124.5h-25q-92 0 -142 47.5t-50 134.5q0 85 50.5 134.5t137.5 49.5q86 0 138 -65t52 -174q0 -125 -65 -237.5t-219 -248.5z" />
    <glyph glyph-name="less" unicode="&#x3c;" horiz-adv-x="1706" 
d="M1442 1214v-253l-854 -351l854 -348v-254l-1178 486v233z" />
    <glyph glyph-name="equal" unicode="=" horiz-adv-x="1706" 
d="M254 502h1198v-230h-1198v230zM254 950h1198v-231h-1198v231z" />
    <glyph glyph-name="greater" unicode="&#x3e;" horiz-adv-x="1706" 
d="M264 1214l1178 -487v-233l-1178 -486v254l854 348l-854 351v253z" />
    <glyph glyph-name="question" unicode="?" horiz-adv-x="901" 
d="M395 328q73 0 123.5 -51.5t50.5 -124.5t-52 -125t-124 -52q-74 0 -125 51.5t-51 125.5q0 72 52.5 124t125.5 52zM328 422v72q0 76 13 132t56 128q11 18 34 55q104 163 104 319q0 106 -49 168t-132 62q-30 0 -48.5 -13t-18.5 -34q0 -5 33.5 -46.5t33.5 -93.5
q0 -69 -44.5 -112t-116.5 -43q-74 0 -118 45t-44 121q0 129 112.5 208.5t300.5 79.5q195 0 310.5 -93.5t115.5 -248.5q0 -107 -49.5 -186.5t-179.5 -169.5q-10 -7 -29 -20q-170 -118 -170 -301v-29h-114z" />
    <glyph glyph-name="at" unicode="@" horiz-adv-x="2019" 
d="M1171 313q-60 -95 -130 -143.5t-148 -48.5q-156 0 -241 90t-85 256q0 116 50.5 223.5t146.5 196.5q68 62 150 95.5t167 33.5q96 0 150 -44t67 -132l48 157h208l-174 -624q-8 -34 -11 -53t-3 -35q0 -45 19 -72t51 -27q30 0 84.5 27.5t101.5 69.5q97 87 148 211.5t51 273.5
q0 121 -34 219.5t-101 171.5q-99 109 -235.5 166t-299.5 57q-139 0 -265 -39.5t-233 -117.5q-166 -120 -255 -303t-89 -404q0 -336 205 -531.5t557 -195.5q163 0 315 49.5t316 157.5l41 -57q-151 -113 -321 -170.5t-351 -57.5q-432 0 -687 224.5t-255 601.5q0 202 87.5 381
t252.5 313q137 112 302.5 169.5t350.5 57.5q349 0 559.5 -189.5t210.5 -504.5q0 -164 -59 -302t-172 -239q-59 -52 -128 -80t-140 -28q-98 0 -156.5 52.5t-65.5 143.5zM1128 942q-60 0 -110 -44t-98 -140q-57 -112 -88 -218.5t-31 -187.5q0 -71 32.5 -113t86.5 -42
q59 0 115 60.5t108 180.5q42 99 67 198.5t25 166.5t-27.5 103t-79.5 36z" />
    <glyph glyph-name="A" unicode="A" horiz-adv-x="1241" 
d="M748 403h-463l-53 -146q-10 -28 -15.5 -50t-5.5 -31q0 -27 53 -53.5t53 -75.5v-47h-397v47q0 50 66 81l2 1q38 21 62 53.5t50 102.5l355 925l-39 97q-2 4 -3 8t-1 10q0 9 9 18.5t28 20.5l182 102q1 1 4 3q20 12 35 12q10 0 17.5 -8t17.5 -32l458 -1197q28 -71 46 -92
t48 -31l10 -4q52 -20 52 -70v-47h-594v47q0 43 47 68t47 57q0 12 -2 24t-8 29zM518 1034l-184 -493h364z" />
    <glyph glyph-name="B" unicode="B" horiz-adv-x="1346" 
d="M78 0v47q0 38 43 65q14 9 22 15q24 18 32.5 40t8.5 71v47v923q0 50 -9 72t-32 39q-8 6 -21 14q-44 28 -44 66v47h692q213 0 332 -90.5t119 -249.5q0 -138 -87.5 -224t-248.5 -106q203 -10 311.5 -107.5t108.5 -269.5q0 -190 -140 -294.5t-395 -104.5h-692zM518 688v-548
q26 -2 54 -2.5t83 -0.5q151 0 227 65.5t76 194.5q0 146 -82.5 222.5t-240.5 76.5q-12 0 -52.5 -3t-64.5 -5zM518 1313v-496q10 0 26.5 -1t24.5 -1q161 0 235.5 61t74.5 191q0 116 -68 183t-186 67q-38 0 -61.5 -1t-45.5 -3z" />
    <glyph glyph-name="C" unicode="C" horiz-adv-x="1337" 
d="M1286 258q-77 -140 -204 -211.5t-300 -71.5q-313 0 -514.5 219t-201.5 562q0 306 184 511.5t461 205.5q127 0 248.5 -54.5t136.5 -54.5q18 0 29.5 9t23.5 34h92v-399h-49q-34 0 -53.5 13t-36.5 46l-10 19q-136 260 -293 260q-169 0 -268 -153t-99 -415q0 -305 117.5 -477
t322.5 -172q95 0 168.5 46t155.5 157z" />
    <glyph glyph-name="D" unicode="D" horiz-adv-x="1507" 
d="M68 0v47q0 39 43 66q13 9 20 14q23 18 32 40t9 71v47v923q0 50 -9 72t-32 39q-7 5 -21 14q-42 27 -42 66v47h561q229 0 353 -36t222 -120q110 -94 170 -241.5t60 -325.5t-60 -325.5t-170 -241.5q-97 -84 -222 -120t-353 -36h-561zM625 1325h-119v-1204h119q234 0 335 139
t101 463q0 325 -100.5 463.5t-335.5 138.5z" />
    <glyph glyph-name="E" unicode="E" horiz-adv-x="1247" 
d="M78 0v47q0 38 43 65q14 9 22 15q24 18 32.5 40t8.5 71v47v923q0 50 -9 72t-32 39q-8 6 -21 14q-44 28 -44 66v47h837q81 0 126 7.5t89 25.5v-381h-59q-58 0 -95 91q-18 45 -32 66q-24 37 -60.5 52.5t-115.5 15.5h-27h-215v-512h92q65 0 90 7.5t40 25.5q10 13 24 46
q28 64 64 64h55v-407h-55q-36 0 -64 65q-14 34 -24 47q-15 19 -40 26t-90 7h-92v-563h295q118 0 160 22.5t66 75.5q9 23 22 66q26 94 82 94h57v-387h-1130z" />
    <glyph glyph-name="F" unicode="F" horiz-adv-x="1128" 
d="M526 285v-23q0 -75 10.5 -98t40.5 -45q5 -3 12 -7q44 -27 44 -65v-47h-555v47q0 38 43 65q14 9 22 15q24 18 32.5 40t8.5 71v47v923q0 50 -9 72t-32 39q-8 6 -21 14q-44 28 -44 66v47h837q81 0 126 7.5t89 25.5v-381h-59q-58 0 -95 91q-18 45 -32 66q-24 37 -60.5 52.5
t-115.5 15.5h-27h-215v-512h92q65 0 90 7.5t40 25.5q10 13 24 46q28 64 64 64h55v-407h-55q-36 0 -64 65q-14 34 -24 47q-15 19 -40 26t-90 7h-92v-407z" />
    <glyph glyph-name="G" unicode="G" horiz-adv-x="1464" 
d="M1364 694q-18 -26 -26.5 -55.5t-8.5 -67.5v-276q0 -32 12 -54t33 -30q3 -9 4.5 -17.5t1.5 -17.5q0 -86 -156.5 -143.5t-400.5 -57.5q-353 0 -555 201.5t-202 550.5q0 327 182 536.5t463 209.5q127 0 248.5 -54.5t136.5 -54.5q18 0 29.5 9t23.5 34h92v-399h-49
q-34 0 -53.5 13t-36.5 46l-10 19q-136 260 -293 260q-178 0 -275.5 -165t-97.5 -468q0 -294 97 -454.5t274 -160.5q99 0 146.5 45t47.5 138v159q0 59 -8 86t-27 39q-8 4 -24 11q-68 28 -68 69v49h500z" />
    <glyph glyph-name="H" unicode="H" horiz-adv-x="1602" 
d="M184 1161v47q0 50 -9 72t-32 39q-8 6 -21 14q-44 28 -44 66v47h555v-47q0 -39 -43 -66q-14 -9 -21 -14q-24 -17 -33.5 -40t-9.5 -83v-35v-327h549v374q0 50 -9 72t-32 39q-7 5 -21 14q-42 27 -42 66v47h553v-47q0 -39 -43 -66q-14 -9 -21 -14q-24 -17 -33.5 -40t-9.5 -83
v-35v-899q0 -75 11 -98t42 -45q5 -3 11 -7q43 -27 43 -65v-47h-553v47q0 37 39 63q17 11 24 17q23 17 32 39t9 72v47v403h-549v-426q0 -75 11 -98t42 -45q5 -3 11 -7q43 -27 43 -65v-47h-555v47q0 38 43 65q14 9 22 15q24 18 32.5 40t8.5 71v47v876z" />
    <glyph glyph-name="I" unicode="I" horiz-adv-x="711" 
d="M78 0v47q0 38 43 65q14 9 22 15q24 18 32.5 40t8.5 71v47v923q0 50 -9 72t-32 39q-8 6 -21 14q-44 28 -44 66v47h555v-47q0 -39 -43 -66q-14 -9 -21 -14q-24 -17 -33.5 -40t-9.5 -83v-35v-899q0 -75 11 -98t42 -45q5 -3 11 -7q43 -27 43 -65v-47h-555z" />
    <glyph glyph-name="J" unicode="J" horiz-adv-x="1014" 
d="M406 1446h552v-47q0 -39 -42 -66q-14 -9 -21 -14q-24 -17 -33.5 -40t-9.5 -83v-35v-661q0 -170 -16 -248t-54 -129q-51 -69 -156 -108.5t-237 -39.5q-217 0 -332.5 78.5t-115.5 225.5q0 97 50.5 153.5t135.5 56.5q80 0 126 -51.5t46 -140.5q0 -46 -27.5 -92t-27.5 -49
q0 -28 29.5 -49t72.5 -21q94 0 130 56t36 218v836q0 60 -9.5 83t-33.5 40q-7 5 -21 14q-42 27 -42 66v47z" />
    <glyph glyph-name="K" unicode="K" horiz-adv-x="1327" 
d="M78 0v47q0 38 43 65q14 9 22 15q24 18 32.5 40t8.5 71v47v923q0 50 -9 72t-32 39q-8 6 -21 14q-44 28 -44 66v47h549v-47q0 -39 -43 -66q-14 -9 -21 -14q-23 -17 -32 -39t-9 -72v-47v-311l363 383q20 20 34.5 46t14.5 36q0 13 -46 30t-46 54v47h458v-47q0 -37 -82 -70
t-151 -106l-291 -305l424 -664l16 -24q50 -80 136 -121q15 -8 22.5 -23.5t7.5 -38.5v-47h-606v47q0 42 43 61t43 54q0 11 -6 26t-18 35l-316 506v-467v-16q0 -62 10.5 -84t40.5 -43q5 -3 11 -7q43 -27 43 -65v-47h-549z" />
    <glyph glyph-name="L" unicode="L" horiz-adv-x="1186" 
d="M1186 0h-1108v47q0 38 43 65q14 9 22 15q24 18 32.5 40t8.5 71v47v923q0 50 -9 72t-32 39q-8 6 -21 14q-44 28 -44 66v47h555v-47q0 -39 -43 -66q-14 -9 -21 -14q-24 -17 -33.5 -40t-9.5 -83v-35v-1034h273q117 0 158.5 22.5t64.5 75.5q10 22 23 66q29 96 81 96h60v-387z
" />
    <glyph glyph-name="M" unicode="M" horiz-adv-x="1698" 
d="M1071 0v47q0 37 41 63q16 10 25 17q23 17 32 39t9 72v47v884l-367 -1169h-121l-373 1151v-889q0 -75 11 -98t42 -45q5 -3 11 -7q43 -27 43 -65v-47h-346v47q0 38 43 65q14 9 22 15q24 18 32.5 40t8.5 71v47v923q0 50 -9 72t-32 39q-8 6 -21 14q-44 28 -44 66v47h483
l293 -911l289 911h475v-47q0 -39 -43 -66q-14 -9 -21 -14q-24 -17 -33.5 -40t-9.5 -83v-35v-899q0 -75 11 -98t42 -45q5 -3 11 -7q43 -27 43 -65v-47h-547z" />
    <glyph glyph-name="N" unicode="N" horiz-adv-x="1395" 
d="M1315 1446v-47q0 -39 -43 -66q-14 -9 -21 -14q-24 -17 -33.5 -40t-9.5 -83v-35v-1161h-133l-758 1194v-932q0 -75 11 -98t42 -45q5 -3 11 -7q43 -27 43 -65v-47h-346v47q0 38 43 65q14 9 22 15q24 18 32.5 40t8.5 71v47v923q0 50 -9 72t-32 39q-8 6 -21 14q-44 28 -44 66
v47h461l536 -840v602q0 50 -9 72t-32 39q-7 5 -21 14q-42 27 -42 66v47h344z" />
    <glyph glyph-name="O" unicode="O" horiz-adv-x="1626" 
d="M813 1360q-178 0 -276.5 -166.5t-98.5 -470.5t98.5 -470.5t276.5 -166.5t275.5 165.5t97.5 471.5q0 305 -98 471t-275 166zM66 723q0 330 209 538.5t538 208.5q330 0 538 -208t208 -539t-208 -539.5t-538 -208.5q-329 0 -538 209t-209 539z" />
    <glyph glyph-name="P" unicode="P" horiz-adv-x="1229" 
d="M526 285v-23q0 -75 11 -98t42 -45q5 -3 11 -7q43 -27 43 -65v-47h-555v47q0 38 43 65q14 9 22 15q24 18 32.5 40t8.5 71v47v923q0 50 -9 72t-32 39q-8 6 -21 14q-44 28 -44 66v47h655q228 0 344.5 -101t116.5 -298q0 -196 -125.5 -301t-359.5 -105q-8 0 -69.5 1.5
t-113.5 2.5v-360zM526 1313v-547q8 0 20.5 -1t18.5 -1q143 0 210 67t67 211q0 129 -60.5 202t-167.5 73q-33 0 -52 -1t-36 -3z" />
    <glyph glyph-name="Q" unicode="Q" horiz-adv-x="1626" 
d="M867 -29q113 -2 251 -82q24 -14 35 -20q64 -37 106.5 -51.5t81.5 -14.5q32 0 61 10t62 31l47 -86q-60 -75 -134 -111t-167 -36q-79 0 -157.5 27t-145.5 77q-35 27 -114.5 112t-139.5 124q-17 11 -143.5 70t-208.5 139q-121 118 -178 255t-57 308q0 330 209 538.5
t538 208.5q330 0 538 -208t208 -539q0 -313 -184 -513.5t-508 -238.5zM813 1360q-178 0 -276.5 -166.5t-98.5 -470.5t98.5 -470.5t276.5 -166.5t275.5 165.5t97.5 471.5q0 305 -98 471t-275 166z" />
    <glyph glyph-name="R" unicode="R" horiz-adv-x="1348" 
d="M526 285v-23q0 -75 11 -98t42 -45q5 -3 11 -7q43 -27 43 -65v-47h-555v47q0 38 43 65q14 9 22 15q24 18 32.5 40t8.5 71v47v923q0 50 -9 72t-32 39q-8 6 -21 14q-44 28 -44 66v47h674q124 0 195 -15t120 -49q67 -45 106 -124.5t39 -167.5q0 -173 -99.5 -267t-283.5 -94
q-5 0 -18 1t-20 1q155 -29 240 -187q5 -9 7 -14l156 -288q28 -51 48.5 -78t39.5 -37q12 -6 35 -16q55 -23 55 -62v-49h-420l-358 670h-68v-385zM518 1313v-520q8 -1 19 -1.5t30 -0.5q152 0 224.5 65t72.5 201q0 120 -65 190t-178 70q-39 0 -61 -1t-42 -3z" />
    <glyph glyph-name="S" unicode="S" horiz-adv-x="1186" 
d="M61 0v408h56q69 0 120 -103q16 -33 27 -53q39 -71 118.5 -114.5t172.5 -43.5q114 0 188 66t74 166q0 164 -313 297q-40 17 -61 26q-176 77 -256.5 177t-80.5 241q0 173 125 288t312 115q107 0 212.5 -44t110.5 -44q13 0 25 8.5t29 30.5h84v-364h-62q-62 0 -97 94
q-10 27 -16 41q-34 79 -94 119.5t-143 40.5q-89 0 -145 -48.5t-56 -123.5q0 -133 297 -248q42 -16 64 -25q193 -76 275.5 -180t82.5 -268q0 -205 -154.5 -344.5t-390.5 -139.5q-157 0 -284 67q-26 13 -33 13q-14 0 -34 -13.5t-48 -41.5h-105z" />
    <glyph glyph-name="T" unicode="T" horiz-adv-x="1241" 
d="M344 0v47q0 37 41 64q14 9 23 16q24 17 33.5 40t9.5 83v35v1042h-91q-70 0 -110 -24t-64 -83q-7 -18 -17 -47q-27 -77 -97 -77h-39v383q56 -17 113.5 -25t127.5 -8h693q70 0 127.5 8t113.5 25v-383h-39q-69 0 -94 74q-10 31 -18 50q-24 59 -64 83t-110 24h-90v-1065v-16
q0 -62 10 -84t41 -43q4 -3 10 -7q43 -27 43 -65v-47h-553z" />
    <glyph glyph-name="U" unicode="U" horiz-adv-x="1384" 
d="M162 1161v35q0 60 -9.5 83t-33.5 40q-7 5 -21 14q-43 27 -43 66v47h553v-47q0 -39 -42 -66q-14 -9 -21 -14q-25 -17 -34 -40t-9 -83v-35v-708q0 -177 66.5 -260.5t205.5 -83.5q153 0 234.5 90.5t81.5 261.5v747q0 50 -9.5 72t-31.5 39q-7 5 -21 14q-43 27 -43 66v47h344
v-47q0 -39 -43 -66q-13 -9 -20 -14q-25 -17 -34 -40t-9 -83v-35v-682q0 -264 -126.5 -384t-402.5 -120q-144 0 -240.5 31t-166.5 98q-68 66 -96.5 138t-28.5 231v688z" />
    <glyph glyph-name="V" unicode="V" horiz-adv-x="1241" 
d="M682 -25h-141l-465 1227q-18 48 -34.5 74.5t-33.5 36.5q-13 7 -34 15q-56 22 -56 71v47h594v-47q0 -41 -49 -72t-49 -59q0 -8 3 -21t9 -28l293 -797l289 768q8 23 13 45.5t5 34.5q0 27 -52 54t-52 75v47h397v-47q0 -51 -63 -82q-2 -1 -5 -2q-37 -19 -60 -49.5t-52 -104.5
z" />
    <glyph glyph-name="W" unicode="W" horiz-adv-x="1882" 
d="M1237 -25l-315 955l-320 -955h-141l-371 1227q-12 40 -30 70.5t-36 40.5q-11 6 -34 15q-56 22 -56 71v47h574v-47q0 -42 -50 -72.5t-50 -56.5q0 -4 6 -25q5 -16 8 -27l225 -741l207 653l-21 73q-9 37 -28 69t-37 41q-13 6 -35 15q-55 21 -55 71v47h594v-47
q0 -42 -50.5 -72.5t-50.5 -56.5q0 -4 7 -25q5 -16 8 -27l231 -741l221 712l3 9q18 57 18 72q0 27 -52.5 54t-52.5 75v47h398v-47q0 -51 -63 -82q-4 -2 -5 -2q-41 -22 -68.5 -58.5t-46.5 -95.5l-391 -1186h-141z" />
    <glyph glyph-name="X" unicode="X" horiz-adv-x="1327" 
d="M522 682l-305 506q-44 75 -62 97.5t-34 29.5q-11 5 -31 13q-63 27 -63 71v47h598v-47q0 -43 -47.5 -57t-47.5 -27q0 -24 34 -78q5 -8 8 -13l157 -266l184 261q18 24 27.5 46t9.5 38q0 12 -52 30.5t-52 65.5v47h424v-47q0 -41 -59 -63q-21 -8 -33 -13q-24 -10 -50.5 -37
t-58.5 -74l-264 -378l350 -578q35 -59 58.5 -86.5t45.5 -38.5q7 -3 19 -7q55 -21 55 -77v-47h-620v47q0 54 56 74t56 41q0 14 -28 60q-9 14 -15 24l-186 311l-213 -303q-23 -32 -31 -49t-8 -33q0 -29 50 -50.5t50 -74.5v-47h-430v47q0 33 14 52t56 36q78 32 139 120
q13 19 21 30z" />
    <glyph glyph-name="Y" unicode="Y" horiz-adv-x="1194" 
d="M109 1188q-41 70 -61.5 95.5t-41.5 35.5q-12 5 -34 13q-54 19 -54 67v47h617v-47q0 -40 -48.5 -55t-48.5 -37q0 -19 7 -39.5t24 -50.5l233 -414l234 399q22 38 32.5 63t10.5 40q0 12 -52.5 29t-52.5 65v47h396v-47q0 -27 -11.5 -40t-46.5 -24q-54 -17 -108 -112l-6 -11
l-330 -565v-385q0 -75 10.5 -98t42.5 -45q4 -3 12 -8q41 -26 41 -64v-47h-552v47q0 37 39 63q15 10 24 17q24 17 33.5 40t9.5 83v35v348z" />
    <glyph glyph-name="Z" unicode="Z" horiz-adv-x="1241" 
d="M61 115l680 1212h-276q-71 0 -111 -24t-63 -82q-8 -19 -18 -48q-27 -77 -97 -77h-39v374q71 -12 131 -18t111 -6h764v-76l-690 -1231h399q70 0 110 28.5t64 94.5q8 22 18 57q25 84 95 84h39v-403h-1117v115z" />
    <glyph glyph-name="bracketleft" unicode="[" horiz-adv-x="872" 
d="M725 1561v-58q0 -36 -64 -46q-23 -4 -35 -7q-42 -12 -54.5 -37t-12.5 -129v-22v-1260q0 -104 12.5 -129t55.5 -37q11 -3 33 -7q65 -11 65 -46v-57h-430v1835h430z" />
    <glyph glyph-name="backslash" unicode="\" horiz-adv-x="569" 
d="M0 1470h135l479 -1660h-133z" />
    <glyph glyph-name="bracketright" unicode="]" horiz-adv-x="872" 
d="M147 1561h431v-1835h-431v57q1 36 65 46q22 4 33 7q44 12 56 37t12 129v23v1259q0 104 -12 129t-55 37q-12 3 -35 7q-64 9 -64 46v58z" />
    <glyph glyph-name="asciicircum" unicode="^" horiz-adv-x="2048" 
d="M893 1462h260l479 -565h-121l-489 348l-490 -348h-120z" />
    <glyph glyph-name="underscore" unicode="_" 
d="M0 -244h1024v-239h-1024v239z" />
    <glyph glyph-name="grave" unicode="`" 
d="M616 1139l-313 166q-58 31 -76 53t-18 53q0 40 25 65t65 25q31 0 63 -18.5t72 -61.5l273 -282h-91z" />
    <glyph glyph-name="a" unicode="a" horiz-adv-x="1151" 
d="M672 416v135q-136 -20 -207.5 -91t-71.5 -186q0 -69 33 -112t86 -43q77 0 118.5 76.5t41.5 220.5zM1151 94q-38 -56 -91.5 -84t-123.5 -28q-75 0 -125.5 31.5t-91.5 105.5q-70 -76 -144 -110t-172 -34q-156 0 -255 81t-99 206q0 154 162 255t459 132v27q0 116 -46.5 183
t-125.5 67q-39 0 -62.5 -23.5t-23.5 -60.5q0 -10 3 -28t3 -26q0 -54 -40.5 -89t-103.5 -35q-65 0 -108 40t-43 101q0 97 111.5 160t291.5 63q122 0 206 -26.5t151 -86.5q65 -58 91.5 -133.5t26.5 -244.5v-328q0 -38 13.5 -54t46.5 -16q8 0 21 4t28 11z" />
    <glyph glyph-name="b" unicode="b" horiz-adv-x="1313" 
d="M150 0v1262q0 45 -8 61.5t-38 28.5q-13 5 -32 11q-33 10 -33 40v43l410 24v-518q55 40 123 59t151 19q233 0 372.5 -137.5t139.5 -366.5q0 -244 -152 -396.5t-399 -152.5q-86 0 -159 22t-150 71l-117 -70h-108zM451 819v-641q45 -44 88.5 -65t89.5 -21q116 0 191 114
t75 298q0 202 -65.5 304.5t-192.5 102.5q-52 0 -97 -22t-89 -70z" />
    <glyph glyph-name="c" unicode="c" horiz-adv-x="1014" 
d="M993 156q-73 -95 -161 -138t-209 -43q-251 0 -407.5 151t-156.5 386q0 226 157 371t407 145q157 0 253.5 -65t96.5 -168q0 -68 -41 -109t-109 -41q-61 0 -101 36.5t-40 88.5q0 25 12.5 61.5t12.5 47.5q0 16 -20.5 27.5t-51.5 11.5q-92 0 -153.5 -111t-61.5 -289
q0 -199 73 -307.5t207 -108.5q65 0 117 29t105 94z" />
    <glyph glyph-name="d" unicode="d" horiz-adv-x="1313" 
d="M862 174v651q-47 45 -93 65.5t-95 20.5q-127 0 -191.5 -103t-64.5 -304q0 -182 75 -297t191 -115q43 0 86.5 20t91.5 62zM905 0v80q-73 -55 -143.5 -80t-155.5 -25q-237 0 -382.5 149.5t-145.5 395.5q0 235 138 372.5t374 137.5q82 0 148.5 -18.5t125.5 -59.5v310
q0 47 -8 63t-37 27q-13 5 -32 11q-31 9 -31 40v43l409 24v-1247q0 -57 9 -76t36 -34q7 -4 19 -10q45 -22 45 -54v-49h-369z" />
    <glyph glyph-name="e" unicode="e" horiz-adv-x="1128" 
d="M418 631h311v31q0 118 -40.5 182.5t-115.5 64.5q-74 0 -114.5 -64.5t-40.5 -182.5v-31zM416 516v-35q0 -173 78.5 -275t210.5 -102q71 0 137.5 37t144.5 119l78 -67q-80 -112 -184 -165t-242 -53q-255 0 -417.5 155.5t-162.5 389.5q0 214 145.5 361t360.5 147
q227 0 359.5 -134.5t132.5 -367.5v-10h-641z" />
    <glyph glyph-name="f" unicode="f" horiz-adv-x="739" 
d="M483 242v-19q0 -57 9 -76t36 -34q7 -4 19 -10q45 -22 45 -54v-49h-531v49q0 30 54.5 56.5t54.5 93.5v43v626h-123v56q0 44 40 57q23 8 35 14q29 15 40.5 41.5t13.5 97.5q6 172 97 263.5t255 91.5q125 0 191.5 -48.5t66.5 -137.5q0 -61 -36 -96.5t-97 -35.5q-54 0 -85 28
t-31 75q0 10 4 31.5t4 33.5q0 24 -13.5 37t-37.5 13q-36 0 -54 -21.5t-18 -62.5q0 -2 25.5 -100t27.5 -199h234v-138h-226v-626z" />
    <glyph glyph-name="g" unicode="g" horiz-adv-x="1174" 
d="M320 168l12 1q212 26 291 26q232 0 354.5 -77.5t122.5 -223.5q0 -161 -149.5 -250.5t-420.5 -89.5q-204 0 -311.5 48.5t-107.5 141.5q0 62 44.5 102.5t112.5 40.5q60 0 95.5 -31t35.5 -83q0 -21 -9 -47t-9 -29q0 -15 45 -26t115 -11q114 0 184 41.5t70 108.5
q0 68 -78.5 109.5t-212.5 41.5q-190 0 -378 -34q-35 -7 -42 -7q-21 0 -36 16t-15 39q0 20 9 40t40 57l197 250q-92 64 -134.5 142t-42.5 183q0 172 121 276.5t322 104.5q88 0 150.5 -15.5t129.5 -49.5q2 79 48.5 127.5t121.5 48.5q67 0 107.5 -37.5t40.5 -97.5
q0 -47 -27.5 -74t-75.5 -27q-32 0 -63 20.5t-45 20.5q-13 0 -18.5 -5t-6.5 -17q0 -2 1 -6.5t1 -8.5q67 -65 96 -130.5t29 -151.5q0 -163 -131.5 -261t-355.5 -98q-47 0 -80 4t-64 13zM567 930q-68 0 -101.5 -68.5t-33.5 -206.5q0 -145 33 -214.5t102 -69.5t102 68.5
t33 211.5q0 142 -33 210.5t-102 68.5z" />
    <glyph glyph-name="h" unicode="h" horiz-adv-x="1266" 
d="M461 242v-23v-14q0 -47 8.5 -63.5t31.5 -28.5q4 -3 11 -8q35 -26 35 -56v-49h-500v49q0 33 46 55q11 5 18 9q26 15 35.5 34.5t9.5 77.5v17v1020q0 47 -7.5 63t-36.5 27q-12 5 -32 11q-33 11 -33 40v43l414 24v-534q64 48 146.5 72t180.5 24q184 0 257 -82.5t73 -333.5
v-393q0 -57 9 -76t36 -34q7 -4 19 -10q45 -22 45 -54v-49h-498v49q0 28 43 57t43 99v37v434q0 119 -33 167t-110 48q-57 0 -111 -22.5t-100 -65.5v-561z" />
    <glyph glyph-name="i" unicode="i" horiz-adv-x="616" 
d="M469 1022v-819q0 -69 55.5 -97t55.5 -57v-49h-533v49q0 33 46 55q11 5 18 9q26 15 35.5 34.5t9.5 77.5v17v579q0 48 -7.5 63.5t-35.5 26.5q-14 6 -34 12q-32 10 -32 40v43zM303 1470q70 0 123 -55t53 -129q0 -76 -51.5 -129t-124.5 -53t-122.5 52.5t-49.5 129.5
t50.5 130.5t121.5 53.5z" />
    <glyph glyph-name="j" unicode="j" horiz-adv-x="674" 
d="M199 821q0 46 -8 62.5t-37 27.5q-14 6 -33 12q-31 10 -31 40v43l420 16v-979q0 -222 -105 -355.5t-274 -133.5q-99 0 -156 45.5t-57 124.5q0 65 38 104t101 39q49 0 81 -19.5t44 -55.5q6 -18 9 -48q5 -49 36 -49q20 0 30.5 14.5t10.5 40.5q0 6 -34.5 105t-34.5 198v768z
M346 1470q70 0 122 -54.5t52 -129.5t-51 -128.5t-123 -53.5q-73 0 -123.5 52.5t-50.5 129.5t51 130.5t123 53.5z" />
    <glyph glyph-name="k" unicode="k" horiz-adv-x="1128" 
d="M47 0v49q0 33 46 55q11 5 18 9q26 15 35.5 34.5t9.5 77.5v17v1020q0 47 -7.5 63t-36.5 27q-12 5 -32 11q-33 11 -33 40v43l422 24v-870l197 176q32 30 46.5 50.5t14.5 37.5q0 30 -46 50.5t-46 43.5v48h436v-48q0 -13 -85.5 -65t-172.5 -133l-113 -105l293 -436
q3 -4 7 -10q50 -75 98 -96q29 -15 36.5 -26.5t8.5 -39.5v-47h-516v47q0 28 28.5 52.5t28.5 33.5q0 12 -6.5 26.5t-28.5 47.5l-180 280v-288q0 -63 40 -92t40 -58v-49h-502z" />
    <glyph glyph-name="l" unicode="l" horiz-adv-x="616" 
d="M156 1268q0 48 -7.5 63t-35.5 23q-15 7 -38 15q-28 11 -28 34v43l422 24v-1267q0 -69 55.5 -97t55.5 -57v-49h-533v49q0 33 46 55q11 5 18 9q26 15 35.5 34.5t9.5 77.5v17v1026z" />
    <glyph glyph-name="m" unicode="m" horiz-adv-x="1806" 
d="M1073 242v-19q0 -57 9 -76t37 -35l18 -9q45 -22 45 -54v-49h-523v49q0 33 47 55l16 8q28 16 37 35t9 76v19v434q0 120 -28.5 167.5t-96.5 47.5q-47 0 -92.5 -22t-89.5 -66v-580q0 -57 9 -76t35 -34q7 -4 19 -10q45 -22 45 -54v-49h-522v49q0 33 46 55q11 5 18 9
q26 15 35.5 34.5t9.5 77.5v17v579q0 48 -7.5 63.5t-35.5 26.5q-14 6 -34 12q-32 10 -32 40v43l393 16v-96q81 54 161 80t165 26q95 0 157.5 -27.5t110.5 -89.5q86 63 166 90t172 27q176 0 246 -83t70 -333v-421q0 -59 49 -88t49 -58v-49h-512v49q0 33 46 55l18 9
q26 15 35 34t9 76v19v434q0 121 -29 168t-100 47q-49 0 -94.5 -23.5t-85.5 -68.5v-557z" />
    <glyph glyph-name="n" unicode="n" horiz-adv-x="1266" 
d="M461 242v-23v-14q0 -47 8.5 -63.5t31.5 -28.5q4 -3 11 -8q35 -26 35 -56v-49h-500v49q0 33 46 55q11 5 18 9q26 15 35.5 34.5t9.5 77.5v17v579q0 48 -7.5 63.5t-35.5 26.5q-14 6 -34 12q-32 10 -32 40v43l393 16v-96q77 53 163.5 79.5t184.5 26.5q184 0 257 -82.5
t73 -333.5v-393q0 -57 9 -76t36 -34q7 -4 19 -10q45 -22 45 -54v-49h-498v49q0 28 43 57t43 99v37v434q0 119 -33 167t-110 48q-57 0 -111 -22.5t-100 -65.5v-561z" />
    <glyph glyph-name="o" unicode="o" horiz-adv-x="1247" 
d="M623 922q-111 0 -171.5 -108t-60.5 -304q0 -209 59 -317.5t173 -108.5q112 0 171.5 107.5t59.5 310.5q0 204 -59.5 312t-171.5 108zM61 506q0 229 157.5 375.5t404.5 146.5q246 0 404.5 -147.5t158.5 -378.5q0 -228 -160.5 -377.5t-402.5 -149.5q-243 0 -402.5 149.5
t-159.5 381.5z" />
    <glyph glyph-name="p" unicode="p" horiz-adv-x="1313" 
d="M451 -182v-17q0 -58 9 -77t35 -33l18 -9q46 -22 46 -55v-49h-518v49q0 33 44 54q13 6 20 10q26 15 35.5 34t9.5 76v17v1003q0 46 -8 62.5t-37 29.5q-13 5 -31 10q-33 10 -33 40v43l408 16v-74q54 43 122 63.5t152 20.5q233 0 372.5 -138.5t139.5 -367.5
q0 -237 -149 -391.5t-375 -154.5q-74 0 -136.5 18.5t-123.5 58.5v-239zM451 819v-631q39 -48 82.5 -72t93.5 -24q118 0 193 114t75 298q0 200 -65 300.5t-193 100.5q-55 0 -100 -20.5t-86 -65.5z" />
    <glyph glyph-name="q" unicode="q" horiz-adv-x="1313" 
d="M1055 1008h110v-1207q0 -58 9.5 -77t35.5 -33l18 -9q46 -22 46 -55v-49h-518v49q0 33 44 54q12 6 19 10q27 15 36 34t9 76v17v239q-59 -40 -126 -60t-148 -20q-234 0 -373 137.5t-139 366.5q0 245 152 397t399 152q85 0 158.5 -22t150.5 -70zM862 188v641q-46 45 -89 67
t-85 22q-119 0 -194.5 -114.5t-75.5 -297.5q0 -202 65 -306t193 -104q52 0 97 22.5t89 69.5z" />
    <glyph glyph-name="r" unicode="r" horiz-adv-x="901" 
d="M440 731q81 167 150.5 232t161.5 65q75 0 119 -44t44 -118q0 -71 -41.5 -116t-105.5 -45q-47 0 -85.5 38.5t-59.5 38.5q-50 0 -102 -135t-52 -295v-129q0 -57 9 -76t37 -35q5 -3 17 -9q46 -22 46 -54v-49h-531v49q0 33 46 55q11 5 18 9q26 15 35.5 34.5t9.5 77.5v17v579
q0 48 -7.5 63.5t-35.5 26.5q-14 6 -34 12q-32 10 -32 40v43l393 16v-291z" />
    <glyph glyph-name="s" unicode="s" horiz-adv-x="1006" 
d="M84 698q0 143 125.5 236.5t320.5 93.5q165 0 259 -53t94 -146q0 -48 -40 -82t-98 -34q-64 0 -102.5 30.5t-38.5 79.5q0 13 5 34t5 30q0 11 -30 24t-66 13q-72 0 -108.5 -26.5t-36.5 -78.5q0 -96 186 -147q64 -17 98 -29q149 -49 218 -120.5t69 -174.5q0 -158 -136 -265.5
t-347 -107.5q-199 0 -310.5 61t-111.5 167q0 66 40 104.5t107 38.5q68 0 111 -35t43 -90q0 -18 -7 -44t-7 -34q0 -28 26.5 -43.5t75.5 -15.5q111 0 168 33.5t57 99.5q0 93 -173 147q-38 12 -58 19q-173 59 -255.5 136t-82.5 179z" />
    <glyph glyph-name="t" unicode="t" horiz-adv-x="678" 
d="M449 1006h202v-138h-202v-614q0 -69 20 -101t63 -32q21 0 41.5 10t47.5 33l57 -68q-43 -62 -102 -91.5t-140 -29.5q-166 0 -230.5 60t-64.5 260v573h-114v43q0 36 10.5 53.5t44.5 34.5q41 22 58.5 54.5t17.5 89.5v137l291 39v-313z" />
    <glyph glyph-name="u" unicode="u" horiz-adv-x="1266" 
d="M1110 184q0 -50 7 -64.5t36 -25.5q13 -5 33 -11q32 -10 33 -40v-43l-394 -14v96q-78 -54 -164 -80.5t-184 -26.5q-185 0 -258.5 84.5t-73.5 331.5v430q0 48 -7 63.5t-35 26.5q-14 6 -34 12q-32 10 -32 40v43h414v-674q0 -120 33.5 -167.5t113.5 -47.5q55 0 109.5 22.5
t99.5 65.5v616q0 48 -8 64t-38 27q-13 5 -31 10q-32 11 -32 41v43h412v-822z" />
    <glyph glyph-name="v" unicode="v" 
d="M426 -25l-317 752q-26 63 -46 96.5t-43 53.5q-12 10 -36 20q-43 17 -43 61v48h551v-48q0 -36 -42 -58t-42 -54q0 -7 5.5 -24t16.5 -46l176 -457l180 463q7 19 11 34.5t4 23.5q0 16 -12 27.5t-54 31.5q-23 10 -28 21t-5 38v48h353l4 -48v-10q0 -30 -38 -51
q-22 -13 -34 -23q-31 -25 -78 -132l-4 -9l-321 -758h-158z" />
    <glyph glyph-name="w" unicode="w" horiz-adv-x="1554" 
d="M774 1006h195l229 -641l127 417q6 18 9 33t3 23q0 16 -11.5 28t-55.5 33q-1 1 -3 2q-30 14 -30 57v48h352l4 -48v-10q0 -30 -37 -51q-22 -13 -34 -23q-21 -17 -44 -56t-38 -85l-262 -758h-168l-240 682l-235 -682h-168l-258 752q-17 49 -41 89t-48 61q-12 10 -36 20
q-43 17 -43 61v48h561v-48q0 -15 -4.5 -28t-10.5 -17q-6 -3 -15 -7q-69 -34 -69 -66q0 -8 4 -25.5t11 -38.5l141 -411z" />
    <glyph glyph-name="x" unicode="x" horiz-adv-x="1128" 
d="M135 825q-21 31 -76 64t-55 69v48h574v-48q0 -36 -43 -56.5t-43 -35.5q0 -6 6 -18.5t16 -26.5l123 -170l131 172q10 15 16.5 26.5t6.5 16.5q0 14 -40 37.5t-40 54.5v48h368v-48q0 -32 -63 -61.5t-94 -71.5l-211 -274l246 -341q2 -3 7 -10q55 -76 94 -91q5 -2 16 -6
q44 -14 44 -56v-47h-586v47q0 37 39 61t39 37q0 9 -9 26.5t-26 41.5l-110 154l-113 -142q-23 -27 -33 -46t-10 -34q0 -25 47 -45t47 -53v-47h-403v47q0 44 71 68l33 12q22 8 49 32t54 60l184 246z" />
    <glyph glyph-name="y" unicode="y" horiz-adv-x="1014" 
d="M610 356l177 427q7 17 11.5 32.5t4.5 22.5q0 16 -11.5 28t-56.5 33q-23 10 -28 21t-5 38v48h353l4 -48v-10q0 -30 -38 -51q-22 -13 -34 -23q-18 -14 -34.5 -41t-47.5 -100l-356 -842q-75 -177 -162 -257t-203 -80q-86 0 -141 47.5t-55 119.5q0 74 37 115t102 41
q39 0 68 -13t45 -38q14 -22 30 -62t31 -40q30 0 66.5 58t76.5 171l-335 774q-32 74 -50 103t-39 47q-12 10 -36 20q-43 17 -43 61v48h551v-48q0 -36 -42 -58.5t-42 -55.5q0 -7 5 -22.5t17 -45.5z" />
    <glyph glyph-name="z" unicode="z" horiz-adv-x="995" 
d="M51 0v102l488 785h-179q-45 0 -74.5 -11t-44.5 -33q-8 -13 -23 -48q-27 -66 -56 -66h-53v277h798v-101l-479 -778h197q54 0 93.5 17t53.5 46q8 16 19 47q26 74 63 74h53v-311h-856z" />
    <glyph glyph-name="braceleft" unicode="{" 
d="M852 1516v-66q-111 -3 -152 -54t-41 -208v-131q0 -227 -50.5 -308.5t-184.5 -113.5q134 -33 184.5 -113.5t50.5 -306.5v-131q0 -158 41 -209.5t152 -55.5v-63h-12q-229 0 -314.5 74t-85.5 272v187q0 168 -54.5 230t-207.5 77v80q153 14 207.5 76.5t54.5 230.5v186
q0 199 85.5 273t314.5 74h12z" />
    <glyph glyph-name="bar" unicode="|" 
d="M393 1565h240v-2048h-240v2048z" />
    <glyph glyph-name="braceright" unicode="}" 
d="M172 1516h12q229 0 314.5 -74t85.5 -273v-186q0 -168 54.5 -230.5t207.5 -76.5v-80q-153 -15 -207.5 -77t-54.5 -230v-187q0 -198 -85.5 -272t-314.5 -74h-12v63q111 4 152 55.5t41 209.5v131q0 226 50.5 306.5t184.5 113.5q-134 34 -184.5 115t-50.5 307v131
q0 157 -41 208t-152 54v66z" />
    <glyph glyph-name="asciitilde" unicode="~" horiz-adv-x="1706" 
d="M1530 819v-254q-101 -69 -194 -103t-183 -34q-45 0 -89 7.5t-83 21.5q-13 4 -38 13q-255 89 -382 89q-84 0 -175.5 -37.5t-207.5 -120.5v254q112 73 207.5 108.5t179.5 35.5q63 0 126.5 -12t169.5 -46q16 -5 51 -17q159 -56 247 -56q84 0 173.5 36t197.5 115z" />
    <glyph glyph-name="euro" horiz-adv-x="1147" 
d="M1171 233q-87 -146 -182.5 -202t-243.5 -56q-212 0 -364 153.5t-195 408.5h-192l33 118l143 1q-2 27 -3 44t-1 31q0 11 1 33.5t1 34.5h-174l33 119h155q39 243 189.5 399t349.5 156q102 0 180.5 -52.5t89.5 -52.5q16 0 25 8t19 31h85v-354h-45q-30 0 -54.5 20.5
t-37.5 54.5q-46 129 -91.5 177.5t-115.5 48.5q-98 0 -162 -116t-79 -320h477l-31 -119h-451q0 -9 -1 -28.5t-1 -29.5q0 -14 1 -32t4 -54h409l-33 -118h-364q22 -205 90.5 -311.5t177.5 -106.5q84 0 154.5 43.5t126.5 130.5z" />
    <glyph glyph-name="euro" unicode="&#x20ac;" horiz-adv-x="1147" 
d="M1171 233q-87 -146 -182.5 -202t-243.5 -56q-212 0 -364 153.5t-195 408.5h-192l33 118l143 1q-2 27 -3 44t-1 31q0 11 1 33.5t1 34.5h-174l33 119h155q39 243 189.5 399t349.5 156q102 0 180.5 -52.5t89.5 -52.5q16 0 25 8t19 31h85v-354h-45q-30 0 -54.5 20.5
t-37.5 54.5q-46 129 -91.5 177.5t-115.5 48.5q-98 0 -162 -116t-79 -320h477l-31 -119h-451q0 -9 -1 -28.5t-1 -29.5q0 -14 1 -32t4 -54h409l-33 -118h-364q22 -205 90.5 -311.5t177.5 -106.5q84 0 154.5 43.5t126.5 130.5z" />
    <glyph glyph-name="nonbreakingspace" unicode="&#xa0;" horiz-adv-x="1147" 
 />
    <glyph glyph-name="exclamdown" unicode="&#xa1;" horiz-adv-x="682" 
d="M342 1118q-73 0 -124.5 51.5t-51.5 124.5t52 124.5t124 51.5q73 0 124.5 -51.5t51.5 -124.5q0 -72 -52 -124t-124 -52zM279 1042h124q24 -229 72.5 -503.5t48.5 -327.5q0 -111 -48.5 -173.5t-133.5 -62.5q-86 0 -135 63t-49 173q0 53 48.5 327.5t72.5 503.5z" />
    <glyph glyph-name="cent" unicode="&#xa2;" horiz-adv-x="1147" 
d="M604 1446h125v-168q139 -21 215 -82.5t76 -153.5q0 -67 -41 -108t-109 -41q-61 0 -100 35t-39 88q0 25 11.5 61t11.5 47q0 17 -20.5 29t-51.5 12q-91 0 -153 -111.5t-62 -289.5q0 -199 73 -306.5t208 -107.5q64 0 116.5 29t104.5 94l71 -70q-64 -83 -138 -126t-173 -54
v-223h-125v223q-238 28 -368 164.5t-130 360.5q0 217 134.5 360.5t363.5 167.5v170z" />
    <glyph glyph-name="sterling" unicode="&#xa3;" horiz-adv-x="1147" 
d="M510 180q-65 65 -122.5 96t-113.5 31q-65 0 -102 -26t-37 -72q0 -45 46.5 -74t121.5 -29q64 0 113.5 18t93.5 56zM76 627v133h274q-88 109 -129 197.5t-41 168.5q0 156 118 250t314 94q168 0 272.5 -82t104.5 -208q0 -77 -42.5 -125.5t-108.5 -48.5q-72 0 -117 47
t-45 121q0 34 19.5 79.5t19.5 59.5q0 17 -20 30t-48 13q-58 0 -95.5 -39.5t-37.5 -104.5q0 -77 108 -253q75 -122 113 -199h340v-133h-282q38 -76 55.5 -133t17.5 -105q0 -54 -20.5 -105.5t-63.5 -103.5q45 -21 84 -31t74 -10q56 0 99 34t96 124l71 -39
q-61 -155 -131.5 -215.5t-183.5 -60.5q-67 0 -126.5 19.5t-115.5 59.5q-81 -40 -161.5 -59.5t-165.5 -19.5q-163 0 -255 64.5t-92 176.5q0 97 79.5 161.5t201.5 64.5q87 0 162.5 -31.5t158.5 -101.5q3 17 4 26t1 16q0 63 -33 128t-105 141h-368z" />
    <glyph glyph-name="currency" unicode="&#xa4;" horiz-adv-x="1147" 
d="M1171 233q-87 -146 -182.5 -202t-243.5 -56q-212 0 -364 153.5t-195 408.5h-192l33 118l143 1q-2 27 -3 44t-1 31q0 11 1 33.5t1 34.5h-174l33 119h155q39 243 189.5 399t349.5 156q102 0 180.5 -52.5t89.5 -52.5q16 0 25 8t19 31h85v-354h-45q-30 0 -54.5 20.5
t-37.5 54.5q-46 129 -91.5 177.5t-115.5 48.5q-98 0 -162 -116t-79 -320h477l-31 -119h-451q0 -9 -1 -28.5t-1 -29.5q0 -14 1 -32t4 -54h409l-33 -118h-364q22 -205 90.5 -311.5t177.5 -106.5q84 0 154.5 43.5t126.5 130.5z" />
    <glyph glyph-name="yen" unicode="&#xa5;" horiz-adv-x="1280" 
d="M473 612h-412v119h349l-84 146h-265v118h197l-104 185q-43 74 -63 98.5t-40 32.5q-12 5 -35 13q-53 18 -53 65v47h606v-47q0 -40 -48 -55t-48 -38q0 -32 30 -89l1 -1l231 -426l246 412q21 36 32 62t11 40q0 13 -52 30t-52 65v47h397v-47q0 -27 -12 -40t-48 -24
q-54 -19 -105 -105q-6 -10 -9 -16l-123 -209h205v-118h-273l-84 -146h357v-119h-412v-350q0 -75 10.5 -97t42.5 -40q6 -5 16 -13q38 -30 38 -65v-47h-553v47q0 38 41 63q15 9 22 15q24 18 33.5 41.5t9.5 83.5v35v327z" />
    <glyph glyph-name="brokenbar" unicode="&#xa6;" 
d="M393 408h240v-758h-240v758zM393 1432h240v-758h-240v758z" />
    <glyph glyph-name="section" unicode="&#xa7;" 
d="M260 733q0 -49 33 -100t104 -113q100 -88 148 -117.5t84 -29.5q56 0 95.5 36.5t39.5 90.5q0 50 -35 104t-113 121q-91 81 -137 107t-88 26q-55 0 -93 -36.5t-38 -88.5zM449 217l-181 154q-92 79 -134 149t-42 144q0 103 80.5 173t205.5 75q-103 89 -145.5 156.5
t-42.5 137.5q0 121 91 192.5t247 71.5q130 0 214.5 -61.5t84.5 -155.5q0 -60 -34 -95.5t-93 -35.5q-54 0 -88 29.5t-34 75.5q0 33 31.5 70.5t31.5 52.5q0 24 -34 44.5t-81 20.5q-67 0 -110 -36t-43 -91q0 -59 37.5 -114.5t169.5 -165.5l178 -152q89 -75 131.5 -146
t42.5 -145q0 -105 -78.5 -174t-207.5 -78q97 -82 142.5 -153t45.5 -144q0 -114 -98.5 -185t-262.5 -71q-134 0 -222.5 61.5t-88.5 149.5q0 66 36.5 104t98.5 38q49 0 82 -32.5t33 -80.5q0 -41 -32 -75t-32 -46q0 -27 35 -45t90 -18q81 0 128.5 39t47.5 104q0 85 -195 253z
" />
    <glyph glyph-name="dieresis" unicode="&#xa8;" 
d="M209 1303q0 48 36 84t85 36t84 -35.5t35 -84.5q0 -54 -33.5 -87.5t-85.5 -33.5t-86.5 34.5t-34.5 86.5zM573 1303q0 48 36.5 84t84.5 36q49 0 84 -35.5t35 -84.5q0 -54 -33 -87.5t-86 -33.5q-51 0 -86 34.5t-35 86.5z" />
    <glyph glyph-name="copyright" unicode="&#xa9;" horiz-adv-x="1683" 
d="M1128 1104h50v-330h-52q-29 130 -98 201.5t-164 71.5q-112 0 -167.5 -91t-55.5 -272q0 -182 61 -278.5t177 -96.5q76 0 143.5 44.5t124.5 131.5l51 -32q-64 -108 -152 -162.5t-198 -54.5q-192 0 -318.5 122t-126.5 306q0 194 122.5 319t312.5 125q82 0 157.5 -33
t79.5 -33q22 0 33.5 13.5t19.5 48.5zM844 1311q-126 0 -242.5 -49t-204.5 -138q-89 -91 -136.5 -206t-47.5 -240q0 -130 47 -244t137 -203q93 -91 205.5 -137.5t239.5 -46.5t240.5 47.5t201.5 136.5q89 91 137.5 207.5t48.5 239.5q0 126 -48.5 244.5t-135.5 203.5
q-89 88 -205 136.5t-237 48.5zM844 1423q144 0 280.5 -56.5t241.5 -160.5q104 -104 161.5 -242.5t57.5 -285.5q0 -146 -56.5 -281.5t-162.5 -242.5q-105 -106 -240 -161.5t-284 -55.5t-283 55.5t-242 161.5q-106 104 -162.5 239t-56.5 285q0 149 55.5 283t161.5 241
q105 106 242.5 163.5t286.5 57.5z" />
    <glyph glyph-name="ordfeminine" unicode="&#xaa;" horiz-adv-x="864" 
d="M504 1034v94q-102 -13 -155.5 -62.5t-53.5 -129.5q0 -49 25 -79t65 -30q57 0 88 54t31 153zM864 809q-28 -39 -68 -58.5t-94 -19.5q-56 0 -93.5 22t-69.5 74q-50 -53 -105.5 -76.5t-130.5 -23.5q-118 0 -192 56t-74 145q0 107 120.5 177.5t344.5 92.5v19q0 81 -35 127.5
t-94 46.5q-29 0 -46.5 -16t-17.5 -42q0 -7 2 -19.5t2 -17.5q0 -38 -30 -63t-76 -25q-50 0 -82.5 28t-32.5 71q0 68 83.5 111.5t219.5 43.5q94 0 156.5 -18.5t110.5 -59.5q49 -41 69.5 -93.5t20.5 -172.5v-229q0 -26 10 -36.5t35 -10.5q7 0 16.5 2.5t19.5 7.5z" />
    <glyph glyph-name="guillemotleft" unicode="&#xab;" horiz-adv-x="1081" 
d="M756 502q111 -130 176 -225t65 -123q0 -16 -9 -26.5t-21 -10.5q-18 0 -189.5 141t-304.5 244q136 105 306.5 246t187.5 141q12 0 21 -12t9 -27q0 -29 -66 -125.5t-175 -222.5zM356 502q113 -132 178.5 -226.5t65.5 -121.5q0 -15 -10 -26t-23 -11q-17 0 -186.5 140
t-304.5 245q138 107 306.5 247t184.5 140q13 0 23 -12t10 -27q0 -28 -65.5 -122t-178.5 -226z" />
    <glyph glyph-name="logicalnot" unicode="&#xac;" horiz-adv-x="1706" 
d="M254 866h1198v-501h-229v274h-969v227z" />
    <glyph glyph-name="sfthyphen" unicode="&#xad;" horiz-adv-x="682" 
d="M90 612h504v-219h-504v219z" />
    <glyph glyph-name="registered" unicode="&#xae;" horiz-adv-x="1683" 
d="M772 728q8 -2 16 -2.5t23 -0.5q85 0 127.5 43.5t42.5 130.5q0 62 -38.5 103.5t-98.5 41.5q-37 0 -54.5 -15.5t-17.5 -47.5v-253zM463 1100h405q147 0 236.5 -56t89.5 -145q0 -87 -64.5 -136.5t-211.5 -74.5q116 -23 172.5 -87.5t56.5 -172.5q0 -48 10 -68t33 -20
q25 0 39 31t14 88v12h55q0 -5 1 -15t1 -14q0 -90 -47 -135t-141 -45q-45 0 -80 13t-55 36q-32 37 -36 134q-2 43 -5 65q-13 87 -47.5 124.5t-100.5 37.5h-16v-244q0 -45 18 -63.5t70 -26.5v-57h-397v57q57 5 77.5 24t20.5 66v524q0 47 -19 65.5t-79 26.5v56zM844 1311
q-127 0 -244.5 -49t-204.5 -138q-88 -90 -135 -204.5t-47 -241.5q0 -130 47 -244t137 -203q93 -91 205.5 -137.5t239.5 -46.5t240.5 47.5t201.5 136.5q89 91 137.5 207.5t48.5 239.5q0 125 -49 243.5t-137 204.5q-89 88 -204 136.5t-236 48.5zM844 1423q150 0 291 -60
t245 -169q99 -102 152 -240t53 -292q0 -141 -63 -280.5t-176 -246.5q-102 -97 -232 -149t-272 -52q-109 0 -212.5 31.5t-197.5 91.5q-159 107 -246.5 269.5t-87.5 351.5q0 149 56 284t161 240q105 106 242.5 163.5t286.5 57.5z" />
    <glyph glyph-name="macron" unicode="&#xaf;" 
d="M236 1376h552v-147h-552v147z" />
    <glyph glyph-name="degree" unicode="&#xb0;" horiz-adv-x="674" 
d="M338 1321q-69 0 -117.5 -48t-48.5 -116q0 -70 48 -118t118 -48q68 0 116 49t48 117t-48 116t-116 48zM338 1466q129 0 220 -91t91 -220q0 -128 -91.5 -219.5t-221.5 -91.5q-129 0 -219 90.5t-90 220.5q0 131 90.5 221t220.5 90z" />
    <glyph glyph-name="plusminus" unicode="&#xb1;" horiz-adv-x="1706" 
d="M254 213h1198v-231h-1198v231zM735 1241h238v-319h479v-232h-479v-319h-238v319h-481v232h481v319z" />
    <glyph glyph-name="twosuperior" unicode="&#xb2;" horiz-adv-x="758" 
d="M659 578h-618v106q36 39 104 108q281 292 281 427q0 76 -39 121.5t-102 45.5q-30 0 -53 -12.5t-23 -25.5q0 -7 30.5 -38.5t30.5 -70.5q0 -42 -29 -68t-77 -26q-52 0 -83.5 30.5t-31.5 79.5q0 88 85 145.5t218 57.5q144 0 233 -67t89 -174q0 -62 -31 -112t-96 -93
q-20 -14 -63 -41q-177 -112 -267 -213h283q33 0 50.5 7.5t31.5 27.5l8 12q22 33 43 33h41z" />
    <glyph glyph-name="threesuperior" unicode="&#xb3;" horiz-adv-x="758" 
d="M215 1075q115 2 174.5 46t59.5 128q0 64 -39.5 103t-104.5 39q-30 0 -51 -11t-21 -24q0 -5 26 -34t26 -60q0 -42 -32 -67.5t-85 -25.5q-52 0 -81.5 27t-29.5 74q0 80 85 135t214 55q154 0 241 -59t87 -162q0 -79 -64 -129t-186 -66q136 -13 202 -67t66 -150
q0 -123 -103.5 -193.5t-283.5 -70.5q-139 0 -213.5 44t-74.5 126q0 52 35 82.5t94 30.5q47 0 78.5 -26t31.5 -66q0 -38 -28.5 -62.5t-28.5 -32.5q0 -10 23 -17t57 -7q83 0 124.5 45t41.5 135q0 103 -55 150t-175 47h-10v63z" />
    <glyph glyph-name="acute" unicode="&#xb4;" 
d="M590 1421q40 43 72 61.5t63 18.5q40 0 65 -25t25 -65q0 -30 -17.5 -52t-76.5 -54l-313 -166h-91z" />
    <glyph glyph-name="mu" unicode="&#xb5;" horiz-adv-x="1233" 
d="M219 190q-12 -89 -27 -239q-40 -377 -163 -377q-57 0 -92 34.5t-35 88.5q0 56 69 281t105 397l108 510h293l-106 -498q-10 -43 -15.5 -75t-5.5 -50q0 -54 28 -86.5t75 -32.5q62 0 104 55t68 171l110 516h291l-111 -525q-6 -26 -9 -49t-3 -43q0 -43 19.5 -67.5t54.5 -24.5
q26 0 49.5 13.5t40.5 37.5q10 14 25 42q35 63 65 63q11 0 20 -12t9 -27q0 -30 -21 -87t-53 -104q-41 -62 -95.5 -92t-125.5 -30q-90 0 -136.5 47.5t-54.5 146.5q-36 -97 -98.5 -145.5t-150.5 -48.5q-101 0 -161 54.5t-71 155.5z" />
    <glyph glyph-name="paragraph" unicode="&#xb6;" 
d="M997 1479v-123h-106v-1356h-176v1356h-150v-1356h-174v784q-164 6 -263 101t-99 245q0 158 106 253.5t283 95.5h579z" />
    <glyph glyph-name="glyph122" unicode="&#xb7;" horiz-adv-x="573" 
d="M287 911q79 0 133.5 -54.5t54.5 -133.5q0 -78 -55.5 -134.5t-132.5 -56.5q-79 0 -135 56.5t-56 134.5t56 133t135 55z" />
    <glyph glyph-name="cedilla" unicode="&#xb8;" 
d="M270 -287q78 -40 132.5 -56.5t105.5 -16.5q49 0 73.5 21.5t24.5 66.5q0 38 -26 58.5t-74 20.5q-11 0 -26.5 -1.5t-37.5 -3.5v198h72v-115q7 1 20 3q40 6 52 6q79 0 128.5 -48t49.5 -125q0 -84 -60.5 -131t-168.5 -47q-57 0 -125.5 17.5t-180.5 62.5z" />
    <glyph glyph-name="onesuperior" unicode="&#xb9;" horiz-adv-x="758" 
d="M178 578v28q0 22 38 40q9 4 15 7q24 11 32.5 25t8.5 43v27v587h-120v54l194 71h156v-731q0 -39 6.5 -51.5t26.5 -24.5q5 -3 19 -9q34 -15 34 -38v-28h-410z" />
    <glyph glyph-name="ordmasculine" unicode="&#xba;" horiz-adv-x="936" 
d="M467 1389q-82 0 -128 -76t-46 -213q0 -146 44 -221.5t130 -75.5q84 0 129 75.5t45 217.5t-45 217.5t-129 75.5zM47 1098q0 160 117.5 262t302.5 102t303.5 -103t118.5 -263t-120 -264.5t-302 -104.5t-301 104.5t-119 266.5z" />
    <glyph glyph-name="guillemotright" unicode="&#xbb;" horiz-adv-x="1081" 
d="M1006 502q-136 -105 -305.5 -245t-186.5 -140q-13 0 -23 11t-10 26q0 27 66 121.5t178 226.5q-112 132 -178 226t-66 122q0 15 10.5 27t22.5 12q17 0 185 -140t307 -247zM608 502q-132 -103 -304 -244t-189 -141q-13 0 -22 10.5t-9 26.5q0 27 65.5 121.5t178.5 226.5
q-113 132 -178.5 226t-65.5 122q0 15 9 27t22 12q17 0 187 -141t306 -246z" />
    <glyph glyph-name="onequarter" unicode="&#xbc;" horiz-adv-x="1788" 
d="M1192 305h244v318zM1081 227v78l408 518h156v-518h120v-78h-120v-77q0 -40 6 -53t26 -25q7 -4 18 -9q31 -15 31 -36v-27h-387v27q0 20 37 36q9 4 15 7q23 10 31 22.5t8 42.5v25v67h-349zM1264 1470h141l-881 -1495h-143zM170 635v27q0 20 37 36q9 4 14 7q23 10 31 22.5
t8 42.5v25v546h-115v52l185 65h149v-682q0 -36 6.5 -47.5t27.5 -24.5q4 -2 16 -7q32 -14 32 -35v-27h-391z" />
    <glyph glyph-name="onehalf" unicode="&#xbd;" horiz-adv-x="1788" 
d="M1694 0h-588v98q33 34 93 96q271 279 271 404q0 71 -37 114.5t-96 43.5q-28 0 -49.5 -12t-21.5 -25q0 -7 28.5 -36t28.5 -65q0 -38 -28.5 -63t-73.5 -25q-50 0 -79.5 28t-29.5 75q0 82 80.5 136t208.5 54q137 0 222 -63t85 -164q0 -57 -29.5 -104t-91.5 -86
q-19 -13 -61 -39q-169 -105 -254 -199h268q32 0 49 7t33 26q2 2 6 8q22 33 41 33h39zM1264 1470h141l-881 -1495h-143zM170 635v27q0 20 37 36q9 4 14 7q23 10 31 22.5t8 42.5v25v546h-115v52l185 65h149v-682q0 -36 6.5 -47.5t27.5 -24.5q4 -2 16 -7q32 -14 32 -35v-27
h-391z" />
    <glyph glyph-name="threequarters" unicode="&#xbe;" horiz-adv-x="1788" 
d="M1192 305h244v318zM1081 227v78l408 518h156v-518h120v-78h-120v-77q0 -40 6 -53t26 -25q7 -4 18 -9q31 -15 31 -36v-27h-387v27q0 20 37 36q9 4 15 7q23 10 31 22.5t8 42.5v25v67h-349zM1264 1470h141l-881 -1495h-143zM205 1100q109 0 166 41t57 121q0 60 -37 95.5
t-100 35.5q-28 0 -48 -9.5t-20 -21.5q0 -5 23.5 -32.5t23.5 -55.5q0 -40 -30 -64t-80 -24t-78.5 26t-28.5 70q0 74 81.5 125t205.5 51q147 0 230 -55t83 -152q0 -73 -62 -119.5t-177 -60.5q129 -14 192.5 -64t63.5 -139q0 -115 -98.5 -181t-270.5 -66q-132 0 -204 41.5
t-72 117.5q0 48 33.5 76.5t88.5 28.5q46 0 76.5 -24t30.5 -60q0 -37 -26.5 -59.5t-26.5 -28.5q0 -10 21.5 -17.5t53.5 -7.5q79 0 118.5 42t39.5 126q0 97 -52 140.5t-167 43.5h-10v60z" />
    <glyph glyph-name="questiondown" unicode="&#xbf;" horiz-adv-x="901" 
d="M524 1118q-72 0 -123 51.5t-51 124.5t52 124.5t124 51.5q73 0 124.5 -51.5t51.5 -124.5q0 -72 -52.5 -124t-125.5 -52zM592 1024v-72q0 -139 -67 -257l-3 -5q-11 -19 -34 -56q-103 -162 -103 -306q0 -113 48 -176.5t132 -63.5q32 0 50 13t18 34q0 5 -34 46t-34 93
q0 70 44 113t116 43q75 0 119.5 -45t44.5 -121q0 -129 -113 -209t-301 -80q-194 0 -310 94t-116 248q0 108 50 187.5t180 169.5q10 7 29 20q171 116 171 301v29h113z" />
    <glyph glyph-name="Agrave" unicode="&#xc0;" horiz-adv-x="1241" 
d="M748 403h-463l-53 -146q-10 -28 -15.5 -50t-5.5 -31q0 -27 53 -53.5t53 -75.5v-47h-397v47q0 50 66 81l2 1q38 21 62 53.5t50 102.5l355 925l-39 97q-2 4 -3 8t-1 10q0 9 9 18.5t28 20.5l182 102q1 1 4 3q20 12 35 12q10 0 17.5 -8t17.5 -32l458 -1197q28 -71 46 -92
t48 -31l10 -4q52 -20 52 -70v-47h-594v47q0 43 47 68t47 57q0 12 -2 24t-8 29zM518 1034l-184 -493h364zM714 1579l-313 166q-58 31 -76 53t-18 53q0 40 25 65t65 25q31 0 63 -18.5t72 -61.5l273 -282h-91z" />
    <glyph glyph-name="Aacute" unicode="&#xc1;" horiz-adv-x="1241" 
d="M748 403h-463l-53 -146q-10 -28 -15.5 -50t-5.5 -31q0 -27 53 -53.5t53 -75.5v-47h-397v47q0 50 66 81l2 1q38 21 62 53.5t50 102.5l355 925l-39 97q-2 4 -3 8t-1 10q0 9 9 18.5t28 20.5l182 102q1 1 4 3q20 12 35 12q10 0 17.5 -8t17.5 -32l458 -1197q28 -71 46 -92
t48 -31l10 -4q52 -20 52 -70v-47h-594v47q0 43 47 68t47 57q0 12 -2 24t-8 29zM518 1034l-184 -493h364zM688 1861q40 43 72 61.5t63 18.5q40 0 65 -25t25 -65q0 -30 -17.5 -52t-76.5 -54l-313 -166h-91z" />
    <glyph glyph-name="Acircumflex" unicode="&#xc2;" horiz-adv-x="1241" 
d="M748 403h-463l-53 -146q-10 -28 -15.5 -50t-5.5 -31q0 -27 53 -53.5t53 -75.5v-47h-397v47q0 50 66 81l2 1q38 21 62 53.5t50 102.5l355 925l-39 97q-2 4 -3 8t-1 10q0 9 9 18.5t28 20.5l182 102q1 1 4 3q20 12 35 12q10 0 17.5 -8t17.5 -32l458 -1197q28 -71 46 -92
t48 -31l10 -4q52 -20 52 -70v-47h-594v47q0 43 47 68t47 57q0 12 -2 24t-8 29zM518 1034l-184 -493h364zM536 1929h148l225 -350h-84l-215 180l-215 -180h-84z" />
    <glyph glyph-name="Atilde" unicode="&#xc3;" horiz-adv-x="1241" 
d="M748 403h-463l-53 -146q-10 -28 -15.5 -50t-5.5 -31q0 -27 53 -53.5t53 -75.5v-47h-397v47q0 50 66 81l2 1q38 21 62 53.5t50 102.5l355 925l-39 97q-2 4 -3 8t-1 10q0 9 9 18.5t28 20.5l182 102q1 1 4 3q20 12 35 12q10 0 17.5 -8t17.5 -32l458 -1197q28 -71 46 -92
t48 -31l10 -4q52 -20 52 -70v-47h-594v47q0 43 47 68t47 57q0 12 -2 24t-8 29zM518 1034l-184 -493h364zM636 1663l-104 26q-23 6 -35.5 8.5t-21.5 2.5q-31 0 -52.5 -22t-37.5 -69h-66q17 125 69.5 186.5t141.5 61.5q19 0 34.5 -2t29.5 -6l109 -29q10 -3 20 -4.5t18 -1.5
q33 0 55 20.5t37 65.5h66q-17 -123 -70 -183t-143 -60q-13 0 -25.5 1.5t-24.5 4.5z" />
    <glyph glyph-name="Adieresis" unicode="&#xc4;" horiz-adv-x="1241" 
d="M748 403h-463l-53 -146q-10 -28 -15.5 -50t-5.5 -31q0 -27 53 -53.5t53 -75.5v-47h-397v47q0 50 66 81l2 1q38 21 62 53.5t50 102.5l355 925l-39 97q-2 4 -3 8t-1 10q0 9 9 18.5t28 20.5l182 102q1 1 4 3q20 12 35 12q10 0 17.5 -8t17.5 -32l458 -1197q28 -71 46 -92
t48 -31l10 -4q52 -20 52 -70v-47h-594v47q0 43 47 68t47 57q0 12 -2 24t-8 29zM518 1034l-184 -493h364zM307 1743q0 48 36 84t85 36t84 -35.5t35 -84.5q0 -54 -33.5 -87.5t-85.5 -33.5t-86.5 34.5t-34.5 86.5zM671 1743q0 48 36.5 84t84.5 36q49 0 84 -35.5t35 -84.5
q0 -54 -33 -87.5t-86 -33.5q-51 0 -86 34.5t-35 86.5z" />
    <glyph glyph-name="Aring" unicode="&#xc5;" horiz-adv-x="1241" 
d="M518 1034l-184 -493h364zM705 1441l458 -1197q28 -71 46 -92.5t48 -32.5l9 -3q53 -18 53 -69v-47h-594v47q0 43 47 68t47 57q0 12 -2 24t-8 29l-61 178h-463l-53 -146q-10 -28 -15.5 -50t-5.5 -31q0 -27 53 -53.5t53 -75.5v-47h-397v47q0 49 62 81l6 3q38 20 62 52
t50 102l355 925l-39 97q-2 4 -3 8t-1 10q0 9 9 18.5t28 20.5l182 102q1 1 4 3q20 12 35 12q10 0 17.5 -8t17.5 -32zM580 1868q-50 0 -85.5 -36t-35.5 -85t35.5 -84t85.5 -35q49 0 83.5 35t34.5 84t-35 85t-83 36zM580 1972q93 0 158 -65.5t65 -159.5q0 -93 -65 -158
t-158 -65t-159.5 66t-66.5 159t66 158t160 65z" />
    <glyph glyph-name="AE" unicode="&#xc6;" horiz-adv-x="1939" 
d="M770 0v47q0 37 41 63q16 10 25 17q22 17 31.5 39t9.5 72v47v395h-373l-228 -428q-14 -28 -22 -50.5t-8 -33.5q0 -25 60.5 -48.5t60.5 -72.5v-47h-433v47q0 30 15 48.5t47 29.5q79 33 143 156q12 22 19 34l446 830q30 53 39.5 79t9.5 46q0 39 -57 56q-14 4 -20 7
q-21 5 -32.5 22.5t-11.5 43.5v47h1074q81 0 127 8t90 25v-381h-60q-58 0 -94 91q-19 45 -33 66q-24 37 -60.5 52.5t-115.5 15.5h-26h-215v-512h92q64 0 89 7.5t40 25.5q10 13 24 46q28 64 64 64h55v-407h-55q-36 0 -64 65q-14 34 -24 47q-15 19 -40 26t-89 7h-92v-565h294
q115 0 158.5 23t67.5 77q10 23 22 66q26 94 82 94h58v-387h-1131zM565 799h312v520h-37z" />
    <glyph glyph-name="Ccedilla" unicode="&#xc7;" horiz-adv-x="1337" 
d="M1286 258q-77 -140 -204 -211.5t-300 -71.5q-313 0 -514.5 219t-201.5 562q0 306 184 511.5t461 205.5q127 0 248.5 -54.5t136.5 -54.5q18 0 29.5 9t23.5 34h92v-399h-49q-34 0 -53.5 13t-36.5 46l-10 19q-136 260 -293 260q-169 0 -268 -153t-99 -415q0 -305 117.5 -477
t322.5 -172q95 0 168.5 46t155.5 157zM499 -287q78 -40 132.5 -56.5t105.5 -16.5q49 0 73.5 21.5t24.5 66.5q0 38 -26 58.5t-74 20.5q-11 0 -26.5 -1.5t-37.5 -3.5v198h72v-115q7 1 20 3q40 6 52 6q79 0 128.5 -48t49.5 -125q0 -84 -60.5 -131t-168.5 -47q-57 0 -125.5 17.5
t-180.5 62.5z" />
    <glyph glyph-name="Egrave" unicode="&#xc8;" horiz-adv-x="1247" 
d="M78 0v47q0 38 43 65q14 9 22 15q24 18 32.5 40t8.5 71v47v923q0 50 -9 72t-32 39q-8 6 -21 14q-44 28 -44 66v47h837q81 0 126 7.5t89 25.5v-381h-59q-58 0 -95 91q-18 45 -32 66q-24 37 -60.5 52.5t-115.5 15.5h-27h-215v-512h92q65 0 90 7.5t40 25.5q10 13 24 46
q28 64 64 64h55v-407h-55q-36 0 -64 65q-14 34 -24 47q-15 19 -40 26t-90 7h-92v-563h295q118 0 160 22.5t66 75.5q9 23 22 66q26 94 82 94h57v-387h-1130zM708 1579l-313 166q-58 31 -76 53t-18 53q0 40 25 65t65 25q31 0 63 -18.5t72 -61.5l273 -282h-91z" />
    <glyph glyph-name="Eacute" unicode="&#xc9;" horiz-adv-x="1247" 
d="M78 0v47q0 38 43 65q14 9 22 15q24 18 32.5 40t8.5 71v47v923q0 50 -9 72t-32 39q-8 6 -21 14q-44 28 -44 66v47h837q81 0 126 7.5t89 25.5v-381h-59q-58 0 -95 91q-18 45 -32 66q-24 37 -60.5 52.5t-115.5 15.5h-27h-215v-512h92q65 0 90 7.5t40 25.5q10 13 24 46
q28 64 64 64h55v-407h-55q-36 0 -64 65q-14 34 -24 47q-15 19 -40 26t-90 7h-92v-563h295q118 0 160 22.5t66 75.5q9 23 22 66q26 94 82 94h57v-387h-1130zM682 1861q40 43 72 61.5t63 18.5q40 0 65 -25t25 -65q0 -30 -17.5 -52t-76.5 -54l-313 -166h-91z" />
    <glyph glyph-name="Ecircumflex" unicode="&#xca;" horiz-adv-x="1247" 
d="M78 0v47q0 38 43 65q14 9 22 15q24 18 32.5 40t8.5 71v47v923q0 50 -9 72t-32 39q-8 6 -21 14q-44 28 -44 66v47h837q81 0 126 7.5t89 25.5v-381h-59q-58 0 -95 91q-18 45 -32 66q-24 37 -60.5 52.5t-115.5 15.5h-27h-215v-512h92q65 0 90 7.5t40 25.5q10 13 24 46
q28 64 64 64h55v-407h-55q-36 0 -64 65q-14 34 -24 47q-15 19 -40 26t-90 7h-92v-563h295q118 0 160 22.5t66 75.5q9 23 22 66q26 94 82 94h57v-387h-1130zM530 1929h148l225 -350h-84l-215 180l-215 -180h-84z" />
    <glyph glyph-name="Edieresis" unicode="&#xcb;" horiz-adv-x="1247" 
d="M78 0v47q0 38 43 65q14 9 22 15q24 18 32.5 40t8.5 71v47v923q0 50 -9 72t-32 39q-8 6 -21 14q-44 28 -44 66v47h837q81 0 126 7.5t89 25.5v-381h-59q-58 0 -95 91q-18 45 -32 66q-24 37 -60.5 52.5t-115.5 15.5h-27h-215v-512h92q65 0 90 7.5t40 25.5q10 13 24 46
q28 64 64 64h55v-407h-55q-36 0 -64 65q-14 34 -24 47q-15 19 -40 26t-90 7h-92v-563h295q118 0 160 22.5t66 75.5q9 23 22 66q26 94 82 94h57v-387h-1130zM301 1743q0 48 36 84t85 36t84 -35.5t35 -84.5q0 -54 -33.5 -87.5t-85.5 -33.5t-86.5 34.5t-34.5 86.5zM665 1743
q0 48 36.5 84t84.5 36q49 0 84 -35.5t35 -84.5q0 -54 -33 -87.5t-86 -33.5q-51 0 -86 34.5t-35 86.5z" />
    <glyph glyph-name="Igrave" unicode="&#xcc;" horiz-adv-x="711" 
d="M78 0v47q0 38 43 65q14 9 22 15q24 18 32.5 40t8.5 71v47v923q0 50 -9 72t-32 39q-8 6 -21 14q-44 28 -44 66v47h555v-47q0 -39 -43 -66q-14 -9 -21 -14q-24 -17 -33.5 -40t-9.5 -83v-35v-899q0 -75 11 -98t42 -45q5 -3 11 -7q43 -27 43 -65v-47h-555zM460 1579l-313 166
q-58 31 -76 53t-18 53q0 40 25 65t65 25q31 0 63 -18.5t72 -61.5l273 -282h-91z" />
    <glyph glyph-name="Iacute" unicode="&#xcd;" horiz-adv-x="711" 
d="M78 0v47q0 38 43 65q14 9 22 15q24 18 32.5 40t8.5 71v47v923q0 50 -9 72t-32 39q-8 6 -21 14q-44 28 -44 66v47h555v-47q0 -39 -43 -66q-14 -9 -21 -14q-24 -17 -33.5 -40t-9.5 -83v-35v-899q0 -75 11 -98t42 -45q5 -3 11 -7q43 -27 43 -65v-47h-555zM434 1861
q40 43 72 61.5t63 18.5q40 0 65 -25t25 -65q0 -30 -17.5 -52t-76.5 -54l-313 -166h-91z" />
    <glyph glyph-name="Icircumflex" unicode="&#xce;" horiz-adv-x="711" 
d="M78 0v47q0 38 43 65q14 9 22 15q24 18 32.5 40t8.5 71v47v923q0 50 -9 72t-32 39q-8 6 -21 14q-44 28 -44 66v47h555v-47q0 -39 -43 -66q-14 -9 -21 -14q-24 -17 -33.5 -40t-9.5 -83v-35v-899q0 -75 11 -98t42 -45q5 -3 11 -7q43 -27 43 -65v-47h-555zM282 1929h148
l225 -350h-84l-215 180l-215 -180h-84z" />
    <glyph glyph-name="Idieresis" unicode="&#xcf;" horiz-adv-x="711" 
d="M78 0v47q0 38 43 65q14 9 22 15q24 18 32.5 40t8.5 71v47v923q0 50 -9 72t-32 39q-8 6 -21 14q-44 28 -44 66v47h555v-47q0 -39 -43 -66q-14 -9 -21 -14q-24 -17 -33.5 -40t-9.5 -83v-35v-899q0 -75 11 -98t42 -45q5 -3 11 -7q43 -27 43 -65v-47h-555zM53 1743
q0 48 36 84t85 36t84 -35.5t35 -84.5q0 -54 -33.5 -87.5t-85.5 -33.5t-86.5 34.5t-34.5 86.5zM417 1743q0 48 36.5 84t84.5 36q49 0 84 -35.5t35 -84.5q0 -54 -33 -87.5t-86 -33.5q-51 0 -86 34.5t-35 86.5z" />
    <glyph glyph-name="Eth" unicode="&#xd0;" horiz-adv-x="1507" 
d="M82 0v47q0 39 43 66q14 9 20 14q24 18 32.5 40t8.5 71v47v413h-186v136h186v374q0 50 -9 72t-32 39q-6 5 -20 14q-43 27 -43 66v47h561q229 0 353.5 -36t222.5 -120q109 -94 169 -241.5t60 -325.5t-60 -325.5t-169 -241.5q-98 -84 -222.5 -120t-353.5 -36h-561zM639 1325
h-121v-491h303v-136h-303v-577h121q234 0 335 139t101 463q0 325 -100.5 463.5t-335.5 138.5z" />
    <glyph glyph-name="Ntilde" unicode="&#xd1;" horiz-adv-x="1395" 
d="M1315 1446v-47q0 -39 -43 -66q-14 -9 -21 -14q-24 -17 -33.5 -40t-9.5 -83v-35v-1161h-133l-758 1194v-932q0 -75 11 -98t42 -45q5 -3 11 -7q43 -27 43 -65v-47h-346v47q0 38 43 65q14 9 22 15q24 18 32.5 40t8.5 71v47v923q0 50 -9 72t-32 39q-8 6 -21 14q-44 28 -44 66
v47h461l536 -840v602q0 50 -9 72t-32 39q-7 5 -21 14q-42 27 -42 66v47h344zM741 1663l-104 26q-23 6 -35.5 8.5t-21.5 2.5q-31 0 -52.5 -22t-37.5 -69h-66q17 125 69.5 186.5t141.5 61.5q19 0 34.5 -2t29.5 -6l109 -29q10 -3 20 -4.5t18 -1.5q33 0 55 20.5t37 65.5h66
q-17 -123 -70 -183t-143 -60q-13 0 -25.5 1.5t-24.5 4.5z" />
    <glyph glyph-name="Ograve" unicode="&#xd2;" horiz-adv-x="1626" 
d="M813 1360q-178 0 -276.5 -166.5t-98.5 -470.5t98.5 -470.5t276.5 -166.5t275.5 165.5t97.5 471.5q0 305 -98 471t-275 166zM66 723q0 330 209 538.5t538 208.5q330 0 538 -208t208 -539t-208 -539.5t-538 -208.5q-329 0 -538 209t-209 539zM917 1579l-313 166
q-58 31 -76 53t-18 53q0 40 25 65t65 25q31 0 63 -18.5t72 -61.5l273 -282h-91z" />
    <glyph glyph-name="Oacute" unicode="&#xd3;" horiz-adv-x="1626" 
d="M813 1360q-178 0 -276.5 -166.5t-98.5 -470.5t98.5 -470.5t276.5 -166.5t275.5 165.5t97.5 471.5q0 305 -98 471t-275 166zM66 723q0 330 209 538.5t538 208.5q330 0 538 -208t208 -539t-208 -539.5t-538 -208.5q-329 0 -538 209t-209 539zM891 1861q40 43 72 61.5
t63 18.5q40 0 65 -25t25 -65q0 -30 -17.5 -52t-76.5 -54l-313 -166h-91z" />
    <glyph glyph-name="Ocircumflex" unicode="&#xd4;" horiz-adv-x="1626" 
d="M813 1360q-178 0 -276.5 -166.5t-98.5 -470.5t98.5 -470.5t276.5 -166.5t275.5 165.5t97.5 471.5q0 305 -98 471t-275 166zM66 723q0 330 209 538.5t538 208.5q330 0 538 -208t208 -539t-208 -539.5t-538 -208.5q-329 0 -538 209t-209 539zM739 1929h148l225 -350h-84
l-215 180l-215 -180h-84z" />
    <glyph glyph-name="Otilde" unicode="&#xd5;" horiz-adv-x="1626" 
d="M813 1360q-178 0 -276.5 -166.5t-98.5 -470.5t98.5 -470.5t276.5 -166.5t275.5 165.5t97.5 471.5q0 305 -98 471t-275 166zM66 723q0 330 209 538.5t538 208.5q330 0 538 -208t208 -539t-208 -539.5t-538 -208.5q-329 0 -538 209t-209 539zM839 1663l-104 26
q-23 6 -35.5 8.5t-21.5 2.5q-31 0 -52.5 -22t-37.5 -69h-66q17 125 69.5 186.5t141.5 61.5q19 0 34.5 -2t29.5 -6l109 -29q10 -3 20 -4.5t18 -1.5q33 0 55 20.5t37 65.5h66q-17 -123 -70 -183t-143 -60q-13 0 -25.5 1.5t-24.5 4.5z" />
    <glyph glyph-name="Odieresis" unicode="&#xd6;" horiz-adv-x="1626" 
d="M813 1360q-178 0 -276.5 -166.5t-98.5 -470.5t98.5 -470.5t276.5 -166.5t275.5 165.5t97.5 471.5q0 305 -98 471t-275 166zM66 723q0 330 209 538.5t538 208.5q330 0 538 -208t208 -539t-208 -539.5t-538 -208.5q-329 0 -538 209t-209 539zM510 1743q0 48 36 84t85 36
t84 -35.5t35 -84.5q0 -54 -33.5 -87.5t-85.5 -33.5t-86.5 34.5t-34.5 86.5zM874 1743q0 48 36.5 84t84.5 36q49 0 84 -35.5t35 -84.5q0 -54 -33 -87.5t-86 -33.5q-51 0 -86 34.5t-35 86.5z" />
    <glyph glyph-name="multiply" unicode="&#xd7;" horiz-adv-x="1706" 
d="M430 1214l440 -440l441 440l162 -161l-441 -443l441 -440l-162 -162l-441 441l-440 -441l-162 162l441 440l-441 443z" />
    <glyph glyph-name="Oslash" unicode="&#xd8;" horiz-adv-x="1626" 
d="M477 383l594 836q-52 70 -117 105.5t-141 35.5q-179 0 -278 -170t-99 -479q0 -81 10.5 -162.5t30.5 -165.5zM1137 1092l-596 -848q48 -76 119 -117t153 -41q178 0 275.5 165.5t97.5 471.5q0 113 -13 207.5t-36 161.5zM317 -76h-163l159 226q-124 104 -185.5 246.5
t-61.5 326.5q0 330 209 538.5t538 208.5q102 0 195 -21.5t178 -66.5l96 140h158l-148 -211q133 -100 200 -247t67 -341q0 -331 -208 -539.5t-538 -208.5q-108 0 -203 24t-190 75z" />
    <glyph glyph-name="Ugrave" unicode="&#xd9;" horiz-adv-x="1384" 
d="M162 1161v35q0 60 -9.5 83t-33.5 40q-7 5 -21 14q-43 27 -43 66v47h553v-47q0 -39 -42 -66q-14 -9 -21 -14q-25 -17 -34 -40t-9 -83v-35v-708q0 -177 66.5 -260.5t205.5 -83.5q153 0 234.5 90.5t81.5 261.5v747q0 50 -9.5 72t-31.5 39q-7 5 -21 14q-43 27 -43 66v47h344
v-47q0 -39 -43 -66q-13 -9 -20 -14q-25 -17 -34 -40t-9 -83v-35v-682q0 -264 -126.5 -384t-402.5 -120q-144 0 -240.5 31t-166.5 98q-68 66 -96.5 138t-28.5 231v688zM845 1579l-313 166q-58 31 -76 53t-18 53q0 40 25 65t65 25q31 0 63 -18.5t72 -61.5l273 -282h-91z" />
    <glyph glyph-name="Uacute" unicode="&#xda;" horiz-adv-x="1384" 
d="M162 1161v35q0 60 -9.5 83t-33.5 40q-7 5 -21 14q-43 27 -43 66v47h553v-47q0 -39 -42 -66q-14 -9 -21 -14q-25 -17 -34 -40t-9 -83v-35v-708q0 -177 66.5 -260.5t205.5 -83.5q153 0 234.5 90.5t81.5 261.5v747q0 50 -9.5 72t-31.5 39q-7 5 -21 14q-43 27 -43 66v47h344
v-47q0 -39 -43 -66q-13 -9 -20 -14q-25 -17 -34 -40t-9 -83v-35v-682q0 -264 -126.5 -384t-402.5 -120q-144 0 -240.5 31t-166.5 98q-68 66 -96.5 138t-28.5 231v688zM819 1861q40 43 72 61.5t63 18.5q40 0 65 -25t25 -65q0 -30 -17.5 -52t-76.5 -54l-313 -166h-91z" />
    <glyph glyph-name="Ucircumflex" unicode="&#xdb;" horiz-adv-x="1384" 
d="M162 1161v35q0 60 -9.5 83t-33.5 40q-7 5 -21 14q-43 27 -43 66v47h553v-47q0 -39 -42 -66q-14 -9 -21 -14q-25 -17 -34 -40t-9 -83v-35v-708q0 -177 66.5 -260.5t205.5 -83.5q153 0 234.5 90.5t81.5 261.5v747q0 50 -9.5 72t-31.5 39q-7 5 -21 14q-43 27 -43 66v47h344
v-47q0 -39 -43 -66q-13 -9 -20 -14q-25 -17 -34 -40t-9 -83v-35v-682q0 -264 -126.5 -384t-402.5 -120q-144 0 -240.5 31t-166.5 98q-68 66 -96.5 138t-28.5 231v688zM667 1929h148l225 -350h-84l-215 180l-215 -180h-84z" />
    <glyph glyph-name="Udieresis" unicode="&#xdc;" horiz-adv-x="1384" 
d="M162 1161v35q0 60 -9.5 83t-33.5 40q-7 5 -21 14q-43 27 -43 66v47h553v-47q0 -39 -42 -66q-14 -9 -21 -14q-25 -17 -34 -40t-9 -83v-35v-708q0 -177 66.5 -260.5t205.5 -83.5q153 0 234.5 90.5t81.5 261.5v747q0 50 -9.5 72t-31.5 39q-7 5 -21 14q-43 27 -43 66v47h344
v-47q0 -39 -43 -66q-13 -9 -20 -14q-25 -17 -34 -40t-9 -83v-35v-682q0 -264 -126.5 -384t-402.5 -120q-144 0 -240.5 31t-166.5 98q-68 66 -96.5 138t-28.5 231v688zM438 1743q0 48 36 84t85 36t84 -35.5t35 -84.5q0 -54 -33.5 -87.5t-85.5 -33.5t-86.5 34.5t-34.5 86.5z
M802 1743q0 48 36.5 84t84.5 36q49 0 84 -35.5t35 -84.5q0 -54 -33 -87.5t-86 -33.5q-51 0 -86 34.5t-35 86.5z" />
    <glyph glyph-name="Yacute" unicode="&#xdd;" horiz-adv-x="1194" 
d="M109 1188q-41 70 -61.5 95.5t-41.5 35.5q-12 5 -34 13q-54 19 -54 67v47h617v-47q0 -40 -48.5 -55t-48.5 -37q0 -19 7 -39.5t24 -50.5l233 -414l234 399q22 38 32.5 63t10.5 40q0 12 -52.5 29t-52.5 65v47h396v-47q0 -27 -11.5 -40t-46.5 -24q-54 -17 -108 -112l-6 -11
l-330 -565v-385q0 -75 10.5 -98t42.5 -45q4 -3 12 -8q41 -26 41 -64v-47h-552v47q0 37 39 63q15 10 24 17q24 17 33.5 40t9.5 83v35v348zM676 1861q40 43 72 61.5t63 18.5q40 0 65 -25t25 -65q0 -30 -17.5 -52t-76.5 -54l-313 -166h-91z" />
    <glyph glyph-name="Thorn" unicode="&#xde;" horiz-adv-x="1255" 
d="M526 465q8 0 21 -1t20 -1q143 0 209 66.5t66 209.5q0 129 -61 203t-167 74q-18 0 -40.5 -1.5t-46.5 -4.5zM78 0v47q0 38 43 65q14 9 22 15q24 18 32.5 40t8.5 71v47v923q0 50 -9 72t-32 39q-8 6 -21 14q-44 28 -44 66v47h555v-47q0 -39 -43 -66q-14 -9 -21 -14
q-24 -17 -33.5 -40t-9.5 -83v-35v-16h207q228 0 344.5 -101t116.5 -299q0 -195 -125.5 -300t-359.5 -105q-41 0 -86.5 0.5t-96.5 1.5v-80q0 -75 11 -98t42 -45q5 -3 11 -7q43 -27 43 -65v-47h-555z" />
    <glyph glyph-name="germandbls" unicode="&#xdf;" horiz-adv-x="1356" 
d="M59 0v49q0 30 54.5 56.5t54.5 93.5v43v626h-123v56q0 43 41 57q14 5 22 8q29 12 45 32t27 56q5 17 13 58q27 149 116 235q63 59 145 89t183 30q218 0 344.5 -86.5t126.5 -233.5q0 -84 -38.5 -141t-117.5 -88q-17 -7 -49 -18q-96 -33 -96 -70q0 -41 130 -98
q96 -42 155 -74q106 -58 160.5 -143t54.5 -195q0 -166 -115 -266.5t-309 -100.5q-148 0 -242 74t-94 187q0 69 41.5 112t107.5 43q58 0 99 -38.5t41 -94.5q0 -39 -24 -77t-24 -40q0 -19 23 -34t57 -15q79 0 127.5 44t48.5 116q0 91 -170 172q-43 21 -67 33
q-142 72 -200 135.5t-58 144.5q0 67 28 109t109 86q61 32 83 76.5t22 144.5q0 107 -39.5 161t-116.5 54q-87 0 -124.5 -50t-37.5 -167v-1151h-414z" />
    <glyph glyph-name="agrave" unicode="&#xe0;" horiz-adv-x="1151" 
d="M672 416v135q-136 -20 -207.5 -91t-71.5 -186q0 -69 33 -112t86 -43q77 0 118.5 76.5t41.5 220.5zM1151 94q-38 -56 -91.5 -84t-123.5 -28q-75 0 -125.5 31.5t-91.5 105.5q-70 -76 -144 -110t-172 -34q-156 0 -255 81t-99 206q0 154 162 255t459 132v27q0 116 -46.5 183
t-125.5 67q-39 0 -62.5 -23.5t-23.5 -60.5q0 -10 3 -28t3 -26q0 -54 -40.5 -89t-103.5 -35q-65 0 -108 40t-43 101q0 97 111.5 160t291.5 63q122 0 206 -26.5t151 -86.5q65 -58 91.5 -133.5t26.5 -244.5v-328q0 -38 13.5 -54t46.5 -16q8 0 21 4t28 11zM679 1139l-313 166
q-58 31 -76 53t-18 53q0 40 25 65t65 25q31 0 63 -18.5t72 -61.5l273 -282h-91z" />
    <glyph glyph-name="aacute" unicode="&#xe1;" horiz-adv-x="1151" 
d="M672 416v135q-136 -20 -207.5 -91t-71.5 -186q0 -69 33 -112t86 -43q77 0 118.5 76.5t41.5 220.5zM1151 94q-38 -56 -91.5 -84t-123.5 -28q-75 0 -125.5 31.5t-91.5 105.5q-70 -76 -144 -110t-172 -34q-156 0 -255 81t-99 206q0 154 162 255t459 132v27q0 116 -46.5 183
t-125.5 67q-39 0 -62.5 -23.5t-23.5 -60.5q0 -10 3 -28t3 -26q0 -54 -40.5 -89t-103.5 -35q-65 0 -108 40t-43 101q0 97 111.5 160t291.5 63q122 0 206 -26.5t151 -86.5q65 -58 91.5 -133.5t26.5 -244.5v-328q0 -38 13.5 -54t46.5 -16q8 0 21 4t28 11zM653 1421
q40 43 72 61.5t63 18.5q40 0 65 -25t25 -65q0 -30 -17.5 -52t-76.5 -54l-313 -166h-91z" />
    <glyph glyph-name="acircumflex" unicode="&#xe2;" horiz-adv-x="1151" 
d="M672 416v135q-136 -20 -207.5 -91t-71.5 -186q0 -69 33 -112t86 -43q77 0 118.5 76.5t41.5 220.5zM1151 94q-38 -56 -91.5 -84t-123.5 -28q-75 0 -125.5 31.5t-91.5 105.5q-70 -76 -144 -110t-172 -34q-156 0 -255 81t-99 206q0 154 162 255t459 132v27q0 116 -46.5 183
t-125.5 67q-39 0 -62.5 -23.5t-23.5 -60.5q0 -10 3 -28t3 -26q0 -54 -40.5 -89t-103.5 -35q-65 0 -108 40t-43 101q0 97 111.5 160t291.5 63q122 0 206 -26.5t151 -86.5q65 -58 91.5 -133.5t26.5 -244.5v-328q0 -38 13.5 -54t46.5 -16q8 0 21 4t28 11zM501 1489h148
l225 -350h-84l-215 180l-215 -180h-84z" />
    <glyph glyph-name="atilde" unicode="&#xe3;" horiz-adv-x="1151" 
d="M672 416v135q-136 -20 -207.5 -91t-71.5 -186q0 -69 33 -112t86 -43q77 0 118.5 76.5t41.5 220.5zM1151 94q-38 -56 -91.5 -84t-123.5 -28q-75 0 -125.5 31.5t-91.5 105.5q-70 -76 -144 -110t-172 -34q-156 0 -255 81t-99 206q0 154 162 255t459 132v27q0 116 -46.5 183
t-125.5 67q-39 0 -62.5 -23.5t-23.5 -60.5q0 -10 3 -28t3 -26q0 -54 -40.5 -89t-103.5 -35q-65 0 -108 40t-43 101q0 97 111.5 160t291.5 63q122 0 206 -26.5t151 -86.5q65 -58 91.5 -133.5t26.5 -244.5v-328q0 -38 13.5 -54t46.5 -16q8 0 21 4t28 11zM601 1223l-104 26
q-23 6 -35.5 8.5t-21.5 2.5q-31 0 -52.5 -22t-37.5 -69h-66q17 125 69.5 186.5t141.5 61.5q19 0 34.5 -2t29.5 -6l109 -29q10 -3 20 -4.5t18 -1.5q33 0 55 20.5t37 65.5h66q-17 -123 -70 -183t-143 -60q-13 0 -25.5 1.5t-24.5 4.5z" />
    <glyph glyph-name="adieresis" unicode="&#xe4;" horiz-adv-x="1151" 
d="M672 416v135q-136 -20 -207.5 -91t-71.5 -186q0 -69 33 -112t86 -43q77 0 118.5 76.5t41.5 220.5zM1151 94q-38 -56 -91.5 -84t-123.5 -28q-75 0 -125.5 31.5t-91.5 105.5q-70 -76 -144 -110t-172 -34q-156 0 -255 81t-99 206q0 154 162 255t459 132v27q0 116 -46.5 183
t-125.5 67q-39 0 -62.5 -23.5t-23.5 -60.5q0 -10 3 -28t3 -26q0 -54 -40.5 -89t-103.5 -35q-65 0 -108 40t-43 101q0 97 111.5 160t291.5 63q122 0 206 -26.5t151 -86.5q65 -58 91.5 -133.5t26.5 -244.5v-328q0 -38 13.5 -54t46.5 -16q8 0 21 4t28 11zM272 1303q0 48 36 84
t85 36t84 -35.5t35 -84.5q0 -54 -33.5 -87.5t-85.5 -33.5t-86.5 34.5t-34.5 86.5zM636 1303q0 48 36.5 84t84.5 36q49 0 84 -35.5t35 -84.5q0 -54 -33 -87.5t-86 -33.5q-51 0 -86 34.5t-35 86.5z" />
    <glyph glyph-name="aring" unicode="&#xe5;" horiz-adv-x="1151" 
d="M541 1438q-49 0 -83 -35t-34 -84t34 -83t83 -34q50 0 84 34t34 83t-34.5 84t-83.5 35zM317 1319q0 95 65 160t159 65q93 0 159 -65.5t66 -159.5q0 -92 -66 -157.5t-159 -65.5q-92 0 -158 65.5t-66 157.5zM1151 94q-38 -56 -91.5 -84t-123.5 -28q-75 0 -125.5 31.5
t-91.5 105.5q-70 -76 -144 -110t-172 -34q-156 0 -255 81t-99 206q0 154 162 255t459 132v27q0 116 -46.5 183t-125.5 67q-39 0 -62.5 -23.5t-23.5 -60.5q0 -10 3 -28t3 -26q0 -54 -40.5 -89t-103.5 -35q-65 0 -108 40t-43 101q0 97 111.5 160t291.5 63q122 0 206 -26.5
t151 -86.5q65 -58 91.5 -133.5t26.5 -244.5v-328q0 -38 13.5 -54t46.5 -16q8 0 21 4t28 11zM672 416v135q-136 -20 -207.5 -91t-71.5 -186q0 -69 33 -112t86 -43q77 0 118.5 76.5t41.5 220.5z" />
    <glyph glyph-name="ae" unicode="&#xe6;" horiz-adv-x="1716" 
d="M1645 516h-641v-35q0 -173 78.5 -275t209.5 -102q72 0 138.5 37t144.5 119l78 -67q-80 -112 -184.5 -165t-241.5 -53q-149 0 -250.5 42.5t-173.5 134.5q-89 -94 -179 -135.5t-204 -41.5q-170 0 -270.5 78.5t-100.5 208.5q0 155 161.5 255.5t461.5 131.5v17
q0 121 -46.5 190.5t-127.5 69.5q-39 0 -62.5 -23.5t-23.5 -60.5q0 -10 3 -28t3 -26q0 -54 -40.5 -89t-103.5 -35q-65 0 -108 40t-43 101q0 95 110.5 159t280.5 64q98 0 177 -27.5t151 -87.5q73 58 150.5 86.5t160.5 28.5q227 0 359.5 -134.5t132.5 -367.5v-10zM1006 631h311
v31q0 118 -41 182.5t-115 64.5t-114.5 -64.5t-40.5 -182.5v-31zM672 416v135q-136 -20 -207.5 -91t-71.5 -186q0 -69 33 -112t86 -43q77 0 118.5 76.5t41.5 220.5z" />
    <glyph glyph-name="ccedilla" unicode="&#xe7;" horiz-adv-x="1014" 
d="M993 156q-73 -95 -161 -138t-209 -43q-251 0 -407.5 151t-156.5 386q0 226 157 371t407 145q157 0 253.5 -65t96.5 -168q0 -68 -41 -109t-109 -41q-61 0 -101 36.5t-40 88.5q0 25 12.5 61.5t12.5 47.5q0 16 -20.5 27.5t-51.5 11.5q-92 0 -153.5 -111t-61.5 -289
q0 -199 73 -307.5t207 -108.5q65 0 117 29t105 94zM325 -287q78 -40 132.5 -56.5t105.5 -16.5q49 0 73.5 21.5t24.5 66.5q0 38 -26 58.5t-74 20.5q-11 0 -26.5 -1.5t-37.5 -3.5v198h72v-115q7 1 20 3q40 6 52 6q79 0 128.5 -48t49.5 -125q0 -84 -60.5 -131t-168.5 -47
q-57 0 -125.5 17.5t-180.5 62.5z" />
    <glyph glyph-name="egrave" unicode="&#xe8;" horiz-adv-x="1128" 
d="M418 631h311v31q0 118 -40.5 182.5t-115.5 64.5q-74 0 -114.5 -64.5t-40.5 -182.5v-31zM416 516v-35q0 -173 78.5 -275t210.5 -102q71 0 137.5 37t144.5 119l78 -67q-80 -112 -184 -165t-242 -53q-255 0 -417.5 155.5t-162.5 389.5q0 214 145.5 361t360.5 147
q227 0 359.5 -134.5t132.5 -367.5v-10h-641zM686 1139l-313 166q-58 31 -76 53t-18 53q0 40 25 65t65 25q31 0 63 -18.5t72 -61.5l273 -282h-91z" />
    <glyph glyph-name="eacute" unicode="&#xe9;" horiz-adv-x="1128" 
d="M418 631h311v31q0 118 -40.5 182.5t-115.5 64.5q-74 0 -114.5 -64.5t-40.5 -182.5v-31zM416 516v-35q0 -173 78.5 -275t210.5 -102q71 0 137.5 37t144.5 119l78 -67q-80 -112 -184 -165t-242 -53q-255 0 -417.5 155.5t-162.5 389.5q0 214 145.5 361t360.5 147
q227 0 359.5 -134.5t132.5 -367.5v-10h-641zM660 1421q40 43 72 61.5t63 18.5q40 0 65 -25t25 -65q0 -30 -17.5 -52t-76.5 -54l-313 -166h-91z" />
    <glyph glyph-name="ecircumflex" unicode="&#xea;" horiz-adv-x="1128" 
d="M418 631h311v31q0 118 -40.5 182.5t-115.5 64.5q-74 0 -114.5 -64.5t-40.5 -182.5v-31zM416 516v-35q0 -173 78.5 -275t210.5 -102q71 0 137.5 37t144.5 119l78 -67q-80 -112 -184 -165t-242 -53q-255 0 -417.5 155.5t-162.5 389.5q0 214 145.5 361t360.5 147
q227 0 359.5 -134.5t132.5 -367.5v-10h-641zM508 1489h148l225 -350h-84l-215 180l-215 -180h-84z" />
    <glyph glyph-name="edieresis" unicode="&#xeb;" horiz-adv-x="1128" 
d="M418 631h311v31q0 118 -40.5 182.5t-115.5 64.5q-74 0 -114.5 -64.5t-40.5 -182.5v-31zM416 516v-35q0 -173 78.5 -275t210.5 -102q71 0 137.5 37t144.5 119l78 -67q-80 -112 -184 -165t-242 -53q-255 0 -417.5 155.5t-162.5 389.5q0 214 145.5 361t360.5 147
q227 0 359.5 -134.5t132.5 -367.5v-10h-641zM279 1303q0 48 36 84t85 36t84 -35.5t35 -84.5q0 -54 -33.5 -87.5t-85.5 -33.5t-86.5 34.5t-34.5 86.5zM643 1303q0 48 36.5 84t84.5 36q49 0 84 -35.5t35 -84.5q0 -54 -33 -87.5t-86 -33.5q-51 0 -86 34.5t-35 86.5z" />
    <glyph glyph-name="igrave" unicode="&#xec;" horiz-adv-x="616" 
d="M469 1022v-819q0 -69 55.5 -97t55.5 -57v-49h-533v49q0 33 46 55q11 5 18 9q26 15 35.5 34.5t9.5 77.5v17v579q0 48 -7.5 63.5t-35.5 26.5q-14 6 -34 12q-32 10 -32 40v43zM385 1139l-313 166q-58 31 -76 53t-18 53q0 40 25 65t65 25q31 0 63 -18.5t72 -61.5l273 -282
h-91z" />
    <glyph glyph-name="iacute" unicode="&#xed;" horiz-adv-x="616" 
d="M469 1022v-819q0 -69 55.5 -97t55.5 -57v-49h-533v49q0 33 46 55q11 5 18 9q26 15 35.5 34.5t9.5 77.5v17v579q0 48 -7.5 63.5t-35.5 26.5q-14 6 -34 12q-32 10 -32 40v43zM359 1421q40 43 72 61.5t63 18.5q40 0 65 -25t25 -65q0 -30 -17.5 -52t-76.5 -54l-313 -166h-91z
" />
    <glyph glyph-name="icircumflex" unicode="&#xee;" horiz-adv-x="616" 
d="M469 1022v-819q0 -69 55.5 -97t55.5 -57v-49h-533v49q0 33 46 55q11 5 18 9q26 15 35.5 34.5t9.5 77.5v17v579q0 48 -7.5 63.5t-35.5 26.5q-14 6 -34 12q-32 10 -32 40v43zM207 1489h148l225 -350h-84l-215 180l-215 -180h-84z" />
    <glyph glyph-name="idieresis" unicode="&#xef;" horiz-adv-x="616" 
d="M469 1022v-819q0 -69 55.5 -97t55.5 -57v-49h-533v49q0 33 46 55q11 5 18 9q26 15 35.5 34.5t9.5 77.5v17v579q0 48 -7.5 63.5t-35.5 26.5q-14 6 -34 12q-32 10 -32 40v43zM-22 1303q0 48 36 84t85 36t84 -35.5t35 -84.5q0 -54 -33.5 -87.5t-85.5 -33.5t-86.5 34.5
t-34.5 86.5zM342 1303q0 48 36.5 84t84.5 36q49 0 84 -35.5t35 -84.5q0 -54 -33 -87.5t-86 -33.5q-51 0 -86 34.5t-35 86.5z" />
    <glyph glyph-name="eth" unicode="&#xf0;" horiz-adv-x="1247" 
d="M594 1165l-332 -147l-35 86l303 139q-45 51 -95.5 97.5t-106.5 91.5l78 79q81 -56 249 -194l13 -10l305 129l39 -84l-262 -111q199 -164 302 -354t103 -391q0 -231 -150 -376t-384 -145q-231 0 -383 143t-152 361q0 209 146.5 352.5t347.5 143.5q33 0 74 -7t96 -22
q-33 63 -72.5 118.5t-83.5 100.5zM621 874q-107 0 -163.5 -102.5t-56.5 -296.5q0 -193 56.5 -295t163.5 -102q106 0 162.5 102.5t56.5 294.5q0 194 -56.5 296.5t-162.5 102.5z" />
    <glyph glyph-name="ntilde" unicode="&#xf1;" horiz-adv-x="1266" 
d="M461 242v-23v-14q0 -47 8.5 -63.5t31.5 -28.5q4 -3 11 -8q35 -26 35 -56v-49h-500v49q0 33 46 55q11 5 18 9q26 15 35.5 34.5t9.5 77.5v17v579q0 48 -7.5 63.5t-35.5 26.5q-14 6 -34 12q-32 10 -32 40v43l393 16v-96q77 53 163.5 79.5t184.5 26.5q184 0 257 -82.5
t73 -333.5v-393q0 -57 9 -76t36 -34q7 -4 19 -10q45 -22 45 -54v-49h-498v49q0 28 43 57t43 99v37v434q0 119 -33 167t-110 48q-57 0 -111 -22.5t-100 -65.5v-561zM659 1223l-104 26q-23 6 -35.5 8.5t-21.5 2.5q-31 0 -52.5 -22t-37.5 -69h-66q17 125 69.5 186.5t141.5 61.5
q19 0 34.5 -2t29.5 -6l109 -29q10 -3 20 -4.5t18 -1.5q33 0 55 20.5t37 65.5h66q-17 -123 -70 -183t-143 -60q-13 0 -25.5 1.5t-24.5 4.5z" />
    <glyph glyph-name="ograve" unicode="&#xf2;" horiz-adv-x="1247" 
d="M623 922q-111 0 -171.5 -108t-60.5 -304q0 -209 59 -317.5t173 -108.5q112 0 171.5 107.5t59.5 310.5q0 204 -59.5 312t-171.5 108zM61 506q0 229 157.5 375.5t404.5 146.5q246 0 404.5 -147.5t158.5 -378.5q0 -228 -160.5 -377.5t-402.5 -149.5q-243 0 -402.5 149.5
t-159.5 381.5zM729 1139l-313 166q-58 31 -76 53t-18 53q0 40 25 65t65 25q31 0 63 -18.5t72 -61.5l273 -282h-91z" />
    <glyph glyph-name="oacute" unicode="&#xf3;" horiz-adv-x="1247" 
d="M623 922q-111 0 -171.5 -108t-60.5 -304q0 -209 59 -317.5t173 -108.5q112 0 171.5 107.5t59.5 310.5q0 204 -59.5 312t-171.5 108zM61 506q0 229 157.5 375.5t404.5 146.5q246 0 404.5 -147.5t158.5 -378.5q0 -228 -160.5 -377.5t-402.5 -149.5q-243 0 -402.5 149.5
t-159.5 381.5zM703 1421q40 43 72 61.5t63 18.5q40 0 65 -25t25 -65q0 -30 -17.5 -52t-76.5 -54l-313 -166h-91z" />
    <glyph glyph-name="ocircumflex" unicode="&#xf4;" horiz-adv-x="1247" 
d="M623 922q-111 0 -171.5 -108t-60.5 -304q0 -209 59 -317.5t173 -108.5q112 0 171.5 107.5t59.5 310.5q0 204 -59.5 312t-171.5 108zM61 506q0 229 157.5 375.5t404.5 146.5q246 0 404.5 -147.5t158.5 -378.5q0 -228 -160.5 -377.5t-402.5 -149.5q-243 0 -402.5 149.5
t-159.5 381.5zM551 1489h148l225 -350h-84l-215 180l-215 -180h-84z" />
    <glyph glyph-name="otilde" unicode="&#xf5;" horiz-adv-x="1247" 
d="M623 922q-111 0 -171.5 -108t-60.5 -304q0 -209 59 -317.5t173 -108.5q112 0 171.5 107.5t59.5 310.5q0 204 -59.5 312t-171.5 108zM61 506q0 229 157.5 375.5t404.5 146.5q246 0 404.5 -147.5t158.5 -378.5q0 -228 -160.5 -377.5t-402.5 -149.5q-243 0 -402.5 149.5
t-159.5 381.5zM651 1223l-104 26q-23 6 -35.5 8.5t-21.5 2.5q-31 0 -52.5 -22t-37.5 -69h-66q17 125 69.5 186.5t141.5 61.5q19 0 34.5 -2t29.5 -6l109 -29q10 -3 20 -4.5t18 -1.5q33 0 55 20.5t37 65.5h66q-17 -123 -70 -183t-143 -60q-13 0 -25.5 1.5t-24.5 4.5z" />
    <glyph glyph-name="odieresis" unicode="&#xf6;" horiz-adv-x="1247" 
d="M623 922q-111 0 -171.5 -108t-60.5 -304q0 -209 59 -317.5t173 -108.5q112 0 171.5 107.5t59.5 310.5q0 204 -59.5 312t-171.5 108zM61 506q0 229 157.5 375.5t404.5 146.5q246 0 404.5 -147.5t158.5 -378.5q0 -228 -160.5 -377.5t-402.5 -149.5q-243 0 -402.5 149.5
t-159.5 381.5zM322 1303q0 48 36 84t85 36t84 -35.5t35 -84.5q0 -54 -33.5 -87.5t-85.5 -33.5t-86.5 34.5t-34.5 86.5zM686 1303q0 48 36.5 84t84.5 36q49 0 84 -35.5t35 -84.5q0 -54 -33 -87.5t-86 -33.5q-51 0 -86 34.5t-35 86.5z" />
    <glyph glyph-name="divide" unicode="&#xf7;" horiz-adv-x="1706" 
d="M854 371q68 0 116 -48.5t48 -117.5q0 -68 -47.5 -116t-116.5 -48t-117.5 48t-48.5 116t49 117t117 49zM254 727h1198v-231h-1198v231zM854 1182q67 0 115.5 -49t48.5 -117t-48.5 -116t-117.5 -48t-116.5 48t-47.5 116t49 117t117 49z" />
    <glyph glyph-name="oslash" unicode="&#xf8;" horiz-adv-x="1247" 
d="M831 723l-391 -512q26 -60 74.5 -93.5t108.5 -33.5q112 0 171.5 107.5t59.5 310.5q0 53 -5.5 107.5t-17.5 113.5zM403 342l375 496q-23 42 -61 63t-94 21q-116 0 -174 -111t-58 -332q0 -32 3 -66t9 -71zM223 -80h-141l149 195q-90 85 -130 175.5t-40 215.5
q0 229 157.5 375.5t404.5 146.5q70 0 134 -12t128 -37l76 98h139l-119 -157q107 -89 156 -189t49 -229q0 -229 -159.5 -377t-405.5 -148q-82 0 -156 19.5t-146 58.5z" />
    <glyph glyph-name="ugrave" unicode="&#xf9;" horiz-adv-x="1266" 
d="M1110 184q0 -50 7 -64.5t36 -25.5q13 -5 33 -11q32 -10 33 -40v-43l-394 -14v96q-78 -54 -164 -80.5t-184 -26.5q-185 0 -258.5 84.5t-73.5 331.5v430q0 48 -7 63.5t-35 26.5q-14 6 -34 12q-32 10 -32 40v43h414v-674q0 -120 33.5 -167.5t113.5 -47.5q55 0 109.5 22.5
t99.5 65.5v616q0 48 -8 64t-38 27q-13 5 -31 10q-32 11 -32 41v43h412v-822zM706 1139l-313 166q-58 31 -76 53t-18 53q0 40 25 65t65 25q31 0 63 -18.5t72 -61.5l273 -282h-91z" />
    <glyph glyph-name="uacute" unicode="&#xfa;" horiz-adv-x="1266" 
d="M1110 184q0 -50 7 -64.5t36 -25.5q13 -5 33 -11q32 -10 33 -40v-43l-394 -14v96q-78 -54 -164 -80.5t-184 -26.5q-185 0 -258.5 84.5t-73.5 331.5v430q0 48 -7 63.5t-35 26.5q-14 6 -34 12q-32 10 -32 40v43h414v-674q0 -120 33.5 -167.5t113.5 -47.5q55 0 109.5 22.5
t99.5 65.5v616q0 48 -8 64t-38 27q-13 5 -31 10q-32 11 -32 41v43h412v-822zM680 1421q40 43 72 61.5t63 18.5q40 0 65 -25t25 -65q0 -30 -17.5 -52t-76.5 -54l-313 -166h-91z" />
    <glyph glyph-name="ucircumflex" unicode="&#xfb;" horiz-adv-x="1266" 
d="M1110 184q0 -50 7 -64.5t36 -25.5q13 -5 33 -11q32 -10 33 -40v-43l-394 -14v96q-78 -54 -164 -80.5t-184 -26.5q-185 0 -258.5 84.5t-73.5 331.5v430q0 48 -7 63.5t-35 26.5q-14 6 -34 12q-32 10 -32 40v43h414v-674q0 -120 33.5 -167.5t113.5 -47.5q55 0 109.5 22.5
t99.5 65.5v616q0 48 -8 64t-38 27q-13 5 -31 10q-32 11 -32 41v43h412v-822zM528 1489h148l225 -350h-84l-215 180l-215 -180h-84z" />
    <glyph glyph-name="udieresis" unicode="&#xfc;" horiz-adv-x="1266" 
d="M1110 184q0 -50 7 -64.5t36 -25.5q13 -5 33 -11q32 -10 33 -40v-43l-394 -14v96q-78 -54 -164 -80.5t-184 -26.5q-185 0 -258.5 84.5t-73.5 331.5v430q0 48 -7 63.5t-35 26.5q-14 6 -34 12q-32 10 -32 40v43h414v-674q0 -120 33.5 -167.5t113.5 -47.5q55 0 109.5 22.5
t99.5 65.5v616q0 48 -8 64t-38 27q-13 5 -31 10q-32 11 -32 41v43h412v-822zM299 1303q0 48 36 84t85 36t84 -35.5t35 -84.5q0 -54 -33.5 -87.5t-85.5 -33.5t-86.5 34.5t-34.5 86.5zM663 1303q0 48 36.5 84t84.5 36q49 0 84 -35.5t35 -84.5q0 -54 -33 -87.5t-86 -33.5
q-51 0 -86 34.5t-35 86.5z" />
    <glyph glyph-name="yacute" unicode="&#xfd;" horiz-adv-x="1014" 
d="M610 356l177 427q7 17 11.5 32.5t4.5 22.5q0 16 -11.5 28t-56.5 33q-23 10 -28 21t-5 38v48h353l4 -48v-10q0 -30 -38 -51q-22 -13 -34 -23q-18 -14 -34.5 -41t-47.5 -100l-356 -842q-75 -177 -162 -257t-203 -80q-86 0 -141 47.5t-55 119.5q0 74 37 115t102 41
q39 0 68 -13t45 -38q14 -22 30 -62t31 -40q30 0 66.5 58t76.5 171l-335 774q-32 74 -50 103t-39 47q-12 10 -36 20q-43 17 -43 61v48h551v-48q0 -36 -42 -58.5t-42 -55.5q0 -7 5 -22.5t17 -45.5zM586 1421q40 43 72 61.5t63 18.5q40 0 65 -25t25 -65q0 -30 -17.5 -52
t-76.5 -54l-313 -166h-91z" />
    <glyph glyph-name="thorn" unicode="&#xfe;" horiz-adv-x="1313" 
d="M451 819v-631q39 -48 82.5 -72t93.5 -24q118 0 193 114t75 298q0 202 -65.5 304.5t-192.5 102.5q-52 0 -97 -22t-89 -70zM451 -182v-17q0 -58 9 -77t35 -33l18 -9q46 -22 46 -55v-49h-518v49q0 33 44 54q13 6 20 10q26 15 35.5 34t9.5 76v17v1444q0 45 -8 61.5t-38 28.5
q-13 5 -32 11q-31 10 -31 40v43l410 24v-518q55 40 120.5 59t151.5 19q233 0 372.5 -137.5t139.5 -366.5q0 -237 -149 -391.5t-375 -154.5q-74 0 -136.5 18.5t-123.5 58.5v-239z" />
    <glyph glyph-name="ydieresis" unicode="&#xff;" horiz-adv-x="1014" 
d="M610 356l177 427q7 17 11.5 32.5t4.5 22.5q0 16 -11.5 28t-56.5 33q-23 10 -28 21t-5 38v48h353l4 -48v-10q0 -30 -38 -51q-22 -13 -34 -23q-18 -14 -34.5 -41t-47.5 -100l-356 -842q-75 -177 -162 -257t-203 -80q-86 0 -141 47.5t-55 119.5q0 74 37 115t102 41
q39 0 68 -13t45 -38q14 -22 30 -62t31 -40q30 0 66.5 58t76.5 171l-335 774q-32 74 -50 103t-39 47q-12 10 -36 20q-43 17 -43 61v48h551v-48q0 -36 -42 -58.5t-42 -55.5q0 -7 5 -22.5t17 -45.5zM205 1303q0 48 36 84t85 36t84 -35.5t35 -84.5q0 -54 -33.5 -87.5
t-85.5 -33.5t-86.5 34.5t-34.5 86.5zM569 1303q0 48 36.5 84t84.5 36q49 0 84 -35.5t35 -84.5q0 -54 -33 -87.5t-86 -33.5q-51 0 -86 34.5t-35 86.5z" />
    <glyph glyph-name="Cacute" unicode="&#x106;" horiz-adv-x="1337" 
d="M1286 258q-77 -140 -204 -211.5t-300 -71.5q-313 0 -514.5 219t-201.5 562q0 306 184 511.5t461 205.5q127 0 248.5 -54.5t136.5 -54.5q18 0 29.5 9t23.5 34h92v-399h-49q-34 0 -53.5 13t-36.5 46l-10 19q-136 260 -293 260q-169 0 -268 -153t-99 -415q0 -305 117.5 -477
t322.5 -172q95 0 168.5 46t155.5 157zM819 1861q40 43 72 61.5t63 18.5q40 0 65 -25t25 -65q0 -30 -17.5 -52t-76.5 -54l-313 -166h-91z" />
    <glyph glyph-name="cacute" unicode="&#x107;" horiz-adv-x="1014" 
d="M993 156q-73 -95 -161 -138t-209 -43q-251 0 -407.5 151t-156.5 386q0 226 157 371t407 145q157 0 253.5 -65t96.5 -168q0 -68 -41 -109t-109 -41q-61 0 -101 36.5t-40 88.5q0 25 12.5 61.5t12.5 47.5q0 16 -20.5 27.5t-51.5 11.5q-92 0 -153.5 -111t-61.5 -289
q0 -199 73 -307.5t207 -108.5q65 0 117 29t105 94zM656 1421q40 43 72 61.5t63 18.5q40 0 65 -25t25 -65q0 -30 -17.5 -52t-76.5 -54l-313 -166h-91z" />
    <glyph glyph-name="Ccaron" unicode="&#x10c;" horiz-adv-x="1337" 
d="M1286 258q-77 -140 -204 -211.5t-300 -71.5q-313 0 -514.5 219t-201.5 562q0 306 184 511.5t461 205.5q127 0 248.5 -54.5t136.5 -54.5q18 0 29.5 9t23.5 34h92v-399h-49q-34 0 -53.5 13t-36.5 46l-10 19q-136 260 -293 260q-169 0 -268 -153t-99 -415q0 -305 117.5 -477
t322.5 -172q95 0 168.5 46t155.5 157zM526 1929l215 -180l215 180h84l-225 -350h-148l-225 350h84z" />
    <glyph glyph-name="ccaron" unicode="&#x10d;" horiz-adv-x="1014" 
d="M993 156q-73 -95 -161 -138t-209 -43q-251 0 -407.5 151t-156.5 386q0 226 157 371t407 145q157 0 253.5 -65t96.5 -168q0 -68 -41 -109t-109 -41q-61 0 -101 36.5t-40 88.5q0 25 12.5 61.5t12.5 47.5q0 16 -20.5 27.5t-51.5 11.5q-92 0 -153.5 -111t-61.5 -289
q0 -199 73 -307.5t207 -108.5q65 0 117 29t105 94zM363 1489l215 -180l215 180h84l-225 -350h-148l-225 350h84z" />
    <glyph glyph-name="dcroat" unicode="&#x111;" horiz-adv-x="1323" 
d="M862 174v651q-47 45 -93 65.5t-95 20.5q-127 0 -191.5 -103t-64.5 -304q0 -182 75 -297t191 -115q43 0 86.5 20t91.5 62zM905 0v80q-73 -55 -143.5 -80t-155.5 -25q-237 0 -382.5 149.5t-145.5 395.5q0 235 138 372.5t374 137.5q82 0 148.5 -18.5t125.5 -59.5v181h-274
v112h274v17q0 47 -8 63t-37 27q-13 5 -32 11q-31 9 -31 40v43l409 24v-225h166v-112h-166v-910q0 -57 9 -76t36 -34q7 -4 19 -10q45 -22 45 -54v-49h-369z" />
    <glyph glyph-name="Gbreve" unicode="&#x11e;" horiz-adv-x="1464" 
d="M1364 694q-18 -26 -26.5 -55.5t-8.5 -67.5v-276q0 -32 12 -54t33 -30q3 -9 4.5 -17.5t1.5 -17.5q0 -86 -156.5 -143.5t-400.5 -57.5q-353 0 -555 201.5t-202 550.5q0 327 182 536.5t463 209.5q127 0 248.5 -54.5t136.5 -54.5q18 0 29.5 9t23.5 34h92v-399h-49
q-34 0 -53.5 13t-36.5 46l-10 19q-136 260 -293 260q-178 0 -275.5 -165t-97.5 -468q0 -294 97 -454.5t274 -160.5q99 0 146.5 45t47.5 138v159q0 59 -8 86t-27 39q-8 4 -24 11q-68 28 -68 69v49h500zM500 1898q17 -66 71.5 -95.5t161.5 -29.5t161 29.5t70 95.5l76 -2
q-20 -140 -98.5 -213.5t-208.5 -73.5t-209.5 74.5t-99.5 214.5h76z" />
    <glyph glyph-name="gbreve" unicode="&#x11f;" horiz-adv-x="1174" 
d="M320 168l12 1q212 26 291 26q232 0 354.5 -77.5t122.5 -223.5q0 -161 -149.5 -250.5t-420.5 -89.5q-204 0 -311.5 48.5t-107.5 141.5q0 62 44.5 102.5t112.5 40.5q60 0 95.5 -31t35.5 -83q0 -21 -9 -47t-9 -29q0 -15 45 -26t115 -11q114 0 184 41.5t70 108.5
q0 68 -78.5 109.5t-212.5 41.5q-190 0 -378 -34q-35 -7 -42 -7q-21 0 -36 16t-15 39q0 20 9 40t40 57l197 250q-92 64 -134.5 142t-42.5 183q0 172 121 276.5t322 104.5q88 0 150.5 -15.5t129.5 -49.5q2 79 48.5 127.5t121.5 48.5q67 0 107.5 -37.5t40.5 -97.5
q0 -47 -27.5 -74t-75.5 -27q-32 0 -63 20.5t-45 20.5q-13 0 -18.5 -5t-6.5 -17q0 -2 1 -6.5t1 -8.5q67 -65 96 -130.5t29 -151.5q0 -163 -131.5 -261t-355.5 -98q-47 0 -80 4t-64 13zM567 930q-68 0 -101.5 -68.5t-33.5 -206.5q0 -145 33 -214.5t102 -69.5t102 68.5
t33 211.5q0 142 -33 210.5t-102 68.5zM355 1458q17 -66 71.5 -95.5t161.5 -29.5t161 29.5t70 95.5l76 -2q-20 -140 -98.5 -213.5t-208.5 -73.5t-209.5 74.5t-99.5 214.5h76z" />
    <glyph glyph-name="Idotaccent" unicode="&#x130;" horiz-adv-x="711" 
d="M78 0v47q0 38 43 65q14 9 22 15q24 18 32.5 40t8.5 71v47v923q0 50 -9 72t-32 39q-8 6 -21 14q-44 28 -44 66v47h555v-47q0 -39 -43 -66q-14 -9 -21 -14q-24 -17 -33.5 -40t-9.5 -83v-35v-899q0 -75 11 -98t42 -45q5 -3 11 -7q43 -27 43 -65v-47h-555zM229 1745
q0 50 38 87.5t89 37.5q52 0 88.5 -36.5t36.5 -88.5q0 -56 -35 -91.5t-90 -35.5q-53 0 -90 36.5t-37 90.5z" />
    <glyph glyph-name="dotlessi" unicode="&#x131;" horiz-adv-x="616" 
d="M469 1022v-819q0 -69 55.5 -97t55.5 -57v-49h-533v49q0 33 46 55q11 5 18 9q26 15 35.5 34.5t9.5 77.5v17v579q0 48 -7.5 63.5t-35.5 26.5q-14 6 -34 12q-32 10 -32 40v43z" />
    <glyph glyph-name="Lslash" unicode="&#x141;" horiz-adv-x="1194" 
d="M1194 0h-1106v47q0 39 43 66q14 9 21 14q24 18 33.5 41t9.5 82v35v250l-185 -129v157l185 129v504q0 60 -9.5 83t-33.5 40q-7 5 -20 13q-44 28 -44 67v47h553v-47q0 -39 -43 -66q-14 -9 -20 -14q-23 -17 -32 -39t-9 -72v-47v-323l262 184v-158l-262 -184v-553h270
q118 0 160 22.5t65 75.5q10 22 23 66q29 96 82 96h57v-387z" />
    <glyph glyph-name="lslash" unicode="&#x142;" horiz-adv-x="631" 
d="M156 598l-156 -109v129l156 109v541q0 48 -7.5 63t-35.5 23q-15 7 -38 15q-28 11 -28 34v43l422 24v-593l158 108v-129l-158 -108v-545q0 -69 55.5 -97t55.5 -57v-49h-533v49q0 33 46 55q11 5 18 9q26 15 35.5 34.5t9.5 77.5v17v356z" />
    <glyph glyph-name="OE" unicode="&#x152;" horiz-adv-x="2228" 
d="M1176 338v815q0 45 -8 73.5t-25 51.5q-28 38 -98.5 61t-159.5 23q-218 0 -332.5 -163.5t-114.5 -475.5q0 -313 113.5 -476t331.5 -163q77 0 145.5 19t97.5 47q27 25 38.5 57.5t11.5 101.5v29zM1905 1446q81 0 127 6t90 18v-372h-60q-58 0 -94 91q-19 45 -33 66
q-24 37 -60.5 52.5t-115.5 15.5h-26h-215v-512h90q65 0 90.5 7.5t40.5 25.5q10 13 24 46q28 64 64 64h55v-407h-55q-36 0 -64 65q-14 34 -24 47q-15 19 -40.5 26t-90.5 7h-90v-565h294q115 0 158.5 23t67.5 77q10 23 22 66q26 94 82 94h58v-387h-760q-158 0 -367 -11.5
t-260 -11.5q-331 0 -539 207.5t-208 538.5t208.5 540.5t538.5 209.5q52 0 261 -13.5t366 -13.5h465z" />
    <glyph glyph-name="oe" unicode="&#x153;" horiz-adv-x="1901" 
d="M1827 516h-639v-35q0 -173 78.5 -275t210.5 -102q71 0 138 37t144 119l78 -67q-80 -112 -184 -165t-242 -53q-133 0 -228.5 34.5t-168.5 107.5q-82 -72 -177.5 -107t-213.5 -35q-243 0 -402.5 149.5t-159.5 381.5q0 228 158 375t404 147q115 0 205.5 -29t177.5 -94
q66 62 149 92.5t182 30.5q227 0 358.5 -134.5t131.5 -367.5v-10zM1190 631h311v31q0 118 -40.5 182.5t-114.5 64.5q-75 0 -115.5 -64.5t-40.5 -182.5v-31zM623 922q-111 0 -171.5 -108t-60.5 -304q0 -209 59 -317.5t173 -108.5q112 0 171.5 107.5t59.5 310.5
q0 204 -59.5 312t-171.5 108z" />
    <glyph glyph-name="Scedilla" unicode="&#x15e;" horiz-adv-x="1186" 
d="M61 0v408h56q69 0 120 -103q16 -33 27 -53q39 -71 118.5 -114.5t172.5 -43.5q114 0 188 66t74 166q0 164 -313 297q-40 17 -61 26q-176 77 -256.5 177t-80.5 241q0 173 125 288t312 115q107 0 212.5 -44t110.5 -44q13 0 25 8.5t29 30.5h84v-364h-62q-62 0 -97 94
q-10 27 -16 41q-34 79 -94 119.5t-143 40.5q-89 0 -145 -48.5t-56 -123.5q0 -133 297 -248q42 -16 64 -25q193 -76 275.5 -180t82.5 -268q0 -205 -154.5 -344.5t-390.5 -139.5q-157 0 -284 67q-26 13 -33 13q-14 0 -34 -13.5t-48 -41.5h-105zM352 -287q78 -40 132.5 -56.5
t105.5 -16.5q49 0 73.5 21.5t24.5 66.5q0 38 -26 58.5t-74 20.5q-11 0 -26.5 -1.5t-37.5 -3.5v198h72v-115q7 1 20 3q40 6 52 6q79 0 128.5 -48t49.5 -125q0 -84 -60.5 -131t-168.5 -47q-57 0 -125.5 17.5t-180.5 62.5z" />
    <glyph glyph-name="scedilla" unicode="&#x15f;" horiz-adv-x="1006" 
d="M84 698q0 143 125.5 236.5t320.5 93.5q165 0 259 -53t94 -146q0 -48 -40 -82t-98 -34q-64 0 -102.5 30.5t-38.5 79.5q0 13 5 34t5 30q0 11 -30 24t-66 13q-72 0 -108.5 -26.5t-36.5 -78.5q0 -96 186 -147q64 -17 98 -29q149 -49 218 -120.5t69 -174.5q0 -158 -136 -265.5
t-347 -107.5q-199 0 -310.5 61t-111.5 167q0 66 40 104.5t107 38.5q68 0 111 -35t43 -90q0 -18 -7 -44t-7 -34q0 -28 26.5 -43.5t75.5 -15.5q111 0 168 33.5t57 99.5q0 93 -173 147q-38 12 -58 19q-173 59 -255.5 136t-82.5 179zM262 -287q78 -40 132.5 -56.5t105.5 -16.5
q49 0 73.5 21.5t24.5 66.5q0 38 -26 58.5t-74 20.5q-11 0 -26.5 -1.5t-37.5 -3.5v198h72v-115q7 1 20 3q40 6 52 6q79 0 128.5 -48t49.5 -125q0 -84 -60.5 -131t-168.5 -47q-57 0 -125.5 17.5t-180.5 62.5z" />
    <glyph glyph-name="Scaron" unicode="&#x160;" horiz-adv-x="1186" 
d="M61 0v408h56q69 0 120 -103q16 -33 27 -53q39 -71 118.5 -114.5t172.5 -43.5q114 0 188 66t74 166q0 164 -313 297q-40 17 -61 26q-176 77 -256.5 177t-80.5 241q0 173 125 288t312 115q107 0 212.5 -44t110.5 -44q13 0 25 8.5t29 30.5h84v-364h-62q-62 0 -97 94
q-10 27 -16 41q-34 79 -94 119.5t-143 40.5q-89 0 -145 -48.5t-56 -123.5q0 -133 297 -248q42 -16 64 -25q193 -76 275.5 -180t82.5 -268q0 -205 -154.5 -344.5t-390.5 -139.5q-157 0 -284 67q-26 13 -33 13q-14 0 -34 -13.5t-48 -41.5h-105zM379 1929l215 -180l215 180h84
l-225 -350h-148l-225 350h84z" />
    <glyph glyph-name="scaron" unicode="&#x161;" horiz-adv-x="1006" 
d="M84 698q0 143 125.5 236.5t320.5 93.5q165 0 259 -53t94 -146q0 -48 -40 -82t-98 -34q-64 0 -102.5 30.5t-38.5 79.5q0 13 5 34t5 30q0 11 -30 24t-66 13q-72 0 -108.5 -26.5t-36.5 -78.5q0 -96 186 -147q64 -17 98 -29q149 -49 218 -120.5t69 -174.5q0 -158 -136 -265.5
t-347 -107.5q-199 0 -310.5 61t-111.5 167q0 66 40 104.5t107 38.5q68 0 111 -35t43 -90q0 -18 -7 -44t-7 -34q0 -28 26.5 -43.5t75.5 -15.5q111 0 168 33.5t57 99.5q0 93 -173 147q-38 12 -58 19q-173 59 -255.5 136t-82.5 179zM289 1489l215 -180l215 180h84l-225 -350
h-148l-225 350h84z" />
    <glyph glyph-name="Ydieresis" unicode="&#x178;" horiz-adv-x="1194" 
d="M109 1188q-41 70 -61.5 95.5t-41.5 35.5q-12 5 -34 13q-54 19 -54 67v47h617v-47q0 -40 -48.5 -55t-48.5 -37q0 -19 7 -39.5t24 -50.5l233 -414l234 399q22 38 32.5 63t10.5 40q0 12 -52.5 29t-52.5 65v47h396v-47q0 -27 -11.5 -40t-46.5 -24q-54 -17 -108 -112l-6 -11
l-330 -565v-385q0 -75 10.5 -98t42.5 -45q4 -3 12 -8q41 -26 41 -64v-47h-552v47q0 37 39 63q15 10 24 17q24 17 33.5 40t9.5 83v35v348zM295 1743q0 48 36 84t85 36t84 -35.5t35 -84.5q0 -54 -33.5 -87.5t-85.5 -33.5t-86.5 34.5t-34.5 86.5zM659 1743q0 48 36.5 84
t84.5 36q49 0 84 -35.5t35 -84.5q0 -54 -33 -87.5t-86 -33.5q-51 0 -86 34.5t-35 86.5z" />
    <glyph glyph-name="Zcaron" unicode="&#x17d;" horiz-adv-x="1241" 
d="M61 115l680 1212h-276q-71 0 -111 -24t-63 -82q-8 -19 -18 -48q-27 -77 -97 -77h-39v374q71 -12 131 -18t111 -6h764v-76l-690 -1231h399q70 0 110 28.5t64 94.5q8 22 18 57q25 84 95 84h39v-403h-1117v115zM406 1929l215 -180l215 180h84l-225 -350h-148l-225 350h84z
" />
    <glyph glyph-name="zcaron" unicode="&#x17e;" horiz-adv-x="995" 
d="M51 0v102l488 785h-179q-45 0 -74.5 -11t-44.5 -33q-8 -13 -23 -48q-27 -66 -56 -66h-53v277h798v-101l-479 -778h197q54 0 93.5 17t53.5 46q8 16 19 47q26 74 63 74h53v-311h-856zM283 1489l215 -180l215 180h84l-225 -350h-148l-225 350h84z" />
    <glyph glyph-name="florin" unicode="&#x192;" horiz-adv-x="1147" 
d="M238 702l12 142h182q39 322 147 474t298 152q109 0 177 -51.5t68 -132.5q0 -56 -35 -91.5t-90 -35.5q-49 0 -80.5 26t-31.5 66q0 5 1 11t1 8q0 24 -9.5 38.5t-25.5 14.5q-34 0 -55.5 -101t-42.5 -378h194l-8 -142h-199q-42 -684 -152.5 -925.5t-350.5 -241.5
q-110 0 -179 52t-69 132q0 55 35.5 91t89.5 36q42 0 73.5 -26.5t36.5 -64.5q1 -9 3 -26q5 -60 34 -61q59 0 102 509q27 320 50 525h-176z" />
    <glyph glyph-name="circumflex" unicode="&#x2c6;" 
d="M438 1489h148l225 -350h-84l-215 180l-215 -180h-84z" />
    <glyph glyph-name="caron" unicode="&#x2c7;" 
d="M297 1489l215 -180l215 180h84l-225 -350h-148l-225 350h84z" />
    <glyph glyph-name="breve" unicode="&#x2d8;" 
d="M279 1458q17 -66 71.5 -95.5t161.5 -29.5t161 29.5t70 95.5l76 -2q-20 -140 -98.5 -213.5t-208.5 -73.5t-209.5 74.5t-99.5 214.5h76z" />
    <glyph glyph-name="dotaccent" unicode="&#x2d9;" 
d="M385 1305q0 50 38 87.5t89 37.5q52 0 88.5 -36.5t36.5 -88.5q0 -56 -35 -91.5t-90 -35.5q-53 0 -90 36.5t-37 90.5z" />
    <glyph glyph-name="ring" unicode="&#x2da;" 
d="M512 1509q-56 0 -95.5 -39.5t-39.5 -95.5q0 -57 39 -97t96 -40q56 0 96.5 40.5t40.5 96.5q0 55 -40.5 95t-96.5 40zM260 1374q0 106 73 179t179 73t180 -73.5t74 -178.5q0 -106 -74 -180t-180 -74t-179 73.5t-73 180.5z" />
    <glyph glyph-name="ogonek" unicode="&#x2db;" 
d="M717 -276l33 -19q-40 -81 -98.5 -122.5t-133.5 -41.5q-70 0 -114 41t-44 105q0 88 66.5 172.5t202.5 169.5h51q-92 -74 -133 -137t-41 -128q0 -52 25 -82t69 -30q36 0 64 17t53 55z" />
    <glyph glyph-name="tilde" unicode="&#x2dc;" 
d="M538 1223l-104 26q-23 6 -35.5 8.5t-21.5 2.5q-31 0 -52.5 -22t-37.5 -69h-66q17 125 69.5 186.5t141.5 61.5q19 0 34.5 -2t29.5 -6l109 -29q10 -3 20 -4.5t18 -1.5q33 0 55 20.5t37 65.5h66q-17 -123 -70 -183t-143 -60q-13 0 -25.5 1.5t-24.5 4.5z" />
    <glyph glyph-name="hungarumlaut" unicode="&#x2dd;" 
d="M762 1421q34 51 55.5 66.5t48.5 15.5q34 0 57 -22t23 -56q0 -24 -16.5 -49.5t-48.5 -50.5l-242 -186h-74zM457 1411q30 57 52 75.5t50 18.5q33 0 55.5 -22t22.5 -53q0 -26 -13 -50.5t-38 -48.5l-199 -192h-74z" />
    <glyph glyph-name="Omega" unicode="&#x3a9;" horiz-adv-x="1581" 
d="M1153 297v-14h283l37 120h81l-120 -403h-545q85 207 128.5 423.5t43.5 430.5q0 278 -66.5 413.5t-201.5 135.5q-136 0 -203.5 -137t-67.5 -410q0 -211 43.5 -428t128.5 -428h-544l-121 403h82l36 -120h283v14q-170 66 -264 208.5t-94 334.5q0 281 205 469t516 188
q309 0 514.5 -189t205.5 -470q0 -189 -95 -332t-265 -209z" />
    <glyph glyph-name="pi" unicode="&#x3c0;" horiz-adv-x="1513" 
d="M1481 885l-68 -320h-358v-49v-70q0 -53 6 -147.5t6 -136.5q0 -102 -38.5 -154.5t-113.5 -52.5q-60 0 -93.5 33t-33.5 94q0 70 66 228.5t92 254.5h-377q0 -9 -1 -25t-1 -24v-70q0 -51 6.5 -145.5t6.5 -138.5q0 -102 -38.5 -154.5t-113.5 -52.5q-61 0 -94 33t-33 94
q0 66 66.5 224t93.5 259h-207q-90 0 -126 -26t-52 -97h-72q48 251 144.5 347t302.5 96h1030z" />
    <glyph glyph-name="endash" unicode="&#x2013;" 
d="M0 588h1024v-172h-1024v172z" />
    <glyph glyph-name="emdash" unicode="&#x2014;" horiz-adv-x="2048" 
d="M0 588h2048v-172h-2048v172z" />
    <glyph glyph-name="quoteleft" unicode="&#x2018;" horiz-adv-x="573" 
d="M455 1391q-107 -97 -146.5 -156.5t-48.5 -124.5h21q96 0 146 -47.5t50 -138.5q0 -79 -51.5 -130t-130.5 -51q-91 0 -144 65t-53 177q0 125 65 237.5t220 247.5z" />
    <glyph glyph-name="quoteright" unicode="&#x2019;" horiz-adv-x="573" 
d="M123 821q105 95 145 155.5t47 125.5h-22q-93 0 -144 47.5t-51 134.5q0 85 51 135.5t138 50.5q86 0 138 -65.5t52 -175.5q0 -126 -65.5 -239t-216.5 -247z" />
    <glyph glyph-name="quotesinglbase" unicode="&#x201a;" horiz-adv-x="573" 
d="M119 -334q109 99 147 157t45 121l-22 1q-93 0 -144 47.5t-51 134.5q0 85 51 135.5t138 50.5q86 0 138 -65.5t52 -175.5q0 -126 -65 -238.5t-218 -247.5z" />
    <glyph glyph-name="quotedblleft" unicode="&#x201c;" horiz-adv-x="1057" 
d="M938 1391q-103 -92 -144 -153t-50 -128h20q96 0 146.5 -47.5t50.5 -138.5q0 -79 -51.5 -130t-131.5 -51q-91 0 -143.5 65t-52.5 177q0 125 65 237.5t219 247.5zM455 1391q-107 -97 -146.5 -156.5t-48.5 -124.5h21q96 0 146 -47.5t50 -138.5q0 -79 -51.5 -130t-130.5 -51
q-91 0 -144 65t-53 177q0 125 65 237.5t220 247.5z" />
    <glyph glyph-name="quotedblright" unicode="&#x201d;" horiz-adv-x="1057" 
d="M123 821q105 95 145 155.5t47 125.5h-22q-93 0 -144 47.5t-51 134.5q0 85 51 135.5t138 50.5q86 0 138 -65.5t52 -175.5q0 -126 -65.5 -239t-216.5 -247zM606 821q105 95 145 155.5t48 125.5h-23q-93 0 -143.5 47.5t-50.5 134.5q0 85 50.5 135.5t137.5 50.5
q86 0 138.5 -65.5t52.5 -175.5q0 -126 -65.5 -239t-217.5 -247z" />
    <glyph glyph-name="quotedblbase" unicode="&#x201e;" horiz-adv-x="1057" 
d="M602 -334q109 99 147 157t45 122h-22q-93 0 -143.5 47.5t-50.5 134.5q0 85 51.5 135.5t138.5 50.5q86 0 137 -65.5t51 -175.5q0 -125 -64 -237t-218 -249zM119 -334q109 99 147 157t45 121l-22 1q-93 0 -144 47.5t-51 134.5q0 85 51 135.5t138 50.5q86 0 138 -65.5
t52 -175.5q0 -126 -65 -238.5t-218 -247.5z" />
    <glyph glyph-name="dagger" unicode="&#x2020;" 
d="M383 592q49 81 75.5 169t26.5 163v30q-68 -2 -157 -43t-131 -41q-54 0 -84.5 28.5t-30.5 78.5q0 49 34.5 81t86.5 32q43 0 132.5 -42t149.5 -42v22q0 95 -44 201.5t-44 130.5q0 48 32.5 79t82.5 31q53 0 86 -30.5t33 -77.5q0 -12 -45 -122t-45 -216v-18h4q66 0 154 42
t126 42q55 0 86 -30t31 -81q0 -52 -30.5 -80.5t-86.5 -28.5q-43 0 -130 40t-156 44q6 -120 32 -208.5t74 -153.5q-48 -169 -73 -385.5t-25 -472.5h-64q-6 279 -30 477t-70 381z" />
    <glyph glyph-name="daggerdbl" unicode="&#x2021;" 
d="M485 954q-68 -2 -157 -43t-131 -41q-54 0 -84.5 28.5t-30.5 78.5q0 49 33.5 81t85.5 32q43 0 133.5 -42t150.5 -42v22q0 95 -44 201.5t-44 130.5q0 48 32.5 79t82.5 31q52 0 84.5 -30.5t32.5 -77.5q0 -12 -44 -122t-44 -216v-18h4q66 0 154 42t126 42q54 0 84.5 -29.5
t30.5 -81.5q0 -53 -29.5 -81t-85.5 -28q-43 0 -130 40t-156 44q6 -122 31 -209.5t71 -152.5q-50 -77 -76 -166t-26 -186v-11q68 3 157.5 43.5t130.5 40.5q53 0 83 -28t30 -78t-33.5 -81.5t-85.5 -31.5q-44 0 -133.5 41.5t-148.5 42.5v-26q0 -94 44 -199.5t44 -128.5
q0 -49 -32.5 -80t-82.5 -31q-53 0 -86 31t-33 78q0 12 45 122t45 216v18h-4q-67 0 -154.5 -42t-125.5 -42q-56 0 -86.5 29t-30.5 82q0 52 30.5 80t86.5 28q43 0 130.5 -39.5t155.5 -44.5q-6 117 -31.5 204t-72.5 159q50 81 77 168.5t27 163.5v30z" />
    <glyph glyph-name="bullet" unicode="&#x2022;" horiz-adv-x="1208" 
d="M307 762q0 123 87 209t210 86q122 0 208.5 -86.5t86.5 -208.5t-87.5 -209.5t-209.5 -87.5q-123 0 -209 87t-86 210z" />
    <glyph glyph-name="ellipsis" unicode="&#x2026;" horiz-adv-x="2048" 
d="M342 354q79 0 133.5 -54.5t54.5 -133.5q0 -78 -55.5 -134.5t-132.5 -56.5q-79 0 -135 56.5t-56 134.5t56 133t135 55zM1024 354q79 0 133.5 -54.5t54.5 -133.5q0 -78 -55.5 -134.5t-132.5 -56.5q-79 0 -135 56.5t-56 134.5t56 133t135 55zM1708 354q79 0 133.5 -54.5
t54.5 -133.5q0 -78 -55.5 -134.5t-132.5 -56.5q-79 0 -135 56.5t-56 134.5t56 133t135 55z" />
    <glyph glyph-name="perthousand" unicode="&#x2030;" horiz-adv-x="2494" 
d="M2099 90q54 0 76.5 73.5t22.5 264.5q0 187 -23 261.5t-76 74.5t-75.5 -74t-22.5 -262q0 -193 22 -265.5t76 -72.5zM2437 428q0 -221 -86 -337t-252 -116t-252 115t-86 338q0 221 86.5 336t251.5 115q166 0 252 -115t86 -336zM1323 90q53 0 74.5 72t21.5 266
q0 190 -21.5 263t-74.5 73q-54 0 -77 -75.5t-23 -260.5q0 -190 22.5 -264t77.5 -74zM1659 428q0 -222 -85.5 -337.5t-250.5 -115.5q-167 0 -253.5 115.5t-86.5 337.5q0 220 87 335.5t253 115.5q165 0 250.5 -114.5t85.5 -336.5zM373 -25l825 1495h141l-823 -1495h-143z
M395 682q54 0 76.5 72.5t22.5 263.5q0 187 -23 262.5t-76 75.5t-75.5 -75t-22.5 -263q0 -192 22 -264t76 -72zM733 1018q0 -221 -86 -336t-252 -115t-252 114.5t-86 336.5q0 221 86.5 336.5t251.5 115.5q166 0 252 -115.5t86 -336.5z" />
    <glyph glyph-name="guilsinglleft" unicode="&#x2039;" horiz-adv-x="682" 
d="M356 502q113 -132 178.5 -226.5t65.5 -121.5q0 -15 -10 -26t-23 -11q-17 0 -186.5 140t-304.5 245q138 107 306.5 247t184.5 140q13 0 23 -12t10 -27q0 -28 -65.5 -122t-178.5 -226z" />
    <glyph glyph-name="guilsinglright" unicode="&#x203a;" horiz-adv-x="682" 
d="M608 502q-132 -103 -304 -244t-189 -141q-13 0 -22 10.5t-9 26.5q0 27 65.5 121.5t178.5 226.5q-113 132 -178.5 226t-65.5 122q0 15 9 27t22 12q17 0 187 -141t306 -246z" />
    <glyph glyph-name="franc" unicode="&#x20a3;" horiz-adv-x="2030" 
d="M526 285v-23q0 -75 10.5 -98t40.5 -45q5 -3 12 -7q44 -27 44 -65v-47h-555v47q0 38 43 65q14 9 22 15q24 18 32.5 40t8.5 71v47v923q0 50 -9 72t-32 39q-8 6 -21 14q-44 28 -44 66v47h837q81 0 126 7.5t89 25.5v-381h-59q-58 0 -95 91q-18 45 -32 66q-24 37 -60.5 52.5
t-115.5 15.5h-27h-215v-512h92q65 0 90 7.5t40 25.5q10 13 24 46q28 64 64 64h55v-407h-55q-36 0 -64 65q-14 34 -24 47q-15 19 -40 26t-90 7h-92v-407zM1568 731q81 167 150.5 232t161.5 65q75 0 119 -44t44 -118q0 -71 -41.5 -116t-105.5 -45q-47 0 -85.5 38.5t-59.5 38.5
q-50 0 -102 -135t-52 -295v-129q0 -57 9 -76t37 -35q5 -3 17 -9q46 -22 46 -54v-49h-531v49q0 33 46 55q11 5 18 9q26 15 35.5 34.5t9.5 77.5v17v579q0 48 -7.5 63.5t-35.5 26.5q-14 6 -34 12q-32 10 -32 40v43l393 16v-291z" />
    <glyph glyph-name="trademark" unicode="&#x2122;" horiz-adv-x="1683" 
d="M745 1460h222l127 -356l123 356h206v-26l-22 -7q-19 -4 -27 -15t-8 -34v-383q0 -22 8 -33t27 -16l22 -6v-33h-260v33l30 6q18 3 27 15.5t9 33.5v355l-148 -445h-43l-166 457v-367q0 -22 9 -34t27 -15l34 -6v-33h-197v33l35 6q18 4 26.5 16t8.5 33v375q0 21 -9 33.5
t-25 15.5l-36 6v35zM229 1460h457l12 -198h-36q-7 79 -38 116t-92 37v-420q1 -22 8.5 -34t23.5 -15l30 -6v-33h-272v33l30 6q15 3 23 15.5t8 33.5v420h-4q-58 0 -89.5 -38t-37.5 -115h-35z" />
    <glyph glyph-name="partialdiff" unicode="&#x2202;" horiz-adv-x="1114" 
d="M766 684q21 113 32 206t11 150q0 87 -29.5 148t-68.5 61q-35 0 -132 -93t-180 -93q-48 0 -80 33.5t-32 83.5q0 69 93 125.5t220 56.5q210 0 332.5 -161t122.5 -441q0 -344 -162.5 -564.5t-417.5 -220.5q-182 0 -299 116.5t-117 299.5q0 203 119.5 336t298.5 133
q101 0 170.5 -42.5t118.5 -133.5zM698 532q0 114 -36.5 176t-104.5 62q-96 0 -160.5 -136.5t-64.5 -346.5q0 -116 36.5 -176t106.5 -60q97 0 160 135.5t63 345.5z" />
    <glyph glyph-name="Delta" unicode="&#x2206;" horiz-adv-x="1346" 
d="M528 1085l-356 -751h713zM639 1497h76l712 -1497h-1509z" />
    <glyph glyph-name="product" unicode="&#x220f;" horiz-adv-x="1774" 
d="M43 1473h1681v-91h-192v-1685h192v-90h-753v90h168v1685h-512v-1685h170v-90h-754v90h193v1685h-193v91z" />
    <glyph glyph-name="summation" unicode="&#x2211;" horiz-adv-x="1585" 
d="M27 1473h1276l153 -463h-92l-102 262q-25 62 -74 86t-201 24h-485l590 -757v-41l-689 -652h885q41 0 58 13.5t28 49.5l70 230h94l-188 -618h-1325v88l766 725l-764 981v72z" />
    <glyph glyph-name="minus" unicode="&#x2212;" horiz-adv-x="1706" 
d="M254 729h1198v-235h-1198v235z" />
    <glyph glyph-name="fraction" unicode="&#x2215;" horiz-adv-x="342" 
d="M541 1470h141l-881 -1495h-143z" />
    <glyph glyph-name="periodcentered" unicode="&#x2219;" horiz-adv-x="573" 
d="M287 911q79 0 133.5 -54.5t54.5 -133.5q0 -78 -55.5 -134.5t-132.5 -56.5q-79 0 -135 56.5t-56 134.5t56 133t135 55z" />
    <glyph glyph-name="radical" unicode="&#x221a;" horiz-adv-x="1366" 
d="M1155 1714h215v-149h-96l-590 -1606h-119l-307 846l-145 -55l-37 129l360 127l223 -635z" />
    <glyph glyph-name="infinity" unicode="&#x221e;" horiz-adv-x="1706" 
d="M956 561q44 -68 103.5 -103.5t130.5 -35.5q89 0 146 52t57 132q0 77 -52 129.5t-127 52.5q-71 0 -130 -51t-128 -176zM752 657q-43 68 -101.5 102t-132.5 34q-90 0 -146.5 -51t-56.5 -130q0 -78 51.5 -131t127.5 -53q69 0 130 53.5t128 175.5zM856 442
q-68 -130 -147.5 -193t-176.5 -63q-139 0 -238 121.5t-99 300.5q0 188 87.5 305t227.5 117q90 0 166.5 -56.5t175.5 -199.5q70 131 149 193.5t175 62.5q140 0 238.5 -120.5t98.5 -299.5q0 -189 -87.5 -306.5t-227.5 -117.5q-91 0 -166 55t-176 201z" />
    <glyph glyph-name="integral" unicode="&#x222b;" horiz-adv-x="1249" 
d="M362 -248q99 0 119 667q3 101 4 154q17 523 130.5 753t349.5 230q105 0 170 -53t65 -137q0 -64 -41 -103.5t-106 -39.5q-64 0 -96.5 38.5t-32.5 112.5q0 38 -7.5 49t-25.5 11q-101 0 -124 -667q-2 -60 -3 -91q-11 -329 -30.5 -472.5t-57.5 -244.5q-62 -166 -159.5 -249
t-229.5 -83q-107 0 -171.5 52t-64.5 139q0 65 42 104t112 39q60 0 92.5 -36t32.5 -103q0 -12 -2 -24v-3q0 -24 8 -33.5t26 -9.5z" />
    <glyph glyph-name="approxequal" unicode="&#x2248;" horiz-adv-x="1706" 
d="M1530 602v-254q-105 -71 -196 -104t-181 -33t-283 65.5t-309 65.5q-82 0 -172.5 -37t-210.5 -121v254q111 74 209 109t195 35q115 0 304.5 -65.5t272.5 -65.5t170 35t201 116zM1530 1036v-254q-107 -70 -197 -102.5t-178 -32.5q-91 0 -284 64.5t-310 64.5q-84 0 -172 -36
t-211 -122v256q112 74 209 108t195 34q115 0 304.5 -65.5t272.5 -65.5t170.5 35.5t200.5 115.5z" />
    <glyph glyph-name="notequal" unicode="&#x2260;" horiz-adv-x="1706" 
d="M1194 1251l168 -137l-135 -168h225v-221h-377l-180 -227h557v-222h-704l-246 -307l-170 137l135 170h-213v222h360l183 227h-543v221h694z" />
    <glyph glyph-name="lessequal" unicode="&#x2264;" horiz-adv-x="1706" 
d="M256 213h1196v-229h-1196v229zM1450 1257v-239l-776 -240l776 -239v-240l-1194 379v201z" />
    <glyph glyph-name="greaterequal" unicode="&#x2265;" horiz-adv-x="1706" 
d="M256 213h1196v-229h-1196v229zM256 1257l1194 -378v-201l-1194 -379v240l778 239l-778 240v239z" />
    <glyph glyph-name="lozenge" unicode="&#x25ca;" horiz-adv-x="1012" 
d="M506 1409l-385 -817l385 -825l385 825zM506 1653l500 -1061l-500 -1069l-500 1069z" />
    <glyph glyph-name="apple" unicode="&#xf000;" horiz-adv-x="1618" 
d="M836 1216q-1 6 -1.5 14t-0.5 23q0 124 95 229.5t236 131.5q1 -10 1.5 -23t0.5 -39q0 -131 -103.5 -234.5t-203.5 -103.5h-8q-3 0 -7.5 1t-8.5 1zM1505 403q-114 -247 -205 -342.5t-204 -95.5q-50 0 -131.5 33t-122.5 33q-45 0 -131 -33t-127 -33q-64 0 -128.5 44
t-129.5 132q-102 140 -157.5 295.5t-55.5 300.5q0 219 125 356.5t323 137.5q68 0 155 -34t124 -34q34 0 121.5 34t152.5 34q111 0 199 -39.5t160 -122.5q-102 -65 -151.5 -145.5t-49.5 -182.5q0 -113 60 -200t173 -138z" />
    <glyph glyph-name="fi" unicode="&#xf001;" horiz-adv-x="1270" 
d="M170 868h-123v56q0 45 40 58q21 7 34 13q28 14 43 43t24 92q28 178 163 270.5t366 92.5q192 0 298.5 -67.5t106.5 -188.5q0 -73 -43.5 -115.5t-120.5 -42.5q-75 0 -116 39.5t-41 112.5q0 32 14 68t14 40q0 19 -35.5 35.5t-82.5 16.5q-118 0 -173 -59.5t-55 -186.5v-139
h375q83 0 146 4t120 12v-799q0 -57 9.5 -76t35.5 -34q7 -4 19 -10q45 -22 45 -54v-49h-531v49q0 30 54.5 56.5t54.5 93.5v43v520q0 78 -19.5 92t-89.5 14h-219v-645q0 -57 9 -76t36 -34q7 -4 19 -10q45 -22 45 -54v-49h-531v49q0 30 54.5 56.5t54.5 93.5v43v626z" />
    <glyph glyph-name="fl" unicode="&#xf002;" horiz-adv-x="1247" 
d="M61 0v49q0 30 54.5 56.5t54.5 93.5v43v626h-123v56q0 45 40 58q21 7 34 13q28 14 43 43t24 92q27 175 156 267t346 92q46 0 104.5 -5t141.5 -16l188 11v-1256q0 -57 9.5 -76t35.5 -34q7 -4 19 -10q45 -22 45 -54v-49h-531v49q0 30 54.5 56.5t54.5 93.5v43v903
q-28 25 -41.5 49.5t-13.5 50.5q0 17 11 45t11 43q0 29 -19 41t-65 12q-106 0 -158.5 -61t-52.5 -184v-135h219v-138h-219v-645q0 -57 9 -76t36 -34q7 -4 19 -10q45 -22 45 -54v-49h-531z" />
    </font>
</defs>
</svg>
