<?xml version="1.0" standalone="no"?>
<!DOCTYPE svg PUBLIC "-//W3C//DTD SVG 1.1//EN" "http://www.w3.org/Graphics/SVG/1.1/DTD/svg11.dtd" >
<svg xmlns="http://www.w3.org/2000/svg" xmlns:xlink="http://www.w3.org/1999/xlink" version="1.1">
<metadata>
Created by FontForge 20170731 at Fri Dec 11 04:49:33 1992
 By Aleksey,,,
Copyright 1990-1993 Bitstream Inc.  All rights reserved.
</metadata>
<defs>
<font id="CheltenhamITCbyBT-BoldItalic" horiz-adv-x="1024" >
  <font-face 
    font-family="ChelthmITC Bk BT"
    font-weight="700"
    font-style="italic"
    font-stretch="normal"
    units-per-em="2048"
    panose-1="2 4 8 3 6 5 5 9 4 4"
    ascent="1638"
    descent="-410"
    x-height="1028"
    cap-height="1446"
    bbox="-387 -483 2308 1972"
    underline-thickness="172"
    underline-position="-469"
    slope="-14"
    unicode-range="U+0020-F002"
  />
<missing-glyph horiz-adv-x="1229" 
d="M102 -362v1806h1024v-1806h-1024zM217 -248h795v1577h-795v-1577z" />
    <glyph glyph-name=".notdef" horiz-adv-x="1229" 
d="M102 -362v1806h1024v-1806h-1024zM217 -248h795v1577h-795v-1577z" />
    <glyph glyph-name=".null" horiz-adv-x="0" 
 />
    <glyph glyph-name="nonmarkingreturn" horiz-adv-x="573" 
 />
    <glyph glyph-name="space" unicode=" " horiz-adv-x="573" 
 />
    <glyph glyph-name="exclam" unicode="!" horiz-adv-x="682" 
d="M-2 152q0 73 51.5 124.5t124.5 51.5q74 0 125 -51.5t51 -124.5t-52 -125t-124 -52q-74 0 -125 51.5t-51 125.5zM303 420h-102l69 741q16 158 72 233.5t158 75.5q74 0 116.5 -42t42.5 -115q0 -27 -9.5 -61t-37.5 -99z" />
    <glyph glyph-name="quotedbl" unicode="&#x22;" horiz-adv-x="717" 
d="M553 846h-45l-84 463q-3 15 -3.5 22.5t-0.5 14.5q0 54 29.5 86t80.5 32t81 -31.5t30 -84.5q0 -16 -0.5 -24.5t-1.5 -15.5zM207 846h-43l-86 462q-3 16 -3.5 23.5t-0.5 14.5q0 54 29.5 86t80.5 32q52 0 82.5 -31.5t30.5 -84.5q0 -8 -1 -17t-3 -22z" />
    <glyph glyph-name="numbersign" unicode="#" horiz-adv-x="1575" 
d="M705 844l-84 -236h253l84 236h-253zM684 1466h248l-139 -393h241l140 393h247l-139 -393h270l-86 -229h-266l-82 -234h277l-84 -229h-275l-141 -393h-248l141 393h-241l-141 -393h-248l141 393h-276l86 229h272l82 234h-285l86 229h281z" />
    <glyph glyph-name="dollar" unicode="$" horiz-adv-x="1147" 
d="M573 948l115 389q-86 -9 -136 -66.5t-50 -146.5q0 -43 17.5 -86.5t53.5 -89.5zM442 127q83 15 136 76t53 139q0 40 -17 76.5t-57 79.5zM297 14q-149 41 -231 116t-82 169q0 77 49.5 130.5t120.5 53.5q61 0 104 -42.5t43 -102.5q0 -42 -22.5 -77t-69.5 -66
q18 -34 45.5 -52t71.5 -26l139 465q-119 89 -178.5 192t-59.5 219q0 107 59.5 211t155.5 166q60 39 127.5 57.5t149.5 18.5l47 143h108l-43 -143q141 -31 225.5 -107t84.5 -170q0 -73 -43.5 -118t-114.5 -45q-62 0 -104.5 39.5t-42.5 97.5q0 34 15 67t46 68q-14 27 -36.5 41
t-63.5 20l-135 -467q150 -110 218 -210t68 -211q0 -184 -148 -312.5t-366 -128.5h-26l-56 -180h-108z" />
    <glyph glyph-name="percent" unicode="%" horiz-adv-x="1640" 
d="M1073 137q0 -50 14 -72t46 -22q35 0 66 44t65 142q40 121 65 256.5t25 214.5q0 53 -14 76t-46 23q-34 0 -65.5 -46t-65.5 -145q-40 -120 -65 -256t-25 -215zM1139 -25q-119 0 -188.5 91.5t-69.5 246.5q0 218 125 385.5t280 167.5q117 0 188.5 -92t71.5 -244
q0 -222 -124 -388.5t-283 -166.5zM467 -25h-143l825 1495h143zM258 735q0 -50 14 -72t45 -22q36 0 67 44.5t65 143.5q40 121 65 256t25 213q0 53 -14 76t-46 23q-34 0 -66 -46t-65 -145q-40 -120 -65 -256t-25 -215zM324 573q-119 0 -188.5 91.5t-69.5 246.5
q0 218 125 385.5t280 167.5q118 0 189 -91.5t71 -242.5q0 -222 -124.5 -389.5t-282.5 -167.5z" />
    <glyph glyph-name="ampersand" unicode="&#x26;" horiz-adv-x="1688" 
d="M813 920q119 35 184.5 109.5t65.5 172.5q0 63 -41 104.5t-102 41.5q-74 0 -122 -58t-48 -149q0 -49 15 -102t48 -119zM879 176q-67 74 -144 202.5t-170 319.5q-99 -37 -144.5 -98.5t-45.5 -159.5q0 -135 89.5 -232t215.5 -97q44 0 90.5 15t108.5 50zM1489 174l59 -68
q-53 -68 -123.5 -99.5t-171.5 -31.5q-76 0 -139.5 26t-144.5 91q-104 -61 -204 -89t-214 -28q-234 0 -370 106t-136 284q0 156 113 265t362 191q-25 72 -37 128.5t-12 107.5q0 183 118.5 298t309.5 115q172 0 268.5 -73.5t96.5 -204.5q0 -137 -97.5 -227.5t-306.5 -147.5
q56 -115 119 -220.5t133 -203.5q49 52 78 105t29 88q0 22 -13.5 41.5t-34.5 27.5q-28 11 -35.5 21.5t-7.5 34.5q0 10 2 24.5t5 30.5h391v-21q0 -67 -66 -89q-30 -10 -45 -19q-35 -21 -98.5 -145.5t-130.5 -206.5q70 -93 113.5 -125.5t89.5 -32.5q27 0 51 11.5t49 35.5z" />
    <glyph glyph-name="quotesingle" unicode="'" horiz-adv-x="371" 
d="M207 846h-43l-86 462q-3 16 -3.5 23.5t-0.5 14.5q0 53 31 85.5t81 32.5q51 0 81 -31.5t30 -84.5q0 -8 -1 -17t-3 -22z" />
    <glyph glyph-name="parenleft" unicode="(" horiz-adv-x="909" 
d="M618 -299q-233 17 -355 175.5t-122 445.5q0 111 22.5 239.5t65.5 265.5q53 168 120 296t151 220q112 123 249 181.5t312 58.5h10l-24 -90q-163 -10 -282 -135.5t-212 -386.5q-84 -238 -130 -460.5t-46 -387.5q0 -164 61.5 -242.5t196.5 -89.5z" />
    <glyph glyph-name="parenright" unicode=")" horiz-adv-x="909" 
d="M276 1583q234 -17 356 -175.5t122 -444.5q0 -111 -22.5 -240t-65.5 -266q-53 -168 -120 -296t-151 -220q-112 -123 -249 -181.5t-312 -58.5h-10l24 90q163 11 281.5 136.5t212.5 387.5q84 238 130 461t46 387q0 163 -61.5 241t-196.5 89z" />
    <glyph glyph-name="asterisk" unicode="*" 
d="M577 1063q-4 90 -50 184t-46 121q0 45 31.5 73.5t81.5 28.5t80.5 -28.5t30.5 -75.5q0 -23 -44.5 -118t-52.5 -183q75 44 143 145t130 101q41 0 73.5 -37t32.5 -82q0 -50 -30.5 -74t-119.5 -31q-77 -6 -123 -18t-87 -33q41 -23 88.5 -35t124.5 -16q85 -6 116 -30.5
t31 -77.5q0 -48 -32.5 -82.5t-77.5 -34.5q-56 0 -125.5 101.5t-140.5 145.5q2 -86 48 -181t46 -121q0 -45 -31 -74t-80 -29q-51 0 -82 28t-31 75q0 24 47 120t51 180q-76 -47 -142.5 -146t-131.5 -99q-41 0 -73.5 37.5t-32.5 81.5q0 42 31 69.5t85 32.5q10 1 28 2
q138 10 218 51q-87 46 -229 52q-17 1 -24 1q-50 4 -79.5 32t-29.5 71q0 49 34 85t80 36q53 0 121.5 -99t142.5 -149z" />
    <glyph glyph-name="plus" unicode="+" horiz-adv-x="1706" 
d="M735 1221h238v-494h479v-231h-479v-496h-238v496h-481v231h481v494z" />
    <glyph glyph-name="comma" unicode="," horiz-adv-x="573" 
d="M-57 -317l-49 86q115 53 181 109t93 124q-85 19 -126.5 61t-41.5 111q0 79 51.5 132.5t126.5 53.5q82 0 132 -54.5t50 -145.5q0 -141 -109 -266.5t-308 -210.5z" />
    <glyph glyph-name="hyphen" unicode="-" horiz-adv-x="682" 
d="M508 393h-535l66 219h536z" />
    <glyph glyph-name="period" unicode="." horiz-adv-x="573" 
d="M-6 166q0 78 55 133t133 55q79 0 135 -55t56 -133t-56.5 -134.5t-134.5 -56.5t-133 56t-55 135z" />
    <glyph glyph-name="slash" unicode="/" horiz-adv-x="569" 
d="M12 -190h-133l623 1660h135z" />
    <glyph glyph-name="zero" unicode="0" horiz-adv-x="1147" 
d="M326 244q0 -85 21 -120.5t69 -35.5q52 0 104 77t107 236q77 225 124.5 455.5t47.5 345.5q0 81 -21 117.5t-67 36.5q-54 0 -106.5 -78t-106.5 -236q-77 -222 -124.5 -453t-47.5 -345zM432 -25q-181 0 -287 147t-106 400q0 199 68.5 393.5t187.5 333.5q93 108 194.5 164.5
t202.5 56.5q180 0 286.5 -147t106.5 -395q0 -200 -69 -397.5t-187 -333.5q-92 -108 -194 -165t-203 -57z" />
    <glyph glyph-name="one" unicode="1" horiz-adv-x="1147" 
d="M874 1446h68l-315 -1178q-8 -28 -12.5 -52.5t-4.5 -43.5q0 -22 44 -52.5t44 -66.5q0 -13 -2 -26t-6 -27h-569q2 54 18 79.5t58 41.5q38 13 60.5 43.5t39.5 91.5l258 961h-217q1 50 18 72.5t70 37.5z" />
    <glyph glyph-name="two" unicode="2" horiz-adv-x="1147" 
d="M793 0h-926l33 141q437 334 622 563t185 431q0 97 -48 156t-127 59q-46 0 -79 -20.5t-33 -45.5q0 -14 38 -66.5t38 -91.5q0 -73 -49 -122.5t-119 -49.5q-69 0 -114.5 50.5t-45.5 128.5q0 139 129.5 237t323.5 98t319 -110t125 -279q0 -115 -65.5 -207t-264.5 -225
q-197 -132 -289 -202.5t-163 -137.5h315q56 0 86.5 10t54.5 33q5 5 13 16q33 44 98 44h49z" />
    <glyph glyph-name="three" unicode="3" horiz-adv-x="1147" 
d="M319 721l25 100q212 6 334.5 95t122.5 235q0 95 -50.5 153t-129.5 58q-52 0 -85.5 -18.5t-33.5 -45.5q0 -16 24.5 -61t24.5 -80q0 -61 -49 -107t-115 -46q-64 0 -105.5 43t-41.5 108q0 132 128 223.5t326 91.5q194 0 309 -87.5t115 -231.5q0 -149 -125 -248.5
t-348 -124.5q151 -19 235.5 -104.5t84.5 -216.5q0 -210 -170.5 -346t-442.5 -136q-177 0 -290 80t-113 199q0 79 52 133.5t126 54.5q62 0 110 -44.5t48 -100.5q0 -68 -34 -117t-34 -55q0 -18 28 -30.5t66 -12.5q128 0 224 117t96 282q0 117 -76.5 175.5t-235.5 64.5z" />
    <glyph glyph-name="four" unicode="4" horiz-adv-x="1147" 
d="M557 526l164 590l-545 -590h381zM310 0q1 54 17 79.5t58 41.5q40 15 61.5 43.5t38.5 91.5l33 129h-543l35 141l834 920h270l-246 -920h185l-37 -141h-187l-28 -117q-8 -34 -12.5 -58.5t-4.5 -39.5q0 -21 44 -50.5t44 -66.5q0 -13 -2 -26t-6 -27h-554z" />
    <glyph glyph-name="five" unicode="5" horiz-adv-x="1147" 
d="M268 752l-80 55l228 639h504q41 0 84 30.5t88 30.5h45l-95 -346h-612l-90 -262q55 26 108.5 38.5t110.5 12.5q191 0 309.5 -117t118.5 -305q0 -230 -174 -390.5t-436 -160.5q-173 0 -278 78t-105 203q0 80 49.5 133t122.5 53q64 0 108.5 -43t44.5 -106q0 -42 -31.5 -94.5
t-31.5 -69.5q0 -18 21 -30.5t53 -12.5q131 0 229 140t98 325q0 119 -58 188.5t-159 69.5q-39 0 -82 -15t-90 -44z" />
    <glyph glyph-name="six" unicode="6" horiz-adv-x="1147" 
d="M434 727q-35 -140 -53.5 -256t-18.5 -203t29 -133.5t82 -46.5q82 0 151.5 160.5t69.5 357.5q0 95 -30.5 142t-92.5 47q-30 0 -64 -17t-73 -51zM471 862q50 28 99.5 42t101.5 14q150 0 243 -108t93 -284q0 -227 -154.5 -389t-368.5 -162q-188 0 -306 140t-118 368
q0 170 63.5 355t174.5 338q106 145 233.5 219.5t272.5 74.5q146 0 231.5 -65t85.5 -174q0 -68 -43.5 -114t-107.5 -46q-66 0 -109 41.5t-43 104.5q0 28 13.5 65t13.5 47q0 18 -9 26.5t-28 8.5q-91 0 -175 -124.5t-163 -377.5z" />
    <glyph glyph-name="seven" unicode="7" horiz-adv-x="1147" 
d="M874 1143h-430q-65 0 -110 -49q-18 -19 -29 -27q-14 -10 -35.5 -14t-56.5 -4h-31l111 397h919l-34 -146q-255 -241 -395.5 -440.5t-184.5 -380.5q-17 -69 -20.5 -186t-12.5 -162q-13 -72 -62.5 -115t-117.5 -43t-115 56t-47 139q0 179 147 401.5t504 573.5z" />
    <glyph glyph-name="eight" unicode="8" horiz-adv-x="1147" 
d="M465 637q-107 -57 -159 -136.5t-52 -185.5q0 -103 55 -167t144 -64q102 0 170.5 65.5t68.5 163.5q0 78 -49.5 150t-177.5 174zM709 881q95 51 143.5 126t48.5 173q0 82 -51 132t-133 50q-84 0 -142.5 -59.5t-58.5 -143.5q0 -70 49.5 -141.5t143.5 -136.5zM371 721
q-68 78 -100.5 153.5t-32.5 155.5q0 192 133.5 315t347.5 123q182 0 283.5 -79.5t101.5 -221.5q0 -124 -73.5 -211t-235.5 -155q105 -96 150.5 -178t45.5 -174q0 -204 -159 -339t-406 -135q-185 0 -301.5 98.5t-116.5 252.5q0 126 84.5 219t278.5 176z" />
    <glyph glyph-name="nine" unicode="9" horiz-adv-x="1147" 
d="M653 584q-49 -28 -99 -42t-101 -14q-151 0 -243.5 107t-92.5 283q0 227 154.5 389.5t367.5 162.5q188 0 306 -139.5t118 -367.5q0 -169 -63.5 -355t-174.5 -338q-106 -145 -233.5 -220t-269.5 -75q-147 0 -233.5 65.5t-86.5 176.5q0 67 43.5 112.5t108.5 45.5t108 -41.5
t43 -104.5q0 -27 -13 -64.5t-13 -47.5q0 -18 8.5 -26.5t27.5 -8.5q92 0 175.5 124.5t162.5 377.5zM690 719q36 139 54 254t18 203q0 87 -29 134.5t-82 47.5q-82 0 -151.5 -160.5t-69.5 -357.5q0 -95 30.5 -142t92.5 -47q30 0 64 17t73 51z" />
    <glyph glyph-name="colon" unicode=":" horiz-adv-x="682" 
d="M186 838q0 78 55.5 134t133.5 56t133 -56t55 -134t-55.5 -133.5t-132.5 -55.5q-79 0 -134 55t-55 134zM-6 166q0 78 55 133t133 55q79 0 134 -55t55 -133t-55.5 -134.5t-133.5 -56.5t-133 56t-55 135z" />
    <glyph glyph-name="semicolon" unicode=";" horiz-adv-x="682" 
d="M-57 -317l-49 86q115 53 181 109t93 124q-85 19 -126.5 61t-41.5 111q0 79 51.5 132.5t126.5 53.5q82 0 132 -54.5t50 -145.5q0 -141 -109 -266.5t-308 -210.5zM186 838q0 78 55.5 134t133.5 56t133 -56t55 -134t-55.5 -133.5t-132.5 -55.5q-79 0 -134 55t-55 134z" />
    <glyph glyph-name="less" unicode="&#x3c;" horiz-adv-x="1706" 
d="M1442 1214v-253l-854 -351l854 -348v-254l-1178 486v233z" />
    <glyph glyph-name="equal" unicode="=" horiz-adv-x="1706" 
d="M254 502h1198v-230h-1198v230zM254 950h1198v-231h-1198v231z" />
    <glyph glyph-name="greater" unicode="&#x3e;" horiz-adv-x="1706" 
d="M264 1214l1178 -487v-233l-1178 -486v254l854 348l-854 351v253z" />
    <glyph glyph-name="question" unicode="?" horiz-adv-x="920" 
d="M365 154q0 -74 -52 -126.5t-125 -52.5t-124.5 52.5t-51.5 126.5q0 71 52 122.5t124 51.5q75 0 126 -50.5t51 -123.5zM315 406h-112q16 99 62.5 184t140.5 183l33 33q198 202 198 372q0 85 -47.5 136.5t-124.5 51.5q-34 0 -61 -15t-27 -30q0 -8 32.5 -48t32.5 -87
q0 -73 -44.5 -119.5t-114.5 -46.5q-76 0 -122 43.5t-46 114.5q0 123 113.5 207.5t287.5 84.5q208 0 337.5 -100t129.5 -258q0 -116 -72.5 -204t-261.5 -189q-18 -10 -55 -29q-230 -120 -279 -284z" />
    <glyph glyph-name="at" unicode="@" horiz-adv-x="2019" 
d="M1171 313q-60 -95 -130 -143.5t-148 -48.5q-156 0 -241 90t-85 256q0 116 50.5 223.5t146.5 196.5q68 62 150 95.5t167 33.5q96 0 150 -44t67 -132l48 157h208l-174 -624q-8 -34 -11 -53t-3 -35q0 -45 19 -72t51 -27q30 0 84.5 27.5t101.5 69.5q97 87 148 211.5t51 273.5
q0 121 -34 219.5t-101 171.5q-99 109 -235.5 166t-299.5 57q-139 0 -265 -39.5t-233 -117.5q-166 -120 -255 -303t-89 -404q0 -336 205 -531.5t557 -195.5q163 0 315 49.5t316 157.5l41 -57q-151 -113 -321 -170.5t-351 -57.5q-432 0 -687 224.5t-255 601.5q0 202 87.5 381
t252.5 313q137 112 302.5 169.5t350.5 57.5q349 0 559.5 -189.5t210.5 -504.5q0 -164 -59 -302t-172 -239q-59 -52 -128 -80t-140 -28q-98 0 -156.5 52.5t-65.5 143.5zM1128 942q-60 0 -110 -44t-98 -140q-57 -112 -88 -218.5t-31 -187.5q0 -71 32.5 -113t86.5 -42
q59 0 115 60.5t108 180.5q42 99 67 198.5t25 166.5t-27.5 103t-79.5 36z" />
    <glyph glyph-name="A" unicode="A" horiz-adv-x="1233" 
d="M694 537l-65 497l-281 -497h346zM252 0h-434v10q0 81 72 110q23 9 32 15q27 17 56 54.5t77 119.5l543 920l-12 127v6q0 15 8.5 24t30.5 17l190 61q20 7 26.5 8.5t10.5 2.5q16 0 23.5 -10.5t11.5 -39.5l168 -1144q0 -5 2 -16q15 -101 47 -128q10 -8 28 -16q27 -12 27 -41
q0 -12 -3 -32t-9 -48h-529q9 68 21.5 89t42.5 28q31 6 44 25t13 57q0 10 -1.5 26.5t-4.5 39.5l-18 132h-447l-82 -143q-11 -19 -16.5 -40t-5.5 -42q0 -15 11 -26t38 -21q5 -2 14 -5q37 -13 37 -48q0 -16 -9 -58q-2 -9 -3 -14z" />
    <glyph glyph-name="B" unicode="B" horiz-adv-x="1331" 
d="M377 129q3 0 10 -1q66 -7 98 -7q186 0 287.5 92t101.5 260q0 97 -60 149t-173 52h-127zM545 803q28 -3 41.5 -3.5t25.5 -0.5q161 0 261 95t100 245q0 80 -53 129t-142 49h-106zM-104 0q1 52 17.5 79t57.5 42q40 14 60 39.5t37 95.5l233 922q1 4 3 11q13 53 13 77
q0 37 -46 60t-46 52q0 13 3 29.5t10 38.5h614q235 0 339.5 -72.5t104.5 -232.5t-115 -265t-311 -120q162 -25 249 -112.5t87 -223.5q0 -184 -141 -302t-365 -118h-804z" />
    <glyph glyph-name="C" unicode="C" horiz-adv-x="1346" 
d="M1085 338l78 -82q-139 -156 -265 -218.5t-296 -62.5q-250 0 -403.5 151t-153.5 394q0 177 66.5 352.5t183.5 309.5q123 141 277 214.5t327 73.5q114 0 220.5 -51t119.5 -51q14 0 27.5 9.5t31.5 33.5h103l-111 -430q-2 0 -6 -1q-22 -3 -31 -3q-44 0 -68 24t-34 81
q-3 15 -7 44q-10 80 -30 113q-31 56 -76 84.5t-100 28.5q-102 0 -199.5 -79t-177.5 -226q-71 -133 -113 -290t-42 -286q0 -163 78 -256.5t212 -93.5q90 0 182.5 51t206.5 166z" />
    <glyph glyph-name="D" unicode="D" horiz-adv-x="1503" 
d="M371 121h45q161 0 262.5 39t179.5 131q39 45 73.5 114t61.5 158q37 114 56.5 220.5t19.5 193.5q0 186 -79 268t-257 82q-22 0 -34 -0.5t-21 -1.5zM-122 0q1 53 17.5 79t59.5 42q39 14 59 39.5t37 95.5l238 922q10 35 13 53t3 35q0 37 -47 60.5t-47 53.5q0 10 2.5 23
t11.5 43h613q290 0 444 -146t154 -421q0 -217 -95 -412.5t-258 -312.5q-113 -82 -247 -118t-357 -36h-601z" />
    <glyph glyph-name="E" unicode="E" horiz-adv-x="1237" 
d="M68 256l233 922q1 4 3 11q13 53 13 77q0 37 -46 60t-46 52q0 14 3 31t10 37h753q104 0 175 10.5t139 32.5l-103 -412q-12 -2 -23 -3t-24 -1q-75 0 -81 88q-3 35 -7 53q-15 63 -62.5 88t-166.5 25h-154l-131 -522h121q50 0 80 9t49 30q7 8 22 30q42 64 88 64q18 0 30.5 -1
t25.5 -3l-105 -420q-14 -3 -25 -4.5t-20 -1.5q-54 0 -72 98q-2 12 -4 19q-6 35 -29 53t-61 18h-127l-143 -573h235q145 0 203 26.5t90 102.5q5 11 12 29q38 96 142 96q6 0 19 -1t22 -1l-94 -375h-1116q1 53 17.5 79t57.5 42q39 14 59 39.5t38 95.5z" />
    <glyph glyph-name="F" unicode="F" horiz-adv-x="1118" 
d="M416 269q-2 -7 -4 -18q-13 -55 -13 -79q0 -22 44 -52.5t44 -66.5q0 -13 -2 -26t-6 -27h-583q1 52 17.5 79t57.5 42q40 14 60 39.5t37 95.5l233 922q1 4 3 11q13 53 13 77q0 37 -46 60t-46 52q0 13 3 29.5t10 38.5h755q104 0 174.5 10.5t137.5 32.5l-103 -412
q-12 -2 -23 -3t-24 -1q-75 0 -81 88q-3 35 -7 53q-14 63 -61 88t-168 25h-154l-131 -522h121q49 0 79.5 9t49.5 30q7 8 22 29q43 65 88 65q18 0 30.5 -1t25.5 -3l-105 -420q-12 -3 -22.5 -4.5t-20.5 -1.5q-32 0 -48.5 20t-24.5 72q-10 59 -30.5 77.5t-64.5 18.5h-127z" />
    <glyph glyph-name="G" unicode="G" horiz-adv-x="1460" 
d="M868 694h500q-39 -40 -63.5 -81.5t-34.5 -84.5l-53 -209q-5 -16 -6 -21.5t-1 -8.5q0 -23 10.5 -32.5t40.5 -12.5q1 -3 2 -8.5t1 -8.5q0 -98 -176 -175t-422 -77q-288 0 -450.5 156t-162.5 430q0 167 74.5 341.5t204.5 309.5q125 130 269 194t310 64q116 0 228.5 -48
t124.5 -48q13 0 26 8.5t35 32.5h102l-112 -403q-6 -1 -13.5 -1.5t-21.5 -0.5q-46 0 -71.5 22.5t-34.5 72.5q-4 20 -9 55q-11 83 -30 110q-29 42 -75 65t-102 23q-113 0 -221.5 -93t-187.5 -261q-65 -139 -101 -289.5t-36 -284.5q0 -161 68.5 -252.5t187.5 -91.5
q69 0 118.5 35t85.5 108q29 60 48.5 141t19.5 138q0 39 -42 70.5t-42 64.5q0 10 3 23.5t9 27.5z" />
    <glyph glyph-name="H" unicode="H" horiz-adv-x="1597" 
d="M1087 811l93 367q1 5 5 19q13 46 13 69q0 37 -47 60t-47 52q0 10 3 24t11 44h583q-2 -54 -19 -81t-58 -42q-38 -14 -57.5 -39.5t-36.5 -93.5l-234 -922q-1 -4 -2 -10q-14 -59 -14 -86q0 -22 44 -52.5t44 -66.5q0 -13 -2 -26t-6 -27h-585q1 53 17.5 79.5t57.5 41.5
q39 14 59 39.5t37 95.5l109 418h-535l-104 -406q-1 -3 -3 -11q-14 -58 -14 -85q0 -22 44 -52.5t44 -66.5q0 -13 -2 -26t-6 -27h-583q1 52 17.5 79t57.5 42q40 14 60 39.5t37 95.5l233 922q1 4 3 11q13 53 13 77q0 37 -46 60t-46 52q0 13 3 29.5t10 38.5h585
q-3 -54 -20.5 -81t-59.5 -42q-37 -14 -56 -38t-36 -95l-98 -379h534z" />
    <glyph glyph-name="I" unicode="I" horiz-adv-x="721" 
d="M416 268q-1 -3 -3 -11q-14 -58 -14 -85q0 -22 44 -52.5t44 -66.5q0 -13 -2 -26t-6 -27h-583q1 52 17.5 79t57.5 42q40 14 60 39.5t37 95.5l233 922q1 4 3 11q13 53 13 77q0 37 -46 60t-46 52q0 13 3 29.5t10 38.5h585q-3 -54 -20.5 -81t-59.5 -42q-36 -14 -55 -38
t-37 -95z" />
    <glyph glyph-name="J" unicode="J" horiz-adv-x="1128" 
d="M729 1178q1 4 4 15q12 48 12 73q0 37 -46 60t-46 52q0 13 3 29.5t10 38.5h585q-3 -54 -20.5 -81t-59.5 -42q-37 -14 -55.5 -38t-36.5 -95l-190 -746q-40 -156 -80.5 -223.5t-108.5 -120.5q-76 -61 -182 -93t-231 -32q-174 0 -275.5 74.5t-101.5 200.5q0 91 50 145t134 54
q80 0 130 -44t50 -114q0 -58 -36.5 -102.5t-36.5 -51.5q0 -17 24 -32t56 -15q94 0 148 61.5t112 284.5z" />
    <glyph glyph-name="K" unicode="K" horiz-adv-x="1352" 
d="M551 799l453 401q28 26 45.5 52t17.5 40q0 19 -35 45.5t-35 48.5q0 13 3.5 27.5t11.5 32.5h452v-16q0 -37 -10 -61.5t-29 -33.5q-3 -1 -14 -4q-106 -29 -244 -151l-346 -312l264 -567q8 -16 21 -44q47 -103 80 -126q14 -10 38 -20q37 -15 38 -54q-1 -9 -5 -35
q-2 -13 -4 -22h-566q1 36 8 59t20 33q8 6 31 16q47 19 47 46q0 12 -8.5 36t-24.5 58l-236 469l-114 -449q-9 -33 -13 -55.5t-4 -40.5q0 -22 44 -52.5t44 -66.5q0 -13 -2 -26t-6 -27h-577q1 52 17.5 79t57.5 42q40 14 60 39.5t37 95.5l233 922q1 4 3 11q13 53 13 77
q0 37 -46 60t-46 52q0 13 3 29.5t10 38.5h585q-3 -54 -20.5 -81t-59.5 -42q-36 -14 -55 -38t-37 -95z" />
    <glyph glyph-name="L" unicode="L" horiz-adv-x="1200" 
d="M618 123q139 0 199 26.5t99 109.5q6 13 16 37q36 83 123 83q4 0 21.5 -1.5t29.5 -2.5l-94 -375h-1116q1 53 17.5 79t57.5 42q39 14 59 39.5t38 95.5l233 922q1 4 3 11q13 53 13 77q0 37 -46 60t-46 52q0 14 3 31t10 37h585q-3 -54 -20.5 -81t-59.5 -42q-37 -14 -56 -38
t-36 -95l-268 -1067h235z" />
    <glyph glyph-name="M" unicode="M" horiz-adv-x="1720" 
d="M1419 268q-1 -4 -2 -10q-14 -59 -14 -86q0 -22 44 -52.5t44 -66.5q0 -13 -2 -26t-6 -27h-567q1 53 17.5 79.5t57.5 41.5q40 14 60 41t36 94l220 877l-668 -1133h-158l-39 1190l-235 -922q-1 -4 -3 -11q-14 -58 -14 -85q0 -22 44.5 -52.5t44.5 -66.5q0 -9 -2.5 -21.5
t-8.5 -31.5h-372q1 52 17.5 79t57.5 42q40 14 60 39.5t37 95.5l233 922q1 4 3 11q13 53 13 77q0 37 -46 60t-46 52q0 13 3 29.5t10 38.5h503l31 -948l561 948h493q-2 -53 -19.5 -80.5t-59.5 -42.5q-38 -14 -57.5 -39.5t-36.5 -93.5z" />
    <glyph glyph-name="N" unicode="N" horiz-adv-x="1395" 
d="M1196 1178q11 40 14.5 59.5t3.5 36.5q0 22 -44 52.5t-44 66.5q0 13 2 26t7 27h374q-1 -51 -18.5 -78t-58.5 -43q-40 -14 -60 -39.5t-37 -95.5l-303 -1190h-153l-455 1126l-217 -858q-10 -40 -13.5 -60t-3.5 -36q0 -22 44.5 -52.5t44.5 -66.5q0 -9 -2.5 -21.5t-8.5 -31.5
h-372q1 52 17.5 79t57.5 42q40 14 60 39.5t37 95.5l233 922q1 4 3 11q13 53 13 77q0 37 -46 60t-46 52q0 13 3 29.5t10 38.5h424l362 -934z" />
    <glyph glyph-name="O" unicode="O" horiz-adv-x="1616" 
d="M922 1360q-97 0 -178.5 -55.5t-145.5 -165.5q-88 -151 -139 -335.5t-51 -348.5q0 -183 70.5 -276t209.5 -93q111 0 201.5 71t161.5 214q70 141 110.5 310t40.5 316q0 179 -71 271t-209 92zM55 608q0 152 65 309t181 283q123 135 276.5 202.5t337.5 67.5
q299 0 472.5 -165.5t173.5 -450.5q0 -169 -65.5 -330t-184.5 -286q-128 -136 -277 -199.5t-338 -63.5q-299 0 -470 168.5t-171 464.5z" />
    <glyph glyph-name="P" unicode="P" horiz-adv-x="1270" 
d="M543 769q7 -2 16 -2.5t25 -0.5q169 0 268.5 110t99.5 295q0 70 -41 113t-108 43h-117zM416 269q-2 -7 -4 -18q-13 -55 -13 -79q0 -22 44 -52.5t44 -66.5q0 -13 -2 -26t-6 -27h-583q1 52 17.5 79t57.5 42q40 14 60 39.5t37 95.5l233 922q1 4 3 11q13 53 13 77q0 37 -46 60
t-46 52q0 13 3 29.5t10 38.5h561q279 0 389 -75.5t110 -252.5q0 -223 -162 -347t-456 -124h-168z" />
    <glyph glyph-name="Q" unicode="Q" horiz-adv-x="1616" 
d="M1253 -201q-55 -100 -119.5 -146t-150.5 -46q-63 0 -118 21.5t-93 60.5q-23 23 -94.5 106t-122.5 125q-60 49 -148 98.5t-104 61.5q-128 97 -188 220.5t-60 291.5q0 162 64 322t180 286q123 135 277.5 202.5t341.5 67.5q297 0 470 -165.5t173 -450.5q0 -218 -107 -418
t-293 -327q-94 -65 -210 -98t-277 -42q88 -35 214 -102.5t169 -67.5q37 0 71.5 16.5t67.5 49.5zM922 1360q-97 0 -178.5 -55.5t-145.5 -165.5q-88 -151 -139 -335.5t-51 -348.5q0 -183 70.5 -276t209.5 -93q111 0 201.5 71t161.5 214q70 141 110.5 310t40.5 316
q0 179 -71 271t-209 92z" />
    <glyph glyph-name="R" unicode="R" horiz-adv-x="1356" 
d="M537 785q9 -2 18 -2.5t27 -0.5q190 0 302.5 108.5t112.5 287.5q0 65 -47 107t-123 42h-151zM238 1446h589q269 0 391.5 -76t122.5 -240q0 -168 -144 -287.5t-384 -146.5q60 -14 99 -63.5t73 -159.5l70 -227q14 -43 33 -75.5t34 -41.5q10 -6 30 -14q44 -18 44 -39
q0 -16 -9 -59q-2 -11 -4 -17h-405l-135 469q-3 12 -10 35q-45 164 -101 164q-6 0 -21 -3q-3 -1 -5 -1l-98 -395l-2 -7q-15 -59 -15 -90q0 -22 44 -52.5t44 -66.5q0 -13 -2 -26t-6 -27h-575q1 52 17.5 79t57.5 42q40 14 60 39.5t37 95.5l233 922q1 4 3 11q13 53 13 77
q0 37 -46 60t-46 52q0 13 3 29.5t10 38.5z" />
    <glyph glyph-name="S" unicode="S" horiz-adv-x="1233" 
d="M35 0h-98l90 393q6 0 16.5 1t13.5 1q84 0 119 -98v0q35 -104 104.5 -156.5t172.5 -52.5q116 0 193 66t77 165q0 128 -204 279q-69 50 -105 80q-114 92 -164.5 180t-50.5 191q0 186 134.5 303.5t348.5 117.5q111 0 215 -45t115 -45q15 0 34 9.5t46 31.5h108l-80 -354
q-7 -1 -15 -1.5t-22 -0.5q-44 0 -67 16.5t-37 59.5q-37 112 -91 158.5t-143 46.5q-90 0 -150 -55.5t-60 -137.5q0 -131 239 -304q42 -30 64 -46q128 -96 180.5 -181.5t52.5 -193.5q0 -196 -153.5 -324.5t-395.5 -128.5q-120 0 -247 37t-142 37q-25 0 -47 -10.5t-51 -38.5z
" />
    <glyph glyph-name="T" unicode="T" horiz-adv-x="1204" 
d="M641 268q-1 -4 -3 -11q-13 -58 -13 -85q0 -22 44 -52.5t44 -66.5q0 -13 -2 -26t-6 -27h-586q1 52 18 79t58 42q38 14 57 37.5t39 97.5l272 1067h-104q-57 0 -104 -27.5t-81 -81.5q-9 -15 -23 -42q-56 -105 -136 -105q-11 0 -33 3q-4 1 -6 1l106 399q38 -12 75 -18t85 -6
h18h824q59 0 109 6t100 18l-101 -385q-18 -3 -30 -4.5t-21 -1.5q-64 1 -69 90q0 9 -1 15q-4 80 -29.5 109.5t-97.5 29.5h-137z" />
    <glyph glyph-name="U" unicode="U" horiz-adv-x="1389" 
d="M211 1446h583q-1 -53 -17.5 -79.5t-57.5 -41.5q-38 -13 -58 -37.5t-38 -97.5l-201 -768q-10 -39 -15.5 -71.5t-5.5 -57.5q0 -92 55 -140.5t158 -48.5q88 0 163 27.5t128 79.5q71 67 117 250q6 21 8 30l180 687q9 29 13 53t4 43q0 22 -44 52.5t-44 66.5q0 13 2 26t6 27
h374q-1 -52 -18 -78.5t-59 -42.5q-40 -14 -59.5 -39.5t-36.5 -95.5l-213 -832q-48 -188 -192.5 -285.5t-375.5 -97.5q-228 0 -360.5 97t-132.5 262q0 38 5.5 78t16.5 81l176 685q9 31 13 53.5t4 42.5q0 22 -44 52.5t-44 66.5q0 10 2 21.5t8 31.5z" />
    <glyph glyph-name="V" unicode="V" horiz-adv-x="1186" 
d="M481 -25h-170l-145 1149q-2 14 -5 39q-12 98 -32 123q-16 20 -57 36.5t-41 51.5q0 16 3.5 34t11.5 38h552q0 -63 -11 -84t-43 -31q-34 -10 -49.5 -33t-15.5 -63q0 -17 3 -48t10 -73l94 -700l452 803q14 24 19.5 38.5t5.5 26.5q0 30 -39 54.5t-39 39.5q0 18 3 34t9 35
l381 1q1 -6 1.5 -12.5t0.5 -16.5q0 -59 -73 -87q-26 -10 -37 -17q-42 -30 -143 -205l-5 -9z" />
    <glyph glyph-name="W" unicode="W" horiz-adv-x="1878" 
d="M1137 -25h-172l-37 785l-484 -785h-174l-104 1149q-1 9 -3 28q-10 108 -34 134q-16 18 -57 36t-41 54q0 17 3.5 34t11.5 36h552q0 -57 -10.5 -79t-55.5 -38q-29 -11 -43 -35.5t-14 -64.5q0 -8 6 -68q3 -30 4 -46l74 -722l359 590l-9 141v6q-6 128 -28 156
q-13 16 -46.5 34.5t-33.5 51.5q0 16 3 34t9 40h559v-23q0 -77 -73 -94q-5 -1 -9 -2q-34 -9 -49.5 -42t-15.5 -97q0 -26 0.5 -42.5t1.5 -31.5l39 -690l450 760q21 35 30 57.5t9 40.5q0 30 -39 54.5t-39 41.5q0 11 3.5 26t11.5 42h380q2 -7 2.5 -13t0.5 -16q0 -33 -15.5 -52
t-66.5 -38q-29 -11 -56 -40.5t-75 -108.5z" />
    <glyph glyph-name="X" unicode="X" horiz-adv-x="1356" 
d="M282 0h-458q0 40 13.5 69t36.5 40q7 3 23 9q124 48 218 150l399 443l-149 409q-9 23 -23 64q-40 110 -59 125q-8 6 -29 16q-64 29 -64 78q0 7 6 31l3 12h594v-16q0 -30 -9.5 -52t-23.5 -28q-12 -7 -37 -16q-57 -20 -57 -54q0 -16 5 -36.5t23 -67.5l92 -250l234 254
q40 44 51.5 63.5t11.5 36.5q0 25 -43 52t-43 57q0 10 3 25.5t8 31.5h462v-14q0 -31 -10.5 -55.5t-26.5 -33.5l-20 -8q-108 -44 -188 -131l-389 -418l159 -450q5 -14 14 -39q48 -138 76 -158q5 -3 20 -10q64 -30 64 -78q0 -9 -2 -22t-6 -29h-583v23q0 29 6 49.5t17 26.5
q11 5 34 14q59 21 59 55q0 24 -7.5 55.5t-29.5 89.5l-90 254l-282 -305q-27 -29 -43.5 -58t-16.5 -44q0 -30 36 -50t36 -49q0 -11 -3.5 -25.5t-11.5 -35.5z" />
    <glyph glyph-name="Y" unicode="Y" horiz-adv-x="1237" 
d="M651 268q-1 -4 -2 -10q-14 -59 -14 -86q0 -22 44 -52.5t44 -66.5q0 -13 -2 -26t-6 -27h-585q1 52 18 78.5t59 42.5q39 14 59 39.5t37 95.5l88 348l-141 567q-14 54 -29 90t-30 51q-11 12 -45.5 30t-34.5 36q0 10 5 27.5t15 40.5h553q1 -6 1.5 -13.5t0.5 -21.5
q0 -25 -6.5 -39.5t-21.5 -23.5q-11 -8 -37 -14q-58 -14 -58 -72q0 -27 15 -75q5 -16 8 -26l108 -405l328 407q43 54 56.5 77t13.5 40q0 39 -37 55.5t-37 26.5q0 15 3 35t9 49h387v-16q0 -46 -16 -70.5t-76 -50.5q-44 -19 -171 -180q-19 -24 -30 -37l-391 -492z" />
    <glyph glyph-name="Z" unicode="Z" horiz-adv-x="1241" 
d="M-86 0l43 150l932 1175h-266q-101 0 -152 -24t-96 -95q-14 -20 -34 -58q-45 -83 -97 -83q-13 0 -44 7q-4 1 -5 1l106 397q42 -12 82 -18t80 -6h844l-31 -121l-950 -1196h219q140 0 208 21t121 73q33 31 68 91q11 18 16 25q21 33 37.5 43.5t40.5 10.5q12 0 25.5 -2
t27.5 -6l-104 -385h-1071z" />
    <glyph glyph-name="bracketleft" unicode="[" horiz-adv-x="872" 
d="M350 -8q-6 -25 -9 -42t-3 -32q0 -29 11.5 -50t33.5 -30q6 -2 21 -5q42 -7 42 -48q0 -13 -2.5 -27t-9.5 -32h-407l473 1835h389v-9q0 -96 -87 -117q-15 -4 -21 -5q-34 -10 -55.5 -39.5t-35.5 -85.5z" />
    <glyph glyph-name="backslash" unicode="\" horiz-adv-x="569" 
d="M358 -190h-133l-59 1660h135z" />
    <glyph glyph-name="bracketright" unicode="]" horiz-adv-x="872" 
d="M473 1292q6 24 9 42.5t3 33.5q0 29 -11.5 48.5t-33.5 29.5q-5 2 -21 5q-42 7 -42 48q0 14 3 29.5t9 32.5h408l-473 -1835h-387v8q0 96 83 115l24 6q32 9 54.5 39.5t36.5 87.5z" />
    <glyph glyph-name="asciicircum" unicode="^" horiz-adv-x="2048" 
d="M893 1462h260l479 -565h-121l-489 348l-490 -348h-120z" />
    <glyph glyph-name="underscore" unicode="_" 
d="M0 -244h1024v-239h-1024v239z" />
    <glyph glyph-name="grave" unicode="`" 
d="M760 1139h-105l-260 192q-35 26 -49 45t-14 39q0 38 24 62t60 24q26 0 49 -14t49 -47z" />
    <glyph glyph-name="a" unicode="a" horiz-adv-x="1229" 
d="M729 719q8 35 12 60t4 42q0 50 -19.5 72t-63.5 22q-61 0 -132 -63.5t-127 -169.5q-48 -94 -77 -206.5t-29 -201.5q0 -71 32 -112t87 -41q81 0 138 61.5t87 182.5zM881 936l202 88h39l-192 -751q-9 -39 -12 -56t-3 -29q0 -30 12 -48.5t31 -18.5q13 0 35.5 9.5t59.5 31.5
l30 -66q-56 -59 -126 -89t-154 -30q-91 0 -137 28.5t-70 96.5q-71 -61 -148.5 -93t-158.5 -32q-141 0 -230.5 94.5t-89.5 243.5q0 134 47.5 253t145.5 233q97 112 208 170.5t228 58.5q73 0 142 -23t141 -71z" />
    <glyph glyph-name="b" unicode="b" horiz-adv-x="1233" 
d="M233 1176q14 48 18.5 71.5t4.5 42.5q0 28 -37 54.5t-37 41.5q0 7 5 22.5t14 37.5h41q92 0 187 6t194 18l-142 -538q74 50 138 73t133 23q158 0 258 -102t100 -264q0 -141 -57.5 -268t-165.5 -226q-106 -96 -228.5 -144.5t-263.5 -48.5q-206 0 -309.5 64.5t-103.5 191.5
q0 22 6.5 58t19.5 84zM313 285q-9 -34 -14.5 -64.5t-5.5 -48.5q0 -46 28 -74t74 -28q57 0 122 46t122 128q67 96 107 221t40 237q0 96 -38.5 147.5t-108.5 51.5q-39 0 -80 -23.5t-104 -84.5z" />
    <glyph glyph-name="c" unicode="c" horiz-adv-x="1006" 
d="M760 244l63 -64q-102 -110 -203 -158.5t-229 -48.5q-184 0 -296.5 106t-112.5 279q0 131 53.5 257.5t148.5 220.5q92 89 219 141.5t254 52.5q121 0 196 -58t75 -149q0 -67 -44 -110t-112 -43q-67 0 -106 39t-39 106q0 28 12 56.5t12 31.5q0 9 -10 17t-23 8
q-100 0 -208.5 -175.5t-108.5 -377.5q0 -136 48.5 -205.5t144.5 -69.5q63 0 132 37t134 107z" />
    <glyph glyph-name="d" unicode="d" horiz-adv-x="1229" 
d="M1053 162l30 -66q-56 -59 -126 -89t-154 -30q-91 0 -137 28.5t-70 96.5q-71 -61 -148.5 -93t-158.5 -32q-145 0 -232.5 95t-87.5 256q0 126 49.5 244t147.5 229q99 112 207 170.5t217 58.5q58 0 109 -16t100 -49l61 210q2 8 6 23q19 65 19 92q0 28 -38 54.5t-38 41.5
q0 7 4.5 22t13.5 37l41 1q93 0 189.5 6t193.5 18l-317 -1177q-9 -33 -14 -60.5t-5 -46.5q0 -27 13 -46t30 -19q14 0 38 10.5t57 30.5zM727 723q9 32 13.5 62.5t4.5 50.5q0 44 -24.5 70t-67.5 26q-51 0 -109.5 -45t-107.5 -123q-61 -97 -101 -231t-40 -240q0 -82 34 -127
t95 -45q41 0 83.5 26t94.5 82z" />
    <glyph glyph-name="e" unicode="e" 
d="M334 539q164 1 279.5 91.5t115.5 203.5q0 45 -25.5 70.5t-70.5 25.5q-92 0 -178 -110t-121 -281zM780 248l64 -68q-103 -109 -207.5 -157t-241.5 -48q-202 0 -312 98.5t-110 278.5q0 122 44.5 237t125.5 204q104 112 235 173.5t269 61.5q134 0 213.5 -60.5t79.5 -160.5
q0 -169 -163.5 -266t-461.5 -103q-4 -22 -6 -45t-2 -49q0 -116 55.5 -181t153.5 -65q60 0 118.5 32.5t145.5 117.5z" />
    <glyph glyph-name="f" unicode="f" horiz-adv-x="739" 
d="M176 901h-94q5 44 17.5 67.5t38.5 39.5q6 4 22 11q60 27 92 103q6 14 18 47q46 124 103 187q59 67 139.5 100t185.5 33q129 0 199 -52.5t70 -148.5q0 -72 -43.5 -117t-112.5 -45q-61 0 -98 35.5t-37 93.5q0 34 16.5 69t16.5 38q0 11 -11.5 20t-25.5 9q-61 0 -115 -262
q-17 -79 -27 -123h209l-22 -105h-217l-240 -901h-321z" />
    <glyph glyph-name="g" unicode="g" horiz-adv-x="1124" 
d="M563 936q-47 0 -90.5 -40.5t-77.5 -115.5q-29 -64 -46 -134t-17 -122q0 -67 29 -107t77 -40q85 0 156.5 132t71.5 290q0 65 -27.5 101t-75.5 36zM289 313l-103 -104q61 6 107 9t80 3q228 0 354.5 -79.5t126.5 -223.5q0 -167 -152 -265.5t-411 -98.5q-181 0 -290.5 64.5
t-109.5 168.5q0 69 42.5 110.5t111.5 41.5q70 0 106.5 -31.5t36.5 -91.5q0 -25 -14 -61t-14 -46q0 -21 41.5 -37t101.5 -16q118 0 194 51t76 127t-80 121t-217 45q-76 0 -175.5 -4t-120.5 -4q-44 0 -68.5 13.5t-24.5 37.5q0 16 9 31t41 47l249 252q-67 53 -101 118.5
t-34 141.5q0 157 135 276t322 119q62 0 124.5 -14.5t131.5 -44.5q24 65 74 101t116 36q64 0 102 -34t38 -91q0 -54 -29 -87.5t-74 -33.5q-29 0 -53.5 20t-49.5 64q-21 -2 -29.5 -9.5t-8.5 -25.5q0 -6 46 -74t46 -157q0 -178 -133 -288.5t-348 -110.5q-62 0 -100.5 8
t-71.5 26z" />
    <glyph glyph-name="h" unicode="h" horiz-adv-x="1266" 
d="M252 0h-313l331 1175q2 5 4 12q21 70 21 103q0 28 -38 54.5t-38 41.5q0 7 5 22.5t14 37.5h41q92 0 188.5 6t194.5 18l-160 -577q89 69 174 102t174 33q115 0 186.5 -59t71.5 -154q0 -24 -24 -114l-5 -17l-127 -455q-5 -16 -7.5 -32t-2.5 -29q0 -25 11 -37t34 -12
q19 0 39.5 9.5t44.5 29.5l29 -64q-65 -60 -130.5 -89.5t-135.5 -29.5q-99 0 -155 47t-56 130q0 16 5 43t15 63l117 426q3 11 8 29q20 74 20 102q0 32 -24.5 55t-58.5 23q-51 0 -114 -39t-130 -113z" />
    <glyph glyph-name="i" unicode="i" horiz-adv-x="631" 
d="M137 716q2 6 5 16q20 65 20 97q0 28 -38 55.5t-38 39.5q0 8 4.5 22t13.5 37h19q82 0 182.5 12.5t231.5 38.5l-201 -741q-12 -45 -17.5 -73t-5.5 -42q0 -23 15 -39t34 -16q14 0 34.5 8.5t56.5 30.5l30 -66q-56 -59 -127 -90t-151 -31q-101 0 -157 46.5t-56 130.5
q0 20 4.5 47.5t13.5 58.5zM283 1286q0 79 54 134t130 55t130 -55t54 -134q0 -78 -54.5 -134t-129.5 -56t-129.5 56t-54.5 134z" />
    <glyph glyph-name="j" unicode="j" horiz-adv-x="674" 
d="M283 1286q0 79 54 134t130 55t130 -55t54 -134q0 -78 -54.5 -134t-129.5 -56t-129.5 56t-54.5 134zM174 717q2 6 5 16q20 64 20 96q0 28 -38 55.5t-38 39.5q0 8 4 22t14 37h19q82 0 182.5 12.5t230.5 38.5l-284 -1062q-2 -8 -7 -25q-48 -173 -110 -248q-65 -77 -144 -111
t-192 -34q-103 0 -163 46.5t-60 127.5q0 69 44 114t110 45q60 0 91 -29.5t31 -86.5q0 -14 -7 -38t-7 -36q0 -19 7.5 -30t19.5 -11q29 0 46 29.5t27 98.5q4 25 12.5 168.5t39.5 246.5z" />
    <glyph glyph-name="k" unicode="k" horiz-adv-x="1157" 
d="M389 496q146 9 245 95t99 189q0 44 -22.5 74.5t-55.5 30.5q-44 0 -84.5 -16.5t-91.5 -55.5zM252 0h-313l331 1175q2 5 4 12q21 70 21 103q0 28 -38 54.5t-38 41.5q0 7 5 22.5t14 37.5h41q92 0 188.5 6t194.5 18l-146 -524q92 43 161.5 62.5t127.5 19.5q107 0 177.5 -65.5
t70.5 -165.5q0 -108 -74.5 -189t-253.5 -164l82 -202q24 -64 47.5 -88.5t58.5 -24.5q15 0 31 5.5t39 19.5l39 -56q-49 -61 -116.5 -92t-153.5 -31q-105 0 -165.5 48.5t-103.5 164.5l-71 195h-54z" />
    <glyph glyph-name="l" unicode="l" horiz-adv-x="631" 
d="M266 1175q2 6 5 17q20 68 20 98q0 28 -37 54.5t-37 41.5q0 9 4.5 25t12.5 35h40q93 0 189.5 6t193.5 18l-321 -1177q-10 -37 -16.5 -68t-6.5 -43q0 -24 14.5 -41.5t32.5 -17.5q15 0 38.5 10t54.5 29l30 -66q-56 -59 -126.5 -90t-149.5 -31q-98 0 -156.5 45.5t-58.5 120.5
q0 26 4.5 55t13.5 62z" />
    <glyph glyph-name="m" unicode="m" horiz-adv-x="1868" 
d="M1075 741l-207 -741h-305l180 684l1 4q26 91 26 127q0 33 -23 55.5t-57 22.5q-50 0 -111.5 -39t-127.5 -113l-205 -741h-307l194 717q2 7 6 20q19 63 19 92t-37 55.5t-37 39.5q0 9 12 41l6 18h17q102 0 384 42l21 3l-35 -133q90 69 172.5 101t167.5 32q82 0 150.5 -35.5
t122.5 -105.5q94 73 178.5 107t173.5 34q113 0 183.5 -59t70.5 -154q0 -18 -6.5 -51t-20.5 -80l-112 -403l-1 -2q-24 -83 -24 -113q0 -20 13 -34.5t30 -14.5q16 0 36.5 10t47.5 31l29 -64q-63 -59 -127.5 -89t-132.5 -30q-97 0 -152 47t-55 130q0 20 4.5 47.5t13.5 58.5
l117 426l1 4q26 91 26 127q0 32 -24 55t-58 23q-50 0 -110.5 -38.5t-127.5 -113.5z" />
    <glyph glyph-name="n" unicode="n" horiz-adv-x="1266" 
d="M252 0h-313l198 716l6 21q19 63 19 92q0 28 -38 55.5t-38 39.5q0 8 4.5 22t13.5 37h17q104 0 396 42l19 3l-34 -133q90 68 175 100.5t173 32.5q115 0 186.5 -59t71.5 -154q0 -17 -6.5 -48t-22.5 -83l-129 -465q-6 -23 -9 -37t-3 -18q0 -19 13 -34t30 -15q16 0 39 11
t51 32l29 -64q-64 -59 -130.5 -89t-135.5 -30q-101 0 -154 46.5t-53 134.5q0 51 38 188l3 9l92 331q3 11 8 29q20 74 20 102q0 32 -24.5 55t-58.5 23q-51 0 -114 -39t-130 -113z" />
    <glyph glyph-name="o" unicode="o" horiz-adv-x="1247" 
d="M301 311q0 -116 36 -173.5t109 -57.5q59 0 115.5 42.5t106.5 123.5q64 105 100.5 225.5t36.5 228.5q0 109 -37.5 166.5t-108.5 57.5q-49 0 -101.5 -34.5t-96.5 -96.5q-71 -101 -115.5 -235.5t-44.5 -246.5zM-10 444q0 250 173 418t435 168q240 0 379 -125.5t139 -341.5
q0 -257 -174.5 -421.5t-449.5 -164.5q-234 0 -368 125.5t-134 341.5z" />
    <glyph glyph-name="p" unicode="p" horiz-adv-x="1266" 
d="M459 709l-123 -424q-12 -42 -18.5 -75.5t-6.5 -51.5q0 -42 25 -65t70 -23q58 0 129 47t131 127q71 95 113 219t42 237q0 100 -42 150.5t-126 50.5q-73 0 -119 -45.5t-75 -146.5zM135 -422h-315l317 1138l6 21q19 63 19 92q0 28 -38 55.5t-38 39.5q0 8 4.5 22t13.5 37h17
q104 0 396 42l19 3l-22 -96q74 50 138 73t132 23q158 0 257.5 -101.5t99.5 -264.5q0 -141 -57.5 -268t-165.5 -226q-101 -91 -223.5 -142t-241.5 -51q-53 0 -101 11.5t-92 33.5z" />
    <glyph glyph-name="q" unicode="q" horiz-adv-x="1262" 
d="M1182 1028l-418 -1450h-313l131 485q-63 -45 -123.5 -66.5t-126.5 -21.5q-159 0 -259 102.5t-100 266.5q0 140 57.5 266t166.5 226q101 92 222.5 142t244.5 50q59 0 105.5 -17.5t92.5 -58.5zM768 719q11 42 14.5 62t3.5 34q0 52 -23 76t-73 24q-66 0 -142.5 -64
t-135.5 -171q-52 -93 -83.5 -204.5t-31.5 -199.5q0 -73 34.5 -114t94.5 -41q86 0 146 60.5t96 183.5z" />
    <glyph glyph-name="r" unicode="r" horiz-adv-x="895" 
d="M238 0h-297q95 337 136.5 505.5t41.5 215.5q0 78 -57 95q-11 4 -14 5q-22 9 -32 28.5t-10 51.5v18q103 10 190.5 35.5t170.5 69.5h40q2 -23 2.5 -49t0.5 -74q0 -93 -4.5 -150t-14.5 -112q97 202 186 296.5t181 94.5q69 0 113 -42t44 -109q0 -81 -48 -132t-126 -51
q-47 0 -87.5 35t-49.5 35q-57 0 -154.5 -202.5t-211.5 -563.5z" />
    <glyph glyph-name="s" unicode="s" horiz-adv-x="973" 
d="M-68 217q0 80 38 120t114 40q62 0 98.5 -36t36.5 -97q0 -31 -16.5 -69t-16.5 -44q0 -22 34 -39.5t83 -17.5q75 0 125.5 43t50.5 106q0 54 -38 100t-146 113q-124 77 -166.5 137.5t-42.5 143.5q0 134 120 222.5t308 88.5q172 0 271.5 -56t99.5 -151q0 -58 -36.5 -93.5
t-96.5 -35.5q-54 0 -91.5 26.5t-37.5 59.5q0 12 4 41.5t4 46.5q0 40 -20 55t-76 15q-70 0 -109 -29.5t-39 -81.5q0 -75 154 -158q27 -14 41 -22q108 -62 160.5 -139t52.5 -174q0 -158 -129.5 -257.5t-339.5 -99.5q-177 0 -285.5 68t-108.5 174z" />
    <glyph glyph-name="t" unicode="t" horiz-adv-x="743" 
d="M551 1272q8 1 15.5 1.5t13.5 0.5q8 0 14 -6t6 -15q0 -6 -4.5 -22.5t-5.5 -21.5l-51 -203h196l-22 -105h-209l-174 -628q-7 -26 -11 -49.5t-4 -39.5q0 -30 14 -44.5t42 -14.5q17 0 47 13t71 38l37 -63q-82 -70 -160.5 -104t-158.5 -34q-98 0 -156.5 46t-58.5 122
q0 23 4.5 51t13.5 64l174 643h-92q0 34 11.5 58.5t31.5 35.5q11 6 30 16q79 41 101 126l19 67q0 2 1 4q12 41 42 43z" />
    <glyph glyph-name="u" unicode="u" horiz-adv-x="1266" 
d="M965 276q-9 -32 -14 -62t-5 -48q0 -19 13 -33t30 -14q15 0 35 9.5t45 29.5l29 -64q-65 -59 -131 -89t-136 -30q-80 0 -135.5 34.5t-89.5 105.5q-90 -67 -176 -99t-174 -32q-111 0 -182.5 57.5t-71.5 146.5q0 28 4 54.5t12 54.5l119 419l6 21q19 63 19 92q0 28 -38 55.5
t-38 39.5q0 8 4.5 22t13.5 37h17q104 0 396 42l19 3l-190 -700l-1 -4q-26 -91 -26 -127q0 -32 25 -55t59 -23q50 0 112 38.5t130 112.5l129 447l3 10q20 72 20 102q0 28 -37 55.5t-37 39.5q0 8 4.5 22t13.5 37h17q104 0 396 42l19 3z" />
    <glyph glyph-name="v" unicode="v" horiz-adv-x="1151" 
d="M39 352l108 334q14 44 19.5 69.5t5.5 45.5q0 28 -40 54.5t-40 39.5q0 7 5 21.5t16 37.5h18q88 0 195 12.5t249 39.5l-217 -714q-9 -28 -13.5 -52t-4.5 -41q0 -53 24 -79t72 -26q81 0 162.5 56.5t149.5 160.5q56 87 94.5 195.5t38.5 169.5q0 57 -53 69q-30 6 -50 15
q-38 17 -61 53.5t-23 81.5q0 57 41 96t101 39q80 0 127 -65.5t47 -180.5q0 -109 -42.5 -250.5t-111.5 -257.5q-91 -150 -220 -225.5t-298 -75.5q-154 0 -240 63.5t-86 176.5q0 28 7 63t20 74z" />
    <glyph glyph-name="w" unicode="w" horiz-adv-x="1731" 
d="M643 127q-115 -80 -205 -116t-176 -36q-121 0 -188.5 54t-67.5 151q0 27 5.5 60t17.5 73l104 373q13 44 18 69t5 46q0 27 -37 54.5t-37 39.5q0 9 4 22.5t14 36.5h19q82 0 182.5 12.5t230.5 39.5l-186 -693q-12 -46 -18 -78.5t-6 -52.5q0 -32 23.5 -55t55.5 -23
q51 0 114 39.5t130 112.5l203 729h315l-192 -692q-8 -27 -12.5 -51.5t-4.5 -42.5q0 -56 21.5 -80.5t68.5 -24.5q79 0 157 56.5t140 158.5q56 90 92.5 198.5t36.5 170.5q0 56 -49 67q-29 6 -49 15q-36 17 -59 54.5t-23 80.5q0 56 40 95.5t97 39.5q77 0 120.5 -65.5
t43.5 -180.5q0 -113 -39.5 -253t-105.5 -255q-89 -157 -213.5 -229t-308.5 -72q-98 0 -160.5 34t-120.5 118z" />
    <glyph glyph-name="x" unicode="x" horiz-adv-x="1241" 
d="M326 739q-17 61 -35.5 83t-46.5 22q-22 0 -48.5 -13t-58.5 -38l-47 57q107 100 183 140t153 40q70 0 105.5 -27t70.5 -133l53 -163q130 174 218 248.5t163 74.5q63 0 102.5 -43.5t39.5 -114.5q0 -65 -37.5 -108t-93.5 -43q-40 0 -91 38t-61 38q-43 0 -201 -203l-2 -2
l88 -313q27 -95 48.5 -122.5t58.5 -27.5q26 0 50 15t54 51l45 -64q-62 -77 -139 -116.5t-166 -39.5q-91 0 -143.5 39t-81.5 129l-53 158l-101 -127q-79 -100 -151.5 -149.5t-143.5 -49.5q-66 0 -108.5 42t-42.5 108q0 73 40 115.5t109 42.5q51 0 97 -42t57 -42q20 0 41 17
t57 65l109 143z" />
    <glyph glyph-name="y" unicode="y" 
d="M307 -39l-151 721q-20 93 -35.5 118t-40.5 25q-12 0 -31 -10t-53 -35l-45 60q84 89 169.5 138.5t155.5 49.5q65 0 97.5 -36t62.5 -179l109 -518l180 270q4 6 11 17q63 95 63 129q0 14 -56.5 62.5t-56.5 119.5q0 60 38 97.5t99 37.5q73 0 114.5 -44.5t41.5 -121.5
q0 -95 -106 -252l-2 -3l-558 -818q-86 -127 -164.5 -181t-173.5 -54q-90 0 -148 49t-58 125q0 69 41 113t106 44q46 0 75 -16.5t42 -49.5q4 -11 10 -42q12 -72 49 -72q21 0 53 32t74 93z" />
    <glyph glyph-name="z" unicode="z" horiz-adv-x="1085" 
d="M-131 -18v30l805 770q-65 -29 -116.5 -43t-92.5 -14q-35 0 -109 18.5t-112 18.5q-52 0 -86 -20.5t-62 -67.5l-71 22q30 153 124 234.5t240 81.5q57 0 178 -28t191 -28q57 0 120.5 17.5t143.5 54.5v-49l-838 -815q70 51 141 77.5t140 26.5q84 0 174 -61.5t125 -61.5
q15 0 26 12t11 29q0 24 -38 32.5t-56 21.5q-24 17 -37 45t-13 63q0 61 35 96t96 35q69 0 109.5 -45t40.5 -123q0 -139 -105.5 -237.5t-259.5 -98.5q-78 0 -218 37t-203 37q-61 0 -130 -16.5t-153 -50.5z" />
    <glyph glyph-name="braceleft" unicode="{" 
d="M852 1516v-66q-111 -3 -152 -54t-41 -208v-131q0 -227 -50.5 -308.5t-184.5 -113.5q134 -33 184.5 -113.5t50.5 -306.5v-131q0 -158 41 -209.5t152 -55.5v-63h-12q-229 0 -314.5 74t-85.5 272v187q0 168 -54.5 230t-207.5 77v80q153 14 207.5 76.5t54.5 230.5v186
q0 199 85.5 273t314.5 74h12z" />
    <glyph glyph-name="bar" unicode="|" 
d="M393 1565h240v-2048h-240v2048z" />
    <glyph glyph-name="braceright" unicode="}" 
d="M172 1516h12q229 0 314.5 -74t85.5 -273v-186q0 -168 54.5 -230.5t207.5 -76.5v-80q-153 -15 -207.5 -77t-54.5 -230v-187q0 -198 -85.5 -272t-314.5 -74h-12v63q111 4 152 55.5t41 209.5v131q0 226 50.5 306.5t184.5 113.5q-134 34 -184.5 115t-50.5 307v131
q0 157 -41 208t-152 54v66z" />
    <glyph glyph-name="asciitilde" unicode="~" horiz-adv-x="1706" 
d="M1530 819v-254q-101 -69 -194 -103t-183 -34q-45 0 -89 7.5t-83 21.5q-13 4 -38 13q-255 89 -382 89q-84 0 -175.5 -37.5t-207.5 -120.5v254q112 73 207.5 108.5t179.5 35.5q63 0 126.5 -12t169.5 -46q16 -5 51 -17q159 -56 247 -56q84 0 173.5 36t197.5 115z" />
    <glyph glyph-name="nonbreakingspace" unicode="&#xa0;" horiz-adv-x="1147" 
 />
    <glyph glyph-name="exclamdown" unicode="&#xa1;" horiz-adv-x="682" 
d="M387 1026h102l-71 -741q-16 -158 -72 -234t-158 -76q-74 0 -116.5 42.5t-42.5 115.5q0 24 9 55t40 105zM690 1294q0 -73 -51.5 -124.5t-124.5 -51.5t-123.5 51t-50.5 125q0 73 52 124.5t124 51.5q73 0 123.5 -51t50.5 -125z" />
    <glyph glyph-name="cent" unicode="&#xa2;" horiz-adv-x="1147" 
d="M393 14l53 215q-152 16 -243.5 122t-91.5 267q0 240 168.5 430.5t425.5 231.5l43 162h104l-39 -160q111 -9 175.5 -59t64.5 -125q0 -79 -44.5 -125.5t-117.5 -46.5q-62 0 -101.5 36.5t-39.5 94.5q0 28 14 62.5t14 39.5q0 6 -10 12.5t-20 6.5q-31 0 -82 -37t-97 -97
q-70 -88 -107.5 -197t-37.5 -224q0 -123 51 -192t143 -69q64 0 131.5 37.5t139.5 112.5l72 -78q-100 -101 -201 -151.5t-211 -55.5l-51 -213h-105z" />
    <glyph glyph-name="sterling" unicode="&#xa3;" horiz-adv-x="1147" 
d="M401 139q-81 66 -129.5 89.5t-95.5 23.5q-41 0 -65.5 -20t-24.5 -52q0 -41 37.5 -68.5t95.5 -27.5q54 0 98 13.5t84 41.5zM645 125q21 -12 36.5 -17.5t29.5 -5.5q59 0 117.5 44.5t119.5 138.5l68 -62q-59 -116 -138.5 -176.5t-172.5 -60.5q-44 0 -90 15.5t-99 49.5
q-64 -37 -136.5 -55.5t-156.5 -18.5q-165 0 -247 57.5t-82 172.5q0 82 62 136t159 54q88 0 171.5 -38t198.5 -134q33 43 47.5 85t14.5 91q0 53 -15.5 102.5t-48.5 100.5h-409l30 117h302q-62 95 -91.5 182t-29.5 168q0 170 117 284.5t288 114.5q130 0 218.5 -73.5
t88.5 -177.5q0 -70 -39.5 -118t-97.5 -48q-57 0 -97 39t-40 96q0 34 21.5 75.5t21.5 47.5q0 25 -20.5 40t-55.5 15q-59 0 -102 -53.5t-43 -126.5q0 -81 103 -266q70 -124 104 -199h307l-29 -117h-239q5 -32 7.5 -57.5t2.5 -46.5q0 -106 -36 -193t-120 -182z" />
    <glyph glyph-name="currency" unicode="&#xa4;" horiz-adv-x="1241" 
d="M623 1145q-107 0 -184 -77t-77 -183q0 -108 76 -183t185 -75q107 0 182.5 75t75.5 183q0 107 -76 183.5t-182 76.5zM178 1444l203 -201q54 37 113.5 55.5t126.5 18.5q69 0 130 -18.5t113 -55.5l201 201l119 -117l-201 -205q35 -53 52.5 -112t17.5 -125t-17.5 -125.5
t-52.5 -112.5l201 -203l-119 -118l-201 202q-52 -37 -111.5 -55t-129.5 -18t-128.5 17.5t-113.5 55.5l-203 -202l-117 118l201 203q-36 54 -54 113t-18 125q0 67 18.5 126.5t53.5 110.5l-201 205z" />
    <glyph glyph-name="yen" unicode="&#xa5;" horiz-adv-x="1266" 
d="M154 0q1 51 18.5 78t59.5 43q38 13 57.5 37.5t38.5 97.5l86 334h-389l20 115h342l-35 147h-268l20 113h220l-50 196q-12 51 -28 89t-31 55q-11 11 -45.5 28t-34.5 35q0 10 5.5 27.5t15.5 40.5h538q1 -6 1.5 -14t0.5 -21q0 -24 -7 -38.5t-24 -25.5q-10 -7 -36 -13
q-56 -13 -56 -71q0 -27 16 -78q5 -16 7 -24l109 -406l327 408q38 47 53 73.5t15 45.5q0 38 -37 55t-37 27q0 18 11 68q2 9 3 14h387v-15q0 -46 -16 -71t-78 -52q-42 -17 -159 -166q-25 -33 -39 -51l-95 -116h207l-20 -113h-277l-112 -147h350l-21 -115h-426l-79 -321l-2 -6
q-15 -60 -15 -91q0 -22 44 -52.5t44 -66.5q0 -13 -2 -26t-6 -27h-571z" />
    <glyph glyph-name="brokenbar" unicode="&#xa6;" 
d="M393 408h240v-758h-240v758zM393 1432h240v-758h-240v758z" />
    <glyph glyph-name="section" unicode="&#xa7;" 
d="M258 758q0 -44 27 -101t82 -131q77 -104 119.5 -135t91.5 -31q51 0 83.5 31.5t32.5 81.5q0 45 -25 102t-77 127q-64 89 -112.5 129.5t-88.5 40.5q-54 0 -93.5 -34t-39.5 -80zM563 289q59 -66 92 -140t33 -137q0 -116 -96 -188t-254 -72q-137 0 -222 63t-85 160
q0 56 41 97t96 41q47 0 79 -29t32 -70q0 -36 -36 -79.5t-36 -57.5q0 -29 32 -49.5t80 -20.5q76 0 120 43.5t44 118.5q0 48 -21 94.5t-93 137.5l-152 190q-76 95 -106.5 161t-30.5 130q0 118 84.5 188t226.5 70h10q-64 77 -95.5 141.5t-31.5 120.5q0 122 92.5 195t245.5 73
q138 0 220.5 -57t82.5 -147q0 -57 -42 -97.5t-97 -40.5q-48 0 -82.5 30t-34.5 71q0 34 32 71t32 50q0 23 -31 41t-76 18q-71 0 -115 -39.5t-44 -101.5q0 -43 26.5 -94.5t100.5 -145.5l147 -184q83 -106 113 -171t30 -128q0 -118 -84 -187t-227 -69z" />
    <glyph glyph-name="dieresis" unicode="&#xa8;" 
d="M666 1303q0 46 36 82t82 36q50 0 85.5 -35t35.5 -83q0 -54 -34 -88.5t-87 -34.5q-48 0 -83 35.5t-35 87.5zM305 1303q0 46 36.5 82t82.5 36q50 0 85.5 -35t35.5 -83q0 -54 -34.5 -88.5t-86.5 -34.5q-49 0 -84 35.5t-35 87.5z" />
    <glyph glyph-name="copyright" unicode="&#xa9;" horiz-adv-x="1683" 
d="M1128 1104h50v-330h-52q-29 130 -98 201.5t-164 71.5q-112 0 -167.5 -91t-55.5 -272q0 -182 61 -278.5t177 -96.5q76 0 143.5 44.5t124.5 131.5l51 -32q-64 -108 -152 -162.5t-198 -54.5q-192 0 -318.5 122t-126.5 306q0 194 122.5 319t312.5 125q82 0 157.5 -33
t79.5 -33q22 0 33.5 13.5t19.5 48.5zM844 1311q-126 0 -242.5 -49t-204.5 -138q-89 -91 -136.5 -206t-47.5 -240q0 -130 47 -244t137 -203q93 -91 205.5 -137.5t239.5 -46.5t240.5 47.5t201.5 136.5q89 91 137.5 207.5t48.5 239.5q0 126 -48.5 244.5t-135.5 203.5
q-89 88 -205 136.5t-237 48.5zM844 1423q144 0 280.5 -56.5t241.5 -160.5q104 -104 161.5 -242.5t57.5 -285.5q0 -146 -56.5 -281.5t-162.5 -242.5q-105 -106 -240 -161.5t-284 -55.5t-283 55.5t-242 161.5q-106 104 -162.5 239t-56.5 285q0 149 55.5 283t161.5 241
q105 106 242.5 163.5t286.5 57.5z" />
    <glyph glyph-name="ordfeminine" unicode="&#xaa;" horiz-adv-x="922" 
d="M547 1231q6 21 9 39t3 33q0 34 -15 49.5t-48 15.5q-46 0 -99 -44.5t-94 -119.5q-36 -64 -58 -142.5t-22 -141.5q0 -51 24 -80t64 -29q62 0 105 43.5t65 128.5zM662 1382l151 62h29l-144 -527q-1 -5 -4 -16q-8 -30 -8 -43q0 -21 9.5 -34t23.5 -13q9 0 25 6.5t47 22.5
l22 -45q-44 -42 -96.5 -63t-114.5 -21q-67 0 -102 20t-54 68q-53 -44 -110.5 -66t-118.5 -22q-105 0 -172.5 66t-67.5 171q0 94 35.5 178t108.5 162q72 78 155.5 119t172.5 41q55 0 107 -16t106 -50z" />
    <glyph glyph-name="guillemotleft" unicode="&#xab;" horiz-adv-x="1073" 
d="M434 502q188 114 359.5 251.5t187.5 137.5q10 0 14 -5t4 -20q0 -47 -76 -144t-218 -230q70 -119 114.5 -222t44.5 -137q0 -9 -5 -13.5t-15 -4.5q-22 0 -156.5 139t-253.5 248zM45 502q187 114 359 251.5t188 137.5q10 0 14 -5t4 -20q0 -47 -76.5 -144t-218.5 -230
q71 -119 115.5 -222t44.5 -137q0 -9 -5 -13.5t-15 -4.5q-22 0 -156.5 139t-253.5 248z" />
    <glyph glyph-name="logicalnot" unicode="&#xac;" horiz-adv-x="1706" 
d="M254 866h1198v-501h-229v274h-969v227z" />
    <glyph glyph-name="sfthyphen" unicode="&#xad;" horiz-adv-x="682" 
d="M508 393h-535l66 219h536z" />
    <glyph glyph-name="registered" unicode="&#xae;" horiz-adv-x="1683" 
d="M772 728q8 -2 16 -2.5t23 -0.5q85 0 127.5 43.5t42.5 130.5q0 62 -38.5 103.5t-98.5 41.5q-37 0 -54.5 -15.5t-17.5 -47.5v-253zM463 1100h405q147 0 236.5 -56t89.5 -145q0 -87 -64.5 -136.5t-211.5 -74.5q116 -23 172.5 -87.5t56.5 -172.5q0 -48 10 -68t33 -20
q25 0 39 31t14 88v12h55q0 -5 1 -15t1 -14q0 -90 -47 -135t-141 -45q-45 0 -80 13t-55 36q-32 37 -36 134q-2 43 -5 65q-13 87 -47.5 124.5t-100.5 37.5h-16v-244q0 -45 18 -63.5t70 -26.5v-57h-397v57q57 5 77.5 24t20.5 66v524q0 47 -19 65.5t-79 26.5v56zM844 1311
q-127 0 -244.5 -49t-204.5 -138q-88 -90 -135 -204.5t-47 -241.5q0 -130 47 -244t137 -203q93 -91 205.5 -137.5t239.5 -46.5t240.5 47.5t201.5 136.5q89 91 137.5 207.5t48.5 239.5q0 125 -49 243.5t-137 204.5q-89 88 -204 136.5t-236 48.5zM844 1423q150 0 291 -60
t245 -169q99 -102 152 -240t53 -292q0 -141 -63 -280.5t-176 -246.5q-102 -97 -232 -149t-272 -52q-109 0 -212.5 31.5t-197.5 91.5q-159 107 -246.5 269.5t-87.5 351.5q0 149 56 284t161 240q105 106 242.5 163.5t286.5 57.5z" />
    <glyph glyph-name="macron" unicode="&#xaf;" 
d="M313 1227l31 147h553l-31 -147h-553z" />
    <glyph glyph-name="degree" unicode="&#xb0;" horiz-adv-x="674" 
d="M338 1321q-69 0 -117.5 -48t-48.5 -116q0 -70 48 -118t118 -48q68 0 116 49t48 117t-48 116t-116 48zM338 1466q129 0 220 -91t91 -220q0 -128 -91.5 -219.5t-221.5 -91.5q-129 0 -219 90.5t-90 220.5q0 131 90.5 221t220.5 90z" />
    <glyph glyph-name="plusminus" unicode="&#xb1;" horiz-adv-x="1706" 
d="M254 213h1198v-231h-1198v231zM735 1241h238v-319h479v-232h-479v-319h-238v319h-481v232h481v319z" />
    <glyph glyph-name="twosuperior" unicode="&#xb2;" horiz-adv-x="758" 
d="M522 578h-610l22 84q291 202 412 339t121 256q0 59 -31.5 94t-83.5 35q-32 0 -54 -11.5t-22 -26.5q0 -9 26 -40.5t26 -54.5q0 -44 -32 -73t-79 -29q-46 0 -76 30t-30 76q0 83 86 142t213 59q128 0 210 -66t82 -167q0 -70 -42.5 -124.5t-174.5 -133.5
q-125 -78 -187.5 -121t-111.5 -84h209q37 0 57 6t36 21q4 3 10 10q23 24 63 24h33z" />
    <glyph glyph-name="threesuperior" unicode="&#xb3;" horiz-adv-x="758" 
d="M211 1010l17 61q138 3 219 56t81 141q0 57 -32.5 92t-85.5 35q-34 0 -56 -12t-22 -27q0 -9 16.5 -36t16.5 -48q0 -37 -33 -64.5t-76 -27.5t-70.5 25.5t-27.5 64.5q0 79 84.5 134.5t216.5 55.5q127 0 202.5 -52.5t75.5 -139.5q0 -90 -82 -149.5t-229 -74.5
q100 -11 155.5 -62t55.5 -130q0 -126 -112 -207.5t-292 -81.5q-117 0 -192.5 47.5t-75.5 118.5q0 49 34.5 82t84.5 33q41 0 72.5 -27t31.5 -61q0 -42 -22.5 -71t-22.5 -32q0 -11 18 -18.5t44 -7.5q84 0 147.5 70t63.5 169q0 71 -50.5 106t-154.5 38z" />
    <glyph glyph-name="acute" unicode="&#xb4;" 
d="M498 1139h-107l309 305q31 29 59 43t54 14q33 0 57.5 -25.5t24.5 -60.5q0 -27 -17 -50.5t-51 -41.5z" />
    <glyph glyph-name="mu" unicode="&#xb5;" horiz-adv-x="1233" 
d="M219 190q-12 -89 -27 -239q-40 -377 -163 -377q-57 0 -92 34.5t-35 88.5q0 56 69 281t105 397l108 510h293l-106 -498q-10 -43 -15.5 -75t-5.5 -50q0 -54 28 -86.5t75 -32.5q62 0 104 55t68 171l110 516h291l-111 -525q-6 -26 -9 -49t-3 -43q0 -43 19.5 -67.5t54.5 -24.5
q26 0 49.5 13.5t40.5 37.5q10 14 25 42q35 63 65 63q11 0 20 -12t9 -27q0 -30 -21 -87t-53 -104q-41 -62 -95.5 -92t-125.5 -30q-90 0 -136.5 47.5t-54.5 146.5q-36 -97 -98.5 -145.5t-150.5 -48.5q-101 0 -161 54.5t-71 155.5z" />
    <glyph glyph-name="paragraph" unicode="&#xb6;" 
d="M997 1479v-123h-106v-1356h-176v1356h-150v-1356h-174v784q-164 6 -263 101t-99 245q0 158 106 253.5t283 95.5h579z" />
    <glyph glyph-name="glyph121" unicode="&#xb7;" horiz-adv-x="573" 
d="M88 723q0 78 55 133t133 55q79 0 135 -55t56 -133t-56.5 -134.5t-134.5 -56.5q-77 0 -132.5 56t-55.5 135z" />
    <glyph glyph-name="cedilla" unicode="&#xb8;" 
d="M111 -375l41 90q82 -43 135 -59t104 -16q46 0 70 22.5t24 65.5q0 39 -26.5 60.5t-75.5 21.5q-11 0 -30 -3t-60 -12l65 205h70l-35 -112q24 2 42.5 3.5t31.5 2.5q79 0 128.5 -47t49.5 -123q0 -85 -61 -133t-168 -48q-58 0 -125.5 18t-179.5 64z" />
    <glyph glyph-name="onesuperior" unicode="&#xb9;" horiz-adv-x="758" 
d="M575 1446h46l-207 -707q-6 -19 -9.5 -34.5t-3.5 -24.5q0 -13 30 -31t30 -39q0 -7 -1.5 -14.5t-4.5 -17.5h-375q0 31 10.5 46.5t38.5 24.5q25 9 39.5 27t26.5 56l172 575h-144q0 30 10.5 43.5t47.5 23.5z" />
    <glyph glyph-name="ordmasculine" unicode="&#xba;" horiz-adv-x="936" 
d="M225 944q0 -80 28 -121t83 -41q43 0 86 30.5t80 86.5q48 74 75 158t27 160t-28 116.5t-80 40.5q-38 0 -77.5 -24t-72.5 -68q-53 -72 -87 -166t-34 -172zM-8 1038q0 175 130 292.5t327 117.5q180 0 284.5 -87.5t104.5 -238.5q0 -180 -131.5 -295.5t-337.5 -115.5
q-175 0 -276 87.5t-101 239.5z" />
    <glyph glyph-name="guillemotright" unicode="&#xbb;" horiz-adv-x="1073" 
d="M479 502q-187 -114 -359 -250.5t-188 -136.5q-10 0 -14 4t-4 18q0 48 77 147t216 230q-70 117 -114 220t-44 138q0 9 5.5 14t15.5 5q21 0 155 -140t254 -249zM868 502q-186 -114 -358 -250.5t-188 -136.5q-11 0 -15 4.5t-4 17.5q0 48 77 146.5t218 230.5
q-71 118 -115.5 221t-44.5 137q0 9 5.5 14t15.5 5q21 0 155.5 -140t253.5 -249z" />
    <glyph glyph-name="onequarter" unicode="&#xbc;" horiz-adv-x="1788" 
d="M1415 295l105 330l-344 -330h239zM1260 0q1 30 10.5 44t36.5 24q25 9 38.5 25t24.5 50l21 72h-342l22 80l526 514h170l-155 -514h117l-25 -80h-117l-18 -65q-5 -18 -7.5 -32.5t-2.5 -23.5q0 -11 27.5 -27t27.5 -36q0 -12 -1 -18t-3 -13h-350zM381 -25l883 1495h141
l-881 -1495h-143zM551 1446h43l-199 -660q-5 -14 -7.5 -27.5t-2.5 -25.5t27.5 -29t27.5 -36q0 -8 -1 -14t-5 -17h-358q1 29 11 43t37 24q25 9 39 26t23 50l164 539h-137q2 29 12.5 41t42.5 20z" />
    <glyph glyph-name="onehalf" unicode="&#xbd;" horiz-adv-x="1788" 
d="M1565 0h-584l20 80q274 184 391 313t117 242q0 55 -29.5 88t-78.5 33q-30 0 -51 -11.5t-21 -25.5q0 -8 23.5 -37t23.5 -51q0 -42 -30 -69t-74 -27t-72.5 28t-28.5 72q0 78 82 133t203 55q123 0 202 -62t79 -157q0 -65 -42.5 -116.5t-167.5 -125.5l-5 -3
q-195 -117 -279 -187h199q33 0 52 5.5t35 18.5q4 3 9 9q21 24 61 24h33zM381 -25l883 1495h141l-881 -1495h-143zM551 1446h43l-199 -660q-5 -14 -7.5 -27.5t-2.5 -25.5t27.5 -29t27.5 -36q0 -8 -1 -14t-5 -17h-358q1 29 11 43t37 24q25 9 39 26t23 50l164 539h-137
q2 29 12.5 41t42.5 20z" />
    <glyph glyph-name="threequarters" unicode="&#xbe;" horiz-adv-x="1788" 
d="M1415 295l105 330l-344 -330h239zM1260 0q1 30 10.5 44t36.5 24q25 9 38.5 25t24.5 50l21 72h-342l22 80l526 514h170l-155 -514h117l-25 -80h-117l-18 -65q-5 -18 -7.5 -32.5t-2.5 -23.5q0 -11 27.5 -27t27.5 -36q0 -12 -1 -18t-3 -13h-350zM381 -25l883 1495h141
l-881 -1495h-143zM201 1041l17 57q133 3 209.5 52t76.5 132q0 53 -31.5 85t-81.5 32q-32 0 -54 -10.5t-22 -24.5q0 -10 15.5 -35t15.5 -45q0 -34 -30.5 -60t-71.5 -26q-40 0 -66 24.5t-26 61.5q0 75 80 125.5t206 50.5q121 0 194 -48.5t73 -129.5q0 -84 -79.5 -140
t-219.5 -69q94 -10 148 -58.5t54 -121.5q0 -118 -107.5 -194t-279.5 -76q-110 0 -182 45t-72 110q0 45 33 76t80 31q39 0 69.5 -25.5t30.5 -56.5q0 -38 -21.5 -65.5t-21.5 -30.5q0 -10 17.5 -17.5t42.5 -7.5q80 0 140 66t60 159q0 65 -48 97.5t-148 36.5z" />
    <glyph glyph-name="questiondown" unicode="&#xbf;" horiz-adv-x="920" 
d="M559 1292q0 74 52 126t124 52q74 0 125 -52t51 -126q0 -72 -51.5 -123t-124.5 -51q-74 0 -125 50.5t-51 123.5zM608 1040h113q-16 -99 -62.5 -184t-140.5 -182q-11 -12 -33 -34q-198 -202 -198 -372q0 -85 47 -136.5t125 -51.5q34 0 61 15t27 30q0 8 -33 47.5t-33 87.5
q0 73 44 119.5t114 46.5q76 0 123 -44t47 -114q0 -124 -113.5 -208.5t-287.5 -84.5q-208 0 -337.5 100.5t-129.5 258.5q0 116 72.5 204t260.5 189q19 10 55 29q231 120 279 284z" />
    <glyph glyph-name="Agrave" unicode="&#xc0;" horiz-adv-x="1233" 
d="M694 537l-65 497l-281 -497h346zM252 0h-434v10q0 81 72 110q23 9 32 15q27 17 56 54.5t77 119.5l543 920l-12 127v6q0 15 8.5 24t30.5 17l190 61q20 7 26.5 8.5t10.5 2.5q16 0 23.5 -10.5t11.5 -39.5l168 -1144q0 -5 2 -16q15 -101 47 -128q10 -8 28 -16q27 -12 27 -41
q0 -12 -3 -32t-9 -48h-529q9 68 21.5 89t42.5 28q31 6 44 25t13 57q0 10 -1.5 26.5t-4.5 39.5l-18 132h-447l-82 -143q-11 -19 -16.5 -40t-5.5 -42q0 -15 11 -26t38 -21q5 -2 14 -5q37 -13 37 -48q0 -16 -9 -58q-2 -9 -3 -14zM979 1579h-105l-260 192q-35 26 -49 45t-14 39
q0 38 24 62t60 24q26 0 49 -14t49 -47z" />
    <glyph glyph-name="Aacute" unicode="&#xc1;" horiz-adv-x="1233" 
d="M694 537l-65 497l-281 -497h346zM252 0h-434v10q0 81 72 110q23 9 32 15q27 17 56 54.5t77 119.5l543 920l-12 127v6q0 15 8.5 24t30.5 17l190 61q20 7 26.5 8.5t10.5 2.5q16 0 23.5 -10.5t11.5 -39.5l168 -1144q0 -5 2 -16q15 -101 47 -128q10 -8 28 -16q27 -12 27 -41
q0 -12 -3 -32t-9 -48h-529q9 68 21.5 89t42.5 28q31 6 44 25t13 57q0 10 -1.5 26.5t-4.5 39.5l-18 132h-447l-82 -143q-11 -19 -16.5 -40t-5.5 -42q0 -15 11 -26t38 -21q5 -2 14 -5q37 -13 37 -48q0 -16 -9 -58q-2 -9 -3 -14zM717 1579h-107l309 305q31 29 59 43t54 14
q33 0 57.5 -25.5t24.5 -60.5q0 -27 -17 -50.5t-51 -41.5z" />
    <glyph glyph-name="Acircumflex" unicode="&#xc2;" horiz-adv-x="1233" 
d="M694 537l-65 497l-281 -497h346zM252 0h-434v10q0 81 72 110q23 9 32 15q27 17 56 54.5t77 119.5l543 920l-12 127v6q0 15 8.5 24t30.5 17l190 61q20 7 26.5 8.5t10.5 2.5q16 0 23.5 -10.5t11.5 -39.5l168 -1144q0 -5 2 -16q15 -101 47 -128q10 -8 28 -16q27 -12 27 -41
q0 -12 -3 -32t-9 -48h-529q9 68 21.5 89t42.5 28q31 6 44 25t13 57q0 10 -1.5 26.5t-4.5 39.5l-18 132h-447l-82 -143q-11 -19 -16.5 -40t-5.5 -42q0 -15 11 -26t38 -21q5 -2 14 -5q37 -13 37 -48q0 -16 -9 -58q-2 -9 -3 -14zM1077 1579h-82l-166 180l-245 -180h-105
l307 348h127z" />
    <glyph glyph-name="Atilde" unicode="&#xc3;" horiz-adv-x="1233" 
d="M694 537l-65 497l-281 -497h346zM252 0h-434v10q0 81 72 110q23 9 32 15q27 17 56 54.5t77 119.5l543 920l-12 127v6q0 15 8.5 24t30.5 17l190 61q20 7 26.5 8.5t10.5 2.5q16 0 23.5 -10.5t11.5 -39.5l168 -1144q0 -5 2 -16q15 -101 47 -128q10 -8 28 -16q27 -12 27 -41
q0 -12 -3 -32t-9 -48h-529q9 68 21.5 89t42.5 28q31 6 44 25t13 57q0 10 -1.5 26.5t-4.5 39.5l-18 132h-447l-82 -143q-11 -19 -16.5 -40t-5.5 -42q0 -15 11 -26t38 -21q5 -2 14 -5q37 -13 37 -48q0 -16 -9 -58q-2 -9 -3 -14zM1112 1886q-20 -114 -71 -175t-126 -61
q-14 0 -29 2.5t-28 6.5l-106 26q-11 3 -21.5 4.5t-28.5 1.5q-39 0 -62.5 -21.5t-37.5 -70.5h-66q19 117 72.5 180.5t132.5 63.5q12 0 25 -2t28 -6l89 -23q25 -6 38.5 -8t22.5 -2q43 0 67.5 20t34.5 64h66z" />
    <glyph glyph-name="Adieresis" unicode="&#xc4;" horiz-adv-x="1233" 
d="M694 537l-65 497l-281 -497h346zM252 0h-434v10q0 81 72 110q23 9 32 15q27 17 56 54.5t77 119.5l543 920l-12 127v6q0 15 8.5 24t30.5 17l190 61q20 7 26.5 8.5t10.5 2.5q16 0 23.5 -10.5t11.5 -39.5l168 -1144q0 -5 2 -16q15 -101 47 -128q10 -8 28 -16q27 -12 27 -41
q0 -12 -3 -32t-9 -48h-529q9 68 21.5 89t42.5 28q31 6 44 25t13 57q0 10 -1.5 26.5t-4.5 39.5l-18 132h-447l-82 -143q-11 -19 -16.5 -40t-5.5 -42q0 -15 11 -26t38 -21q5 -2 14 -5q37 -13 37 -48q0 -16 -9 -58q-2 -9 -3 -14zM885 1743q0 46 36 82t82 36q50 0 85.5 -35
t35.5 -83q0 -54 -34 -88.5t-87 -34.5q-48 0 -83 35.5t-35 87.5zM524 1743q0 46 36.5 82t82.5 36q50 0 85.5 -35t35.5 -83q0 -54 -34.5 -88.5t-86.5 -34.5q-49 0 -84 35.5t-35 87.5z" />
    <glyph glyph-name="Aring" unicode="&#xc5;" horiz-adv-x="1233" 
d="M541 1745q0 95 66.5 161t160.5 66q95 0 161 -66t66 -161q0 -94 -66 -160.5t-161 -66.5q-94 0 -160.5 66.5t-66.5 160.5zM645 1747q0 -52 36 -88.5t87 -36.5q49 0 86 37.5t37 87.5q0 49 -37 85t-86 36q-51 0 -87 -35.5t-36 -85.5zM694 537l-65 497l-281 -497h346zM252 0
h-434v10q0 81 72 110q23 9 32 15q27 17 56 54.5t77 119.5l543 920l-12 127v6q0 15 8.5 24t30.5 17l190 61q20 7 26.5 8.5t10.5 2.5q16 0 23.5 -10.5t11.5 -39.5l168 -1144q0 -5 2 -16q15 -101 47 -128q10 -8 28 -16q27 -12 27 -41q0 -12 -3 -32t-9 -48h-529q9 68 21.5 89
t42.5 28q31 6 44 25t13 57q0 10 -1.5 26.5t-4.5 39.5l-18 132h-447l-82 -143q-11 -19 -16.5 -40t-5.5 -42q0 -15 11 -26t38 -21q5 -2 14 -5q37 -13 37 -48q0 -16 -9 -58q-2 -9 -3 -14z" />
    <glyph glyph-name="AE" unicode="&#xc6;" horiz-adv-x="1882" 
d="M1319 805q50 0 80 9t49 30q8 8 22 30q42 64 89 64q16 0 28 -1t25 -3l-103 -420q-14 -3 -24.5 -4.5t-20.5 -1.5q-54 0 -72 98l-3 18q-7 36 -30.5 54t-62.5 18h-125l-143 -573h236q131 0 196.5 28.5t93.5 93.5q5 12 14 33q41 101 122 101q10 0 23 -1t38 -3l-94 -375h-1118
q1 52 18 78.5t59 42.5q40 15 60 40.5t37 94.5l100 399h-352l-256 -368q-28 -42 -40.5 -69.5t-12.5 -47.5q0 -21 7 -31.5t27 -19.5q19 -6 25 -17.5t6 -40.5q0 -7 -3 -22.5t-9 -38.5h-387q0 3 -1 9t-1 9q0 56 77 110q25 17 37 28q21 18 58 64.5t125 168.5l577 809
q20 28 31.5 53.5t11.5 40.5q0 29 -42 43t-42 41q0 11 4.5 25t18.5 45h964q103 0 173.5 10.5t138.5 32.5l-103 -412q-12 -2 -23 -3t-24 -1q-74 0 -80 87q-2 36 -6 54q-14 63 -62 88t-167 25h-154l-131 -522h121zM563 795h287l100 398q9 37 14 59t5 28q0 19 -5 29t-14 10
q-15 0 -30 -13t-50 -63z" />
    <glyph glyph-name="Ccedilla" unicode="&#xc7;" horiz-adv-x="1346" 
d="M1085 338l78 -82q-139 -156 -265 -218.5t-296 -62.5q-250 0 -403.5 151t-153.5 394q0 177 66.5 352.5t183.5 309.5q123 141 277 214.5t327 73.5q114 0 220.5 -51t119.5 -51q14 0 27.5 9.5t31.5 33.5h103l-111 -430q-2 0 -6 -1q-22 -3 -31 -3q-44 0 -68 24t-34 81
q-3 15 -7 44q-10 80 -30 113q-31 56 -76 84.5t-100 28.5q-102 0 -199.5 -79t-177.5 -226q-71 -133 -113 -290t-42 -286q0 -163 78 -256.5t212 -93.5q90 0 182.5 51t206.5 166zM295 -375l41 90q82 -43 135 -59t104 -16q46 0 70 22.5t24 65.5q0 39 -26.5 60.5t-75.5 21.5
q-11 0 -30 -3t-60 -12l65 205h70l-35 -112q24 2 42.5 3.5t31.5 2.5q79 0 128.5 -47t49.5 -123q0 -85 -61 -133t-168 -48q-58 0 -125.5 18t-179.5 64z" />
    <glyph glyph-name="Egrave" unicode="&#xc8;" horiz-adv-x="1237" 
d="M68 256l233 922q1 4 3 11q13 53 13 77q0 37 -46 60t-46 52q0 14 3 31t10 37h753q104 0 175 10.5t139 32.5l-103 -412q-12 -2 -23 -3t-24 -1q-75 0 -81 88q-3 35 -7 53q-15 63 -62.5 88t-166.5 25h-154l-131 -522h121q50 0 80 9t49 30q7 8 22 30q42 64 88 64q18 0 30.5 -1
t25.5 -3l-105 -420q-14 -3 -25 -4.5t-20 -1.5q-54 0 -72 98q-2 12 -4 19q-6 35 -29 53t-61 18h-127l-143 -573h235q145 0 203 26.5t90 102.5q5 11 12 29q38 96 142 96q6 0 19 -1t22 -1l-94 -375h-1116q1 53 17.5 79t57.5 42q39 14 59 39.5t38 95.5zM967 1579h-105l-260 192
q-35 26 -49 45t-14 39q0 38 24 62t60 24q26 0 49 -14t49 -47z" />
    <glyph glyph-name="Eacute" unicode="&#xc9;" horiz-adv-x="1237" 
d="M68 256l233 922q1 4 3 11q13 53 13 77q0 37 -46 60t-46 52q0 14 3 31t10 37h753q104 0 175 10.5t139 32.5l-103 -412q-12 -2 -23 -3t-24 -1q-75 0 -81 88q-3 35 -7 53q-15 63 -62.5 88t-166.5 25h-154l-131 -522h121q50 0 80 9t49 30q7 8 22 30q42 64 88 64q18 0 30.5 -1
t25.5 -3l-105 -420q-14 -3 -25 -4.5t-20 -1.5q-54 0 -72 98q-2 12 -4 19q-6 35 -29 53t-61 18h-127l-143 -573h235q145 0 203 26.5t90 102.5q5 11 12 29q38 96 142 96q6 0 19 -1t22 -1l-94 -375h-1116q1 53 17.5 79t57.5 42q39 14 59 39.5t38 95.5zM705 1579h-107l309 305
q31 29 59 43t54 14q33 0 57.5 -25.5t24.5 -60.5q0 -27 -17 -50.5t-51 -41.5z" />
    <glyph glyph-name="Ecircumflex" unicode="&#xca;" horiz-adv-x="1237" 
d="M68 256l233 922q1 4 3 11q13 53 13 77q0 37 -46 60t-46 52q0 14 3 31t10 37h753q104 0 175 10.5t139 32.5l-103 -412q-12 -2 -23 -3t-24 -1q-75 0 -81 88q-3 35 -7 53q-15 63 -62.5 88t-166.5 25h-154l-131 -522h121q50 0 80 9t49 30q7 8 22 30q42 64 88 64q18 0 30.5 -1
t25.5 -3l-105 -420q-14 -3 -25 -4.5t-20 -1.5q-54 0 -72 98q-2 12 -4 19q-6 35 -29 53t-61 18h-127l-143 -573h235q145 0 203 26.5t90 102.5q5 11 12 29q38 96 142 96q6 0 19 -1t22 -1l-94 -375h-1116q1 53 17.5 79t57.5 42q39 14 59 39.5t38 95.5zM1065 1579h-82l-166 180
l-245 -180h-105l307 348h127z" />
    <glyph glyph-name="Edieresis" unicode="&#xcb;" horiz-adv-x="1237" 
d="M68 256l233 922q1 4 3 11q13 53 13 77q0 37 -46 60t-46 52q0 14 3 31t10 37h753q104 0 175 10.5t139 32.5l-103 -412q-12 -2 -23 -3t-24 -1q-75 0 -81 88q-3 35 -7 53q-15 63 -62.5 88t-166.5 25h-154l-131 -522h121q50 0 80 9t49 30q7 8 22 30q42 64 88 64q18 0 30.5 -1
t25.5 -3l-105 -420q-14 -3 -25 -4.5t-20 -1.5q-54 0 -72 98q-2 12 -4 19q-6 35 -29 53t-61 18h-127l-143 -573h235q145 0 203 26.5t90 102.5q5 11 12 29q38 96 142 96q6 0 19 -1t22 -1l-94 -375h-1116q1 53 17.5 79t57.5 42q39 14 59 39.5t38 95.5zM873 1743q0 46 36 82
t82 36q50 0 85.5 -35t35.5 -83q0 -54 -34 -88.5t-87 -34.5q-48 0 -83 35.5t-35 87.5zM512 1743q0 46 36.5 82t82.5 36q50 0 85.5 -35t35.5 -83q0 -54 -34.5 -88.5t-86.5 -34.5q-49 0 -84 35.5t-35 87.5z" />
    <glyph glyph-name="Igrave" unicode="&#xcc;" horiz-adv-x="721" 
d="M416 268q-1 -3 -3 -11q-14 -58 -14 -85q0 -22 44 -52.5t44 -66.5q0 -13 -2 -26t-6 -27h-583q1 52 17.5 79t57.5 42q40 14 60 39.5t37 95.5l233 922q1 4 3 11q13 53 13 77q0 37 -46 60t-46 52q0 13 3 29.5t10 38.5h585q-3 -54 -20.5 -81t-59.5 -42q-36 -14 -55 -38
t-37 -95zM752 1579h-105l-260 192q-35 26 -49 45t-14 39q0 38 24 62t60 24q26 0 49 -14t49 -47z" />
    <glyph glyph-name="Iacute" unicode="&#xcd;" horiz-adv-x="721" 
d="M416 268q-1 -3 -3 -11q-14 -58 -14 -85q0 -22 44 -52.5t44 -66.5q0 -13 -2 -26t-6 -27h-583q1 52 17.5 79t57.5 42q40 14 60 39.5t37 95.5l233 922q1 4 3 11q13 53 13 77q0 37 -46 60t-46 52q0 13 3 29.5t10 38.5h585q-3 -54 -20.5 -81t-59.5 -42q-36 -14 -55 -38
t-37 -95zM490 1579h-107l309 305q31 29 59 43t54 14q33 0 57.5 -25.5t24.5 -60.5q0 -27 -17 -50.5t-51 -41.5z" />
    <glyph glyph-name="Icircumflex" unicode="&#xce;" horiz-adv-x="721" 
d="M416 268q-1 -3 -3 -11q-14 -58 -14 -85q0 -22 44 -52.5t44 -66.5q0 -13 -2 -26t-6 -27h-583q1 52 17.5 79t57.5 42q40 14 60 39.5t37 95.5l233 922q1 4 3 11q13 53 13 77q0 37 -46 60t-46 52q0 13 3 29.5t10 38.5h585q-3 -54 -20.5 -81t-59.5 -42q-36 -14 -55 -38
t-37 -95zM850 1579h-82l-166 180l-245 -180h-105l307 348h127z" />
    <glyph glyph-name="Idieresis" unicode="&#xcf;" horiz-adv-x="721" 
d="M416 268q-1 -3 -3 -11q-14 -58 -14 -85q0 -22 44 -52.5t44 -66.5q0 -13 -2 -26t-6 -27h-583q1 52 17.5 79t57.5 42q40 14 60 39.5t37 95.5l233 922q1 4 3 11q13 53 13 77q0 37 -46 60t-46 52q0 13 3 29.5t10 38.5h585q-3 -54 -20.5 -81t-59.5 -42q-36 -14 -55 -38
t-37 -95zM658 1743q0 46 36 82t82 36q50 0 85.5 -35t35.5 -83q0 -54 -34 -88.5t-87 -34.5q-48 0 -83 35.5t-35 87.5zM297 1743q0 46 36.5 82t82.5 36q50 0 85.5 -35t35.5 -83q0 -54 -34.5 -88.5t-86.5 -34.5q-49 0 -84 35.5t-35 87.5z" />
    <glyph glyph-name="Eth" unicode="&#xd0;" horiz-adv-x="1522" 
d="M389 121h45q162 0 264.5 39.5t180.5 130.5q37 44 70.5 112.5t62.5 159.5q37 114 56 220.5t19 193.5q0 186 -78.5 268t-256.5 82q-22 0 -34.5 -0.5t-20.5 -1.5l-136 -520h307l-28 -129h-310zM-102 0q1 53 17.5 79t57.5 42q40 14 60.5 39.5t38.5 95.5l106 420h-194l26 129
h201l96 373q1 3 3 10q14 50 14 78q0 37 -46.5 60.5t-46.5 53.5q0 14 3 29.5t10 36.5h614q290 0 443 -146t153 -421q0 -217 -95 -412.5t-257 -312.5q-114 -82 -248 -118t-356 -36h-600z" />
    <glyph glyph-name="Ntilde" unicode="&#xd1;" horiz-adv-x="1395" 
d="M1196 1178q11 40 14.5 59.5t3.5 36.5q0 22 -44 52.5t-44 66.5q0 13 2 26t7 27h374q-1 -51 -18.5 -78t-58.5 -43q-40 -14 -60 -39.5t-37 -95.5l-303 -1190h-153l-455 1126l-217 -858q-10 -40 -13.5 -60t-3.5 -36q0 -22 44.5 -52.5t44.5 -66.5q0 -9 -2.5 -21.5t-8.5 -31.5
h-372q1 52 17.5 79t57.5 42q40 14 60 39.5t37 95.5l233 922q1 4 3 11q13 53 13 77q0 37 -46 60t-46 52q0 13 3 29.5t10 38.5h424l362 -934zM1223 1886q-20 -114 -71 -175t-126 -61q-14 0 -29 2.5t-28 6.5l-106 26q-11 3 -21.5 4.5t-28.5 1.5q-39 0 -62.5 -21.5t-37.5 -70.5
h-66q19 117 72.5 180.5t132.5 63.5q12 0 25 -2t28 -6l89 -23q25 -6 38.5 -8t22.5 -2q43 0 67.5 20t34.5 64h66z" />
    <glyph glyph-name="Ograve" unicode="&#xd2;" horiz-adv-x="1616" 
d="M922 1360q-97 0 -178.5 -55.5t-145.5 -165.5q-88 -151 -139 -335.5t-51 -348.5q0 -183 70.5 -276t209.5 -93q111 0 201.5 71t161.5 214q70 141 110.5 310t40.5 316q0 179 -71 271t-209 92zM55 608q0 152 65 309t181 283q123 135 276.5 202.5t337.5 67.5
q299 0 472.5 -165.5t173.5 -450.5q0 -169 -65.5 -330t-184.5 -286q-128 -136 -277 -199.5t-338 -63.5q-299 0 -470 168.5t-171 464.5zM1174 1579h-105l-260 192q-35 26 -49 45t-14 39q0 38 24 62t60 24q26 0 49 -14t49 -47z" />
    <glyph glyph-name="Oacute" unicode="&#xd3;" horiz-adv-x="1616" 
d="M922 1360q-97 0 -178.5 -55.5t-145.5 -165.5q-88 -151 -139 -335.5t-51 -348.5q0 -183 70.5 -276t209.5 -93q111 0 201.5 71t161.5 214q70 141 110.5 310t40.5 316q0 179 -71 271t-209 92zM55 608q0 152 65 309t181 283q123 135 276.5 202.5t337.5 67.5
q299 0 472.5 -165.5t173.5 -450.5q0 -169 -65.5 -330t-184.5 -286q-128 -136 -277 -199.5t-338 -63.5q-299 0 -470 168.5t-171 464.5zM912 1579h-107l309 305q31 29 59 43t54 14q33 0 57.5 -25.5t24.5 -60.5q0 -27 -17 -50.5t-51 -41.5z" />
    <glyph glyph-name="Ocircumflex" unicode="&#xd4;" horiz-adv-x="1616" 
d="M922 1360q-97 0 -178.5 -55.5t-145.5 -165.5q-88 -151 -139 -335.5t-51 -348.5q0 -183 70.5 -276t209.5 -93q111 0 201.5 71t161.5 214q70 141 110.5 310t40.5 316q0 179 -71 271t-209 92zM55 608q0 152 65 309t181 283q123 135 276.5 202.5t337.5 67.5
q299 0 472.5 -165.5t173.5 -450.5q0 -169 -65.5 -330t-184.5 -286q-128 -136 -277 -199.5t-338 -63.5q-299 0 -470 168.5t-171 464.5zM1272 1579h-82l-166 180l-245 -180h-105l307 348h127z" />
    <glyph glyph-name="Otilde" unicode="&#xd5;" horiz-adv-x="1616" 
d="M922 1360q-97 0 -178.5 -55.5t-145.5 -165.5q-88 -151 -139 -335.5t-51 -348.5q0 -183 70.5 -276t209.5 -93q111 0 201.5 71t161.5 214q70 141 110.5 310t40.5 316q0 179 -71 271t-209 92zM55 608q0 152 65 309t181 283q123 135 276.5 202.5t337.5 67.5
q299 0 472.5 -165.5t173.5 -450.5q0 -169 -65.5 -330t-184.5 -286q-128 -136 -277 -199.5t-338 -63.5q-299 0 -470 168.5t-171 464.5zM1307 1886q-20 -114 -71 -175t-126 -61q-14 0 -29 2.5t-28 6.5l-106 26q-11 3 -21.5 4.5t-28.5 1.5q-39 0 -62.5 -21.5t-37.5 -70.5h-66
q19 117 72.5 180.5t132.5 63.5q12 0 25 -2t28 -6l89 -23q25 -6 38.5 -8t22.5 -2q43 0 67.5 20t34.5 64h66z" />
    <glyph glyph-name="Odieresis" unicode="&#xd6;" horiz-adv-x="1616" 
d="M922 1360q-97 0 -178.5 -55.5t-145.5 -165.5q-88 -151 -139 -335.5t-51 -348.5q0 -183 70.5 -276t209.5 -93q111 0 201.5 71t161.5 214q70 141 110.5 310t40.5 316q0 179 -71 271t-209 92zM55 608q0 152 65 309t181 283q123 135 276.5 202.5t337.5 67.5
q299 0 472.5 -165.5t173.5 -450.5q0 -169 -65.5 -330t-184.5 -286q-128 -136 -277 -199.5t-338 -63.5q-299 0 -470 168.5t-171 464.5zM1080 1743q0 46 36 82t82 36q50 0 85.5 -35t35.5 -83q0 -54 -34 -88.5t-87 -34.5q-48 0 -83 35.5t-35 87.5zM719 1743q0 46 36.5 82
t82.5 36q50 0 85.5 -35t35.5 -83q0 -54 -34.5 -88.5t-86.5 -34.5q-49 0 -84 35.5t-35 87.5z" />
    <glyph glyph-name="multiply" unicode="&#xd7;" horiz-adv-x="1706" 
d="M430 1214l440 -440l441 440l162 -161l-441 -443l441 -440l-162 -162l-441 441l-440 -441l-162 162l441 440l-441 443z" />
    <glyph glyph-name="Oslash" unicode="&#xd8;" horiz-adv-x="1616" 
d="M1118 1288q-43 38 -89.5 55t-104.5 17q-101 0 -181 -55t-147 -170q-84 -144 -137 -332t-53 -332q0 -41 6 -88.5t20 -108.5zM489 164q42 -40 90 -59t105 -19q114 0 203.5 70t161.5 215q71 144 113 313t42 307q0 44 -7 90.5t-21 96.5zM399 31l-139 -207h-133l176 258
q-130 89 -189 207t-59 291q0 170 63 329.5t181 288.5q125 137 278 204.5t338 67.5q75 0 147.5 -12t143.5 -37l121 172h131l-153 -225q132 -98 194 -222t62 -294q0 -190 -85.5 -371t-236.5 -311q-117 -101 -252 -148t-305 -47q-84 0 -152 13.5t-131 42.5z" />
    <glyph glyph-name="Ugrave" unicode="&#xd9;" horiz-adv-x="1389" 
d="M211 1446h583q-1 -53 -17.5 -79.5t-57.5 -41.5q-38 -13 -58 -37.5t-38 -97.5l-201 -768q-10 -39 -15.5 -71.5t-5.5 -57.5q0 -92 55 -140.5t158 -48.5q88 0 163 27.5t128 79.5q71 67 117 250q6 21 8 30l180 687q9 29 13 53t4 43q0 22 -44 52.5t-44 66.5q0 13 2 26t6 27
h374q-1 -52 -18 -78.5t-59 -42.5q-40 -14 -59.5 -39.5t-36.5 -95.5l-213 -832q-48 -188 -192.5 -285.5t-375.5 -97.5q-228 0 -360.5 97t-132.5 262q0 38 5.5 78t16.5 81l176 685q9 31 13 53.5t4 42.5q0 22 -44 52.5t-44 66.5q0 10 2 21.5t8 31.5zM1120 1579h-105l-260 192
q-35 26 -49 45t-14 39q0 38 24 62t60 24q26 0 49 -14t49 -47z" />
    <glyph glyph-name="Uacute" unicode="&#xda;" horiz-adv-x="1389" 
d="M211 1446h583q-1 -53 -17.5 -79.5t-57.5 -41.5q-38 -13 -58 -37.5t-38 -97.5l-201 -768q-10 -39 -15.5 -71.5t-5.5 -57.5q0 -92 55 -140.5t158 -48.5q88 0 163 27.5t128 79.5q71 67 117 250q6 21 8 30l180 687q9 29 13 53t4 43q0 22 -44 52.5t-44 66.5q0 13 2 26t6 27
h374q-1 -52 -18 -78.5t-59 -42.5q-40 -14 -59.5 -39.5t-36.5 -95.5l-213 -832q-48 -188 -192.5 -285.5t-375.5 -97.5q-228 0 -360.5 97t-132.5 262q0 38 5.5 78t16.5 81l176 685q9 31 13 53.5t4 42.5q0 22 -44 52.5t-44 66.5q0 10 2 21.5t8 31.5zM858 1579h-107l309 305
q31 29 59 43t54 14q33 0 57.5 -25.5t24.5 -60.5q0 -27 -17 -50.5t-51 -41.5z" />
    <glyph glyph-name="Ucircumflex" unicode="&#xdb;" horiz-adv-x="1389" 
d="M211 1446h583q-1 -53 -17.5 -79.5t-57.5 -41.5q-38 -13 -58 -37.5t-38 -97.5l-201 -768q-10 -39 -15.5 -71.5t-5.5 -57.5q0 -92 55 -140.5t158 -48.5q88 0 163 27.5t128 79.5q71 67 117 250q6 21 8 30l180 687q9 29 13 53t4 43q0 22 -44 52.5t-44 66.5q0 13 2 26t6 27
h374q-1 -52 -18 -78.5t-59 -42.5q-40 -14 -59.5 -39.5t-36.5 -95.5l-213 -832q-48 -188 -192.5 -285.5t-375.5 -97.5q-228 0 -360.5 97t-132.5 262q0 38 5.5 78t16.5 81l176 685q9 31 13 53.5t4 42.5q0 22 -44 52.5t-44 66.5q0 10 2 21.5t8 31.5zM1218 1579h-82l-166 180
l-245 -180h-105l307 348h127z" />
    <glyph glyph-name="Udieresis" unicode="&#xdc;" horiz-adv-x="1389" 
d="M211 1446h583q-1 -53 -17.5 -79.5t-57.5 -41.5q-38 -13 -58 -37.5t-38 -97.5l-201 -768q-10 -39 -15.5 -71.5t-5.5 -57.5q0 -92 55 -140.5t158 -48.5q88 0 163 27.5t128 79.5q71 67 117 250q6 21 8 30l180 687q9 29 13 53t4 43q0 22 -44 52.5t-44 66.5q0 13 2 26t6 27
h374q-1 -52 -18 -78.5t-59 -42.5q-40 -14 -59.5 -39.5t-36.5 -95.5l-213 -832q-48 -188 -192.5 -285.5t-375.5 -97.5q-228 0 -360.5 97t-132.5 262q0 38 5.5 78t16.5 81l176 685q9 31 13 53.5t4 42.5q0 22 -44 52.5t-44 66.5q0 10 2 21.5t8 31.5zM1026 1743q0 46 36 82
t82 36q50 0 85.5 -35t35.5 -83q0 -54 -34 -88.5t-87 -34.5q-48 0 -83 35.5t-35 87.5zM665 1743q0 46 36.5 82t82.5 36q50 0 85.5 -35t35.5 -83q0 -54 -34.5 -88.5t-86.5 -34.5q-49 0 -84 35.5t-35 87.5z" />
    <glyph glyph-name="Yacute" unicode="&#xdd;" horiz-adv-x="1237" 
d="M651 268q-1 -4 -2 -10q-14 -59 -14 -86q0 -22 44 -52.5t44 -66.5q0 -13 -2 -26t-6 -27h-585q1 52 18 78.5t59 42.5q39 14 59 39.5t37 95.5l88 348l-141 567q-14 54 -29 90t-30 51q-11 12 -45.5 30t-34.5 36q0 10 5 27.5t15 40.5h553q1 -6 1.5 -13.5t0.5 -21.5
q0 -25 -6.5 -39.5t-21.5 -23.5q-11 -8 -37 -14q-58 -14 -58 -72q0 -27 15 -75q5 -16 8 -26l108 -405l328 407q43 54 56.5 77t13.5 40q0 39 -37 55.5t-37 26.5q0 15 3 35t9 49h387v-16q0 -46 -16 -70.5t-76 -50.5q-44 -19 -171 -180q-19 -24 -30 -37l-391 -492zM748 1579
h-107l309 305q31 29 59 43t54 14q33 0 57.5 -25.5t24.5 -60.5q0 -27 -17 -50.5t-51 -41.5z" />
    <glyph glyph-name="Thorn" unicode="&#xde;" horiz-adv-x="1270" 
d="M614 1012l-143 -559q6 0 18 -1t17 -1q166 0 266 110t100 289q0 74 -40 118t-109 44h-109zM823 1446q-3 -55 -19.5 -81t-55.5 -40q-36 -12 -55.5 -40.5t-37.5 -94.5l-16 -60h80q278 0 389 -75.5t111 -251.5q0 -223 -163 -347t-456 -124h-166l-18 -64q-9 -30 -13 -54
t-4 -44q0 -22 44 -51.5t44 -65.5q0 -11 -2 -24.5t-6 -28.5h-583q1 53 17.5 79t57.5 42q39 14 59 39.5t38 95.5l233 922q1 4 3 11q13 53 13 77q0 37 -46 60t-46 52q0 14 3 31t10 37h585z" />
    <glyph glyph-name="germandbls" unicode="&#xdf;" horiz-adv-x="1223" 
d="M258 0h-311l239 891h-104q5 81 70.5 113.5t88.5 57.5q11 13 51.5 114.5t98.5 162.5q70 74 169 112t220 38q185 0 301.5 -90.5t116.5 -231.5q0 -95 -59 -171.5t-156 -106.5q-28 -9 -81 -19q-99 -18 -99 -69q0 -32 118 -138q8 -7 10 -9q92 -84 127.5 -153.5t35.5 -162.5
q0 -153 -121.5 -258t-302.5 -105q-131 0 -212 66t-81 170q0 70 36.5 113t98.5 43q66 0 101.5 -35.5t35.5 -100.5q0 -41 -26.5 -69.5t-26.5 -40.5q0 -18 11.5 -31.5t27.5 -13.5q71 0 121.5 51t50.5 125q0 103 -160 253q-10 9 -14 13q-67 63 -91 107t-24 94q0 111 172 182
q26 11 40 17q92 40 141 117.5t49 185.5q0 79 -37 126.5t-97 47.5q-77 0 -132 -70t-97 -223z" />
    <glyph glyph-name="agrave" unicode="&#xe0;" horiz-adv-x="1229" 
d="M729 719q8 35 12 60t4 42q0 50 -19.5 72t-63.5 22q-61 0 -132 -63.5t-127 -169.5q-48 -94 -77 -206.5t-29 -201.5q0 -71 32 -112t87 -41q81 0 138 61.5t87 182.5zM881 936l202 88h39l-192 -751q-9 -39 -12 -56t-3 -29q0 -30 12 -48.5t31 -18.5q13 0 35.5 9.5t59.5 31.5
l30 -66q-56 -59 -126 -89t-154 -30q-91 0 -137 28.5t-70 96.5q-71 -61 -148.5 -93t-158.5 -32q-141 0 -230.5 94.5t-89.5 243.5q0 134 47.5 253t145.5 233q97 112 208 170.5t228 58.5q73 0 142 -23t141 -71zM875 1139h-105l-260 192q-35 26 -49 45t-14 39q0 38 24 62t60 24
q26 0 49 -14t49 -47z" />
    <glyph glyph-name="aacute" unicode="&#xe1;" horiz-adv-x="1229" 
d="M729 719q8 35 12 60t4 42q0 50 -19.5 72t-63.5 22q-61 0 -132 -63.5t-127 -169.5q-48 -94 -77 -206.5t-29 -201.5q0 -71 32 -112t87 -41q81 0 138 61.5t87 182.5zM881 936l202 88h39l-192 -751q-9 -39 -12 -56t-3 -29q0 -30 12 -48.5t31 -18.5q13 0 35.5 9.5t59.5 31.5
l30 -66q-56 -59 -126 -89t-154 -30q-91 0 -137 28.5t-70 96.5q-71 -61 -148.5 -93t-158.5 -32q-141 0 -230.5 94.5t-89.5 243.5q0 134 47.5 253t145.5 233q97 112 208 170.5t228 58.5q73 0 142 -23t141 -71zM613 1139h-107l309 305q31 29 59 43t54 14q33 0 57.5 -25.5
t24.5 -60.5q0 -27 -17 -50.5t-51 -41.5z" />
    <glyph glyph-name="acircumflex" unicode="&#xe2;" horiz-adv-x="1229" 
d="M729 719q8 35 12 60t4 42q0 50 -19.5 72t-63.5 22q-61 0 -132 -63.5t-127 -169.5q-48 -94 -77 -206.5t-29 -201.5q0 -71 32 -112t87 -41q81 0 138 61.5t87 182.5zM881 936l202 88h39l-192 -751q-9 -39 -12 -56t-3 -29q0 -30 12 -48.5t31 -18.5q13 0 35.5 9.5t59.5 31.5
l30 -66q-56 -59 -126 -89t-154 -30q-91 0 -137 28.5t-70 96.5q-71 -61 -148.5 -93t-158.5 -32q-141 0 -230.5 94.5t-89.5 243.5q0 134 47.5 253t145.5 233q97 112 208 170.5t228 58.5q73 0 142 -23t141 -71zM973 1139h-82l-166 180l-245 -180h-105l307 348h127z" />
    <glyph glyph-name="atilde" unicode="&#xe3;" horiz-adv-x="1229" 
d="M729 719q8 35 12 60t4 42q0 50 -19.5 72t-63.5 22q-61 0 -132 -63.5t-127 -169.5q-48 -94 -77 -206.5t-29 -201.5q0 -71 32 -112t87 -41q81 0 138 61.5t87 182.5zM881 936l202 88h39l-192 -751q-9 -39 -12 -56t-3 -29q0 -30 12 -48.5t31 -18.5q13 0 35.5 9.5t59.5 31.5
l30 -66q-56 -59 -126 -89t-154 -30q-91 0 -137 28.5t-70 96.5q-71 -61 -148.5 -93t-158.5 -32q-141 0 -230.5 94.5t-89.5 243.5q0 134 47.5 253t145.5 233q97 112 208 170.5t228 58.5q73 0 142 -23t141 -71zM1008 1446q-20 -114 -71 -175t-126 -61q-14 0 -29 2.5t-28 6.5
l-106 26q-11 3 -21.5 4.5t-28.5 1.5q-39 0 -62.5 -21.5t-37.5 -70.5h-66q19 117 72.5 180.5t132.5 63.5q12 0 25 -2t28 -6l89 -23q25 -6 38.5 -8t22.5 -2q43 0 67.5 20t34.5 64h66z" />
    <glyph glyph-name="adieresis" unicode="&#xe4;" horiz-adv-x="1229" 
d="M729 719q8 35 12 60t4 42q0 50 -19.5 72t-63.5 22q-61 0 -132 -63.5t-127 -169.5q-48 -94 -77 -206.5t-29 -201.5q0 -71 32 -112t87 -41q81 0 138 61.5t87 182.5zM881 936l202 88h39l-192 -751q-9 -39 -12 -56t-3 -29q0 -30 12 -48.5t31 -18.5q13 0 35.5 9.5t59.5 31.5
l30 -66q-56 -59 -126 -89t-154 -30q-91 0 -137 28.5t-70 96.5q-71 -61 -148.5 -93t-158.5 -32q-141 0 -230.5 94.5t-89.5 243.5q0 134 47.5 253t145.5 233q97 112 208 170.5t228 58.5q73 0 142 -23t141 -71zM781 1303q0 46 36 82t82 36q50 0 85.5 -35t35.5 -83
q0 -54 -34 -88.5t-87 -34.5q-48 0 -83 35.5t-35 87.5zM420 1303q0 46 36.5 82t82.5 36q50 0 85.5 -35t35.5 -83q0 -54 -34.5 -88.5t-86.5 -34.5q-49 0 -84 35.5t-35 87.5z" />
    <glyph glyph-name="aring" unicode="&#xe5;" horiz-adv-x="1229" 
d="M881 936l202 88h39l-192 -751q-9 -39 -12 -56t-3 -29q0 -30 12 -48.5t31 -18.5q13 0 35.5 9.5t59.5 31.5l30 -66q-56 -59 -126 -89t-154 -30q-91 0 -137 28.5t-70 96.5q-71 -61 -148.5 -93t-158.5 -32q-141 0 -230.5 94.5t-89.5 243.5q0 134 47.5 253t145.5 233
q97 112 208 170.5t228 58.5q73 0 142 -23t141 -71zM729 719q8 35 12 60t4 42q0 50 -19.5 72t-63.5 22q-61 0 -132 -63.5t-127 -169.5q-48 -94 -77 -206.5t-29 -201.5q0 -71 32 -112t87 -41q81 0 138 61.5t87 182.5zM549 1323q0 95 65.5 161t159.5 66q96 0 163 -66t67 -161
q0 -94 -67.5 -160.5t-162.5 -66.5q-93 0 -159 66.5t-66 160.5zM653 1325q0 -52 36 -88.5t87 -36.5q50 0 86.5 37.5t36.5 87.5q0 49 -36.5 85t-86.5 36q-51 0 -87 -35.5t-36 -85.5z" />
    <glyph glyph-name="ae" unicode="&#xe6;" horiz-adv-x="1702" 
d="M1016 539q168 3 280.5 92.5t112.5 208.5q0 38 -27 64t-67 26q-90 0 -178 -111.5t-121 -279.5zM729 719q8 35 12 60t4 42q0 50 -19.5 72t-63.5 22q-61 0 -132 -63.5t-127 -169.5q-48 -94 -77 -206.5t-29 -201.5q0 -71 32 -112t87 -41q81 0 138 61.5t87 182.5zM854 948
l154 76h39l-23 -92q76 50 150 74t155 24q133 0 213 -61t80 -162q0 -169 -163.5 -266t-461.5 -103q-4 -23 -6 -46.5t-2 -47.5q0 -117 54.5 -181.5t152.5 -64.5q60 0 118.5 32.5t145.5 117.5l66 -68q-104 -110 -209 -157.5t-246 -47.5q-142 0 -226 46.5t-161 164.5
q-69 -102 -169.5 -156.5t-221.5 -54.5q-146 0 -235 96t-89 257q0 126 50 248t147 231q96 108 208 165.5t228 57.5q68 0 129.5 -20t122.5 -62z" />
    <glyph glyph-name="ccedilla" unicode="&#xe7;" horiz-adv-x="1006" 
d="M760 244l63 -64q-102 -110 -203 -158.5t-229 -48.5q-184 0 -296.5 106t-112.5 279q0 131 53.5 257.5t148.5 220.5q92 89 219 141.5t254 52.5q121 0 196 -58t75 -149q0 -67 -44 -110t-112 -43q-67 0 -106 39t-39 106q0 28 12 56.5t12 31.5q0 9 -10 17t-23 8
q-100 0 -208.5 -175.5t-108.5 -377.5q0 -136 48.5 -205.5t144.5 -69.5q63 0 132 37t134 107zM113 -375l41 90q82 -43 135 -59t104 -16q46 0 70 22.5t24 65.5q0 39 -26.5 60.5t-75.5 21.5q-11 0 -30 -3t-60 -12l65 205h70l-35 -112q24 2 42.5 3.5t31.5 2.5q79 0 128.5 -47
t49.5 -123q0 -85 -61 -133t-168 -48q-58 0 -125.5 18t-179.5 64z" />
    <glyph glyph-name="egrave" unicode="&#xe8;" 
d="M334 539q164 1 279.5 91.5t115.5 203.5q0 45 -25.5 70.5t-70.5 25.5q-92 0 -178 -110t-121 -281zM780 248l64 -68q-103 -109 -207.5 -157t-241.5 -48q-202 0 -312 98.5t-110 278.5q0 122 44.5 237t125.5 204q104 112 235 173.5t269 61.5q134 0 213.5 -60.5t79.5 -160.5
q0 -169 -163.5 -266t-461.5 -103q-4 -22 -6 -45t-2 -49q0 -116 55.5 -181t153.5 -65q60 0 118.5 32.5t145.5 117.5zM770 1139h-105l-260 192q-35 26 -49 45t-14 39q0 38 24 62t60 24q26 0 49 -14t49 -47z" />
    <glyph glyph-name="eacute" unicode="&#xe9;" 
d="M334 539q164 1 279.5 91.5t115.5 203.5q0 45 -25.5 70.5t-70.5 25.5q-92 0 -178 -110t-121 -281zM780 248l64 -68q-103 -109 -207.5 -157t-241.5 -48q-202 0 -312 98.5t-110 278.5q0 122 44.5 237t125.5 204q104 112 235 173.5t269 61.5q134 0 213.5 -60.5t79.5 -160.5
q0 -169 -163.5 -266t-461.5 -103q-4 -22 -6 -45t-2 -49q0 -116 55.5 -181t153.5 -65q60 0 118.5 32.5t145.5 117.5zM508 1139h-107l309 305q31 29 59 43t54 14q33 0 57.5 -25.5t24.5 -60.5q0 -27 -17 -50.5t-51 -41.5z" />
    <glyph glyph-name="ecircumflex" unicode="&#xea;" 
d="M334 539q164 1 279.5 91.5t115.5 203.5q0 45 -25.5 70.5t-70.5 25.5q-92 0 -178 -110t-121 -281zM780 248l64 -68q-103 -109 -207.5 -157t-241.5 -48q-202 0 -312 98.5t-110 278.5q0 122 44.5 237t125.5 204q104 112 235 173.5t269 61.5q134 0 213.5 -60.5t79.5 -160.5
q0 -169 -163.5 -266t-461.5 -103q-4 -22 -6 -45t-2 -49q0 -116 55.5 -181t153.5 -65q60 0 118.5 32.5t145.5 117.5zM868 1139h-82l-166 180l-245 -180h-105l307 348h127z" />
    <glyph glyph-name="edieresis" unicode="&#xeb;" 
d="M334 539q164 1 279.5 91.5t115.5 203.5q0 45 -25.5 70.5t-70.5 25.5q-92 0 -178 -110t-121 -281zM780 248l64 -68q-103 -109 -207.5 -157t-241.5 -48q-202 0 -312 98.5t-110 278.5q0 122 44.5 237t125.5 204q104 112 235 173.5t269 61.5q134 0 213.5 -60.5t79.5 -160.5
q0 -169 -163.5 -266t-461.5 -103q-4 -22 -6 -45t-2 -49q0 -116 55.5 -181t153.5 -65q60 0 118.5 32.5t145.5 117.5zM676 1303q0 46 36 82t82 36q50 0 85.5 -35t35.5 -83q0 -54 -34 -88.5t-87 -34.5q-48 0 -83 35.5t-35 87.5zM315 1303q0 46 36.5 82t82.5 36q50 0 85.5 -35
t35.5 -83q0 -54 -34.5 -88.5t-86.5 -34.5q-49 0 -84 35.5t-35 87.5z" />
    <glyph glyph-name="igrave" unicode="&#xec;" horiz-adv-x="631" 
d="M137 716l6 21q19 63 19 92q0 28 -38 55.5t-38 39.5q0 8 4.5 22t13.5 37h19q82 0 182.5 12.5t231.5 38.5l-201 -741q-12 -45 -17.5 -73t-5.5 -42q0 -23 15 -39t34 -16q14 0 34.5 8.5t56.5 30.5l30 -66q-56 -59 -127 -90t-151 -31q-101 0 -157 46.5t-56 130.5q0 23 10 68
t35 132zM563 1139h-105l-260 192q-35 26 -49 45t-14 39q0 38 24 62t60 24q26 0 49 -14t49 -47z" />
    <glyph glyph-name="iacute" unicode="&#xed;" horiz-adv-x="631" 
d="M137 716l6 21q19 63 19 92q0 28 -38 55.5t-38 39.5q0 8 4.5 22t13.5 37h19q82 0 182.5 12.5t231.5 38.5l-201 -741q-12 -45 -17.5 -73t-5.5 -42q0 -23 15 -39t34 -16q14 0 34.5 8.5t56.5 30.5l30 -66q-56 -59 -127 -90t-151 -31q-101 0 -157 46.5t-56 130.5q0 23 10 68
t35 132zM301 1139h-107l309 305q31 29 59 43t54 14q33 0 57.5 -25.5t24.5 -60.5q0 -27 -17 -50.5t-51 -41.5z" />
    <glyph glyph-name="icircumflex" unicode="&#xee;" horiz-adv-x="631" 
d="M137 716l6 21q19 63 19 92q0 28 -38 55.5t-38 39.5q0 8 4.5 22t13.5 37h19q82 0 182.5 12.5t231.5 38.5l-201 -741q-12 -45 -17.5 -73t-5.5 -42q0 -23 15 -39t34 -16q14 0 34.5 8.5t56.5 30.5l30 -66q-56 -59 -127 -90t-151 -31q-101 0 -157 46.5t-56 130.5q0 23 10 68
t35 132zM661 1139h-82l-166 180l-245 -180h-105l307 348h127z" />
    <glyph glyph-name="idieresis" unicode="&#xef;" horiz-adv-x="631" 
d="M137 716l6 21q19 63 19 92q0 28 -38 55.5t-38 39.5q0 8 4.5 22t13.5 37h19q82 0 182.5 12.5t231.5 38.5l-201 -741q-12 -45 -17.5 -73t-5.5 -42q0 -23 15 -39t34 -16q14 0 34.5 8.5t56.5 30.5l30 -66q-56 -59 -127 -90t-151 -31q-101 0 -157 46.5t-56 130.5q0 23 10 68
t35 132zM469 1303q0 46 36 82t82 36q50 0 85.5 -35t35.5 -83q0 -54 -34 -88.5t-87 -34.5q-48 0 -83 35.5t-35 87.5zM108 1303q0 46 36.5 82t82.5 36q50 0 85.5 -35t35.5 -83q0 -54 -34.5 -88.5t-86.5 -34.5q-49 0 -84 35.5t-35 87.5z" />
    <glyph glyph-name="eth" unicode="&#xf0;" horiz-adv-x="1231" 
d="M643 877q-55 0 -110 -42.5t-103 -121.5q-60 -100 -93.5 -215.5t-33.5 -225.5q0 -93 37 -144.5t102 -51.5q56 0 109.5 40t99.5 115q62 100 95.5 213.5t33.5 219.5q0 103 -35.5 158t-101.5 55zM780 932q-6 45 -28.5 102t-57.5 115l-344 -53l-12 94l305 49q-24 49 -95 138
l-24 30l121 68q44 -42 87 -94t85 -113l328 49l14 -90l-280 -39q103 -152 153.5 -298.5t50.5 -293.5q0 -284 -163.5 -451.5t-438.5 -167.5q-220 0 -348.5 119t-128.5 322q0 234 166 397.5t401 163.5q51 0 101.5 -11.5t107.5 -35.5z" />
    <glyph glyph-name="ntilde" unicode="&#xf1;" horiz-adv-x="1266" 
d="M252 0h-313l198 716l6 21q19 63 19 92q0 28 -38 55.5t-38 39.5q0 8 4.5 22t13.5 37h17q104 0 396 42l19 3l-34 -133q90 68 175 100.5t173 32.5q115 0 186.5 -59t71.5 -154q0 -17 -6.5 -48t-22.5 -83l-129 -465q-6 -23 -9 -37t-3 -18q0 -19 13 -34t30 -15q16 0 39 11
t51 32l29 -64q-64 -59 -130.5 -89t-135.5 -30q-101 0 -154 46.5t-53 134.5q0 51 38 188l3 9l92 331q3 11 8 29q20 74 20 102q0 32 -24.5 55t-58.5 23q-51 0 -114 -39t-130 -113zM1014 1446q-20 -114 -71 -175t-126 -61q-14 0 -29 2.5t-28 6.5l-106 26q-11 3 -21.5 4.5
t-28.5 1.5q-39 0 -62.5 -21.5t-37.5 -70.5h-66q19 117 72.5 180.5t132.5 63.5q12 0 25 -2t28 -6l89 -23q25 -6 38.5 -8t22.5 -2q43 0 67.5 20t34.5 64h66z" />
    <glyph glyph-name="ograve" unicode="&#xf2;" horiz-adv-x="1247" 
d="M301 311q0 -116 36 -173.5t109 -57.5q59 0 115.5 42.5t106.5 123.5q64 105 100.5 225.5t36.5 228.5q0 109 -37.5 166.5t-108.5 57.5q-49 0 -101.5 -34.5t-96.5 -96.5q-71 -101 -115.5 -235.5t-44.5 -246.5zM-10 444q0 250 173 418t435 168q240 0 379 -125.5t139 -341.5
q0 -257 -174.5 -421.5t-449.5 -164.5q-234 0 -368 125.5t-134 341.5zM873 1139h-105l-260 192q-35 26 -49 45t-14 39q0 38 24 62t60 24q26 0 49 -14t49 -47z" />
    <glyph glyph-name="oacute" unicode="&#xf3;" horiz-adv-x="1247" 
d="M301 311q0 -116 36 -173.5t109 -57.5q59 0 115.5 42.5t106.5 123.5q64 105 100.5 225.5t36.5 228.5q0 109 -37.5 166.5t-108.5 57.5q-49 0 -101.5 -34.5t-96.5 -96.5q-71 -101 -115.5 -235.5t-44.5 -246.5zM-10 444q0 250 173 418t435 168q240 0 379 -125.5t139 -341.5
q0 -257 -174.5 -421.5t-449.5 -164.5q-234 0 -368 125.5t-134 341.5zM611 1139h-107l309 305q31 29 59 43t54 14q33 0 57.5 -25.5t24.5 -60.5q0 -27 -17 -50.5t-51 -41.5z" />
    <glyph glyph-name="ocircumflex" unicode="&#xf4;" horiz-adv-x="1247" 
d="M301 311q0 -116 36 -173.5t109 -57.5q59 0 115.5 42.5t106.5 123.5q64 105 100.5 225.5t36.5 228.5q0 109 -37.5 166.5t-108.5 57.5q-49 0 -101.5 -34.5t-96.5 -96.5q-71 -101 -115.5 -235.5t-44.5 -246.5zM-10 444q0 250 173 418t435 168q240 0 379 -125.5t139 -341.5
q0 -257 -174.5 -421.5t-449.5 -164.5q-234 0 -368 125.5t-134 341.5zM971 1139h-82l-166 180l-245 -180h-105l307 348h127z" />
    <glyph glyph-name="otilde" unicode="&#xf5;" horiz-adv-x="1247" 
d="M301 311q0 -116 36 -173.5t109 -57.5q59 0 115.5 42.5t106.5 123.5q64 105 100.5 225.5t36.5 228.5q0 109 -37.5 166.5t-108.5 57.5q-49 0 -101.5 -34.5t-96.5 -96.5q-71 -101 -115.5 -235.5t-44.5 -246.5zM-10 444q0 250 173 418t435 168q240 0 379 -125.5t139 -341.5
q0 -257 -174.5 -421.5t-449.5 -164.5q-234 0 -368 125.5t-134 341.5zM1006 1446q-20 -114 -71 -175t-126 -61q-14 0 -29 2.5t-28 6.5l-106 26q-11 3 -21.5 4.5t-28.5 1.5q-39 0 -62.5 -21.5t-37.5 -70.5h-66q19 117 72.5 180.5t132.5 63.5q12 0 25 -2t28 -6l89 -23
q25 -6 38.5 -8t22.5 -2q43 0 67.5 20t34.5 64h66z" />
    <glyph glyph-name="odieresis" unicode="&#xf6;" horiz-adv-x="1247" 
d="M301 311q0 -116 36 -173.5t109 -57.5q59 0 115.5 42.5t106.5 123.5q64 105 100.5 225.5t36.5 228.5q0 109 -37.5 166.5t-108.5 57.5q-49 0 -101.5 -34.5t-96.5 -96.5q-71 -101 -115.5 -235.5t-44.5 -246.5zM-10 444q0 250 173 418t435 168q240 0 379 -125.5t139 -341.5
q0 -257 -174.5 -421.5t-449.5 -164.5q-234 0 -368 125.5t-134 341.5zM779 1303q0 46 36 82t82 36q50 0 85.5 -35t35.5 -83q0 -54 -34 -88.5t-87 -34.5q-48 0 -83 35.5t-35 87.5zM418 1303q0 46 36.5 82t82.5 36q50 0 85.5 -35t35.5 -83q0 -54 -34.5 -88.5t-86.5 -34.5
q-49 0 -84 35.5t-35 87.5z" />
    <glyph glyph-name="divide" unicode="&#xf7;" horiz-adv-x="1706" 
d="M854 371q68 0 116 -48.5t48 -117.5q0 -68 -47.5 -116t-116.5 -48t-117.5 48t-48.5 116t49 117t117 49zM254 727h1198v-231h-1198v231zM854 1182q67 0 115.5 -49t48.5 -117t-48.5 -116t-117.5 -48t-116.5 48t-47.5 116t49 117t117 49z" />
    <glyph glyph-name="oslash" unicode="&#xf8;" horiz-adv-x="1247" 
d="M803 766l-459 -639q25 -25 51 -36t60 -11q71 0 133 52t121 161q53 100 81.5 195.5t28.5 175.5q0 22 -4 46.5t-12 55.5zM293 215l457 645q-24 27 -49.5 39t-57.5 12q-65 0 -122.5 -42.5t-112.5 -133.5q-61 -100 -96.5 -209t-35.5 -190q0 -28 4 -57.5t13 -63.5zM139 -166
h-121l160 225q-95 68 -141.5 162t-46.5 217q0 252 173 422t431 170q64 0 124 -12t122 -37l110 152h111l-135 -187q96 -67 143 -161t47 -220q0 -255 -174 -422.5t-442 -167.5q-56 0 -113.5 9.5t-120.5 27.5z" />
    <glyph glyph-name="ugrave" unicode="&#xf9;" horiz-adv-x="1266" 
d="M965 276q-9 -32 -14 -62t-5 -48q0 -19 13 -33t30 -14q15 0 35 9.5t45 29.5l29 -64q-65 -59 -131 -89t-136 -30q-80 0 -135.5 34.5t-89.5 105.5q-90 -67 -176 -99t-174 -32q-111 0 -182.5 57.5t-71.5 146.5q0 28 4 54.5t12 54.5l119 419l6 21q19 63 19 92q0 28 -38 55.5
t-38 39.5q0 8 4.5 22t13.5 37h17q104 0 396 42l19 3l-190 -700l-1 -4q-26 -91 -26 -127q0 -32 25 -55t59 -23q50 0 112 38.5t130 112.5l129 447l3 10q20 72 20 102q0 28 -37 55.5t-37 39.5q0 8 4.5 22t13.5 37h17q104 0 396 42l19 3zM881 1139h-105l-260 192q-35 26 -49 45
t-14 39q0 38 24 62t60 24q26 0 49 -14t49 -47z" />
    <glyph glyph-name="uacute" unicode="&#xfa;" horiz-adv-x="1266" 
d="M965 276q-9 -32 -14 -62t-5 -48q0 -19 13 -33t30 -14q15 0 35 9.5t45 29.5l29 -64q-65 -59 -131 -89t-136 -30q-80 0 -135.5 34.5t-89.5 105.5q-90 -67 -176 -99t-174 -32q-111 0 -182.5 57.5t-71.5 146.5q0 28 4 54.5t12 54.5l119 419l6 21q19 63 19 92q0 28 -38 55.5
t-38 39.5q0 8 4.5 22t13.5 37h17q104 0 396 42l19 3l-190 -700l-1 -4q-26 -91 -26 -127q0 -32 25 -55t59 -23q50 0 112 38.5t130 112.5l129 447l3 10q20 72 20 102q0 28 -37 55.5t-37 39.5q0 8 4.5 22t13.5 37h17q104 0 396 42l19 3zM619 1139h-107l309 305q31 29 59 43
t54 14q33 0 57.5 -25.5t24.5 -60.5q0 -27 -17 -50.5t-51 -41.5z" />
    <glyph glyph-name="ucircumflex" unicode="&#xfb;" horiz-adv-x="1266" 
d="M965 276q-9 -32 -14 -62t-5 -48q0 -19 13 -33t30 -14q15 0 35 9.5t45 29.5l29 -64q-65 -59 -131 -89t-136 -30q-80 0 -135.5 34.5t-89.5 105.5q-90 -67 -176 -99t-174 -32q-111 0 -182.5 57.5t-71.5 146.5q0 28 4 54.5t12 54.5l119 419l6 21q19 63 19 92q0 28 -38 55.5
t-38 39.5q0 8 4.5 22t13.5 37h17q104 0 396 42l19 3l-190 -700l-1 -4q-26 -91 -26 -127q0 -32 25 -55t59 -23q50 0 112 38.5t130 112.5l129 447l3 10q20 72 20 102q0 28 -37 55.5t-37 39.5q0 8 4.5 22t13.5 37h17q104 0 396 42l19 3zM979 1139h-82l-166 180l-245 -180h-105
l307 348h127z" />
    <glyph glyph-name="udieresis" unicode="&#xfc;" horiz-adv-x="1266" 
d="M965 276q-9 -32 -14 -62t-5 -48q0 -19 13 -33t30 -14q15 0 35 9.5t45 29.5l29 -64q-65 -59 -131 -89t-136 -30q-80 0 -135.5 34.5t-89.5 105.5q-90 -67 -176 -99t-174 -32q-111 0 -182.5 57.5t-71.5 146.5q0 28 4 54.5t12 54.5l119 419l6 21q19 63 19 92q0 28 -38 55.5
t-38 39.5q0 8 4.5 22t13.5 37h17q104 0 396 42l19 3l-190 -700l-1 -4q-26 -91 -26 -127q0 -32 25 -55t59 -23q50 0 112 38.5t130 112.5l129 447l3 10q20 72 20 102q0 28 -37 55.5t-37 39.5q0 8 4.5 22t13.5 37h17q104 0 396 42l19 3zM787 1303q0 46 36 82t82 36
q50 0 85.5 -35t35.5 -83q0 -54 -34 -88.5t-87 -34.5q-48 0 -83 35.5t-35 87.5zM426 1303q0 46 36.5 82t82.5 36q50 0 85.5 -35t35.5 -83q0 -54 -34.5 -88.5t-86.5 -34.5q-49 0 -84 35.5t-35 87.5z" />
    <glyph glyph-name="yacute" unicode="&#xfd;" 
d="M307 -39l-151 721q-20 93 -35.5 118t-40.5 25q-12 0 -31 -10t-53 -35l-45 60q84 89 169.5 138.5t155.5 49.5q65 0 97.5 -36t62.5 -179l109 -518l180 270q4 6 11 17q63 95 63 129q0 14 -56.5 62.5t-56.5 119.5q0 60 38 97.5t99 37.5q73 0 114.5 -44.5t41.5 -121.5
q0 -95 -106 -252l-2 -3l-558 -818q-86 -127 -164.5 -181t-173.5 -54q-90 0 -148 49t-58 125q0 69 41 113t106 44q46 0 75 -16.5t42 -49.5q4 -11 10 -42q12 -72 49 -72q21 0 53 32t74 93zM498 1139h-107l309 305q31 29 59 43t54 14q33 0 57.5 -25.5t24.5 -60.5
q0 -27 -17 -50.5t-51 -41.5z" />
    <glyph glyph-name="thorn" unicode="&#xfe;" horiz-adv-x="1266" 
d="M311 285q-12 -44 -19 -78.5t-7 -48.5q0 -41 25.5 -64.5t70.5 -23.5q58 0 128 46.5t130 127.5q71 95 113.5 219t42.5 237q0 100 -42.5 150.5t-125.5 50.5q-74 0 -120 -45t-75 -147zM-205 -422l447 1598q1 4 3 11q21 70 21 103q0 28 -36.5 54.5t-36.5 41.5q0 10 4 25t12 35
h41q93 0 188.5 6t194.5 18l-144 -538q74 50 138.5 73t132.5 23q159 0 257.5 -101.5t98.5 -264.5q0 -141 -57.5 -268t-165.5 -226q-101 -92 -222.5 -142.5t-242.5 -50.5q-53 0 -101 11.5t-91 33.5l-125 -442h-316z" />
    <glyph glyph-name="ydieresis" unicode="&#xff;" 
d="M307 -39l-151 721q-20 93 -35.5 118t-40.5 25q-12 0 -31 -10t-53 -35l-45 60q84 89 169.5 138.5t155.5 49.5q65 0 97.5 -36t62.5 -179l109 -518l180 270q4 6 11 17q63 95 63 129q0 14 -56.5 62.5t-56.5 119.5q0 60 38 97.5t99 37.5q73 0 114.5 -44.5t41.5 -121.5
q0 -95 -106 -252l-2 -3l-558 -818q-86 -127 -164.5 -181t-173.5 -54q-90 0 -148 49t-58 125q0 69 41 113t106 44q46 0 75 -16.5t42 -49.5q4 -11 10 -42q12 -72 49 -72q21 0 53 32t74 93zM666 1303q0 46 36 82t82 36q50 0 85.5 -35t35.5 -83q0 -54 -34 -88.5t-87 -34.5
q-48 0 -83 35.5t-35 87.5zM305 1303q0 46 36.5 82t82.5 36q50 0 85.5 -35t35.5 -83q0 -54 -34.5 -88.5t-86.5 -34.5q-49 0 -84 35.5t-35 87.5z" />
    <glyph glyph-name="Cacute" unicode="&#x106;" horiz-adv-x="1346" 
d="M1085 338l78 -82q-139 -156 -265 -218.5t-296 -62.5q-250 0 -403.5 151t-153.5 394q0 177 66.5 352.5t183.5 309.5q123 141 277 214.5t327 73.5q114 0 220.5 -51t119.5 -51q14 0 27.5 9.5t31.5 33.5h103l-111 -430q-2 0 -6 -1q-22 -3 -31 -3q-44 0 -68 24t-34 81
q-3 15 -7 44q-10 80 -30 113q-31 56 -76 84.5t-100 28.5q-102 0 -199.5 -79t-177.5 -226q-71 -133 -113 -290t-42 -286q0 -163 78 -256.5t212 -93.5q90 0 182.5 51t206.5 166zM856 1579h-107l309 305q31 29 59 43t54 14q33 0 57.5 -25.5t24.5 -60.5q0 -27 -17 -50.5
t-51 -41.5z" />
    <glyph glyph-name="cacute" unicode="&#x107;" horiz-adv-x="1006" 
d="M760 244l63 -64q-102 -110 -203 -158.5t-229 -48.5q-184 0 -296.5 106t-112.5 279q0 131 53.5 257.5t148.5 220.5q92 89 219 141.5t254 52.5q121 0 196 -58t75 -149q0 -67 -44 -110t-112 -43q-67 0 -106 39t-39 106q0 28 12 56.5t12 31.5q0 9 -10 17t-23 8
q-100 0 -208.5 -175.5t-108.5 -377.5q0 -136 48.5 -205.5t144.5 -69.5q63 0 132 37t134 107zM523 1139h-107l309 305q31 29 59 43t54 14q33 0 57.5 -25.5t24.5 -60.5q0 -27 -17 -50.5t-51 -41.5z" />
    <glyph glyph-name="Ccaron" unicode="&#x10c;" horiz-adv-x="1346" 
d="M1085 338l78 -82q-139 -156 -265 -218.5t-296 -62.5q-250 0 -403.5 151t-153.5 394q0 177 66.5 352.5t183.5 309.5q123 141 277 214.5t327 73.5q114 0 220.5 -51t119.5 -51q14 0 27.5 9.5t31.5 33.5h103l-111 -430q-2 0 -6 -1q-22 -3 -31 -3q-44 0 -68 24t-34 81
q-3 15 -7 44q-10 80 -30 113q-31 56 -76 84.5t-100 28.5q-102 0 -199.5 -79t-177.5 -226q-71 -133 -113 -290t-42 -286q0 -163 78 -256.5t212 -93.5q90 0 182.5 51t206.5 166zM702 1929h80l166 -180l246 180h104l-307 -350h-125z" />
    <glyph glyph-name="ccaron" unicode="&#x10d;" horiz-adv-x="1006" 
d="M760 244l63 -64q-102 -110 -203 -158.5t-229 -48.5q-184 0 -296.5 106t-112.5 279q0 131 53.5 257.5t148.5 220.5q92 89 219 141.5t254 52.5q121 0 196 -58t75 -149q0 -67 -44 -110t-112 -43q-67 0 -106 39t-39 106q0 28 12 56.5t12 31.5q0 9 -10 17t-23 8
q-100 0 -208.5 -175.5t-108.5 -377.5q0 -136 48.5 -205.5t144.5 -69.5q63 0 132 37t134 107zM369 1489h80l166 -180l246 180h104l-307 -350h-125z" />
    <glyph glyph-name="dcroat" unicode="&#x111;" horiz-adv-x="1255" 
d="M727 723q9 32 13.5 62.5t4.5 50.5q0 44 -24.5 70t-67.5 26q-51 0 -109.5 -45t-107.5 -123q-61 -97 -101 -231t-40 -240q0 -82 34 -127t95 -45q41 0 83.5 26t94.5 82zM1053 162l30 -66q-56 -59 -126 -89t-154 -30q-91 0 -137 28.5t-70 96.5q-71 -61 -148.5 -93t-158.5 -32
q-145 0 -232.5 95t-87.5 256q0 126 49.5 244t147.5 229q99 112 207 170.5t217 58.5q58 0 109 -16t100 -49l51 176h-264l24 108l271 1q3 9 4.5 18t1.5 16q0 37 -39 63t-39 39q0 7 4.5 22t13.5 37l41 1q93 0 189.5 6t193.5 18l-61 -221h182l-24 -108h-187l-227 -848
q-9 -35 -14 -62t-5 -45q0 -27 13 -46t30 -19q14 0 38 10.5t57 30.5z" />
    <glyph glyph-name="Gbreve" unicode="&#x11e;" horiz-adv-x="1460" 
d="M868 694h500q-39 -40 -63.5 -81.5t-34.5 -84.5l-53 -209q-5 -16 -6 -21.5t-1 -8.5q0 -23 10.5 -32.5t40.5 -12.5q1 -3 2 -8.5t1 -8.5q0 -98 -176 -175t-422 -77q-288 0 -450.5 156t-162.5 430q0 167 74.5 341.5t204.5 309.5q125 130 269 194t310 64q116 0 228.5 -48
t124.5 -48q13 0 26 8.5t35 32.5h102l-112 -403q-6 -1 -13.5 -1.5t-21.5 -0.5q-46 0 -71.5 22.5t-34.5 72.5q-4 20 -9 55q-11 83 -30 110q-29 42 -75 65t-102 23q-113 0 -221.5 -93t-187.5 -261q-65 -139 -101 -289.5t-36 -284.5q0 -161 68.5 -252.5t187.5 -91.5
q69 0 118.5 35t85.5 108q29 60 48.5 141t19.5 138q0 39 -42 70.5t-42 64.5q0 10 3 23.5t9 27.5zM690 1900h75q11 -68 51 -99.5t115 -31.5q91 0 161 31t136 100h82q-93 -154 -186 -223.5t-205 -69.5q-115 0 -172 73.5t-57 219.5z" />
    <glyph glyph-name="gbreve" unicode="&#x11f;" horiz-adv-x="1124" 
d="M563 936q-47 0 -90.5 -40.5t-77.5 -115.5q-29 -64 -46 -134t-17 -122q0 -67 29 -107t77 -40q85 0 156.5 132t71.5 290q0 65 -27.5 101t-75.5 36zM289 313l-103 -104q61 6 107 9t80 3q228 0 354.5 -79.5t126.5 -223.5q0 -167 -152 -265.5t-411 -98.5q-181 0 -290.5 64.5
t-109.5 168.5q0 69 42.5 110.5t111.5 41.5q70 0 106.5 -31.5t36.5 -91.5q0 -25 -14 -61t-14 -46q0 -21 41.5 -37t101.5 -16q118 0 194 51t76 127t-80 121t-217 45q-76 0 -175.5 -4t-120.5 -4q-44 0 -68.5 13.5t-24.5 37.5q0 16 9 31t41 47l249 252q-67 53 -101 118.5
t-34 141.5q0 157 135 276t322 119q62 0 124.5 -14.5t131.5 -44.5q24 65 74 101t116 36q64 0 102 -34t38 -91q0 -54 -29 -87.5t-74 -33.5q-29 0 -53.5 20t-49.5 64q-21 -2 -29.5 -9.5t-8.5 -25.5q0 -6 46 -74t46 -157q0 -178 -133 -288.5t-348 -110.5q-62 0 -100.5 8
t-71.5 26zM379 1460h75q11 -68 51 -99.5t115 -31.5q91 0 161 31t136 100h82q-93 -154 -186 -223.5t-205 -69.5q-115 0 -172 73.5t-57 219.5z" />
    <glyph glyph-name="Idotaccent" unicode="&#x130;" horiz-adv-x="721" 
d="M416 268q-1 -3 -3 -11q-14 -58 -14 -85q0 -22 44 -52.5t44 -66.5q0 -13 -2 -26t-6 -27h-583q1 52 17.5 79t57.5 42q40 14 60 39.5t37 95.5l233 922q1 4 3 11q13 53 13 77q0 37 -46 60t-46 52q0 13 3 29.5t10 38.5h585q-3 -54 -20.5 -81t-59.5 -42q-36 -14 -55 -38
t-37 -95zM471 1743q0 47 39.5 85.5t87.5 38.5q50 0 87.5 -37.5t37.5 -86.5q0 -54 -35.5 -89.5t-89.5 -35.5q-51 0 -89 36.5t-38 88.5z" />
    <glyph glyph-name="dotlessi" unicode="&#x131;" horiz-adv-x="631" 
d="M137 716l6 21q19 63 19 92q0 28 -38 55.5t-38 39.5q0 8 4.5 22t13.5 37h19q82 0 182.5 12.5t231.5 38.5l-201 -741q-12 -45 -17.5 -73t-5.5 -42q0 -23 15 -39t34 -16q14 0 34.5 8.5t56.5 30.5l30 -66q-56 -59 -127 -90t-151 -31q-101 0 -157 46.5t-56 130.5q0 23 10 68
t35 132z" />
    <glyph glyph-name="Lslash" unicode="&#x141;" horiz-adv-x="1214" 
d="M924 1006l-39 -154l-359 -207l-129 -522h236q134 0 197 27.5t92 93.5q4 10 12 28q44 107 127 107q9 0 21.5 -1t37.5 -4l-94 -374h-1116q2 54 18 79.5t58 41.5q38 14 58 39.5t38 95.5l70 276l-211 -120l32 149l215 119l127 497l2 6q15 56 15 83q0 37 -46 60t-46 52
q0 14 3 31t9 37h585q-3 -54 -20 -81t-59 -42q-37 -14 -56 -38t-36 -95l-101 -387z" />
    <glyph glyph-name="lslash" unicode="&#x142;" horiz-adv-x="659" 
d="M106 559l-176 -102l37 143l178 102l134 474l3 12q21 73 21 102q0 28 -38 54.5t-38 41.5q0 7 5 22.5t14 37.5h41q92 0 188.5 6t194.5 18l-178 -655l176 103l-39 -142l-178 -102l-105 -381q-9 -35 -14.5 -65.5t-5.5 -45.5q0 -24 14 -41.5t33 -17.5q14 0 37.5 10t54.5 29
l31 -66q-56 -59 -127.5 -90t-151.5 -31q-98 0 -156.5 45.5t-58.5 120.5q0 21 5.5 51.5t15.5 65.5z" />
    <glyph glyph-name="OE" unicode="&#x152;" horiz-adv-x="2038" 
d="M1331 1446h426q97 0 181.5 6t168.5 18l-100 -392q-12 -3 -23 -4t-24 -1q-75 0 -82 89q-2 34 -6 52q-15 63 -62 88t-165 25h-156l-129 -522h119q51 0 81.5 9t49.5 30q7 8 22 30q42 64 88 64q17 0 29 -1t25 -3l-103 -420q-14 -3 -25 -4.5t-20 -1.5q-54 0 -72 98
q-3 13 -4 19q-6 35 -29.5 53t-62.5 18h-127l-141 -573h233q133 0 197 28t94 95q6 13 16 37q39 96 121 96q13 0 49 -3q9 -1 13 -1l-94 -375h-795q-44 0 -171.5 -12.5t-209.5 -12.5q-270 0 -428 171t-158 462q0 145 48.5 283.5t142.5 259.5q122 159 287.5 240.5t365.5 81.5
q25 0 167.5 -13.5t262.5 -13.5zM1096 1125q2 9 7 29q17 64 17 91q0 65 -37 90t-133 25q-123 0 -216 -59t-171 -187q-80 -129 -128 -304.5t-48 -342.5q0 -188 75.5 -284.5t223.5 -96.5q86 0 132.5 47t84.5 203z" />
    <glyph glyph-name="oe" unicode="&#x153;" horiz-adv-x="1782" 
d="M836 80q-89 -54 -174 -79.5t-181 -25.5q-229 0 -360 125.5t-131 341.5q0 252 168 420t424 168q130 0 223.5 -38t177.5 -126q107 85 209.5 124.5t212.5 39.5q136 0 216.5 -61t80.5 -162q0 -169 -164.5 -266t-462.5 -103q-4 -22 -6 -45t-2 -49q0 -116 55 -181t154 -65
q60 0 118.5 32.5t145.5 117.5l66 -68q-104 -110 -208.5 -157.5t-242.5 -47.5q-108 0 -181 24.5t-138 80.5zM1094 539q166 2 280.5 92t114.5 207q0 39 -25 65.5t-61 26.5q-97 0 -186.5 -110.5t-122.5 -280.5zM639 926q-56 0 -112.5 -45t-106.5 -129q-60 -103 -94.5 -224
t-34.5 -227q0 -108 36 -164.5t105 -56.5q57 0 112 42.5t103 123.5q63 106 98 227t35 229q0 107 -37 165.5t-104 58.5z" />
    <glyph glyph-name="Scedilla" unicode="&#x15e;" horiz-adv-x="1233" 
d="M35 0h-98l90 393q6 0 16.5 1t13.5 1q84 0 119 -98v0q35 -104 104.5 -156.5t172.5 -52.5q116 0 193 66t77 165q0 128 -204 279q-69 50 -105 80q-114 92 -164.5 180t-50.5 191q0 186 134.5 303.5t348.5 117.5q111 0 215 -45t115 -45q15 0 34 9.5t46 31.5h108l-80 -354
q-7 -1 -15 -1.5t-22 -0.5q-44 0 -67 16.5t-37 59.5q-37 112 -91 158.5t-143 46.5q-90 0 -150 -55.5t-60 -137.5q0 -131 239 -304q42 -30 64 -46q128 -96 180.5 -181.5t52.5 -193.5q0 -196 -153.5 -324.5t-395.5 -128.5q-120 0 -247 37t-142 37q-25 0 -47 -10.5t-51 -38.5z
M164 -375l41 90q82 -43 135 -59t104 -16q46 0 70 22.5t24 65.5q0 39 -26.5 60.5t-75.5 21.5q-11 0 -30 -3t-60 -12l65 205h70l-35 -112q24 2 42.5 3.5t31.5 2.5q79 0 128.5 -47t49.5 -123q0 -85 -61 -133t-168 -48q-58 0 -125.5 18t-179.5 64z" />
    <glyph glyph-name="scedilla" unicode="&#x15f;" horiz-adv-x="973" 
d="M-68 217q0 80 38 120t114 40q62 0 98.5 -36t36.5 -97q0 -31 -16.5 -69t-16.5 -44q0 -22 34 -39.5t83 -17.5q75 0 125.5 43t50.5 106q0 54 -38 100t-146 113q-124 77 -166.5 137.5t-42.5 143.5q0 134 120 222.5t308 88.5q172 0 271.5 -56t99.5 -151q0 -58 -36.5 -93.5
t-96.5 -35.5q-54 0 -91.5 26.5t-37.5 59.5q0 12 4 41.5t4 46.5q0 40 -20 55t-76 15q-70 0 -109 -29.5t-39 -81.5q0 -75 154 -158q27 -14 41 -22q108 -62 160.5 -139t52.5 -174q0 -158 -129.5 -257.5t-339.5 -99.5q-177 0 -285.5 68t-108.5 174zM86 -375l41 90
q82 -43 135 -59t104 -16q46 0 70 22.5t24 65.5q0 39 -26.5 60.5t-75.5 21.5q-11 0 -30 -3t-60 -12l65 205h70l-35 -112q24 2 42.5 3.5t31.5 2.5q79 0 128.5 -47t49.5 -123q0 -85 -61 -133t-168 -48q-58 0 -125.5 18t-179.5 64z" />
    <glyph glyph-name="Scaron" unicode="&#x160;" horiz-adv-x="1233" 
d="M35 0h-98l90 393q6 0 16.5 1t13.5 1q84 0 119 -98v0q35 -104 104.5 -156.5t172.5 -52.5q116 0 193 66t77 165q0 128 -204 279q-69 50 -105 80q-114 92 -164.5 180t-50.5 191q0 186 134.5 303.5t348.5 117.5q111 0 215 -45t115 -45q15 0 34 9.5t46 31.5h108l-80 -354
q-7 -1 -15 -1.5t-22 -0.5q-44 0 -67 16.5t-37 59.5q-37 112 -91 158.5t-143 46.5q-90 0 -150 -55.5t-60 -137.5q0 -131 239 -304q42 -30 64 -46q128 -96 180.5 -181.5t52.5 -193.5q0 -196 -153.5 -324.5t-395.5 -128.5q-120 0 -247 37t-142 37q-25 0 -47 -10.5t-51 -38.5z
M592 1929h80l166 -180l246 180h104l-307 -350h-125z" />
    <glyph glyph-name="scaron" unicode="&#x161;" horiz-adv-x="973" 
d="M-68 217q0 80 38 120t114 40q62 0 98.5 -36t36.5 -97q0 -31 -16.5 -69t-16.5 -44q0 -22 34 -39.5t83 -17.5q75 0 125.5 43t50.5 106q0 54 -38 100t-146 113q-124 77 -166.5 137.5t-42.5 143.5q0 134 120 222.5t308 88.5q172 0 271.5 -56t99.5 -151q0 -58 -36.5 -93.5
t-96.5 -35.5q-54 0 -91.5 26.5t-37.5 59.5q0 12 4 41.5t4 46.5q0 40 -20 55t-76 15q-70 0 -109 -29.5t-39 -81.5q0 -75 154 -158q27 -14 41 -22q108 -62 160.5 -139t52.5 -174q0 -158 -129.5 -257.5t-339.5 -99.5q-177 0 -285.5 68t-108.5 174zM319 1489h80l166 -180
l246 180h104l-307 -350h-125z" />
    <glyph glyph-name="Ydieresis" unicode="&#x178;" horiz-adv-x="1237" 
d="M651 268q-1 -4 -2 -10q-14 -59 -14 -86q0 -22 44 -52.5t44 -66.5q0 -13 -2 -26t-6 -27h-585q1 52 18 78.5t59 42.5q39 14 59 39.5t37 95.5l88 348l-141 567q-14 54 -29 90t-30 51q-11 12 -45.5 30t-34.5 36q0 10 5 27.5t15 40.5h553q1 -6 1.5 -13.5t0.5 -21.5
q0 -25 -6.5 -39.5t-21.5 -23.5q-11 -8 -37 -14q-58 -14 -58 -72q0 -27 15 -75q5 -16 8 -26l108 -405l328 407q43 54 56.5 77t13.5 40q0 39 -37 55.5t-37 26.5q0 15 3 35t9 49h387v-16q0 -46 -16 -70.5t-76 -50.5q-44 -19 -171 -180q-19 -24 -30 -37l-391 -492zM916 1743
q0 46 36 82t82 36q50 0 85.5 -35t35.5 -83q0 -54 -34 -88.5t-87 -34.5q-48 0 -83 35.5t-35 87.5zM555 1743q0 46 36.5 82t82.5 36q50 0 85.5 -35t35.5 -83q0 -54 -34.5 -88.5t-86.5 -34.5q-49 0 -84 35.5t-35 87.5z" />
    <glyph glyph-name="Zcaron" unicode="&#x17d;" horiz-adv-x="1241" 
d="M-86 0l43 150l932 1175h-266q-101 0 -152 -24t-96 -95q-14 -20 -34 -58q-45 -83 -97 -83q-13 0 -44 7q-4 1 -5 1l106 397q42 -12 82 -18t80 -6h844l-31 -121l-950 -1196h219q140 0 208 21t121 73q33 31 68 91q11 18 16 25q21 33 37.5 43.5t40.5 10.5q12 0 25.5 -2
t27.5 -6l-104 -385h-1071zM596 1929h80l166 -180l246 180h104l-307 -350h-125z" />
    <glyph glyph-name="zcaron" unicode="&#x17e;" horiz-adv-x="1085" 
d="M-131 -18v30l805 770q-65 -29 -116.5 -43t-92.5 -14q-35 0 -109 18.5t-112 18.5q-52 0 -86 -20.5t-62 -67.5l-71 22q30 153 124 234.5t240 81.5q57 0 178 -28t191 -28q57 0 120.5 17.5t143.5 54.5v-49l-838 -815q70 51 141 77.5t140 26.5q84 0 174 -61.5t125 -61.5
q15 0 26 12t11 29q0 24 -38 32.5t-56 21.5q-24 17 -37 45t-13 63q0 61 35 96t96 35q69 0 109.5 -45t40.5 -123q0 -139 -105.5 -237.5t-259.5 -98.5q-78 0 -218 37t-203 37q-61 0 -130 -16.5t-153 -50.5zM375 1489h80l166 -180l246 180h104l-307 -350h-125z" />
    <glyph glyph-name="florin" unicode="&#x192;" horiz-adv-x="1147" 
d="M893 702h-184q-86 -742 -195.5 -954.5t-335.5 -212.5q-110 0 -179 51.5t-69 132.5q0 56 35 91.5t88 35.5q40 0 70.5 -19.5t42.5 -53.5q2 -6 5 -21q11 -61 46 -61q48 0 77 355t79 656h-168l26 142h179q64 348 166.5 487t285.5 139q110 0 179 -51.5t69 -132.5
q0 -55 -34.5 -91t-88.5 -36q-42 0 -74.5 23t-42.5 59q-7 35 -16 47t-23 12q-43 0 -90 -391q-5 -42 -8 -65h182z" />
    <glyph glyph-name="circumflex" unicode="&#x2c6;" 
d="M858 1139h-82l-166 180l-245 -180h-105l307 348h127z" />
    <glyph glyph-name="caron" unicode="&#x2c7;" 
d="M344 1489h80l166 -180l246 180h104l-307 -350h-125z" />
    <glyph glyph-name="breve" unicode="&#x2d8;" 
d="M328 1460h75q11 -68 51 -99.5t115 -31.5q91 0 161 31t136 100h82q-93 -154 -186 -223.5t-205 -69.5q-115 0 -172 73.5t-57 219.5z" />
    <glyph glyph-name="dotaccent" unicode="&#x2d9;" 
d="M479 1303q0 47 39.5 85.5t87.5 38.5q50 0 87.5 -37.5t37.5 -86.5q0 -54 -35.5 -89.5t-89.5 -35.5q-51 0 -89 36.5t-38 88.5z" />
    <glyph glyph-name="ring" unicode="&#x2da;" 
d="M477 1372q0 -58 42 -99.5t102 -41.5q58 0 99.5 41.5t41.5 99.5q0 60 -41.5 102t-99.5 42q-60 0 -102 -42t-42 -102zM367 1372q0 106 74 180t180 74q105 0 178 -73.5t73 -180.5q0 -106 -72.5 -179t-178.5 -73q-107 0 -180.5 73.5t-73.5 178.5z" />
    <glyph glyph-name="ogonek" unicode="&#x2db;" 
d="M461 29q-91 -73 -131.5 -136t-40.5 -129q0 -53 24.5 -82.5t67.5 -29.5q36 0 64 17t53 55l32 -19q-41 -84 -99 -124t-140 -40q-64 0 -107 43.5t-43 108.5q0 83 68 168t201 168h51z" />
    <glyph glyph-name="tilde" unicode="&#x2dc;" 
d="M893 1446q-20 -114 -71 -175t-126 -61q-14 0 -29 2.5t-28 6.5l-106 26q-11 3 -21.5 4.5t-28.5 1.5q-39 0 -62.5 -21.5t-37.5 -70.5h-66q19 117 72.5 180.5t132.5 63.5q12 0 25 -2t28 -6l89 -23q25 -6 38.5 -8t22.5 -2q43 0 67.5 20t34.5 64h66z" />
    <glyph glyph-name="hungarumlaut" unicode="&#x2dd;" 
d="M829 1415q30 42 59 63t58 21q34 0 57 -24t23 -58q0 -19 -16 -42t-47 -48l-244 -188h-90zM518 1405q25 45 54.5 69.5t58.5 24.5q34 0 57 -22t23 -54q0 -19 -13.5 -43t-38.5 -47l-200 -194h-88z" />
    <glyph glyph-name="Omega" unicode="&#x3a9;" horiz-adv-x="1581" 
d="M1153 297v-14h283l37 120h81l-120 -403h-545q85 207 128.5 423.5t43.5 430.5q0 278 -66.5 413.5t-201.5 135.5q-136 0 -203.5 -137t-67.5 -410q0 -211 43.5 -428t128.5 -428h-544l-121 403h82l36 -120h283v14q-170 66 -264 208.5t-94 334.5q0 281 205 469t516 188
q309 0 514.5 -189t205.5 -470q0 -189 -95 -332t-265 -209z" />
    <glyph glyph-name="pi" unicode="&#x3c0;" horiz-adv-x="1513" 
d="M1481 885l-68 -320h-358v-49v-70q0 -53 6 -147.5t6 -136.5q0 -102 -38.5 -154.5t-113.5 -52.5q-60 0 -93.5 33t-33.5 94q0 70 66 228.5t92 254.5h-377q0 -9 -1 -25t-1 -24v-70q0 -51 6.5 -145.5t6.5 -138.5q0 -102 -38.5 -154.5t-113.5 -52.5q-61 0 -94 33t-33 94
q0 66 66.5 224t93.5 259h-207q-90 0 -126 -26t-52 -97h-72q48 251 144.5 347t302.5 96h1030z" />
    <glyph glyph-name="endash" unicode="&#x2013;" 
d="M-111 416l54 172h1040l-53 -172h-1041z" />
    <glyph glyph-name="emdash" unicode="&#x2014;" horiz-adv-x="2048" 
d="M2001 588l-53 -172h-2048l53 172h2048z" />
    <glyph glyph-name="quoteleft" unicode="&#x2018;" horiz-adv-x="573" 
d="M356 1174h4q81 0 129 -48t48 -129q0 -77 -47.5 -126.5t-120.5 -49.5q-82 0 -134.5 57t-52.5 146q0 129 91.5 244t263.5 202l47 -81q-106 -53 -159.5 -104t-68.5 -111z" />
    <glyph glyph-name="quoteright" unicode="&#x2019;" horiz-adv-x="573" 
d="M416 1116h-4q-81 0 -128.5 48t-47.5 128q0 78 47 128t120 50q81 0 134 -57.5t53 -146.5q0 -128 -91 -242.5t-263 -202.5l-48 80q106 53 159.5 104t68.5 111z" />
    <glyph glyph-name="quotesinglbase" unicode="&#x201a;" horiz-adv-x="573" 
d="M182 2h-4q-81 0 -128.5 48t-47.5 128q0 77 47 126.5t121 49.5q81 0 133.5 -56.5t52.5 -145.5q0 -129 -91 -244.5t-263 -202.5l-47 82q106 53 159.5 104t67.5 111z" />
    <glyph glyph-name="quotedblleft" unicode="&#x201c;" horiz-adv-x="1087" 
d="M868 1174h4q81 0 129 -48t48 -129q0 -77 -47.5 -126.5t-120.5 -49.5q-82 0 -134.5 57t-52.5 146q0 129 91.5 244t263.5 202l47 -81q-106 -53 -159.5 -104t-68.5 -111zM356 1174h4q81 0 129 -48t48 -129q0 -77 -47.5 -126.5t-120.5 -49.5q-82 0 -134.5 57t-52.5 146
q0 129 91.5 244t263.5 202l47 -81q-106 -53 -159.5 -104t-68.5 -111z" />
    <glyph glyph-name="quotedblright" unicode="&#x201d;" horiz-adv-x="1087" 
d="M416 1116h-4q-81 0 -128.5 48t-47.5 128q0 77 47 126.5t120 49.5q82 0 134.5 -56.5t52.5 -145.5q0 -129 -91.5 -244.5t-262.5 -202.5l-48 82q106 53 159.5 104t68.5 111zM928 1116h-4q-81 0 -128.5 48t-47.5 128q0 77 47 126.5t120 49.5q82 0 134.5 -56.5t52.5 -145.5
q0 -129 -91.5 -244.5t-262.5 -202.5l-48 82q106 53 159.5 104t68.5 111z" />
    <glyph glyph-name="quotedblbase" unicode="&#x201e;" horiz-adv-x="1087" 
d="M694 2h-4q-81 0 -128.5 48t-47.5 128q0 77 47 126.5t121 49.5q81 0 133.5 -56.5t52.5 -145.5q0 -129 -91 -243t-263 -202l-47 80q106 53 159.5 104t67.5 111zM182 2h-4q-81 0 -128.5 48t-47.5 128q0 77 47 126.5t121 49.5q81 0 133.5 -56.5t52.5 -145.5q0 -129 -91 -243
t-263 -202l-47 80q106 53 159.5 104t67.5 111z" />
    <glyph glyph-name="dagger" unicode="&#x2020;" 
d="M264 -256q47 244 72.5 445t25.5 317q0 36 -0.5 60.5t-0.5 48.5q67 78 110 167t59 187q-64 -2 -147 -43t-119 -41q-51 0 -84 30t-33 78q0 51 28.5 81t74.5 30q43 0 137 -38.5t153 -43.5q8 37 11.5 72.5t3.5 70.5q0 49 -9 117t-9 88q0 46 27 73t73 27q57 0 88 -24t31 -68
q0 -45 -69 -153.5t-84 -204.5q71 5 159 44.5t119 39.5q47 0 77.5 -31.5t30.5 -79.5t-26.5 -78t-69.5 -30q-31 0 -124.5 41t-172.5 41l-6 -1q-5 -46 -7.5 -83t-2.5 -68q0 -63 9 -110t29 -89q-79 -157 -143.5 -345.5t-146.5 -526.5h-64z" />
    <glyph glyph-name="daggerdbl" unicode="&#x2021;" 
d="M340 614q68 79 110.5 168t59.5 186q-63 0 -147 -41.5t-119 -41.5q-52 0 -84.5 30t-32.5 78q0 51 28 81t74 30q44 0 138.5 -38.5t152.5 -43.5q7 36 11 72t4 71q0 49 -10.5 117t-10.5 88q0 46 27 73t73 27q57 0 88 -24t31 -68q0 -45 -68.5 -153.5t-84.5 -204.5q70 4 159 44
t119 40q47 0 78 -31.5t31 -79.5q0 -49 -25.5 -78.5t-69.5 -29.5q-31 0 -124.5 41t-172.5 41l-6 -1q-5 -47 -7.5 -84t-2.5 -67q0 -63 9.5 -110t29.5 -89q-75 -101 -117 -189t-55 -173q63 1 147 42.5t119 41.5q52 0 84.5 -30t32.5 -79q0 -50 -28 -80t-74 -30q-44 0 -138 38.5
t-153 43.5q-7 -36 -11 -72t-4 -72q0 -49 10.5 -117t10.5 -87q0 -46 -28 -73.5t-75 -27.5q-56 0 -87 24t-31 68q0 46 69.5 154.5t85.5 203.5q-71 -4 -160.5 -43.5t-119.5 -39.5q-47 0 -77 31t-30 79q0 50 25.5 79.5t68.5 29.5q31 0 125 -41t172 -41h6q6 53 8.5 88t2.5 59
q0 61 -9 112.5t-28 98.5z" />
    <glyph glyph-name="bullet" unicode="&#x2022;" horiz-adv-x="1208" 
d="M307 762q0 123 87 209t210 86q122 0 208.5 -86.5t86.5 -208.5t-87.5 -209.5t-209.5 -87.5q-123 0 -209 87t-86 210z" />
    <glyph glyph-name="ellipsis" unicode="&#x2026;" horiz-adv-x="2048" 
d="M49 166q0 78 55 133t133 55q79 0 135 -55t56 -133t-56.5 -134.5t-134.5 -56.5t-133 56t-55 135zM731 166q0 78 55 133t133 55q79 0 135 -55t56 -133t-56.5 -134.5t-134.5 -56.5t-133 56t-55 135zM1415 166q0 78 55 133t133 55q79 0 135 -55t56 -133t-56.5 -134.5
t-134.5 -56.5t-133 56t-55 135z" />
    <glyph glyph-name="perthousand" unicode="&#x2030;" horiz-adv-x="2398" 
d="M1835 137q0 -50 14 -72t45 -22q36 0 67 44t64 142q41 121 66 256.5t25 214.5q0 53 -14 76t-46 23q-33 0 -64 -45t-65 -146q-41 -122 -66.5 -258.5t-25.5 -212.5zM1898 -25q-117 0 -186.5 91.5t-69.5 246.5q0 218 124.5 385.5t279.5 167.5q118 0 190 -92.5t72 -243.5
q0 -222 -125 -388.5t-285 -166.5zM1073 137q0 -50 14 -72t46 -22q35 0 66 44t65 142q40 121 65 256.5t25 214.5q0 53 -14 76t-46 23q-34 0 -65.5 -46t-65.5 -145q-40 -120 -65 -256t-25 -215zM1139 -25q-119 0 -188.5 91.5t-69.5 246.5q0 218 125 385.5t280 167.5
q117 0 188.5 -92t71.5 -244q0 -222 -124 -388.5t-283 -166.5zM467 -25h-143l825 1495h143zM258 735q0 -50 14 -72t45 -22q36 0 67 44.5t65 143.5q40 121 65 256t25 213q0 53 -14 76t-46 23q-34 0 -66 -46t-65 -145q-40 -120 -65 -256t-25 -215zM324 573q-119 0 -188.5 91.5
t-69.5 246.5q0 218 125 385.5t280 167.5q118 0 189 -91.5t71 -242.5q0 -222 -124.5 -389.5t-282.5 -167.5z" />
    <glyph glyph-name="guilsinglleft" unicode="&#x2039;" horiz-adv-x="682" 
d="M45 502q187 114 359 251.5t188 137.5q10 0 14 -5t4 -20q0 -47 -76.5 -144t-218.5 -230q71 -119 115.5 -222t44.5 -137q0 -9 -5 -13.5t-15 -4.5q-22 0 -156.5 139t-253.5 248z" />
    <glyph glyph-name="guilsinglright" unicode="&#x203a;" horiz-adv-x="682" 
d="M479 502q-187 -114 -359 -250.5t-188 -136.5q-10 0 -14 4t-4 18q0 48 77 147t216 230q-70 117 -114 220t-44 138q0 9 5.5 14t15.5 5q21 0 155 -140t254 -249z" />
    <glyph glyph-name="franc" unicode="&#x20a3;" horiz-adv-x="2013" 
d="M416 269q-2 -7 -4 -18q-13 -55 -13 -79q0 -22 44 -52.5t44 -66.5q0 -13 -2 -26t-6 -27h-583q1 52 17.5 79t57.5 42q40 14 60 39.5t37 95.5l233 922q1 4 3 11q13 53 13 77q0 37 -46 60t-46 52q0 13 3 29.5t10 38.5h755q104 0 174.5 10.5t137.5 32.5l-103 -412
q-12 -2 -23 -3t-24 -1q-75 0 -81 88q-3 35 -7 53q-14 63 -61 88t-168 25h-154l-131 -522h121q49 0 79.5 9t49.5 30q7 8 22 29q43 65 88 65q18 0 30.5 -1t25.5 -3l-105 -420q-12 -3 -22.5 -4.5t-20.5 -1.5q-32 0 -48.5 20t-24.5 72q-10 59 -30.5 77.5t-64.5 18.5h-127z
M1356 0h-297q95 337 136.5 505.5t41.5 215.5q0 78 -57 95q-11 4 -14 5q-22 9 -32 28.5t-10 51.5v18q103 10 190.5 35.5t170.5 69.5h40q2 -23 2.5 -49t0.5 -74q0 -93 -4.5 -150t-14.5 -112q97 202 186 296.5t181 94.5q69 0 113 -42t44 -109q0 -81 -48 -132t-126 -51
q-47 0 -87.5 35t-49.5 35q-57 0 -154.5 -202.5t-211.5 -563.5z" />
    <glyph glyph-name="trademark" unicode="&#x2122;" horiz-adv-x="1683" 
d="M745 1460h222l127 -356l123 356h206v-26l-22 -7q-19 -4 -27 -15t-8 -34v-383q0 -22 8 -33t27 -16l22 -6v-33h-260v33l30 6q18 3 27 15.5t9 33.5v355l-148 -445h-43l-166 457v-367q0 -22 9 -34t27 -15l34 -6v-33h-197v33l35 6q18 4 26.5 16t8.5 33v375q0 21 -9 33.5
t-25 15.5l-36 6v35zM229 1460h457l12 -198h-36q-7 79 -38 116t-92 37v-420q0 -21 8 -33.5t24 -15.5l30 -6v-33h-272v33l30 6q15 3 23 15.5t8 33.5v420h-4q-58 0 -89.5 -38t-37.5 -115h-35z" />
    <glyph glyph-name="partialdiff" unicode="&#x2202;" horiz-adv-x="1114" 
d="M766 684q21 113 32 206t11 150q0 87 -29.5 148t-68.5 61q-35 0 -132 -93t-180 -93q-48 0 -80 33.5t-32 83.5q0 69 93 125.5t220 56.5q210 0 332.5 -161t122.5 -441q0 -344 -162.5 -564.5t-417.5 -220.5q-182 0 -299 116.5t-117 299.5q0 203 119.5 336t298.5 133
q101 0 170.5 -42.5t118.5 -133.5zM698 532q0 114 -36.5 176t-104.5 62q-96 0 -160.5 -136.5t-64.5 -346.5q0 -116 36.5 -176t106.5 -60q97 0 160 135.5t63 345.5z" />
    <glyph glyph-name="Delta" unicode="&#x2206;" horiz-adv-x="1346" 
d="M528 1085l-356 -751h713zM639 1497h76l712 -1497h-1509z" />
    <glyph glyph-name="product" unicode="&#x220f;" horiz-adv-x="1774" 
d="M43 1473h1681v-91h-192v-1685h192v-90h-753v90h168v1685h-512v-1685h170v-90h-754v90h193v1685h-193v91z" />
    <glyph glyph-name="summation" unicode="&#x2211;" horiz-adv-x="1585" 
d="M27 1473h1276l153 -463h-92l-102 262q-25 62 -74 86t-201 24h-485l590 -757v-41l-689 -652h885q41 0 58 13.5t28 49.5l70 230h94l-188 -618h-1325v88l766 725l-764 981v72z" />
    <glyph glyph-name="minus" unicode="&#x2212;" horiz-adv-x="1706" 
d="M254 729h1198v-235h-1198v235z" />
    <glyph glyph-name="fraction" unicode="&#x2215;" horiz-adv-x="342" 
d="M-342 -25l883 1495h141l-881 -1495h-143z" />
    <glyph glyph-name="periodcentered" unicode="&#x2219;" horiz-adv-x="573" 
d="M88 723q0 78 55 133t133 55q79 0 135 -55t56 -133t-56.5 -134.5t-134.5 -56.5q-77 0 -132.5 56t-55.5 135z" />
    <glyph glyph-name="radical" unicode="&#x221a;" horiz-adv-x="1366" 
d="M1155 1714h215v-149h-96l-590 -1606h-119l-307 846l-145 -55l-37 129l360 127l223 -635z" />
    <glyph glyph-name="infinity" unicode="&#x221e;" horiz-adv-x="1706" 
d="M956 561q44 -68 103.5 -103.5t130.5 -35.5q89 0 146 52t57 132q0 77 -52 129.5t-127 52.5q-71 0 -130 -51t-128 -176zM752 657q-43 68 -101.5 102t-132.5 34q-90 0 -146.5 -51t-56.5 -130q0 -78 51.5 -131t127.5 -53q69 0 130 53.5t128 175.5zM856 442
q-68 -130 -147.5 -193t-176.5 -63q-139 0 -238 121.5t-99 300.5q0 188 87.5 305t227.5 117q90 0 166.5 -56.5t175.5 -199.5q70 131 149 193.5t175 62.5q140 0 238.5 -120.5t98.5 -299.5q0 -189 -87.5 -306.5t-227.5 -117.5q-91 0 -166 55t-176 201z" />
    <glyph glyph-name="integral" unicode="&#x222b;" horiz-adv-x="1249" 
d="M362 -248q99 0 119 667q3 101 4 154q17 523 130.5 753t349.5 230q105 0 170 -53t65 -137q0 -64 -41 -103.5t-106 -39.5q-64 0 -96.5 38.5t-32.5 112.5q0 38 -7.5 49t-25.5 11q-101 0 -124 -667q-2 -60 -3 -91q-11 -329 -30.5 -472.5t-57.5 -244.5q-62 -166 -159.5 -249
t-229.5 -83q-107 0 -171.5 52t-64.5 139q0 65 42 104t112 39q60 0 92.5 -36t32.5 -103q0 -12 -2 -24v-3q0 -24 8 -33.5t26 -9.5z" />
    <glyph glyph-name="approxequal" unicode="&#x2248;" horiz-adv-x="1706" 
d="M1530 602v-254q-105 -71 -196 -104t-181 -33t-283 65.5t-309 65.5q-82 0 -172.5 -37t-210.5 -121v254q111 74 209 109t195 35q115 0 304.5 -65.5t272.5 -65.5t170 35t201 116zM1530 1036v-254q-107 -70 -197 -102.5t-178 -32.5q-91 0 -284 64.5t-310 64.5q-84 0 -172 -36
t-211 -122v256q112 74 209 108t195 34q115 0 304.5 -65.5t272.5 -65.5t170.5 35.5t200.5 115.5z" />
    <glyph glyph-name="notequal" unicode="&#x2260;" horiz-adv-x="1706" 
d="M1194 1251l168 -137l-135 -168h225v-221h-377l-180 -227h557v-222h-704l-246 -307l-170 137l135 170h-213v222h360l183 227h-543v221h694z" />
    <glyph glyph-name="lessequal" unicode="&#x2264;" horiz-adv-x="1706" 
d="M256 213h1196v-229h-1196v229zM1450 1257v-239l-776 -240l776 -239v-240l-1194 379v201z" />
    <glyph glyph-name="greaterequal" unicode="&#x2265;" horiz-adv-x="1706" 
d="M256 213h1196v-229h-1196v229zM256 1257l1194 -378v-201l-1194 -379v240l778 239l-778 240v239z" />
    <glyph glyph-name="lozenge" unicode="&#x25ca;" horiz-adv-x="1012" 
d="M506 1409l-385 -817l385 -825l385 825zM506 1653l500 -1061l-500 -1069l-500 1069z" />
    <glyph glyph-name="apple" unicode="&#xf000;" horiz-adv-x="1618" 
d="M836 1216q-1 6 -1.5 14t-0.5 23q0 124 95 229.5t236 131.5q1 -10 1.5 -23t0.5 -39q0 -131 -103.5 -234.5t-203.5 -103.5h-8q-3 0 -7.5 1t-8.5 1zM1505 403q-114 -247 -205 -342.5t-204 -95.5q-50 0 -131.5 33t-122.5 33q-45 0 -131 -33t-127 -33q-64 0 -128.5 44
t-129.5 132q-102 140 -157.5 295.5t-55.5 300.5q0 219 125 356.5t323 137.5q68 0 155 -34t124 -34q34 0 121.5 34t152.5 34q111 0 199 -39.5t160 -122.5q-102 -65 -151.5 -145.5t-49.5 -182.5q0 -113 60 -200t173 -138z" />
    <glyph glyph-name="fi" unicode="&#xf001;" horiz-adv-x="1229" 
d="M745 743q2 7 7 22q14 49 14 71q0 34 -19.5 49.5t-62.5 15.5h-180l-244 -901h-321l241 901l-94 1q3 38 16 62.5t41 43.5l20 10q65 31 101 90q7 10 54 101.5t104 146.5q72 69 164 101t223 32q170 0 272.5 -66t102.5 -172q0 -69 -43 -114t-109 -45q-76 0 -119 36t-43 101
q0 20 9.5 55t9.5 53q0 23 -27.5 37.5t-73.5 14.5q-91 0 -148.5 -85.5t-102.5 -297.5h591l-196 -727q-11 -41 -16 -65t-5 -38q0 -25 14 -39t38 -14q13 0 33.5 8.5t56.5 30.5l30 -66q-56 -59 -127 -90t-151 -31q-101 0 -158 47t-57 130q0 16 5 43t15 63z" />
    <glyph glyph-name="fl" unicode="&#xf002;" horiz-adv-x="1229" 
d="M535 1006h194l-29 -105h-198l-242 -901h-321l239 901h-94q5 42 18 66.5t40 40.5q5 3 19 9q59 25 93 105q4 10 13 31q58 139 122 203q65 64 164.5 98.5t222.5 34.5q41 0 94 -5.5t127 -17.5l265 23l-328 -1196q-10 -34 -14.5 -60.5t-4.5 -48.5q0 -29 13 -45t37 -16
q12 0 30.5 8t57.5 31l30 -66q-56 -59 -127 -90t-151 -31q-101 0 -158 47t-57 130q0 16 5 43t15 63l256 928q-18 25 -26.5 46t-8.5 42t16.5 48t16.5 32q0 15 -23 29t-53 14q-86 0 -142.5 -85t-110.5 -306z" />
    </font>
</defs>
</svg>
