<?xml version="1.0" standalone="no"?>
<!DOCTYPE svg PUBLIC "-//W3C//DTD SVG 1.1//EN" "http://www.w3.org/Graphics/SVG/1.1/DTD/svg11.dtd" >
<svg xmlns="http://www.w3.org/2000/svg" xmlns:xlink="http://www.w3.org/1999/xlink" version="1.1">
<metadata>
Created by FontForge 20170731 at Mon Dec 14 01:57:27 1998
 By Aleksey,,,
Copyright 1990-1998 Bitstream Inc.  All rights reserved.
</metadata>
<defs>
<font id="CheltenhamITCbyBT-BookItalic" horiz-adv-x="1024" >
  <font-face 
    font-family="ChelthmITC Bk BT"
    font-weight="400"
    font-style="italic"
    font-stretch="normal"
    units-per-em="2048"
    panose-1="2 4 6 3 5 5 5 9 4 4"
    ascent="1556"
    descent="-492"
    x-height="1020"
    cap-height="1446"
    bbox="-383 -483 2214 1972"
    underline-thickness="147"
    underline-position="-424"
    slope="-14"
    unicode-range="U+0020-F002"
  />
<missing-glyph horiz-adv-x="1229" 
d="M102 -362v1806h1024v-1806h-1024zM217 -248h795v1577h-795v-1577z" />
    <glyph glyph-name=".notdef" horiz-adv-x="1229" 
d="M102 -362v1806h1024v-1806h-1024zM217 -248h795v1577h-795v-1577z" />
    <glyph glyph-name=".null" horiz-adv-x="0" 
 />
    <glyph glyph-name="nonmarkingreturn" horiz-adv-x="528" 
 />
    <glyph glyph-name="space" unicode=" " horiz-adv-x="528" 
 />
    <glyph glyph-name="exclam" unicode="!" horiz-adv-x="604" 
d="M137 352l166 856q28 138 67 199t99 61q41 0 63.5 -26t22.5 -74q0 -29 -15.5 -86t-45.5 -141l-293 -789h-64zM111 -25q-48 0 -73.5 28.5t-25.5 80.5q0 56 35 95.5t84 39.5q45 0 72.5 -30.5t27.5 -79.5q0 -57 -34.5 -95.5t-85.5 -38.5z" />
    <glyph glyph-name="quotedbl" unicode="&#x22;" horiz-adv-x="686" 
d="M526 860h-34l-70 459q-1 7 -1.5 14.5t-0.5 22.5q0 51 22.5 78.5t65.5 27.5q42 0 66 -27t24 -75q0 -16 -0.5 -24.5t-1.5 -16.5zM195 860h-35l-70 459q-2 17 -3 26t-1 15q0 48 24 75t66 27q44 0 67 -27.5t23 -78.5q0 -16 -0.5 -23.5t-1.5 -14.5z" />
    <glyph glyph-name="numbersign" unicode="#" horiz-adv-x="1575" 
d="M702 864l-98 -276h283l96 276h-281zM760 1458h155l-161 -454h276l162 454h156l-162 -454h301l-49 -140h-301l-97 -276h320l-49 -139h-320l-162 -453h-155l162 453h-279l-162 -453h-153l159 453h-313l51 139h312l98 276h-336l51 140h334z" />
    <glyph glyph-name="dollar" unicode="$" horiz-adv-x="1057" 
d="M504 926l121 454q-102 -19 -160.5 -86t-58.5 -161q0 -55 24 -106.5t74 -100.5zM367 76q132 18 217.5 108t85.5 209q0 72 -38 136.5t-114 121.5zM766 1581l-35 -129q108 -14 175 -66.5t67 -119.5q0 -48 -25 -73.5t-71 -25.5q-37 0 -63 22t-26 52q0 18 12.5 47t12.5 39
q0 21 -26 38t-72 26l-142 -531q144 -117 208.5 -218.5t64.5 -207.5q0 -175 -141.5 -300.5t-358.5 -135.5l-45 -170h-86l45 172q-139 30 -208.5 95.5t-69.5 164.5q0 65 31.5 105.5t82.5 40.5q42 0 64 -25t22 -72q0 -31 -26.5 -67.5t-26.5 -51.5q0 -40 37.5 -67.5t114.5 -44.5
l168 639q-104 93 -155.5 185.5t-51.5 184.5q0 155 113 259t290 110l33 125h88z" />
    <glyph glyph-name="percent" unicode="%" horiz-adv-x="1569" 
d="M301 565q-106 0 -167.5 83.5t-61.5 230.5q0 134 44 258.5t126 218.5q53 62 111 93.5t120 31.5q110 0 171 -80.5t61 -226.5q0 -133 -50 -268t-135 -234q-42 -50 -100 -78.5t-119 -28.5zM223 782q0 -73 24.5 -117t63.5 -44q32 0 64.5 25t54.5 67q25 49 47 120t41 166
q17 84 26 153t9 116q0 76 -23.5 116.5t-66.5 40.5q-36 0 -70 -29t-59 -81q-48 -98 -79.5 -248t-31.5 -285zM414 -25h-107l828 1495h112zM1247 891q106 0 168 -83.5t62 -229.5q0 -134 -44.5 -258t-125.5 -218q-54 -63 -112.5 -95t-119.5 -32q-110 0 -170.5 80.5t-60.5 227.5
q0 134 49 270t133 233q42 50 100.5 77.5t120.5 27.5zM1325 674q0 73 -25 117.5t-65 44.5q-31 0 -63 -25t-54 -68q-26 -51 -49 -123.5t-41 -162.5q-16 -79 -24.5 -148t-8.5 -121q0 -76 23.5 -116.5t66.5 -40.5q36 0 70.5 29t58.5 81q48 98 79.5 248t31.5 285z" />
    <glyph glyph-name="ampersand" unicode="&#x26;" horiz-adv-x="1485" 
d="M731 897q188 47 272 124t84 200q0 69 -45 115t-114 46q-105 0 -173.5 -75t-68.5 -193q0 -37 11 -89.5t34 -127.5zM819 162q-64 92 -133 244.5t-137 351.5q-140 -43 -216.5 -134t-76.5 -214q0 -142 92 -235t234 -93q68 0 126.5 19.5t110.5 60.5zM870 90
q-76 -58 -163 -86.5t-191 -28.5q-205 0 -337 115t-132 289q0 159 126 281.5t351 181.5q-17 57 -26 109.5t-9 103.5q0 182 113.5 298.5t290.5 116.5q151 0 241.5 -71.5t90.5 -188.5q0 -137 -121.5 -238t-353.5 -157q52 -163 108 -299t113 -240q66 86 105.5 170.5t39.5 133.5
q0 28 -7.5 45t-33.5 32l-18 13q-13 11 -19 23.5t-6 27.5q0 7 1.5 16.5t4.5 19.5h320q1 -4 1.5 -8.5t0.5 -13.5q0 -26 -13.5 -42.5t-52.5 -33.5q-37 -15 -53.5 -30t-26.5 -38q-4 -11 -15 -45q-65 -198 -179 -337q24 -57 62.5 -86t88.5 -29q23 0 52.5 10.5t70.5 32.5
q11 -12 17 -23.5t6 -19.5q0 -49 -61 -84t-154 -35q-75 0 -131.5 28.5t-100.5 86.5z" />
    <glyph glyph-name="quotesingle" unicode="'" horiz-adv-x="352" 
d="M195 860h-35l-70 459q0 2 -1 8q-3 20 -3 29q0 50 23.5 78t66.5 28q42 0 66 -27t24 -75q0 -7 -0.5 -15t-3.5 -27z" />
    <glyph glyph-name="parenleft" unicode="(" horiz-adv-x="829" 
d="M485 -301h-24q-182 0 -280.5 134.5t-98.5 383.5q0 172 27 333.5t81 317.5q55 156 126.5 285t158.5 227q94 107 204.5 157t250.5 50h26l-16 -63q-149 -15 -262.5 -119.5t-210.5 -314.5q-50 -110 -92.5 -241t-77.5 -286q-30 -129 -43.5 -235.5t-13.5 -202.5
q0 -171 66 -264.5t186 -93.5h10z" />
    <glyph glyph-name="parenright" unicode=")" horiz-adv-x="829" 
d="M303 1587h25q182 0 280.5 -134.5t98.5 -383.5q0 -168 -28 -330t-83 -321t-126 -287.5t-157 -224.5q-94 -107 -204.5 -157t-249.5 -50h-27l16 63q150 15 263.5 119.5t210.5 315.5q48 105 89.5 234.5t77.5 291.5q32 136 46 240.5t14 197.5q0 171 -66.5 265t-185.5 94h-10z
" />
    <glyph glyph-name="asterisk" unicode="*" 
d="M608 1026v-14q0 -77 38 -167t38 -114q0 -42 -24 -67t-66 -25q-43 0 -67.5 23.5t-24.5 64.5q0 28 36.5 115.5t36.5 163.5v24q-33 -16 -62.5 -42.5t-72.5 -82.5l-7 -9q-72 -95 -126 -95q-36 0 -63 26.5t-27 63.5q0 47 35.5 71.5t113.5 30.5q67 5 114 20.5t79 43.5
q-67 47 -193 58q-23 2 -34 3q-53 5 -84 32.5t-31 70.5q0 36 26 62t62 26q57 0 118 -86l15 -21q29 -40 63 -69.5t77 -51.5v15q0 71 -38 163.5t-38 122.5q0 39 25.5 63.5t66.5 24.5q43 0 66.5 -22.5t23.5 -65.5q0 -26 -37 -117t-37 -167v-21q39 21 71 50.5t64 74.5l7 9
q70 98 131 98q32 0 59 -28.5t27 -63.5q0 -37 -31 -65t-74 -32h-3q-171 -15 -234 -67q74 -50 201 -60q17 -1 27 -2q52 -5 83 -33t31 -71q0 -33 -29 -59.5t-63 -26.5q-55 0 -124 96l-5 8q-32 44 -65.5 72.5t-74.5 48.5z" />
    <glyph glyph-name="plus" unicode="+" horiz-adv-x="1706" 
d="M782 1221h142v-541h528v-139h-528v-541h-142v541h-528v139h528v541z" />
    <glyph glyph-name="comma" unicode="," horiz-adv-x="528" 
d="M-10 -326l-45 52q92 78 137 140t45 111q0 17 -46 35q-19 7 -31 12q-22 9 -35 33.5t-13 57.5q0 51 34 87t83 36q55 0 86 -38.5t31 -107.5q0 -118 -65.5 -229t-180.5 -189z" />
    <glyph glyph-name="hyphen" unicode="-" horiz-adv-x="627" 
d="M-14 426l37 147h487l-37 -147h-487z" />
    <glyph glyph-name="period" unicode="." horiz-adv-x="528" 
d="M111 -23q-50 0 -77.5 31t-27.5 86q0 61 37 102.5t90 41.5q48 0 77.5 -32t29.5 -85q0 -60 -38 -102t-91 -42z" />
    <glyph glyph-name="slash" unicode="/" horiz-adv-x="616" 
d="M23 -190h-107l623 1660h106z" />
    <glyph glyph-name="zero" unicode="0" horiz-adv-x="1057" 
d="M227 295q0 -116 42.5 -186t109.5 -70q55 0 112.5 42t98.5 114q47 82 87 199.5t79 285.5q32 143 48.5 264.5t16.5 208.5q0 125 -40 189.5t-117 64.5q-63 0 -122.5 -48.5t-105.5 -137.5q-41 -79 -74.5 -183t-72.5 -288q-31 -148 -46.5 -261.5t-15.5 -193.5zM381 -25
q-154 0 -247 131t-93 351q0 239 69 448.5t199 366.5q83 98 172.5 148t180.5 50q166 0 256 -132t90 -377q0 -67 -12 -146t-35 -172q-40 -149 -102 -276t-144 -226q-64 -78 -152.5 -122t-181.5 -44z" />
    <glyph glyph-name="one" unicode="1" horiz-adv-x="1057" 
d="M805 1470l-328 -1253q-7 -26 -10.5 -46t-3.5 -34q0 -21 43 -49q16 -10 24 -16q5 -4 8 -12t3 -19q0 -10 -2 -19.5t-7 -21.5h-411v4q0 60 62 90q16 8 23 12q30 16 47 44.5t34 93.5l280 1067h-207v6q0 26 14 40t64 29l277 84h90z" />
    <glyph glyph-name="two" unicode="2" horiz-adv-x="1057" 
d="M-147 0q0 4 -1.5 11t-1.5 9q0 97 186 246q64 52 99 82q193 167 286 252t154 150q96 98 146.5 202.5t50.5 202.5q0 112 -67 178t-181 66q-78 0 -137 -27.5t-59 -56.5q0 -12 32.5 -46.5t32.5 -66.5q0 -42 -31 -71t-77 -29q-53 0 -86 35t-33 92q0 104 106.5 172.5
t274.5 68.5q200 0 322 -95.5t122 -252.5q0 -113 -68 -216t-286 -283q-27 -23 -230.5 -175.5t-355.5 -291.5h293q103 0 166 24t111 81q5 5 14 17q37 48 88 48q12 0 19 -0.5t13 -1.5l-93 -324h-809z" />
    <glyph glyph-name="three" unicode="3" horiz-adv-x="1057" 
d="M291 745l12 58q241 30 374.5 131t133.5 252q0 91 -69 152t-175 61q-78 0 -121 -19t-43 -53q0 -9 8.5 -34t8.5 -42q0 -44 -26 -70t-70 -26q-50 0 -76.5 22.5t-26.5 65.5q0 101 108 164t283 63q173 0 282.5 -87t109.5 -222q0 -140 -109.5 -233.5t-329.5 -141.5
q142 -30 219.5 -116.5t77.5 -214.5q0 -89 -43.5 -174.5t-124.5 -155.5q-85 -73 -200 -111.5t-248 -38.5q-150 0 -247 62t-97 153q0 56 36.5 92.5t92.5 36.5q42 0 71 -24.5t29 -58.5q0 -35 -39 -76t-39 -51q0 -23 48 -42.5t116 -19.5t125.5 17.5t106.5 52.5q96 68 151 169.5
t55 211.5q0 120 -82 185t-235 65q-8 0 -23.5 -1.5t-23.5 -1.5z" />
    <glyph glyph-name="four" unicode="4" horiz-adv-x="1057" 
d="M565 516l221 752l-671 -752h450zM1016 1470l-248 -954h190q-3 -62 -16 -78t-61 -16h-142l-53 -209q-7 -28 -9.5 -44.5t-2.5 -31.5q0 -24 49 -52q11 -6 16 -9q7 -5 11 -16t4 -25q0 -8 -3 -26q-1 -6 -1 -9h-418v6q0 58 62 87q9 4 15 7q30 15 45 38.5t31 86.5l52 197h-566
l17 88l868 960h160z" />
    <glyph glyph-name="five" unicode="5" horiz-adv-x="1057" 
d="M203 786l-51 43l210 617h451q36 0 56.5 5t36.5 16q6 4 18 15q38 31 73 31h4q13 -2 25 -2l-68 -235h-565l-129 -383q53 20 103.5 30.5t99.5 10.5q182 0 300 -110.5t118 -280.5q0 -112 -47.5 -218t-137.5 -192q-81 -77 -183.5 -117.5t-217.5 -40.5q-151 0 -238.5 60
t-87.5 162q0 61 31.5 96t85.5 35q38 0 63 -26t25 -66q0 -31 -25.5 -67t-25.5 -48q0 -25 39.5 -45.5t95.5 -20.5q72 0 133.5 26.5t110.5 78.5q77 80 120.5 186.5t43.5 216.5q0 127 -73.5 203t-195.5 76q-45 0 -93.5 -13.5t-104.5 -42.5z" />
    <glyph glyph-name="six" unicode="6" horiz-adv-x="1057" 
d="M539 827q-75 0 -155.5 -43.5t-111.5 -99.5q-32 -61 -48.5 -150t-16.5 -200q0 -132 58.5 -209.5t156.5 -77.5q69 0 135 46.5t117 131.5q42 70 65 157t23 175q0 132 -57 201t-166 69zM309 821q76 50 147.5 74.5t141.5 24.5q159 0 257.5 -102t98.5 -265q0 -108 -36 -209.5
t-105 -185.5q-73 -90 -175 -136.5t-228 -46.5q-179 0 -284.5 115t-105.5 309q0 243 80.5 459.5t229.5 374.5q107 115 238 177.5t263 62.5q108 0 173 -44.5t65 -115.5q0 -48 -29.5 -78.5t-76.5 -30.5q-42 0 -67.5 23.5t-25.5 60.5q0 11 4.5 30t4.5 28q0 25 -19 41t-49 16
q-145 0 -279.5 -155t-222.5 -427z" />
    <glyph glyph-name="seven" unicode="7" horiz-adv-x="1057" 
d="M909 1278h-391q-82 0 -122.5 -11t-73.5 -36q-15 -11 -36 -37.5t-30 -36.5q-4 -5 -12 -7.5t-23 -2.5t-23.5 1t-17.5 3l80 295h868l-32 -141q-316 -290 -475.5 -547t-198.5 -537q-4 -32 -7 -92q-7 -155 -104 -156q-60 0 -91.5 38.5t-31.5 111.5q0 211 187.5 512t533.5 643z
" />
    <glyph glyph-name="eight" unicode="8" horiz-adv-x="1057" 
d="M588 827q147 72 224 161.5t77 189.5q0 98 -56.5 157.5t-150.5 59.5q-111 0 -192.5 -83t-81.5 -198q0 -77 44.5 -148t135.5 -139zM481 692q-191 -86 -271.5 -170t-80.5 -196q0 -119 79 -197t202 -78q133 0 227 91.5t94 222.5q0 86 -56 160.5t-194 166.5zM422 752
q-97 85 -143 165t-46 162q0 160 138 273.5t336 113.5q149 0 241 -78.5t92 -203.5q0 -120 -94 -219t-295 -191q134 -86 194 -172.5t60 -191.5q0 -183 -149.5 -309t-370.5 -126q-181 0 -298.5 97.5t-117.5 242.5q0 135 112 242.5t341 194.5z" />
    <glyph glyph-name="nine" unicode="9" horiz-adv-x="1057" 
d="M713 637q-69 -39 -134 -58.5t-126 -19.5q-166 0 -268.5 100t-102.5 261q0 98 34 193t97 173q74 92 169 138t212 46q187 0 292 -124.5t105 -346.5q0 -194 -74.5 -404t-199.5 -366q-99 -123 -227.5 -187.5t-274.5 -64.5q-124 0 -200 55.5t-76 143.5q0 56 30.5 91.5
t77.5 35.5q41 0 65.5 -23t24.5 -61q0 -21 -22.5 -57t-22.5 -51q0 -31 25 -46.5t76 -15.5q160 0 299.5 156.5t220.5 431.5zM485 641q29 0 67 10t87 31q48 21 72.5 39.5t35.5 41.5q27 60 42.5 150t15.5 193q0 150 -51 220.5t-158 70.5q-62 0 -113 -31t-98 -96
q-58 -81 -90.5 -183t-32.5 -200q0 -114 60 -180t163 -66z" />
    <glyph glyph-name="colon" unicode=":" horiz-adv-x="575" 
d="M301 762q-49 0 -75.5 30.5t-26.5 86.5q0 60 36 101.5t89 41.5q48 0 78 -32t30 -85q0 -59 -38.5 -101t-92.5 -42zM111 -23q-50 0 -77.5 31t-27.5 86q0 61 37 102.5t90 41.5q48 0 77.5 -32t29.5 -85q0 -60 -38 -102t-91 -42z" />
    <glyph glyph-name="semicolon" unicode=";" horiz-adv-x="575" 
d="M20 -326l-45 52q92 77 136.5 139t44.5 112q0 17 -45 34q-22 9 -34 14q-20 8 -33 32.5t-13 57.5q0 50 34.5 86.5t84.5 36.5q55 0 85.5 -38.5t30.5 -107.5q0 -118 -65 -229t-181 -189zM317 762q-48 0 -75 30.5t-27 86.5q0 60 36 101.5t89 41.5q49 0 79 -32t30 -85
q0 -59 -38.5 -101t-93.5 -42z" />
    <glyph glyph-name="less" unicode="&#x3c;" horiz-adv-x="1706" 
d="M1442 1159v-153l-969 -396l969 -393v-154l-1178 484v129z" />
    <glyph glyph-name="equal" unicode="=" horiz-adv-x="1706" 
d="M254 481h1198v-139h-1198v139zM254 879h1198v-140h-1198v140z" />
    <glyph glyph-name="greater" unicode="&#x3e;" horiz-adv-x="1706" 
d="M264 1159l1178 -483v-129l-1178 -484v154l971 393l-971 396v153z" />
    <glyph glyph-name="question" unicode="?" horiz-adv-x="829" 
d="M209 -25q-47 0 -72.5 28.5t-25.5 80.5q0 56 34.5 95.5t83.5 39.5q45 0 73 -30.5t28 -79.5q0 -57 -35 -95.5t-86 -38.5zM238 356q22 176 205 395q21 26 32 40q125 151 162 229t37 156q0 102 -58.5 161.5t-158.5 59.5q-51 0 -90 -21t-39 -45q0 -15 14 -47t14 -47
q0 -38 -23.5 -60t-64.5 -22q-43 0 -70.5 28t-27.5 72q0 92 93 152.5t241 60.5q169 0 268.5 -86.5t99.5 -232.5q0 -68 -30 -136.5t-86 -127.5q-59 -62 -150.5 -135.5t-113.5 -96.5q-90 -89 -126 -153t-55 -144h-73z" />
    <glyph glyph-name="at" unicode="@" horiz-adv-x="2019" 
d="M1186 332q-62 -105 -138 -156t-169 -51q-129 0 -206 92t-77 246q0 109 49.5 216t140.5 195q68 65 146 99.5t155 34.5q90 0 146 -48.5t76 -142.5l51 174h158l-172 -612l-4 -12q-15 -56 -15 -86q0 -51 23.5 -79t66.5 -28q33 0 80.5 20t89.5 52q119 90 179.5 228.5
t60.5 318.5q0 133 -52.5 245t-156.5 201q-90 77 -214 118.5t-267 41.5q-180 0 -335.5 -61.5t-275.5 -180.5q-126 -124 -190 -287t-64 -358q0 -182 57 -313t179 -234q109 -92 254 -141t307 -49q170 0 327 51.5t300 155.5l33 -41q-147 -110 -312.5 -166t-345.5 -56
q-189 0 -345.5 45.5t-274.5 135.5q-151 113 -230.5 276.5t-79.5 360.5q0 203 86.5 380.5t251.5 313.5q134 111 294.5 167t342.5 56q346 0 555 -188.5t209 -499.5q0 -159 -58.5 -298t-166.5 -237q-59 -52 -126 -80t-134 -28q-96 0 -149 53t-60 156zM1104 961
q-54 0 -98.5 -30.5t-90.5 -99.5q-71 -107 -113 -233.5t-42 -228.5q0 -86 39.5 -138.5t101.5 -52.5q65 0 122.5 43.5t111.5 132.5q55 93 88.5 204t33.5 198q0 92 -42 148.5t-111 56.5z" />
    <glyph glyph-name="A" unicode="A" horiz-adv-x="1229" 
d="M743 518l-75 602l-351 -602h426zM821 1483l162 -1219q9 -64 19 -96.5t24 -50.5q9 -10 33 -25q51 -31 51 -74q0 -7 -0.5 -11t-2.5 -7h-411v27q0 18 3 27.5t10 15.5q10 7 28 18q47 26 47 82q0 13 -1 26t-3 27l-22 191h-502l-109 -191q-14 -25 -22 -48.5t-8 -39.5
q0 -23 38 -48t38 -42q-1 -11 -3 -21.5t-8 -23.5h-332v10q0 42 61 72q21 10 32 16q36 23 95 125l7 13l606 1034l-14 102v12q0 17 9 28.5t25 16.5z" />
    <glyph glyph-name="B" unicode="B" horiz-adv-x="1327" 
d="M420 805q34 -3 65 -4.5t62 -1.5q229 0 349 89t120 259q0 115 -67 164t-228 49h-160zM244 101q55 -3 82.5 -4t48.5 -1q280 0 419.5 88t139.5 265q0 137 -91 195t-308 58q-41 0 -125 -3q-9 0 -13 -1zM-84 0v10q0 42 61 72q23 11 35 18q27 18 55 125l3 11l243 974q2 7 4 17
q15 64 15 82q0 13 -10 25.5t-31 25.5l-9 9q-22 20 -22 32q0 10 2.5 21t7.5 23l490 1q257 0 371 -78.5t114 -253.5q0 -130 -102 -231t-260 -123q142 -31 216.5 -112.5t74.5 -207.5q0 -200 -166 -320t-447 -120h-645z" />
    <glyph glyph-name="C" unicode="C" horiz-adv-x="1331" 
d="M1135 238q-113 -135 -232 -199t-256 -64q-256 0 -417.5 160.5t-161.5 415.5q0 177 66.5 347.5t191.5 309.5q112 124 251 192t281 68q92 0 157 -15t128 -50q8 -4 21 -13q28 -18 44 -18q19 0 38.5 10.5t37.5 30.5l76 -4l-92 -364q-7 -2 -14 -2.5t-19 -0.5q-69 0 -82 88
q-3 15 -4 23q-20 117 -83.5 173t-174.5 56q-118 0 -233 -79t-201 -220q-70 -113 -108 -258t-38 -297q0 -212 95.5 -327t271.5 -115q101 0 195.5 49.5t195.5 157.5z" />
    <glyph glyph-name="D" unicode="D" horiz-adv-x="1407" 
d="M234 109q21 -2 44.5 -2.5t71.5 -0.5q198 0 321.5 36.5t202.5 115.5q66 64 111.5 152t79.5 221q23 87 35 168t12 151q0 213 -105 311.5t-333 98.5q-29 0 -59.5 -1.5t-63.5 -4.5zM-94 0v10q0 42 61 72q23 11 36 19q26 17 54 124l2 10l244 975q3 13 9 37q12 47 12 62
q0 13 -10 25.5t-31 25.5q-4 3 -9 9q-22 20 -22 32q0 11 2.5 22t8.5 23h501q163 0 249 -25.5t154 -85.5q86 -73 130 -187t44 -261q0 -179 -58.5 -344t-164.5 -287q-120 -137 -266.5 -196.5t-374.5 -59.5h-571z" />
    <glyph glyph-name="E" unicode="E" horiz-adv-x="1165" 
d="M-78 0v10q0 42 59 71q23 12 35 19q28 18 55 125l3 11l246 975q1 6 3 15q15 65 15 83q0 12 -9 24.5t-32 28.5q-2 2 -6 5q-25 21 -25 34q0 10 2.5 21t7.5 23l691 1q22 0 79.5 6t159.5 18l-88 -350h-16q-72 0 -85 88q-3 23 -5 35q-14 73 -57.5 99t-166.5 26h-215l-139 -557
h191q58 0 104 71q9 13 15 22q11 15 26.5 22.5t36.5 7.5q9 0 19.5 -1.5t22.5 -4.5l-95 -385h-19q-31 0 -46 14t-27 64q-17 58 -38.5 74t-74.5 16h-139l-152 -605h197q167 0 239.5 31t130.5 110q10 14 26 38q52 80 118 80q4 0 12 -1.5t12 -1.5l-90 -362h-981z" />
    <glyph glyph-name="F" unicode="F" horiz-adv-x="1128" 
d="M281 223q-8 -29 -12.5 -52t-4.5 -36q0 -22 36 -48t36 -42q0 -10 -2.5 -21.5t-8.5 -23.5h-403v10q0 42 59 71q23 12 35 19q28 18 55 125l3 11l246 975q1 6 3 15q15 65 15 83q0 12 -9 24.5t-32 28.5q-2 2 -6 5q-25 21 -25 34q0 10 2.5 21t7.5 23l691 1q22 0 79.5 6
t159.5 18l-88 -350h-16q-72 0 -85 88q-3 23 -5 35q-14 73 -57.5 99t-166.5 26h-215l-139 -557h191q58 0 104 71q9 13 15 22q11 15 26.5 22.5t36.5 7.5q9 0 19.5 -1.5t22.5 -4.5l-95 -385h-19q-31 0 -46 14t-27 64q-17 58 -38.5 74t-74.5 16h-139z" />
    <glyph glyph-name="G" unicode="G" horiz-adv-x="1458" 
d="M1323 700q-34 -29 -55 -57.5t-27 -54.5l-71 -288q-4 -15 -5.5 -24.5t-1.5 -13.5q0 -18 15.5 -36.5t15.5 -20.5q0 -13 -16.5 -37t-40.5 -43q-102 -76 -223 -113t-267 -37q-268 0 -427 158t-159 424q0 163 63 330t177 305q119 143 264 210.5t334 67.5q71 0 135 -12.5
t117 -36.5q25 -11 65 -38t56 -27q17 0 35.5 10.5t38.5 32.5l73 -4l-90 -361q-7 -1 -14 -1.5t-19 -0.5q-66 0 -81 90q-1 11 -3 19l-3 18q-19 115 -79 160q-42 32 -93 47.5t-111 15.5q-120 0 -224.5 -57t-191.5 -170q-101 -131 -158 -308t-57 -362q0 -196 99.5 -309
t273.5 -113q126 0 201.5 56t103.5 170l59 231q3 11 4.5 20.5t1.5 18.5q0 15 -7 26t-33 31q-3 2 -6 5q-31 24 -31 47q0 7 1.5 15.5t4.5 16.5h356z" />
    <glyph glyph-name="H" unicode="H" horiz-adv-x="1456" 
d="M426 799h641l104 411q10 34 14.5 58.5t4.5 40.5q0 12 -8 23.5t-31 29.5q-2 2 -7 6q-24 20 -24 33q0 10 2.5 21t8.5 24h403v-10q0 -41 -55 -69q-23 -11 -35 -19q-35 -23 -57 -116q-2 -8 -3 -11l-251 -998q-7 -25 -10 -46.5t-3 -37.5q0 -15 9.5 -28t31.5 -27l8 -8
q21 -19 21 -31q0 -10 -2.5 -21.5t-8.5 -23.5h-405v10q0 42 60 71q24 12 36 19q30 19 53 116q3 13 5 20l112 456h-643l-116 -469q-7 -27 -11 -50.5t-4 -37.5q0 -23 35 -49t35 -41q0 -10 -2.5 -21.5t-8.5 -23.5h-405v10q0 42 60 71q24 12 36 19q28 18 55 125l3 11l243 974
q3 13 9 37q12 47 12 62q0 12 -9 24.5t-32 28.5q-2 2 -6 5q-25 21 -25 34q0 10 2.5 21t7.5 23l404 1v-10q0 -42 -58 -71q-21 -10 -32 -17q-33 -23 -59 -125l-1 -2z" />
    <glyph glyph-name="I" unicode="I" horiz-adv-x="602" 
d="M281 224q-7 -29 -11 -51.5t-4 -31.5q0 -27 35 -55t35 -41q0 -10 -2.5 -21.5t-8.5 -23.5h-405v10q0 42 60 71q24 12 36 19q28 18 55 125l3 11l243 974q3 13 9 37q12 47 12 62q0 12 -9 24.5t-32 28.5q-2 2 -6 5q-25 21 -25 34q0 10 2.5 21t7.5 23l404 1v-10q0 -39 -53 -68
q-23 -12 -35 -20q-35 -25 -58 -113q-2 -9 -4 -15z" />
    <glyph glyph-name="J" unicode="J" horiz-adv-x="854" 
d="M588 416q-66 -256 -165.5 -347.5t-293.5 -91.5q-119 0 -189.5 51.5t-70.5 137.5q0 56 33 92.5t84 36.5q45 0 72.5 -26.5t27.5 -69.5q0 -28 -20.5 -56.5t-20.5 -31.5q0 -17 24 -30t58 -13q89 0 142.5 59t88.5 201l222 883l3 15q15 65 15 83q0 12 -9 24.5t-32 28.5
q-1 1 -6 5q-25 21 -25 34q0 10 2.5 21t8.5 24h405v-10q0 -42 -54 -72l-3 -2q-6 -1 -13.5 -4t-20.5 -11q-16 -11 -29.5 -39.5t-28.5 -86.5z" />
    <glyph glyph-name="K" unicode="K" horiz-adv-x="1323" 
d="M-78 0v10q0 42 60 71q24 12 36 19q28 18 55 124l3 12l244 975q2 12 8 36q12 47 12 62q0 12 -9 24.5t-32 28.5q-2 2 -7 6q-24 20 -24 33q0 10 2.5 21t8.5 24h401v-8q0 -41 -54 -73l-6 -3l-11 -5.5t-20 -11.5q-19 -11 -32.5 -36.5t-28.5 -89.5l-102 -416l575 469
q26 20 39 36.5t13 28.5q0 20 -22.5 36.5t-22.5 31.5q0 11 2.5 21t7.5 20h344v-12q0 -41 -73 -77q-53 -26 -81 -48l-620 -498l416 -608q4 -6 12 -19q41 -61 88 -90q40 -27 50.5 -44.5t10.5 -43.5v-6h-474q-2 6 -2.5 11t-0.5 16q0 19 8.5 32t32.5 29q1 1 3 2q8 5 11 10
q23 11 31 20.5t8 22.5t-9 34.5t-25 45.5l-342 502l-127 -502q-9 -33 -13 -54.5t-4 -33.5q0 -24 36 -48.5t36 -45.5q0 -5 -3 -20t-3 -21h-406z" />
    <glyph glyph-name="L" unicode="L" horiz-adv-x="1110" 
d="M444 106q168 0 240.5 31t130.5 111q9 12 24 35q55 82 122 82q4 0 12 -1.5t12 -1.5l-90 -362h-973v10q0 42 59 71q23 12 35 19q28 18 55 125l3 11l246 975q1 6 3 15q15 65 15 83q0 12 -9 24.5t-32 28.5q-2 2 -6 5q-25 21 -25 34q0 10 2.5 21t7.5 23l402 1v-10
q0 -41 -55 -69q-23 -11 -36 -20q-16 -11 -27.5 -33.5t-29.5 -92.5l-278 -1115h192z" />
    <glyph glyph-name="M" unicode="M" horiz-adv-x="1659" 
d="M-80 0v10q0 42 60 71q24 12 36 19q28 18 55 125l3 11l243 974q3 13 9 37q12 47 12 62q0 12 -9 24.5t-32 28.5q-2 2 -6 5q-25 21 -25 34q0 10 2.5 21t7.5 23l345 1l73 -1157l690 1157h359v-10q0 -41 -55 -69q-23 -11 -35 -19q-32 -22 -58 -123l-2 -7l-250 -995
q-8 -29 -12 -51t-4 -37q0 -22 36 -48t36 -42q0 -10 -2.5 -21t-8.5 -24h-401v10q0 42 59 71q23 12 35 19q32 19 55 117q3 12 5 19l264 1060l-776 -1300h-117l-84 1309l-262 -1082q-10 -43 -13 -61t-3 -27q0 -22 35.5 -48t35.5 -42q0 -11 -2.5 -22t-8.5 -23h-290z" />
    <glyph glyph-name="N" unicode="N" horiz-adv-x="1407" 
d="M-80 0v10q0 42 60 71q24 12 36 19q28 18 55 125l3 11l243 974q3 13 9 37q12 47 12 62q0 12 -9 24.5t-32 28.5q-2 2 -6 5q-25 21 -25 34q0 10 2.5 21t7.5 23l332 1l418 -1098l213 863q3 11 8 31q13 50 13 67q0 12 -9 24.5t-32 28.5q-3 2 -6 5q-25 21 -25 34q0 11 2.5 22
t8.5 23h290v-10q0 -41 -56 -68q-24 -12 -36 -20q-30 -20 -56 -121l-2 -7l-311 -1232h-80l-512 1321l-270 -1086q-7 -29 -10.5 -53t-3.5 -35q0 -23 34.5 -49t34.5 -41q0 -11 -2.5 -22t-8.5 -23h-290z" />
    <glyph glyph-name="O" unicode="O" horiz-adv-x="1540" 
d="M887 1376q-124 0 -230.5 -65.5t-187.5 -192.5q-79 -124 -126.5 -287.5t-47.5 -312.5q0 -213 92.5 -330.5t259.5 -117.5q115 0 213.5 51.5t173.5 150.5q37 49 70 116t63 155q38 105 57 201.5t19 181.5q0 211 -95 330.5t-261 119.5zM68 598q0 147 46 286.5t136 266.5
q112 157 273 238t360 81q275 0 432.5 -168t157.5 -464q0 -187 -74.5 -361.5t-208.5 -302.5q-104 -99 -236 -149t-290 -50q-282 0 -439 164.5t-157 458.5z" />
    <glyph glyph-name="P" unicode="P" horiz-adv-x="1255" 
d="M414 762h225q171 0 277 100t106 260q0 118 -72 180t-209 62h-178zM-82 0v10q0 42 60 71q24 12 36 19q28 18 55 125l3 11l243 974q3 13 9 37q12 47 12 62q0 12 -8 23.5t-33 31.5l-2 1q-29 22 -29 36q0 10 2.5 21t7.5 23l498 1q121 0 188 -10.5t121 -34.5
q80 -35 126 -110.5t46 -168.5q0 -83 -31 -158.5t-94 -142.5q-75 -81 -174.5 -120t-230.5 -39h-334l-108 -439q-8 -28 -12.5 -52t-4.5 -36q0 -22 36 -48t36 -42q0 -10 -2.5 -21.5t-8.5 -23.5h-407z" />
    <glyph glyph-name="Q" unicode="Q" horiz-adv-x="1540" 
d="M887 1376q-124 0 -230.5 -65.5t-187.5 -192.5q-79 -124 -126.5 -287.5t-47.5 -312.5q0 -213 92.5 -330.5t259.5 -117.5q115 0 213.5 51.5t173.5 150.5q37 49 70 116t63 155q38 105 57 201.5t19 181.5q0 211 -95 330.5t-261 119.5zM1159 -160q10 -15 14.5 -26.5t4.5 -24.5
q0 -59 -79 -108.5t-184 -49.5q-75 0 -144 34.5t-118 96.5q-16 22 -46 63q-67 93 -107 124q-27 18 -106 64.5t-122 82.5q-99 83 -151.5 211t-52.5 287q0 149 45.5 290.5t134.5 264.5q112 158 273.5 239.5t361.5 81.5q275 0 432.5 -168t157.5 -464q0 -214 -95 -409t-256 -314
q-93 -69 -202 -103.5t-238 -34.5h-45q45 -13 136 -85q22 -18 34 -27q73 -56 110.5 -73t73.5 -17q42 0 83 16t85 49z" />
    <glyph glyph-name="R" unicode="R" horiz-adv-x="1327" 
d="M786 1362h-221l-143 -574q37 -4 75.5 -6t80.5 -2q241 0 364 92t123 273q0 108 -70 162.5t-209 54.5zM281 223q-9 -35 -13 -56.5t-4 -31.5q0 -22 36 -48t36 -42q0 -10 -2.5 -21.5t-8.5 -23.5h-403v10q0 42 59 71q23 12 35 19q28 18 55 125l3 11l246 975q1 6 3 15
q15 65 15 83q0 24 -36 50.5t-36 41.5q0 10 2.5 21t7.5 23l564 1q106 0 167.5 -8.5t100.5 -26.5q83 -38 129.5 -109t46.5 -161q0 -176 -134 -292.5t-368 -141.5q45 -14 77 -48.5t50 -89.5l127 -370q3 -8 8 -23q20 -61 58 -82q4 -2 9 -5q46 -25 46 -56q0 -12 -1 -19.5
t-3 -13.5h-287l-159 504q-35 113 -89.5 151.5t-173.5 38.5h-45z" />
    <glyph glyph-name="S" unicode="S" horiz-adv-x="1104" 
d="M1007 1102q-4 -1 -10.5 -1.5t-17.5 -0.5q-34 0 -52 18t-40 90q-29 91 -78.5 131.5t-130.5 40.5q-104 0 -178 -82t-74 -196q0 -51 25 -99.5t71 -87.5l189 -159q105 -89 154.5 -176t49.5 -185q0 -184 -146 -302t-380 -118q-96 0 -201.5 35t-117.5 35q-24 0 -39 -9t-27 -30
h-84l92 350h8q59 0 100 -100q6 -15 9 -23q38 -88 96.5 -126.5t153.5 -38.5q128 0 220.5 84t92.5 198q0 62 -28.5 121t-79.5 102l-209 175q-80 65 -121 145.5t-41 169.5q0 175 123.5 290t312.5 115q106 0 202 -42t97 -42q20 0 38.5 11t37.5 32h70z" />
    <glyph glyph-name="T" unicode="T" horiz-adv-x="1194" 
d="M205 0v8q0 46 57 73q25 12 37 19q32 21 56 120l3 15l281 1131h-125q-81 0 -131 -30t-88 -105q-34 -66 -61.5 -83.5t-73.5 -17.5h-19l103 340q63 -12 115 -18t90 -6h651q37 0 93.5 6t129.5 18l-87 -340q-14 -2 -21.5 -3t-12.5 -1q-50 1 -65 96v5q-11 69 -47.5 103
t-102.5 34h-137l-287 -1141q-6 -25 -9 -48.5t-3 -41.5q0 -22 35 -47t35 -41q0 -12 -3 -23.5t-8 -21.5h-405z" />
    <glyph glyph-name="U" unicode="U" horiz-adv-x="1436" 
d="M326 1210q9 35 13.5 59t4.5 40q0 12 -9 24.5t-32 28.5q-1 1 -6 5q-25 21 -25 34q0 10 2.5 21t8.5 24h407v-10q0 -43 -57 -71q-21 -10 -33 -17q-36 -23 -58 -114q-2 -8 -3 -13l-207 -852q-4 -17 -6 -35t-2 -37q0 -102 71 -160.5t195 -58.5q170 0 263.5 82.5t143.5 281.5
l193 772q10 38 14 60.5t4 36.5q0 12 -7 22.5t-30 28.5q-20 13 -27 22.5t-7 20.5q0 9 2.5 19t7.5 22h305v-10q0 -41 -56 -68q-24 -12 -36 -20q-32 -20 -58 -122l-2 -6l-217 -845q-52 -202 -185.5 -301t-354.5 -99q-191 0 -310.5 92.5t-119.5 235.5q0 32 4 65t12 70z" />
    <glyph glyph-name="V" unicode="V" horiz-adv-x="1280" 
d="M545 1445q1 -4 1.5 -8t0.5 -12q0 -34 -41 -63q-5 -3 -6 -4q-5 -4 -13 -9q-34 -23 -34 -73q0 -13 1 -26t3 -27l118 -961l560 961q14 23 22 47.5t8 40.5q0 23 -37.5 47.5t-37.5 42.5q0 11 2.5 22t7.5 23h336v-10q0 -40 -57 -69q-24 -12 -36 -19q-23 -16 -45 -43t-61 -95
l-711 -1218h-125l-155 1189q-10 67 -20 98.5t-25 49.5q-9 10 -33 25q-51 31 -51 73q0 8 0.5 12t1.5 7z" />
    <glyph glyph-name="W" unicode="W" horiz-adv-x="2048" 
d="M365 -8l-154 1190q-9 65 -19 97.5t-24 49.5q-6 8 -24 19q-6 4 -8 5q-31 19 -41.5 35t-10.5 39q0 8 0.5 11.5t2.5 7.5h419v-23q0 -20 -3 -30.5t-10 -16.5q-10 -7 -29 -18q-48 -27 -48 -82q0 -14 3 -44q0 -5 1 -9l117 -961l507 901q-9 75 -19 111t-26 55q-4 4 -10.5 9.5
t-21.5 15.5q-29 17 -39 33t-10 38q0 9 0.5 13.5t1.5 7.5h413v-21q0 -22 -3.5 -33t-10.5 -16q-10 -7 -29 -18q-47 -26 -47 -82q0 -13 3 -43q1 -7 1 -10l117 -961l547 961q14 24 22.5 48t8.5 40q0 23 -37 47.5t-37 42.5q0 14 2 24.5t6 20.5h332v-10q0 -41 -59 -71
q-21 -11 -32 -18q-23 -15 -46.5 -45.5t-57.5 -91.5l-698 -1218h-119l-131 1012l-578 -1012h-122z" />
    <glyph glyph-name="X" unicode="X" horiz-adv-x="1290" 
d="M-165 0q-2 3 -2.5 6t-0.5 8q0 17 12.5 31.5t59.5 42.5l4 3q79 48 119 91l510 557l-199 521q-28 74 -80 113q-8 6 -13 10q-7 6 -11.5 22.5t-4.5 40.5h420v-6q0 -22 -7.5 -36t-33.5 -28q-6 -2 -12 -6t-10 -6h-1q-34 -21 -34 -51q0 -9 3 -20t9 -27l129 -359l326 334
q28 28 38.5 45t10.5 33q0 18 -32 39q-16 11 -25 18q-7 7 -11 18.5t-4 26.5q0 4 1 12.5t1 12.5h362q2 -4 2.5 -7.5t0.5 -8.5q0 -28 -76 -75t-125 -100l-426 -454l223 -578q22 -57 41.5 -84.5t49.5 -50.5h1l3 -2q41 -30 41 -63q0 -9 -0.5 -13.5t-2.5 -9.5h-436v16
q0 20 7.5 34.5t25.5 29.5q8 5 12 6.5t6 1.5q4 3 11 9q37 33 37 63q0 9 -3 21t-9 29l-164 421l-412 -445q-16 -17 -23.5 -31.5t-7.5 -27.5q0 -10 7 -19t22 -20q18 -13 24.5 -22.5t6.5 -20.5q0 -10 -2.5 -21t-8.5 -24h-349z" />
    <glyph glyph-name="Y" unicode="Y" horiz-adv-x="1194" 
d="M514 1446v-21q0 -22 -3.5 -33t-11.5 -16q-10 -8 -30 -19q-43 -25 -43 -61q0 -20 15 -68q1 -4 1 -5l148 -435l434 486q17 19 22 28.5t5 18.5q0 18 -35 39.5t-35 40.5q0 10 2.5 21t8.5 24h328q2 -4 2.5 -6.5t0.5 -7.5q0 -32 -64 -70t-98 -76l-553 -616l-110 -446
q-7 -25 -11 -48t-4 -41q0 -23 35 -49t35 -41q0 -13 -2 -24t-6 -21h-410v10q0 42 59 71q23 12 35 19q32 20 58 128l2 8l114 464l-192 551q-13 36 -27 59.5t-32 37.5q-6 3 -18 10q-46 26 -46 69q0 4 1 10t1 9h424z" />
    <glyph glyph-name="Z" unicode="Z" horiz-adv-x="1165" 
d="M1229 1446v-62l-1049 -1294h283q162 0 241 30.5t132 108.5q9 14 24 40q50 85 121 85q4 0 12 -1t13 -1l-95 -352h-1001l10 90l1030 1266h-282q-125 0 -192 -31.5t-124 -116.5q-4 -6 -12 -19q-45 -71 -111 -71q-3 0 -12 1t-14 1l90 350q38 -12 78 -18t82 -6h776z" />
    <glyph glyph-name="bracketleft" unicode="[" horiz-adv-x="829" 
d="M274 -43q-9 -36 -13.5 -59t-4.5 -35q0 -15 8.5 -27t23.5 -20q8 -4 21 -7q45 -12 45 -49q0 -7 -2.5 -17t-7.5 -21l-305 -1l475 1829h313q0 -69 -75 -88q-4 -1 -7 -2q-49 -9 -68 -26.5t-36 -85.5z" />
    <glyph glyph-name="backslash" unicode="\" horiz-adv-x="616" 
d="M309 -190l-59 1665h102l58 -1665h-101z" />
    <glyph glyph-name="bracketright" unicode="]" horiz-adv-x="829" 
d="M526 1315q10 36 14.5 59t4.5 35q0 15 -8.5 27t-24.5 20q-6 3 -21 7q-45 12 -45 48q1 8 3.5 18t7.5 21h305l-475 -1829h-314q0 69 76 89q4 1 7 2q48 9 67 27t37 87z" />
    <glyph glyph-name="asciicircum" unicode="^" horiz-adv-x="2048" 
d="M926 1462h194l512 -565h-98l-512 420l-514 -420h-96z" />
    <glyph glyph-name="underscore" unicode="_" 
d="M0 -340h1024v-143h-1024v143z" />
    <glyph glyph-name="grave" unicode="`" 
d="M750 1139h-82l-265 198q-30 23 -44.5 43.5t-14.5 40.5q0 34 21.5 56t54.5 22q20 0 42 -13.5t42 -37.5z" />
    <glyph glyph-name="a" unicode="a" horiz-adv-x="1204" 
d="M1001 106l23 -47q-51 -43 -101.5 -64.5t-101.5 -21.5q-73 0 -110 30.5t-37 90.5q0 3 1 10.5t1 12.5q-80 -72 -166.5 -108t-181.5 -36q-137 0 -223.5 95t-86.5 245q0 114 39 226.5t113 214.5q98 134 226.5 206t269.5 72q74 0 135 -21t114 -65l160 82h43l-229 -862
q-5 -18 -7.5 -32.5t-2.5 -20.5q0 -15 10 -27t22 -12q14 0 37 8.5t53 23.5zM717 315l127 464q5 17 7.5 33.5t2.5 31.5q0 49 -42.5 83t-104.5 34q-81 0 -155.5 -37.5t-133.5 -108.5q-88 -104 -144.5 -247t-56.5 -259q0 -106 47.5 -166.5t130.5 -60.5q107 0 200.5 67t121.5 166
z" />
    <glyph glyph-name="b" unicode="b" horiz-adv-x="1180" 
d="M338 803l-152 -549q-6 -23 -9 -41.5t-3 -32.5q0 -60 44 -92.5t126 -32.5q70 0 137 32t135 97q99 94 161.5 244.5t62.5 294.5q0 101 -54 160t-145 59q-68 0 -145.5 -35.5t-157.5 -103.5zM252 1221q11 38 14.5 57t3.5 37q0 16 -9 30t-31 29q-3 2 -5 4q-22 19 -22 31
q0 9 2 18t6 17l309 12l-149 -534q87 55 170 81.5t170 26.5q157 0 249.5 -95t92.5 -257q0 -126 -56.5 -256.5t-156.5 -235.5q-102 -106 -228.5 -158.5t-279.5 -52.5q-172 0 -261 56.5t-89 165.5q0 23 3 47t9 47z" />
    <glyph glyph-name="c" unicode="c" horiz-adv-x="948" 
d="M756 154q-91 -89 -190 -133t-212 -44q-153 0 -250.5 105.5t-97.5 271.5q0 152 66.5 286.5t195.5 244.5q83 69 183 107t198 38q91 0 149 -41t58 -104q0 -43 -27 -68.5t-73 -25.5q-36 0 -59 21t-23 54q0 6 1 14.5t1 12.5q0 26 -13.5 41.5t-35.5 15.5q-57 0 -134.5 -48.5
t-142.5 -127.5q-72 -89 -110.5 -196.5t-38.5 -221.5q0 -130 59 -203t164 -73q67 0 140.5 31.5t150.5 93.5z" />
    <glyph glyph-name="d" unicode="d" horiz-adv-x="1180" 
d="M825 772q6 20 9.5 38t3.5 34q0 48 -46.5 79t-117.5 31q-78 0 -153.5 -37t-133.5 -104q-91 -106 -147 -251t-56 -273q0 -105 48 -162t137 -57q106 0 203.5 71t125.5 172zM649 102q-102 -66 -186.5 -97.5t-161.5 -31.5q-147 0 -232 88.5t-85 241.5q0 115 38.5 228
t112.5 214q97 135 234 210t284 75q62 0 117.5 -16t108.5 -49l73 256q8 26 12.5 52t4.5 42q0 18 -9 32t-34 31q-2 2 -7 6q-16 12 -16 19q0 13 2 24t6 19l303 10l-364 -1317q-3 -10 -3.5 -14.5t-0.5 -7.5q0 -21 13.5 -33t35.5 -12q16 0 36.5 8.5t47.5 28.5l31 -50
q-54 -43 -113 -64.5t-123 -21.5q-58 0 -91.5 30.5t-33.5 82.5v16z" />
    <glyph glyph-name="e" unicode="e" horiz-adv-x="1090" 
d="M242 531q11 -2 23 -2.5t36 -0.5q218 0 361 91t143 219q0 56 -35.5 88t-97.5 32q-125 0 -245 -117t-185 -310zM784 197l41 -58q-94 -82 -194.5 -123t-208.5 -41q-193 0 -309.5 106.5t-116.5 280.5q0 149 71 281.5t205 235.5q98 75 209 112t236 37t199.5 -51.5t74.5 -134.5
q0 -188 -192 -289.5t-547 -101.5h-29q-8 -27 -12 -51.5t-4 -47.5q0 -127 72 -202.5t192 -75.5q74 0 152 30t161 93z" />
    <glyph glyph-name="f" unicode="f" horiz-adv-x="602" 
d="M600 915h-203l-254 -915h-200l252 915h-84q4 38 19 59t52 38q51 23 70 81q1 4 2 7q67 213 151 301t213 88q78 0 121 -31.5t43 -87.5q0 -42 -26.5 -70t-65.5 -28t-62.5 25.5t-23.5 68.5q0 9 1.5 19.5t4.5 20.5q-6 4 -12 5.5t-12 1.5q-25 0 -44.5 -24t-31.5 -68l-88 -315
h205z" />
    <glyph glyph-name="g" unicode="g" horiz-adv-x="1063" 
d="M535 963q-112 0 -190.5 -103.5t-78.5 -255.5q0 -102 47 -160.5t127 -58.5q105 0 185 109.5t80 257.5q0 96 -46.5 153.5t-123.5 57.5zM195 408q-60 45 -89.5 105t-29.5 134q0 166 125 276.5t317 110.5q39 0 86 -11t98 -32q37 57 77.5 85t86.5 28q44 0 71.5 -22t27.5 -58
q0 -34 -23 -56t-59 -22q-37 0 -66 33q-8 8 -10 8q-5 0 -15.5 -9t-25.5 -26q66 -56 97.5 -117.5t31.5 -132.5q0 -172 -119 -283.5t-303 -111.5q-50 0 -100 12t-103 37l-110 -135q49 9 91 14t77 5q226 0 349.5 -82t123.5 -232q0 -159 -146.5 -258.5t-386.5 -99.5
q-181 0 -290 61.5t-109 159.5q0 49 27.5 79t72.5 30q38 0 66 -24t28 -54q0 -13 -10 -37.5t-10 -36.5q0 -43 68 -71.5t174 -28.5q148 0 254 71.5t106 163.5q0 90 -94 139.5t-266 49.5q-142 0 -283 -41q-27 -9 -33 -9q-16 0 -27.5 10.5t-11.5 24.5q0 20 15.5 48t46.5 65z" />
    <glyph glyph-name="h" unicode="h" horiz-adv-x="1194" 
d="M365 864q120 86 224 127t199 41q123 0 192 -53.5t69 -149.5q0 -20 -5.5 -48t-17.5 -68l-133 -459q-2 -7 -5 -19q-22 -79 -22 -106q0 -28 8 -41.5t23 -13.5q19 0 41 9t49 28l29 -48q-47 -42 -103.5 -65t-115.5 -23q-66 0 -103 31.5t-37 85.5q0 20 8.5 58.5t26.5 103.5
l139 500q11 36 16 63t5 43q0 35 -32 58.5t-83 23.5q-71 0 -169.5 -46.5t-229.5 -141.5l-195 -754h-198l305 1221q7 30 11.5 55.5t4.5 38.5q0 18 -8.5 32t-34.5 31q-2 3 -8 8q-12 11 -12 17q0 13 2 24t6 19l301 10z" />
    <glyph glyph-name="i" unicode="i" horiz-adv-x="530" 
d="M434 1020l-201 -766l-4 -17q-24 -90 -24 -114q0 -23 8 -36t23 -13q18 0 41 9t49 28l30 -48q-42 -42 -100.5 -65t-124.5 -23q-61 0 -98 32.5t-37 86.5q0 17 8 55.5t27 104.5l137 489q8 29 12 54t4 41q0 31 -38 61l-3 2l-4 4q-20 16 -20 27q0 9 2 18t6 17q65 8 140 21
t167 32zM279 1341q0 53 36.5 90t87.5 37q54 0 90.5 -36.5t36.5 -90.5q0 -53 -36 -88.5t-91 -35.5q-52 0 -88 36t-36 88z" />
    <glyph glyph-name="j" unicode="j" horiz-adv-x="512" 
d="M154 756q8 33 13 59t5 39q0 16 -8 29t-30 28q-17 10 -23.5 18t-6.5 17t2 17t7 16q66 9 141.5 22t163.5 31l-285 -1151q-38 -154 -124.5 -235.5t-213.5 -81.5q-80 0 -129 35.5t-49 93.5q0 42 29 72t69 30t65 -22.5t25 -57.5q0 -11 -3.5 -22.5t-10.5 -24.5q10 -4 19 -6
t18 -2q55 0 106 219q21 93 35 148zM279 1341q0 53 36.5 90t87.5 37q54 0 90.5 -36.5t36.5 -90.5q0 -53 -36 -88.5t-91 -35.5q-52 0 -88 36t-36 88z" />
    <glyph glyph-name="k" unicode="k" horiz-adv-x="1110" 
d="M276 481q230 21 365 114.5t135 229.5q0 51 -34 84t-87 33q-55 0 -129 -32.5t-157 -94.5zM145 0h-196l336 1221q10 35 15 59t5 37q0 17 -9.5 30.5t-35.5 28.5l-2 2q-25 17 -25 25q1 11 3.5 22t7.5 21l305 10l-146 -524q93 51 172.5 75.5t151.5 24.5q110 0 177 -58t67 -153
q0 -119 -88.5 -208.5t-266.5 -151.5l105 -252q26 -64 51 -91.5t55 -27.5q20 0 38.5 5t35.5 16l27 -50q-39 -40 -89 -62t-104 -22q-60 0 -98 30t-68 104l-129 311q-33 -10 -77.5 -17t-106.5 -12z" />
    <glyph glyph-name="l" unicode="l" horiz-adv-x="522" 
d="M260 1221q8 30 12 55.5t4 38.5q0 18 -8.5 32t-33.5 31q-3 2 -8 6q-15 12 -15 19q0 13 2 24t6 19l305 10l-307 -1202q-15 -56 -21 -84.5t-6 -44.5q0 -24 8.5 -36.5t24.5 -12.5q18 0 39.5 8.5t47.5 25.5l30 -47q-47 -42 -103.5 -65t-115.5 -23q-66 0 -102.5 31.5
t-36.5 87.5q0 33 27 139q3 13 5 21z" />
    <glyph glyph-name="m" unicode="m" horiz-adv-x="1868" 
d="M387 877q104 79 205 119t199 40q114 0 179 -41.5t75 -121.5q124 83 228 123t195 40q124 0 190 -52.5t66 -149.5q0 -30 -9.5 -76t-33.5 -123l-112 -381q-13 -45 -21 -81t-8 -48q0 -24 9.5 -37.5t25.5 -13.5q17 0 36 8t52 29l31 -48q-48 -42 -104.5 -65t-114.5 -23
q-66 0 -103 31.5t-37 85.5q0 18 9.5 61.5t25.5 100.5l139 500q9 29 14 56.5t5 49.5q0 35 -32.5 60.5t-78.5 25.5q-71 0 -168.5 -47.5t-212.5 -138.5l-217 -760h-196l208 754q9 29 14 56.5t5 49.5q0 35 -32.5 60.5t-78.5 25.5q-73 0 -172 -47.5t-213 -138.5l-211 -760h-198
l205 743q10 33 14 54.5t4 40.5q0 29 -40 60l-1 1q-15 11 -20.5 18t-6.5 15q0 9 2 18t6 16q87 4 166 17t152 37z" />
    <glyph glyph-name="n" unicode="n" horiz-adv-x="1194" 
d="M143 0h-198l205 744q8 29 13 54t5 40q0 29 -40 60l-1 1q-15 11 -20.5 18t-6.5 15q0 9 2 18t6 16q87 4 166 17t152 37l-39 -143q104 78 204.5 116.5t199.5 38.5q121 0 189.5 -54t68.5 -149q0 -20 -5.5 -48t-17.5 -68l-133 -459q-2 -7 -5 -19q-22 -79 -22 -106
q0 -28 8 -41.5t23 -13.5q19 0 41 9t49 28l29 -48q-47 -42 -103.5 -65t-115.5 -23q-66 0 -103 31.5t-37 85.5q0 20 8.5 58.5t26.5 103.5l139 500q11 36 16 63t5 43q0 35 -32 58.5t-83 23.5q-74 0 -171.5 -46.5t-211.5 -135.5z" />
    <glyph glyph-name="o" unicode="o" horiz-adv-x="1180" 
d="M596 946q-85 0 -158 -50t-133 -148q-47 -81 -73.5 -183t-26.5 -203q0 -143 65 -225t179 -82q67 0 131 35t114 98q72 93 114 219.5t42 251.5q0 133 -68 210t-186 77zM2 442q0 127 67.5 253t182.5 214q75 57 168.5 88t189.5 31q198 0 320.5 -123t122.5 -321
q0 -109 -40 -213t-114 -189q-87 -100 -203.5 -153.5t-251.5 -53.5q-201 0 -321.5 127.5t-120.5 339.5z" />
    <glyph glyph-name="p" unicode="p" horiz-adv-x="1161" 
d="M223 254l-2 -9q-16 -65 -16 -87q0 -48 41 -76.5t112 -28.5q75 0 149 37t134 105q90 100 142.5 239t52.5 277q0 109 -51.5 172t-139.5 63q-61 0 -131 -29t-119 -75q-27 -25 -52 -128q-2 -7 -3 -12zM393 928q77 52 153.5 77t155.5 25q167 0 258 -92.5t91 -261.5
q0 -116 -49 -243t-132 -226q-89 -108 -214.5 -169t-258.5 -61q-68 0 -125 16.5t-108 51.5l-115 -457h-196l297 1155q11 43 15.5 63.5t4.5 31.5q0 16 -8.5 29.5t-34.5 31.5q-1 1 -4 3q-25 18 -25 30q0 6 3 15.5t7 18.5q89 6 166.5 19t147.5 35z" />
    <glyph glyph-name="q" unicode="q" horiz-adv-x="1194" 
d="M858 801q3 8 4.5 18t1.5 19q0 51 -38.5 82.5t-102.5 31.5q-109 0 -196.5 -48.5t-164.5 -151.5q-66 -90 -109.5 -220t-43.5 -239q0 -95 53.5 -153t140.5 -58q110 0 204 72t124 184zM1130 1038l-403 -1450h-203l140 516q-91 -65 -172.5 -96t-161.5 -31q-158 0 -250 89
t-92 241q0 141 61 278t174 246q100 98 219.5 149.5t247.5 51.5q70 0 128 -21t108 -65z" />
    <glyph glyph-name="r" unicode="r" horiz-adv-x="721" 
d="M285 1016q19 -5 26.5 -32t7.5 -89q0 -65 -10 -139.5t-30 -157.5q97 209 192.5 319.5t179.5 110.5q50 0 82.5 -31t32.5 -77q0 -48 -34 -83.5t-79 -35.5q-35 0 -58.5 21t-35.5 65q-98 -54 -215 -293.5t-213 -593.5h-201l119 432q51 184 66.5 255.5t15.5 111.5q0 34 -9 48.5
t-40 22.5q-31 9 -39 21t-8 37q49 13 112.5 35.5t137.5 52.5z" />
    <glyph glyph-name="s" unicode="s" horiz-adv-x="909" 
d="M645 913q-29 23 -64.5 34t-80.5 11q-92 0 -148.5 -46t-56.5 -119q0 -84 170 -193q43 -28 65 -43q100 -66 144.5 -131.5t44.5 -144.5q0 -136 -116 -220t-306 -84q-171 0 -269 53.5t-98 145.5q0 46 33.5 78.5t79.5 32.5q43 0 71.5 -29t28.5 -72q0 -18 -8.5 -37.5
t-23.5 -35.5q33 -30 77.5 -45t102.5 -15q95 0 161 55.5t66 133.5q0 88 -185 210q-24 16 -38 25q-118 78 -157.5 134t-39.5 130q0 128 109 208.5t287 80.5q150 0 235.5 -48t85.5 -130q0 -46 -27 -74t-71 -28t-72.5 26.5t-28.5 67.5q0 19 7.5 36t21.5 33z" />
    <glyph glyph-name="t" unicode="t" horiz-adv-x="606" 
d="M494 1262l-72 -256h178l-27 -91h-176l-202 -730q-5 -17 -8 -32.5t-3 -23.5q0 -27 11 -43t28 -16q26 0 59.5 11.5t86.5 39.5l28 -49q-52 -50 -115.5 -74.5t-140.5 -24.5q-79 0 -119 37t-40 109q0 22 3.5 46.5t10.5 49.5l199 700l-84 1q4 37 20 59.5t51 38.5q1 0 5 2
q43 20 52 44q11 26 26 79.5t28 70.5q19 29 53 42.5t86 13.5q16 0 56 -4h6z" />
    <glyph glyph-name="u" unicode="u" horiz-adv-x="1194" 
d="M1100 1020l-205 -766q-2 -7 -5 -18q-24 -89 -24 -111q0 -25 8 -38t23 -13q18 0 40.5 9t49.5 28l31 -48q-37 -43 -93 -66.5t-122 -23.5q-67 0 -105.5 36t-38.5 100q0 4 1.5 11t1.5 11q-101 -79 -205 -118.5t-211 -39.5q-120 0 -184 52t-64 149q0 48 38 185q5 16 7 24
l104 360l2 6q15 56 15 87t-40 62l-1 1q-3 3 -8 7q-17 16 -17 26q0 9 2 18t6 16q61 8 141.5 21.5t176.5 32.5l-211 -770q-8 -28 -12 -55.5t-4 -53.5q0 -35 30.5 -59.5t75.5 -24.5q72 0 171.5 48t209.5 137l141 501q8 27 11.5 50.5t3.5 44.5q0 18 -9 32.5t-30 28.5q-3 3 -8 7
q-17 16 -17 26q0 9 2 18t6 16q61 8 141.5 21.5t174.5 32.5z" />
    <glyph glyph-name="v" unicode="v" 
d="M2 297l123 448q9 31 13.5 55t4.5 42q0 29 -39 60l-1 1l-3 2q-24 17 -24 29q0 9 2 18t6 17q69 8 146 21t169 32l-198 -731q-9 -34 -12 -51.5t-3 -30.5q0 -64 39.5 -97.5t114.5 -33.5q92 0 180 59t168 174q68 101 104.5 221.5t36.5 245.5q0 33 -6 66t-18 69
q-11 -4 -20.5 -6t-18.5 -2q-34 0 -58 23.5t-24 56.5q0 35 25 57.5t65 22.5q72 0 115 -75.5t43 -205.5q0 -160 -56 -316t-153 -265q-95 -109 -207.5 -168.5t-222.5 -59.5q-141 0 -223 62t-82 166q0 21 3.5 45t10.5 49z" />
    <glyph glyph-name="w" unicode="w" horiz-adv-x="1726" 
d="M418 1024l-209 -768q-9 -30 -12.5 -51.5t-3.5 -40.5q0 -45 30 -73t78 -28q72 0 170 48t209 137l205 764h205l-195 -717q-8 -34 -11 -51.5t-3 -30.5q0 -63 39 -98t108 -35q86 0 175.5 61t166.5 172q68 101 104.5 221.5t36.5 245.5q0 39 -7 73t-21 64q-13 -5 -22 -7.5
t-15 -2.5q-35 0 -61.5 26t-26.5 60q0 36 27.5 61t66.5 25q72 0 117 -79t45 -209q0 -159 -54.5 -315t-148.5 -269q-97 -116 -208.5 -174t-237.5 -58q-112 0 -187 48.5t-94 132.5q-111 -89 -226.5 -135t-226.5 -46t-172 53t-61 150q0 29 8.5 72.5t32.5 128.5l102 371
q9 27 13 51t4 45q0 15 -8 28t-31 31q-14 8 -20.5 16t-6.5 17t2 18t6 16q77 10 155.5 22.5t162.5 29.5z" />
    <glyph glyph-name="x" unicode="x" horiz-adv-x="1067" 
d="M580 561l129 -399q11 -34 22.5 -45t32.5 -11q14 0 33 11t65 49l35 -49q-72 -81 -123 -110.5t-112 -29.5q-53 0 -83.5 26t-52.5 93l-90 283q-136 -208 -235 -301.5t-181 -93.5q-51 0 -82.5 26.5t-31.5 69.5q0 36 23.5 61t58.5 25q33 0 51.5 -20.5t21.5 -61.5
q46 16 120 97.5t229 291.5l-123 383q-11 35 -23.5 47t-34.5 12q-14 0 -32.5 -12t-51.5 -45l-34 51q68 64 118.5 91.5t96.5 27.5q59 0 90 -26.5t57 -106.5l78 -244q161 216 250 296.5t157 80.5q46 0 75.5 -25t29.5 -63q0 -34 -26.5 -58t-63.5 -24q-28 0 -47.5 13t-32.5 40
q-67 -54 -146.5 -143t-166.5 -207z" />
    <glyph glyph-name="y" unicode="y" horiz-adv-x="948" 
d="M483 262l269 492q23 41 35 76.5t12 60.5h-8q-34 0 -57 23t-23 57q0 33 26 57.5t64 24.5q45 0 74.5 -31t29.5 -78q0 -35 -16.5 -83.5t-46.5 -102.5l-510 -934q-85 -154 -148 -207t-147 -53q-61 0 -97 26t-36 70q0 36 25.5 62t60.5 26q34 0 53.5 -23.5t19.5 -64.5v-10h3
q71 0 187 203l1 2l90 157l-186 856q-7 27 -17.5 38.5t-29.5 11.5q-23 0 -85 -53l-8 -6l-30 36q55 69 110 103t111 34q55 0 87 -31t48 -102z" />
    <glyph glyph-name="z" unicode="z" horiz-adv-x="1053" 
d="M-115 0l848 854q-42 -19 -81 -28t-79 -9q-58 0 -143 18.5t-111 18.5q-39 0 -78 -20t-79 -62l-41 35q71 113 159 166t203 53q55 0 158 -21.5t150 -21.5q55 0 114.5 21.5t67.5 21.5q11 0 15.5 -2.5t4.5 -9.5q0 -8 -4.5 -17t-13.5 -18l-819 -815q65 20 109 29.5t73 9.5
q67 0 187 -50.5t165 -50.5q25 0 39 13.5t14 38.5v8q-29 5 -46 24.5t-17 46.5q0 35 25 58.5t61 23.5t60 -28.5t24 -73.5q0 -103 -82.5 -172.5t-210.5 -69.5q-79 0 -214.5 46t-201.5 46q-52 0 -115 -15.5t-141 -47.5z" />
    <glyph glyph-name="braceleft" unicode="{" 
d="M848 1516v-53q-136 -2 -186 -55t-50 -210v-141q0 -227 -59 -308.5t-217 -113.5q159 -32 217.5 -113.5t58.5 -308.5v-141q0 -157 49.5 -209t186.5 -54v-53h-10q-219 0 -301 74t-82 272v207q0 161 -59 221.5t-218 73.5v64q161 13 219 73.5t58 221.5v206q0 199 82 273
t301 74h10z" />
    <glyph glyph-name="bar" unicode="|" 
d="M438 1565h150v-2048h-150v2048z" />
    <glyph glyph-name="braceright" unicode="}" 
d="M176 1516h10q220 0 302.5 -74t82.5 -273v-206q0 -161 58 -221.5t219 -73.5v-64q-161 -13 -219 -73.5t-58 -221.5v-207q0 -198 -82.5 -272t-302.5 -74h-10v53q137 2 186.5 54.5t49.5 208.5v141q0 227 58.5 308.5t217.5 113.5q-158 32 -217 113.5t-59 308.5v141
q0 157 -50 210t-186 55v53z" />
    <glyph glyph-name="asciitilde" unicode="~" horiz-adv-x="1706" 
d="M1530 770v-156q-104 -72 -199 -106.5t-190 -34.5q-93 0 -256 58q-22 8 -34 12l-15 5q-176 60 -273 60q-84 0 -175 -37t-210 -120v155q106 72 202 108t185 36q62 0 127.5 -13.5t163.5 -48.5q16 -5 47 -17q159 -57 240 -57q88 0 179.5 37t207.5 119z" />
    <glyph glyph-name="euro" horiz-adv-x="1057" 
d="M1194 1434l-90 -344q-8 -2 -19.5 -3.5t-15.5 -1.5q-28 0 -42 22t-19 73q-17 118 -48.5 167.5t-89.5 49.5q-120 0 -232 -135t-192 -369h494l-43 -88h-477q-12 -41 -22 -82.5t-17 -79.5h436l-43 -88h-403q-3 -23 -4.5 -47.5t-1.5 -52.5q0 -178 66 -280.5t190 -102.5
q72 0 144 49.5t155 157.5l55 -48q-88 -128 -184 -192t-201 -64q-206 0 -318 140t-112 383q0 24 0.5 36t0.5 21h-202l43 88h167q6 44 15.5 88t19.5 74h-194l43 88h180q87 245 264 410t361 165q86 0 147 -38.5t64 -38.5q17 0 31.5 10.5t25.5 32.5h68z" />
    <glyph glyph-name="euro" unicode="&#x20ac;" horiz-adv-x="1057" 
d="M1194 1434l-90 -344q-8 -2 -19.5 -3.5t-15.5 -1.5q-28 0 -42 22t-19 73q-17 118 -48.5 167.5t-89.5 49.5q-120 0 -232 -135t-192 -369h494l-43 -88h-477q-12 -41 -22 -82.5t-17 -79.5h436l-43 -88h-403q-3 -23 -4.5 -47.5t-1.5 -52.5q0 -178 66 -280.5t190 -102.5
q72 0 144 49.5t155 157.5l55 -48q-88 -128 -184 -192t-201 -64q-206 0 -318 140t-112 383q0 24 0.5 36t0.5 21h-202l43 88h167q6 44 15.5 88t19.5 74h-194l43 88h180q87 245 264 410t361 165q86 0 147 -38.5t64 -38.5q17 0 31.5 10.5t25.5 32.5h68z" />
    <glyph glyph-name="nonbreakingspace" unicode="&#xa0;" horiz-adv-x="1057" 
 />
    <glyph glyph-name="exclamdown" unicode="&#xa1;" horiz-adv-x="604" 
d="M444 1090l-165 -857q-28 -137 -67 -198.5t-99 -61.5q-41 0 -63.5 26.5t-22.5 74.5q0 31 15 90.5t44 138.5l295 787h63zM471 1468q47 0 72.5 -28.5t25.5 -81.5q0 -56 -34.5 -94.5t-83.5 -38.5q-46 0 -74.5 30t-28.5 78q0 57 36 96t87 39z" />
    <glyph glyph-name="cent" unicode="&#xa2;" horiz-adv-x="1057" 
d="M381 328l244 819q-156 -71 -251 -229t-95 -347q0 -86 24.5 -144t77.5 -99zM416 190l-58 -190h-73l61 207q-130 43 -198 134.5t-68 223.5q0 250 159.5 440.5t413.5 239.5l52 176h75l-51 -174q4 0 13.5 1t13.5 1q81 0 133.5 -40t52.5 -99q0 -43 -28 -70.5t-72 -27.5
q-39 0 -62.5 22t-23.5 58q0 4 1 14t1 14q0 26 -11.5 37.5t-35.5 11.5h-6l-256 -868q13 -4 28.5 -6t32.5 -2q65 0 136 31t153 96l41 -53q-92 -92 -186 -135.5t-201 -43.5q-7 0 -19 1t-18 1z" />
    <glyph glyph-name="sterling" unicode="&#xa3;" horiz-adv-x="1057" 
d="M406 125q-88 66 -157.5 97.5t-129.5 31.5q-52 0 -84.5 -23.5t-32.5 -60.5q0 -51 52.5 -83t140.5 -32q62 0 113 17t98 53zM473 66q-73 -47 -147.5 -70t-157.5 -23q-136 0 -223.5 59t-87.5 148q0 76 60.5 122t162.5 46q85 0 177.5 -40.5t203.5 -127.5q55 53 81.5 107.5
t26.5 111.5t-27 122.5t-81 142.5h-381v75h317q-84 117 -121.5 203.5t-37.5 161.5q0 161 112 262.5t291 101.5q123 0 200 -50t77 -128q0 -43 -28.5 -70.5t-72.5 -27.5q-34 0 -55 20t-21 52q0 12 9.5 34t9.5 33q0 28 -23 44t-65 16q-103 0 -168.5 -65.5t-65.5 -166.5
q0 -69 46.5 -175t138.5 -245h327v-75h-280q31 -67 47 -125.5t16 -108.5q0 -94 -43 -171t-131 -138q39 -29 73 -43.5t66 -14.5q50 0 98 36t105 116l53 -49q-50 -89 -115.5 -133.5t-148.5 -44.5q-47 0 -100 19t-117 59z" />
    <glyph glyph-name="currency" unicode="&#xa4;" horiz-adv-x="1057" 
d="M1194 1434l-90 -344q-8 -2 -19.5 -3.5t-15.5 -1.5q-28 0 -42 22t-19 73q-17 118 -48.5 167.5t-89.5 49.5q-120 0 -232 -135t-192 -369h494l-43 -88h-477q-12 -41 -22 -82.5t-17 -79.5h436l-43 -88h-403q-3 -23 -4.5 -47.5t-1.5 -52.5q0 -178 66 -280.5t190 -102.5
q72 0 144 49.5t155 157.5l55 -48q-88 -128 -184 -192t-201 -64q-206 0 -318 140t-112 383q0 24 0.5 36t0.5 21h-202l43 88h167q6 44 15.5 88t19.5 74h-194l43 88h180q87 245 264 410t361 165q86 0 147 -38.5t64 -38.5q17 0 31.5 10.5t25.5 32.5h68z" />
    <glyph glyph-name="yen" unicode="&#xa5;" horiz-adv-x="1143" 
d="M543 1436v-21q0 -22 -3.5 -32t-11.5 -15q-9 -8 -29 -19q-44 -27 -44 -63q0 -19 12 -53q4 -11 6 -16l145 -435l430 483q1 1 4 5q23 26 23 43q0 18 -34.5 39.5t-34.5 40.5q0 10 2 19.5t8 23.5l328 -1q1 -3 1.5 -6t0.5 -8q0 -31 -64 -68.5t-96 -74.5l-291 -328h231l-20 -84
h-285l-141 -155h387l-20 -84h-416l-105 -406q-7 -27 -10.5 -49.5t-3.5 -38.5q0 -21 35 -47t35 -41q0 -10 -2.5 -21t-8.5 -24h-391v10q0 42 59 71q24 12 35 19q30 19 54 117q2 10 4 17l96 393h-389l20 84h379l-53 155h-287l21 84h229l-106 293q-13 36 -27.5 59.5t-32.5 36.5
q-6 4 -18 11q-45 24 -45 67q0 3 1 9.5t1 9.5h422z" />
    <glyph glyph-name="brokenbar" unicode="&#xa6;" 
d="M438 408h150v-758h-150v758zM438 1432h150v-758h-150v758z" />
    <glyph glyph-name="section" unicode="&#xa7;" 
d="M242 745q0 -34 17.5 -77t53.5 -99q75 -117 129 -163t113 -46q68 0 113 42.5t45 105.5q0 31 -15 67.5t-63 110.5q-87 134 -134 170.5t-104 36.5q-64 0 -109.5 -43t-45.5 -105zM508 322q67 -76 102 -150t35 -143q0 -112 -87 -184t-224 -72q-121 0 -200 62t-79 155
q0 48 31 80t78 32q36 0 62 -25.5t26 -60.5q0 -32 -35 -74t-35 -57q0 -29 38 -48t97 -19q90 0 145.5 49t55.5 127q0 85 -127 243q-19 23 -29 35l-102 129q-78 97 -108.5 162.5t-30.5 128.5q0 109 72 178.5t186 69.5q17 0 34 -1.5t33 -4.5q-68 76 -101.5 144.5t-33.5 133.5
q0 114 89.5 186t232.5 72q104 0 177 -57.5t73 -138.5q0 -52 -29.5 -84.5t-75.5 -32.5q-39 0 -65.5 24t-26.5 60q0 33 32 71t32 50q0 23 -38 43t-91 20q-82 0 -135.5 -45.5t-53.5 -115.5q0 -47 27.5 -100.5t128.5 -178.5l102 -127q80 -99 112 -166t32 -131q0 -108 -71 -178
t-181 -70q-21 0 -39.5 2t-34.5 7z" />
    <glyph glyph-name="dieresis" unicode="&#xa8;" 
d="M682 1303q0 41 32.5 73.5t73.5 32.5q45 0 77 -31.5t32 -74.5q0 -47 -31 -78t-78 -31q-45 0 -75.5 31t-30.5 78zM313 1303q0 41 32.5 73.5t74.5 32.5q44 0 76 -31.5t32 -74.5q0 -47 -30.5 -78t-77.5 -31q-46 0 -76.5 31t-30.5 78z" />
    <glyph glyph-name="copyright" unicode="&#xa9;" horiz-adv-x="1683" 
d="M1122 1098h37l2 -316h-43q-32 135 -103 204t-177 69q-119 0 -179.5 -93.5t-60.5 -277.5q0 -187 66.5 -284t193.5 -97q84 0 153.5 44t127.5 132l39 -26q-61 -105 -148 -158t-199 -53q-173 0 -292 124t-119 304q0 183 118.5 307.5t290.5 124.5q75 0 149.5 -33t80.5 -33
q27 0 42 14.5t21 47.5zM844 1305q-123 0 -238 -49t-203 -138q-88 -90 -134 -202.5t-46 -237.5q0 -127 46.5 -239t136.5 -201q91 -90 201.5 -136.5t234.5 -46.5q126 0 237 46.5t199 136.5q89 90 136.5 204t47.5 236q0 123 -48 241t-134 203q-86 86 -201 134.5t-235 48.5z
M844 1391q138 0 269 -54.5t230 -152.5q100 -99 154.5 -232t54.5 -274q0 -140 -53.5 -269.5t-155.5 -232.5q-99 -101 -228 -155t-273 -54q-142 0 -270 53.5t-232 155.5q-103 102 -156 229t-53 273q0 141 53.5 270t155.5 232q100 101 230.5 156t273.5 55z" />
    <glyph glyph-name="ordfeminine" unicode="&#xaa;" horiz-adv-x="903" 
d="M752 801l16 -33q-37 -29 -75 -44t-77 -15q-54 0 -82 21t-28 63q0 2 1 7.5t1 8.5q-60 -51 -125 -75.5t-137 -24.5q-102 0 -167 66t-65 171q0 80 29 158.5t84 150.5q74 95 170.5 145t202.5 50q56 0 101.5 -15t84.5 -46l121 57h33l-172 -602q-4 -13 -6 -23.5t-3 -13.5
q0 -11 8 -20t17 -9q8 0 24 5.5t44 17.5zM539 948l94 324q4 13 6 24.5t2 20.5q0 35 -31.5 58.5t-79.5 23.5q-60 0 -116.5 -26t-100.5 -75q-65 -73 -107 -173t-42 -181q0 -75 35 -117.5t98 -42.5q79 0 149.5 47t92.5 117z" />
    <glyph glyph-name="guillemotleft" unicode="&#xab;" horiz-adv-x="1028" 
d="M254 489l137 -339q4 -10 6 -17t2 -12q0 -10 -6.5 -17.5t-13.5 -7.5q-14 0 -47 42l-2 3l-279 359l471 395q11 9 16.5 11.5t10.5 2.5q10 0 16 -5t6 -15q0 -18 -29 -53l-3 -4zM604 489l137 -339q5 -10 7 -17t2 -12q0 -10 -7 -17.5t-14 -7.5q-14 0 -47 43l-2 2l-277 359
l469 395q9 7 16 10.5t13 3.5q10 0 15.5 -5t5.5 -15q0 -11 -6 -23t-25 -35z" />
    <glyph glyph-name="logicalnot" unicode="&#xac;" horiz-adv-x="1706" 
d="M254 860h1198v-502h-137v363h-1061v139z" />
    <glyph glyph-name="sfthyphen" unicode="&#xad;" horiz-adv-x="627" 
d="M-14 426l37 147h487l-37 -147h-487z" />
    <glyph glyph-name="registered" unicode="&#xae;" horiz-adv-x="1683" 
d="M738 721q13 -1 28 -1.5t35 -0.5q105 0 163 45t58 127q0 72 -50 116t-134 44q-51 0 -76 -17.5t-25 -52.5zM467 1094h397q144 0 231 -54t87 -141q0 -83 -66 -131.5t-219 -75.5q95 -28 145 -76.5t68 -130.5q1 -9 3 -28q11 -125 67 -125q31 0 47 33.5t16 97.5h45v-19
q0 -84 -41 -129t-119 -45q-49 0 -84 16t-51 46q-20 37 -22 110t-8 97q-19 71 -66.5 105t-130.5 34h-29v-246q0 -51 25.5 -72t93.5 -27v-44h-389v44q69 4 95 25.5t26 73.5v516q0 53 -26 74.5t-95 26.5v45zM844 1305q-123 0 -238 -49t-203 -138q-88 -90 -134 -202.5
t-46 -237.5q0 -127 46.5 -239t136.5 -201q89 -90 199.5 -136.5t236.5 -46.5q125 0 237 47t199 136q88 90 135 203t47 237q0 125 -47.5 242t-132.5 202q-86 86 -201 134.5t-235 48.5zM844 1391q140 0 273 -56t233 -157q97 -99 149.5 -230.5t52.5 -275.5q0 -139 -56 -270
t-161 -234q-100 -99 -228 -150t-276 -51q-134 0 -261.5 54.5t-229.5 154.5q-102 101 -155.5 229t-53.5 273q0 142 53 270.5t154 231.5q100 101 231.5 156t274.5 55z" />
    <glyph glyph-name="macron" unicode="&#xaf;" 
d="M319 1231l31 139h539l-29 -139h-541z" />
    <glyph glyph-name="degree" unicode="&#xb0;" horiz-adv-x="674" 
d="M338 1362q-81 0 -138 -56t-57 -137t57 -138.5t138 -57.5t136.5 57.5t55.5 138.5t-55.5 137t-136.5 56zM338 1456q118 0 202.5 -84.5t84.5 -204.5q0 -119 -84 -202.5t-205 -83.5t-204 83t-83 203t85 204.5t204 84.5z" />
    <glyph glyph-name="plusminus" unicode="&#xb1;" horiz-adv-x="1706" 
d="M254 170h1198v-141h-1198v141zM782 1192h142v-340h528v-139h-528v-340h-142v340h-528v139h528v340z" />
    <glyph glyph-name="twosuperior" unicode="&#xb2;" horiz-adv-x="698" 
d="M-98 578v12q0 58 125 149q41 30 64 48l12 10q209 166 276 231q63 58 97 120t34 122q0 67 -44.5 107t-119.5 40q-52 0 -90.5 -16.5t-38.5 -34.5q0 -7 21.5 -27.5t21.5 -40.5q0 -25 -20.5 -42t-51.5 -17q-35 0 -57 21t-22 55q0 62 70.5 103.5t180.5 41.5q133 0 213 -57.5
t80 -151.5q0 -68 -44 -129.5t-189 -171.5q-14 -10 -149.5 -102t-235.5 -176h192q70 0 111 14t72 48q3 3 8 9q24 29 59 29h23l-64 -194h-534z" />
    <glyph glyph-name="threesuperior" unicode="&#xb3;" horiz-adv-x="698" 
d="M193 1024l8 35q159 18 246.5 78t87.5 151q0 55 -45.5 92t-114.5 37q-51 0 -80 -11.5t-29 -31.5q0 -5 5 -20t5 -25q0 -27 -17 -43t-46 -16q-33 0 -50.5 13.5t-17.5 39.5q0 61 71.5 99t186.5 38t187 -52.5t72 -133.5q0 -84 -72.5 -140t-216.5 -85q93 -19 144.5 -71
t51.5 -128q0 -53 -28.5 -104.5t-81.5 -92.5q-57 -44 -132.5 -67t-164.5 -23q-100 0 -164 37t-64 92q0 33 25 55.5t61 22.5q27 0 46.5 -15.5t19.5 -35.5q0 -21 -25.5 -45.5t-25.5 -30.5q0 -13 31.5 -25t76.5 -12q46 0 83.5 10t70.5 31q63 41 99 102t36 128q0 72 -54 110.5
t-155 38.5q-5 0 -15 -1t-15 -1z" />
    <glyph glyph-name="acute" unicode="&#xb4;" 
d="M489 1139h-90l293 295q31 30 60.5 46.5t54.5 16.5q35 0 57.5 -22t22.5 -58q0 -23 -17.5 -43.5t-60.5 -46.5z" />
    <glyph glyph-name="mu" unicode="&#xb5;" horiz-adv-x="1169" 
d="M166 195q-33 -143 -64 -355q-37 -260 -116 -260q-43 0 -65.5 24.5t-22.5 69.5q0 44 70 277t110 422l108 512h168l-100 -475q-9 -40 -13.5 -74.5t-4.5 -59.5q0 -70 41.5 -108.5t119.5 -38.5q97 0 154 54.5t82 172.5l112 529h173l-115 -532q-9 -43 -14 -75.5t-5 -52.5
q0 -48 26.5 -74t76.5 -26q44 0 81 25t58 69q13 27 27 73q17 56 39 56q9 0 15.5 -8t6.5 -21q0 -34 -13.5 -88t-35.5 -100q-39 -78 -92.5 -117t-122.5 -39q-81 0 -125.5 55t-44.5 154v13q-52 -115 -123 -168.5t-172 -53.5q-95 0 -151 56t-68 164z" />
    <glyph glyph-name="paragraph" unicode="&#xb6;" 
d="M958 1479v-86h-120v-1393h-111v1393h-176v-1393h-113v782q-170 8 -271 102.5t-101 245.5q0 157 107.5 253t285.5 96h499z" />
    <glyph glyph-name="glyph122" unicode="&#xb7;" horiz-adv-x="528" 
d="M135 731q0 55 37 92t92 37q56 0 93.5 -37t37.5 -92t-38 -93t-93 -38t-92 38t-37 93z" />
    <glyph glyph-name="cedilla" unicode="&#xb8;" 
d="M109 -381l36 90q58 -36 118.5 -56t115.5 -20q56 0 83 22t27 66q0 42 -26.5 64t-77.5 22q-13 0 -33 -2t-63 -8l65 203h64l-35 -115q11 2 24 3t37 1q88 0 137.5 -43.5t49.5 -121.5q0 -86 -59.5 -133.5t-165.5 -47.5q-57 0 -130 19t-167 57z" />
    <glyph glyph-name="onesuperior" unicode="&#xb9;" horiz-adv-x="698" 
d="M532 1460l-217 -751q-6 -22 -8 -32.5t-2 -17.5q0 -12 29 -29q11 -6 17 -10q2 -1 3.5 -6t1.5 -12q0 -10 -0.5 -14t-3.5 -10h-272v2q0 36 42 54q9 4 15 7q20 10 31.5 27.5t21.5 54.5l185 641h-137v4q0 15 8.5 23t42.5 18l184 51h59z" />
    <glyph glyph-name="ordmasculine" unicode="&#xba;" horiz-adv-x="885" 
d="M446 1389q-63 0 -118 -35t-99 -103q-35 -59 -55 -130.5t-20 -139.5q0 -101 48.5 -158t133.5 -57q51 0 99.5 24t84.5 68q54 65 85.5 153.5t31.5 176.5q0 93 -51 147t-140 54zM2 1036q0 89 50.5 178t135.5 150q57 40 126.5 61t144.5 21q148 0 240 -86t92 -223
q0 -76 -30.5 -149t-86.5 -134q-64 -70 -151.5 -106.5t-188.5 -36.5q-151 0 -241.5 89t-90.5 236z" />
    <glyph glyph-name="guillemotright" unicode="&#xbb;" horiz-adv-x="1028" 
d="M295 514l-135 340q-5 10 -6.5 17t-1.5 12q0 9 6.5 16.5t13.5 7.5q14 0 47 -42l2 -3l277 -358l-470 -396q-9 -7 -16 -10.5t-12 -3.5q-10 0 -16 5.5t-7 15.5q0 17 30 53l4 5zM647 514l-135 340q-4 10 -6 17t-2 12q0 9 6.5 16.5t13.5 7.5q14 0 47 -42l2 -2l277 -359
l-470 -396q-9 -7 -16 -10.5t-12 -3.5q-11 1 -16.5 6t-5.5 15q0 17 30 54l3 4z" />
    <glyph glyph-name="onequarter" unicode="&#xbc;" horiz-adv-x="1673" 
d="M1364 289l139 422l-424 -422h285zM1647 823l-156 -534h120q-1 -34 -9.5 -43.5t-38.5 -9.5h-90l-33 -117q-4 -12 -6 -22.5t-2 -18.5q0 -15 34 -32q3 -1 6 -3q5 -3 8 -9t3 -14q0 -2 -1 -9t-1 -11h-264v4q0 33 40 48q5 2 8 3q20 10 29.5 24t18.5 48l33 109h-357l10 49
l547 538h101zM324 -25l919 1495h105l-920 -1495h-104zM508 1458l-207 -702q-6 -21 -8 -29.5t-2 -13.5q0 -14 30 -30q9 -5 13 -7q3 -3 4.5 -8t1.5 -11q0 -8 -1 -13t-3 -9h-260v2q0 33 38 49q11 5 17 8q19 10 29.5 26t19.5 52l178 596h-131v4q0 15 9 23t40 16l175 47h57z" />
    <glyph glyph-name="onehalf" unicode="&#xbd;" horiz-adv-x="1673" 
d="M915 0q0 2 -1 6t-1 6q0 55 122 141q38 26 58 41l11 9q201 157 266 217q61 56 93 114.5t32 112.5q0 63 -42.5 99t-115.5 36q-49 0 -86 -14.5t-37 -30.5q0 -7 20.5 -26.5t20.5 -36.5q0 -24 -19.5 -41t-47.5 -17q-34 0 -55 20t-21 52q0 58 67 96.5t173 38.5
q127 0 203.5 -53.5t76.5 -140.5q0 -63 -42 -120.5t-181 -160.5q-15 -11 -144 -96.5t-225 -163.5h185q64 0 103.5 13.5t70.5 43.5q4 5 10 12q22 25 53 25q9 0 13.5 -0.5t7.5 -1.5l-60 -180h-508zM324 -25l919 1495h105l-920 -1495h-104zM508 1458l-207 -702q-6 -21 -8 -29.5
t-2 -13.5q0 -14 30 -30q9 -5 13 -7q3 -3 4.5 -8t1.5 -11q0 -8 -1 -13t-3 -9h-260v2q0 33 38 49q11 5 17 8q19 10 29.5 26t19.5 52l178 596h-131v4q0 15 9 23t40 16l175 47h57z" />
    <glyph glyph-name="threequarters" unicode="&#xbe;" horiz-adv-x="1673" 
d="M1364 289l139 422l-424 -422h285zM1647 823l-156 -534h120q-1 -34 -9.5 -43.5t-38.5 -9.5h-90l-33 -117q-4 -12 -6 -22.5t-2 -18.5q0 -15 34 -32q3 -1 6 -3q5 -3 8 -9t3 -14q0 -2 -1 -9t-1 -11h-264v4q0 33 40 48q5 2 8 3q20 10 29.5 24t18.5 48l33 109h-357l10 49
l547 538h101zM324 -25l919 1495h105l-920 -1495h-104zM182 1053l8 32q152 17 236 73t84 140q0 52 -42.5 85.5t-109.5 33.5q-51 0 -77.5 -10t-26.5 -29q0 -5 5 -19t5 -24q0 -24 -16 -38.5t-43 -14.5q-33 0 -49.5 12.5t-16.5 36.5q0 57 68 92t178 35q109 0 178.5 -48.5
t69.5 -123.5q0 -79 -69.5 -132t-207.5 -79q89 -16 138 -65t49 -121q0 -50 -27 -97.5t-78 -86.5q-55 -41 -127.5 -62.5t-154.5 -21.5q-94 0 -155.5 34.5t-61.5 85.5q0 31 22.5 51.5t56.5 20.5q28 0 46 -13.5t18 -33.5q0 -18 -24.5 -41t-24.5 -29q0 -13 30.5 -23.5t73.5 -10.5
q44 0 79.5 9.5t66.5 28.5q60 38 95.5 95.5t35.5 117.5q0 68 -52 104t-149 36h-31z" />
    <glyph glyph-name="questiondown" unicode="&#xbf;" horiz-adv-x="829" 
d="M612 1087q-22 -177 -206 -398q-19 -24 -29 -36q-125 -151 -162 -229t-37 -156q0 -102 58.5 -161.5t158.5 -59.5q51 0 89 20.5t38 45.5q0 15 -14 46.5t-14 47.5q0 37 24.5 59.5t65.5 22.5q43 0 69.5 -28t26.5 -73q0 -92 -93 -152.5t-241 -60.5q-168 0 -267 87t-99 233
q0 69 29.5 137.5t84.5 126.5q59 62 151.5 135.5t114.5 96.5q90 89 126 153t55 143h71zM643 1468q47 0 72.5 -28t25.5 -80q0 -57 -34.5 -96t-83.5 -39q-45 0 -74 31t-29 79q0 56 36 94.5t87 38.5z" />
    <glyph glyph-name="Agrave" unicode="&#xc0;" horiz-adv-x="1229" 
d="M743 518l-75 602l-351 -602h426zM821 1483l162 -1219q9 -64 19 -96.5t24 -50.5q9 -10 33 -25q51 -31 51 -74q0 -7 -0.5 -11t-2.5 -7h-411v27q0 18 3 27.5t10 15.5q10 7 28 18q47 26 47 82q0 13 -1 26t-3 27l-22 191h-502l-109 -191q-14 -25 -22 -48.5t-8 -39.5
q0 -23 38 -48t38 -42q-1 -11 -3 -21.5t-8 -23.5h-332v10q0 42 61 72q21 10 32 16q36 23 95 125l7 13l606 1034l-14 102v12q0 17 9 28.5t25 16.5zM975 1579h-82l-265 198q-30 23 -44.5 43.5t-14.5 40.5q0 34 21.5 56t54.5 22q20 0 42 -13.5t42 -37.5z" />
    <glyph glyph-name="Aacute" unicode="&#xc1;" horiz-adv-x="1229" 
d="M743 518l-75 602l-351 -602h426zM821 1483l162 -1219q9 -64 19 -96.5t24 -50.5q9 -10 33 -25q51 -31 51 -74q0 -7 -0.5 -11t-2.5 -7h-411v27q0 18 3 27.5t10 15.5q10 7 28 18q47 26 47 82q0 13 -1 26t-3 27l-22 191h-502l-109 -191q-14 -25 -22 -48.5t-8 -39.5
q0 -23 38 -48t38 -42q-1 -11 -3 -21.5t-8 -23.5h-332v10q0 42 61 72q21 10 32 16q36 23 95 125l7 13l606 1034l-14 102v12q0 17 9 28.5t25 16.5zM714 1579h-90l293 295q31 30 60.5 46.5t54.5 16.5q35 0 57.5 -22t22.5 -58q0 -23 -17.5 -43.5t-60.5 -46.5z" />
    <glyph glyph-name="Acircumflex" unicode="&#xc2;" horiz-adv-x="1229" 
d="M743 518l-75 602l-351 -602h426zM821 1483l162 -1219q9 -64 19 -96.5t24 -50.5q9 -10 33 -25q51 -31 51 -74q0 -7 -0.5 -11t-2.5 -7h-411v27q0 18 3 27.5t10 15.5q10 7 28 18q47 26 47 82q0 13 -1 26t-3 27l-22 191h-502l-109 -191q-14 -25 -22 -48.5t-8 -39.5
q0 -23 38 -48t38 -42q-1 -11 -3 -21.5t-8 -23.5h-332v10q0 42 61 72q21 10 32 16q36 23 95 125l7 13l606 1034l-14 102v12q0 17 9 28.5t25 16.5zM1079 1579h-74l-166 194l-252 -194h-98l309 348h115z" />
    <glyph glyph-name="Atilde" unicode="&#xc3;" horiz-adv-x="1229" 
d="M743 518l-75 602l-351 -602h426zM821 1483l162 -1219q9 -64 19 -96.5t24 -50.5q9 -10 33 -25q51 -31 51 -74q0 -7 -0.5 -11t-2.5 -7h-411v27q0 18 3 27.5t10 15.5q10 7 28 18q47 26 47 82q0 13 -1 26t-3 27l-22 191h-502l-109 -191q-14 -25 -22 -48.5t-8 -39.5
q0 -23 38 -48t38 -42q-1 -11 -3 -21.5t-8 -23.5h-332v10q0 42 61 72q21 10 32 16q36 23 95 125l7 13l606 1034l-14 102v12q0 17 9 28.5t25 16.5zM1130 1855q-20 -99 -68.5 -151t-121.5 -52q-17 0 -37 3.5t-43 9.5l-129 35q-14 4 -27.5 6t-32.5 2q-32 0 -51.5 -19t-28.5 -59
h-61q14 101 59 152t119 51q15 0 33 -2.5t42 -8.5l129 -35q20 -5 34.5 -7.5t21.5 -2.5q43 0 66.5 18.5t34.5 59.5h61z" />
    <glyph glyph-name="Adieresis" unicode="&#xc4;" horiz-adv-x="1229" 
d="M743 518l-75 602l-351 -602h426zM821 1483l162 -1219q9 -64 19 -96.5t24 -50.5q9 -10 33 -25q51 -31 51 -74q0 -7 -0.5 -11t-2.5 -7h-411v27q0 18 3 27.5t10 15.5q10 7 28 18q47 26 47 82q0 13 -1 26t-3 27l-22 191h-502l-109 -191q-14 -25 -22 -48.5t-8 -39.5
q0 -23 38 -48t38 -42q-1 -11 -3 -21.5t-8 -23.5h-332v10q0 42 61 72q21 10 32 16q36 23 95 125l7 13l606 1034l-14 102v12q0 17 9 28.5t25 16.5zM907 1743q0 41 32.5 73.5t73.5 32.5q45 0 77 -31.5t32 -74.5q0 -47 -31 -78t-78 -31q-45 0 -75.5 31t-30.5 78zM538 1743
q0 41 32.5 73.5t74.5 32.5q44 0 76 -31.5t32 -74.5q0 -47 -30.5 -78t-77.5 -31q-46 0 -76.5 31t-30.5 78z" />
    <glyph glyph-name="Aring" unicode="&#xc5;" horiz-adv-x="1229" 
d="M555 1755q0 91 62.5 154t152.5 63q91 0 154 -63t63 -154q0 -90 -63 -152.5t-154 -62.5t-153 62.5t-62 152.5zM651 1757q0 -49 36 -85t85 -36t84 36t35 85q0 50 -34.5 84.5t-84.5 34.5q-49 0 -85 -35t-36 -84zM743 518l-75 602l-351 -602h426zM821 1483l162 -1219
q9 -64 19 -96.5t24 -50.5q9 -10 33 -25q51 -31 51 -74q0 -7 -0.5 -11t-2.5 -7h-411v27q0 18 3 27.5t10 15.5q10 7 28 18q47 26 47 82q0 13 -1 26t-3 27l-22 191h-502l-109 -191q-14 -25 -22 -48.5t-8 -39.5q0 -23 38 -48t38 -42q-1 -11 -3 -21.5t-8 -23.5h-332v10
q0 42 61 72q21 10 32 16q36 23 95 125l7 13l606 1034l-14 102v12q0 17 9 28.5t25 16.5z" />
    <glyph glyph-name="AE" unicode="&#xc6;" horiz-adv-x="1882" 
d="M858 690h-375l-360 -467q-23 -29 -36 -55t-13 -41q0 -18 34.5 -42t34.5 -40q0 -11 -2.5 -22t-7.5 -23h-326q0 3 -1 8t-1 8q0 39 52 69q19 11 29 18q29 20 56.5 46.5t45.5 51.5l794 1048q33 42 42.5 59.5t9.5 30.5q0 17 -23 33.5t-23 26.5q1 10 3.5 20.5t9.5 26.5h831
q22 0 80 6t160 18l-88 -350h-17q-71 0 -84 88q-3 22 -6 36q-14 72 -57 98t-166 26h-215l-139 -557h190q58 0 105 71q9 14 14 21q11 16 27 23.5t37 7.5q8 0 19 -1.5t23 -4.5l-96 -385h-18q-31 0 -46 14t-28 64q-17 58 -38 74t-75 16h-139l-151 -605h196q168 0 240.5 31
t130.5 111q10 14 26 38q51 79 117 79q4 0 12.5 -1.5t12.5 -1.5l-90 -362h-979v10q0 42 59 71q23 12 35 19q29 20 56 123l3 12zM881 786l143 578h-27l-440 -578h324z" />
    <glyph glyph-name="Ccedilla" unicode="&#xc7;" horiz-adv-x="1331" 
d="M1135 238q-113 -135 -232 -199t-256 -64q-256 0 -417.5 160.5t-161.5 415.5q0 177 66.5 347.5t191.5 309.5q112 124 251 192t281 68q92 0 157 -15t128 -50q8 -4 21 -13q28 -18 44 -18q19 0 38.5 10.5t37.5 30.5l76 -4l-92 -364q-7 -2 -14 -2.5t-19 -0.5q-69 0 -82 88
q-3 15 -4 23q-20 117 -83.5 173t-174.5 56q-118 0 -233 -79t-201 -220q-70 -113 -108 -258t-38 -297q0 -212 95.5 -327t271.5 -115q101 0 195.5 49.5t195.5 157.5zM324 -381l36 90q58 -36 118.5 -56t115.5 -20q56 0 83 22t27 66q0 42 -26.5 64t-77.5 22q-13 0 -33 -2t-63 -8
l65 203h64l-35 -115q11 2 24 3t37 1q88 0 137.5 -43.5t49.5 -121.5q0 -86 -59.5 -133.5t-165.5 -47.5q-57 0 -130 19t-167 57z" />
    <glyph glyph-name="Egrave" unicode="&#xc8;" horiz-adv-x="1165" 
d="M-78 0v10q0 42 59 71q23 12 35 19q28 18 55 125l3 11l246 975q1 6 3 15q15 65 15 83q0 12 -9 24.5t-32 28.5q-2 2 -6 5q-25 21 -25 34q0 10 2.5 21t7.5 23l691 1q22 0 79.5 6t159.5 18l-88 -350h-16q-72 0 -85 88q-3 23 -5 35q-14 73 -57.5 99t-166.5 26h-215l-139 -557
h191q58 0 104 71q9 13 15 22q11 15 26.5 22.5t36.5 7.5q9 0 19.5 -1.5t22.5 -4.5l-95 -385h-19q-31 0 -46 14t-27 64q-17 58 -38.5 74t-74.5 16h-139l-152 -605h197q167 0 239.5 31t130.5 110q10 14 26 38q52 80 118 80q4 0 12 -1.5t12 -1.5l-90 -362h-981zM949 1579h-82
l-265 198q-30 23 -44.5 43.5t-14.5 40.5q0 34 21.5 56t54.5 22q20 0 42 -13.5t42 -37.5z" />
    <glyph glyph-name="Eacute" unicode="&#xc9;" horiz-adv-x="1165" 
d="M-78 0v10q0 42 59 71q23 12 35 19q28 18 55 125l3 11l246 975q1 6 3 15q15 65 15 83q0 12 -9 24.5t-32 28.5q-2 2 -6 5q-25 21 -25 34q0 10 2.5 21t7.5 23l691 1q22 0 79.5 6t159.5 18l-88 -350h-16q-72 0 -85 88q-3 23 -5 35q-14 73 -57.5 99t-166.5 26h-215l-139 -557
h191q58 0 104 71q9 13 15 22q11 15 26.5 22.5t36.5 7.5q9 0 19.5 -1.5t22.5 -4.5l-95 -385h-19q-31 0 -46 14t-27 64q-17 58 -38.5 74t-74.5 16h-139l-152 -605h197q167 0 239.5 31t130.5 110q10 14 26 38q52 80 118 80q4 0 12 -1.5t12 -1.5l-90 -362h-981zM688 1579h-90
l293 295q31 30 60.5 46.5t54.5 16.5q35 0 57.5 -22t22.5 -58q0 -23 -17.5 -43.5t-60.5 -46.5z" />
    <glyph glyph-name="Ecircumflex" unicode="&#xca;" horiz-adv-x="1165" 
d="M-78 0v10q0 42 59 71q23 12 35 19q28 18 55 125l3 11l246 975q1 6 3 15q15 65 15 83q0 12 -9 24.5t-32 28.5q-2 2 -6 5q-25 21 -25 34q0 10 2.5 21t7.5 23l691 1q22 0 79.5 6t159.5 18l-88 -350h-16q-72 0 -85 88q-3 23 -5 35q-14 73 -57.5 99t-166.5 26h-215l-139 -557
h191q58 0 104 71q9 13 15 22q11 15 26.5 22.5t36.5 7.5q9 0 19.5 -1.5t22.5 -4.5l-95 -385h-19q-31 0 -46 14t-27 64q-17 58 -38.5 74t-74.5 16h-139l-152 -605h197q167 0 239.5 31t130.5 110q10 14 26 38q52 80 118 80q4 0 12 -1.5t12 -1.5l-90 -362h-981zM1053 1579h-74
l-166 194l-252 -194h-98l309 348h115z" />
    <glyph glyph-name="Edieresis" unicode="&#xcb;" horiz-adv-x="1165" 
d="M-78 0v10q0 42 59 71q23 12 35 19q28 18 55 125l3 11l246 975q1 6 3 15q15 65 15 83q0 12 -9 24.5t-32 28.5q-2 2 -6 5q-25 21 -25 34q0 10 2.5 21t7.5 23l691 1q22 0 79.5 6t159.5 18l-88 -350h-16q-72 0 -85 88q-3 23 -5 35q-14 73 -57.5 99t-166.5 26h-215l-139 -557
h191q58 0 104 71q9 13 15 22q11 15 26.5 22.5t36.5 7.5q9 0 19.5 -1.5t22.5 -4.5l-95 -385h-19q-31 0 -46 14t-27 64q-17 58 -38.5 74t-74.5 16h-139l-152 -605h197q167 0 239.5 31t130.5 110q10 14 26 38q52 80 118 80q4 0 12 -1.5t12 -1.5l-90 -362h-981zM881 1743
q0 41 32.5 73.5t73.5 32.5q45 0 77 -31.5t32 -74.5q0 -47 -31 -78t-78 -31q-45 0 -75.5 31t-30.5 78zM512 1743q0 41 32.5 73.5t74.5 32.5q44 0 76 -31.5t32 -74.5q0 -47 -30.5 -78t-77.5 -31q-46 0 -76.5 31t-30.5 78z" />
    <glyph glyph-name="Igrave" unicode="&#xcc;" horiz-adv-x="602" 
d="M281 224q-7 -29 -11 -51.5t-4 -31.5q0 -27 35 -55t35 -41q0 -10 -2.5 -21.5t-8.5 -23.5h-405v10q0 42 60 71q24 12 36 19q28 18 55 125l3 11l243 974q3 13 9 37q12 47 12 62q0 12 -9 24.5t-32 28.5q-2 2 -6 5q-25 21 -25 34q0 10 2.5 21t7.5 23l404 1v-10q0 -39 -53 -68
q-23 -12 -35 -20q-35 -25 -58 -113q-2 -9 -4 -15zM693 1579h-82l-265 198q-30 23 -44.5 43.5t-14.5 40.5q0 34 21.5 56t54.5 22q20 0 42 -13.5t42 -37.5z" />
    <glyph glyph-name="Iacute" unicode="&#xcd;" horiz-adv-x="602" 
d="M281 224q-7 -29 -11 -51.5t-4 -31.5q0 -27 35 -55t35 -41q0 -10 -2.5 -21.5t-8.5 -23.5h-405v10q0 42 60 71q24 12 36 19q28 18 55 125l3 11l243 974q3 13 9 37q12 47 12 62q0 12 -9 24.5t-32 28.5q-2 2 -6 5q-25 21 -25 34q0 10 2.5 21t7.5 23l404 1v-10q0 -39 -53 -68
q-23 -12 -35 -20q-35 -25 -58 -113q-2 -9 -4 -15zM432 1579h-90l293 295q31 30 60.5 46.5t54.5 16.5q35 0 57.5 -22t22.5 -58q0 -23 -17.5 -43.5t-60.5 -46.5z" />
    <glyph glyph-name="Icircumflex" unicode="&#xce;" horiz-adv-x="602" 
d="M281 224q-7 -29 -11 -51.5t-4 -31.5q0 -27 35 -55t35 -41q0 -10 -2.5 -21.5t-8.5 -23.5h-405v10q0 42 60 71q24 12 36 19q28 18 55 125l3 11l243 974q3 13 9 37q12 47 12 62q0 12 -9 24.5t-32 28.5q-2 2 -6 5q-25 21 -25 34q0 10 2.5 21t7.5 23l404 1v-10q0 -39 -53 -68
q-23 -12 -35 -20q-35 -25 -58 -113q-2 -9 -4 -15zM797 1579h-74l-166 194l-252 -194h-98l309 348h115z" />
    <glyph glyph-name="Idieresis" unicode="&#xcf;" horiz-adv-x="602" 
d="M281 224q-7 -29 -11 -51.5t-4 -31.5q0 -27 35 -55t35 -41q0 -10 -2.5 -21.5t-8.5 -23.5h-405v10q0 42 60 71q24 12 36 19q28 18 55 125l3 11l243 974q3 13 9 37q12 47 12 62q0 12 -9 24.5t-32 28.5q-2 2 -6 5q-25 21 -25 34q0 10 2.5 21t7.5 23l404 1v-10q0 -39 -53 -68
q-23 -12 -35 -20q-35 -25 -58 -113q-2 -9 -4 -15zM625 1743q0 41 32.5 73.5t73.5 32.5q45 0 77 -31.5t32 -74.5q0 -47 -31 -78t-78 -31q-45 0 -75.5 31t-30.5 78zM256 1743q0 41 32.5 73.5t74.5 32.5q44 0 76 -31.5t32 -74.5q0 -47 -30.5 -78t-77.5 -31q-46 0 -76.5 31
t-30.5 78z" />
    <glyph glyph-name="Eth" unicode="&#xd0;" horiz-adv-x="1417" 
d="M244 109q21 -2 44.5 -2.5t71.5 -0.5q198 0 320.5 36t202.5 116q66 65 112.5 154t79.5 219q23 87 35 168t12 151q0 212 -105.5 311t-334.5 99q-29 0 -59.5 -1.5t-62.5 -4.5l-144 -557h352l-27 -103h-350zM-84 0v10q0 42 61 72q23 11 35 18q27 18 55 125l3 11l114 458h-200
l26 103h199l104 413l2 9q17 69 17 90q0 13 -9 25t-30 26l-9 9q-22 20 -22 32q0 13 2 24t6 21h504q163 0 248 -25.5t154 -85.5q86 -74 131 -188t45 -260q0 -179 -58.5 -344t-165.5 -287q-120 -137 -266.5 -196.5t-374.5 -59.5h-571z" />
    <glyph glyph-name="Ntilde" unicode="&#xd1;" horiz-adv-x="1407" 
d="M-80 0v10q0 42 60 71q24 12 36 19q28 18 55 125l3 11l243 974q3 13 9 37q12 47 12 62q0 12 -9 24.5t-32 28.5q-2 2 -6 5q-25 21 -25 34q0 10 2.5 21t7.5 23l332 1l418 -1098l213 863q3 11 8 31q13 50 13 67q0 12 -9 24.5t-32 28.5q-3 2 -6 5q-25 21 -25 34q0 11 2.5 22
t8.5 23h290v-10q0 -41 -56 -68q-24 -12 -36 -20q-30 -20 -56 -121l-2 -7l-311 -1232h-80l-512 1321l-270 -1086q-7 -29 -10.5 -53t-3.5 -35q0 -23 34.5 -49t34.5 -41q0 -11 -2.5 -22t-8.5 -23h-290zM1257 1855q-20 -99 -68.5 -151t-121.5 -52q-17 0 -37 3.5t-43 9.5l-129 35
q-14 4 -27.5 6t-32.5 2q-32 0 -51.5 -19t-28.5 -59h-61q14 101 59 152t119 51q15 0 33 -2.5t42 -8.5l129 -35q20 -5 34.5 -7.5t21.5 -2.5q43 0 66.5 18.5t34.5 59.5h61z" />
    <glyph glyph-name="Ograve" unicode="&#xd2;" horiz-adv-x="1540" 
d="M887 1376q-124 0 -230.5 -65.5t-187.5 -192.5q-79 -124 -126.5 -287.5t-47.5 -312.5q0 -213 92.5 -330.5t259.5 -117.5q115 0 213.5 51.5t173.5 150.5q37 49 70 116t63 155q38 105 57 201.5t19 181.5q0 211 -95 330.5t-261 119.5zM68 598q0 147 46 286.5t136 266.5
q112 157 273 238t360 81q275 0 432.5 -168t157.5 -464q0 -187 -74.5 -361.5t-208.5 -302.5q-104 -99 -236 -149t-290 -50q-282 0 -439 164.5t-157 458.5zM1149 1579h-82l-265 198q-30 23 -44.5 43.5t-14.5 40.5q0 34 21.5 56t54.5 22q20 0 42 -13.5t42 -37.5z" />
    <glyph glyph-name="Oacute" unicode="&#xd3;" horiz-adv-x="1540" 
d="M887 1376q-124 0 -230.5 -65.5t-187.5 -192.5q-79 -124 -126.5 -287.5t-47.5 -312.5q0 -213 92.5 -330.5t259.5 -117.5q115 0 213.5 51.5t173.5 150.5q37 49 70 116t63 155q38 105 57 201.5t19 181.5q0 211 -95 330.5t-261 119.5zM68 598q0 147 46 286.5t136 266.5
q112 157 273 238t360 81q275 0 432.5 -168t157.5 -464q0 -187 -74.5 -361.5t-208.5 -302.5q-104 -99 -236 -149t-290 -50q-282 0 -439 164.5t-157 458.5zM888 1579h-90l293 295q31 30 60.5 46.5t54.5 16.5q35 0 57.5 -22t22.5 -58q0 -23 -17.5 -43.5t-60.5 -46.5z" />
    <glyph glyph-name="Ocircumflex" unicode="&#xd4;" horiz-adv-x="1540" 
d="M887 1376q-124 0 -230.5 -65.5t-187.5 -192.5q-79 -124 -126.5 -287.5t-47.5 -312.5q0 -213 92.5 -330.5t259.5 -117.5q115 0 213.5 51.5t173.5 150.5q37 49 70 116t63 155q38 105 57 201.5t19 181.5q0 211 -95 330.5t-261 119.5zM68 598q0 147 46 286.5t136 266.5
q112 157 273 238t360 81q275 0 432.5 -168t157.5 -464q0 -187 -74.5 -361.5t-208.5 -302.5q-104 -99 -236 -149t-290 -50q-282 0 -439 164.5t-157 458.5zM1253 1579h-74l-166 194l-252 -194h-98l309 348h115z" />
    <glyph glyph-name="Otilde" unicode="&#xd5;" horiz-adv-x="1540" 
d="M887 1376q-124 0 -230.5 -65.5t-187.5 -192.5q-79 -124 -126.5 -287.5t-47.5 -312.5q0 -213 92.5 -330.5t259.5 -117.5q115 0 213.5 51.5t173.5 150.5q37 49 70 116t63 155q38 105 57 201.5t19 181.5q0 211 -95 330.5t-261 119.5zM68 598q0 147 46 286.5t136 266.5
q112 157 273 238t360 81q275 0 432.5 -168t157.5 -464q0 -187 -74.5 -361.5t-208.5 -302.5q-104 -99 -236 -149t-290 -50q-282 0 -439 164.5t-157 458.5zM1304 1855q-20 -99 -68.5 -151t-121.5 -52q-17 0 -37 3.5t-43 9.5l-129 35q-14 4 -27.5 6t-32.5 2q-32 0 -51.5 -19
t-28.5 -59h-61q14 101 59 152t119 51q15 0 33 -2.5t42 -8.5l129 -35q20 -5 34.5 -7.5t21.5 -2.5q43 0 66.5 18.5t34.5 59.5h61z" />
    <glyph glyph-name="Odieresis" unicode="&#xd6;" horiz-adv-x="1540" 
d="M887 1376q-124 0 -230.5 -65.5t-187.5 -192.5q-79 -124 -126.5 -287.5t-47.5 -312.5q0 -213 92.5 -330.5t259.5 -117.5q115 0 213.5 51.5t173.5 150.5q37 49 70 116t63 155q38 105 57 201.5t19 181.5q0 211 -95 330.5t-261 119.5zM68 598q0 147 46 286.5t136 266.5
q112 157 273 238t360 81q275 0 432.5 -168t157.5 -464q0 -187 -74.5 -361.5t-208.5 -302.5q-104 -99 -236 -149t-290 -50q-282 0 -439 164.5t-157 458.5zM1081 1743q0 41 32.5 73.5t73.5 32.5q45 0 77 -31.5t32 -74.5q0 -47 -31 -78t-78 -31q-45 0 -75.5 31t-30.5 78z
M712 1743q0 41 32.5 73.5t74.5 32.5q44 0 76 -31.5t32 -74.5q0 -47 -30.5 -78t-77.5 -31q-46 0 -76.5 31t-30.5 78z" />
    <glyph glyph-name="multiply" unicode="&#xd7;" horiz-adv-x="1706" 
d="M391 1178l469 -469l469 469l98 -99l-469 -469l469 -469l-98 -96l-469 467l-469 -467l-98 96l469 469l-469 469z" />
    <glyph glyph-name="Oslash" unicode="&#xd8;" horiz-adv-x="1540" 
d="M342 270l768 1026q-45 40 -100 60t-121 20q-125 0 -230.5 -64.5t-189.5 -193.5q-79 -120 -126.5 -286.5t-47.5 -325.5q0 -71 11.5 -128.5t35.5 -107.5zM1305 1554h131l-162 -217q97 -82 148 -209t51 -290q0 -187 -74.5 -361.5t-208.5 -302.5q-107 -102 -240 -150.5
t-309 -48.5q-97 0 -179 22t-149 66l-120 -165h-125l170 231q-87 94 -128.5 207t-41.5 254q0 150 45.5 293t134.5 266q114 159 274.5 240t360.5 81q96 0 173.5 -18.5t133.5 -54.5zM401 172q35 -49 99.5 -75.5t146.5 -26.5q115 0 213.5 51.5t173.5 150.5q37 49 70 116t63 155
q38 104 57 203t19 186q0 79 -16.5 148t-48.5 128z" />
    <glyph glyph-name="Ugrave" unicode="&#xd9;" horiz-adv-x="1436" 
d="M326 1210q9 35 13.5 59t4.5 40q0 12 -9 24.5t-32 28.5q-1 1 -6 5q-25 21 -25 34q0 10 2.5 21t8.5 24h407v-10q0 -43 -57 -71q-21 -10 -33 -17q-36 -23 -58 -114q-2 -8 -3 -13l-207 -852q-4 -17 -6 -35t-2 -37q0 -102 71 -160.5t195 -58.5q170 0 263.5 82.5t143.5 281.5
l193 772q10 38 14 60.5t4 36.5q0 12 -7 22.5t-30 28.5q-20 13 -27 22.5t-7 20.5q0 9 2.5 19t7.5 22h305v-10q0 -41 -56 -68q-24 -12 -36 -20q-32 -20 -58 -122l-2 -6l-217 -845q-52 -202 -185.5 -301t-354.5 -99q-191 0 -310.5 92.5t-119.5 235.5q0 32 4 65t12 70z
M1125 1579h-82l-265 198q-30 23 -44.5 43.5t-14.5 40.5q0 34 21.5 56t54.5 22q20 0 42 -13.5t42 -37.5z" />
    <glyph glyph-name="Uacute" unicode="&#xda;" horiz-adv-x="1436" 
d="M326 1210q9 35 13.5 59t4.5 40q0 12 -9 24.5t-32 28.5q-1 1 -6 5q-25 21 -25 34q0 10 2.5 21t8.5 24h407v-10q0 -43 -57 -71q-21 -10 -33 -17q-36 -23 -58 -114q-2 -8 -3 -13l-207 -852q-4 -17 -6 -35t-2 -37q0 -102 71 -160.5t195 -58.5q170 0 263.5 82.5t143.5 281.5
l193 772q10 38 14 60.5t4 36.5q0 12 -7 22.5t-30 28.5q-20 13 -27 22.5t-7 20.5q0 9 2.5 19t7.5 22h305v-10q0 -41 -56 -68q-24 -12 -36 -20q-32 -20 -58 -122l-2 -6l-217 -845q-52 -202 -185.5 -301t-354.5 -99q-191 0 -310.5 92.5t-119.5 235.5q0 32 4 65t12 70zM864 1579
h-90l293 295q31 30 60.5 46.5t54.5 16.5q35 0 57.5 -22t22.5 -58q0 -23 -17.5 -43.5t-60.5 -46.5z" />
    <glyph glyph-name="Ucircumflex" unicode="&#xdb;" horiz-adv-x="1436" 
d="M326 1210q9 35 13.5 59t4.5 40q0 12 -9 24.5t-32 28.5q-1 1 -6 5q-25 21 -25 34q0 10 2.5 21t8.5 24h407v-10q0 -43 -57 -71q-21 -10 -33 -17q-36 -23 -58 -114q-2 -8 -3 -13l-207 -852q-4 -17 -6 -35t-2 -37q0 -102 71 -160.5t195 -58.5q170 0 263.5 82.5t143.5 281.5
l193 772q10 38 14 60.5t4 36.5q0 12 -7 22.5t-30 28.5q-20 13 -27 22.5t-7 20.5q0 9 2.5 19t7.5 22h305v-10q0 -41 -56 -68q-24 -12 -36 -20q-32 -20 -58 -122l-2 -6l-217 -845q-52 -202 -185.5 -301t-354.5 -99q-191 0 -310.5 92.5t-119.5 235.5q0 32 4 65t12 70z
M1229 1579h-74l-166 194l-252 -194h-98l309 348h115z" />
    <glyph glyph-name="Udieresis" unicode="&#xdc;" horiz-adv-x="1436" 
d="M326 1210q9 35 13.5 59t4.5 40q0 12 -9 24.5t-32 28.5q-1 1 -6 5q-25 21 -25 34q0 10 2.5 21t8.5 24h407v-10q0 -43 -57 -71q-21 -10 -33 -17q-36 -23 -58 -114q-2 -8 -3 -13l-207 -852q-4 -17 -6 -35t-2 -37q0 -102 71 -160.5t195 -58.5q170 0 263.5 82.5t143.5 281.5
l193 772q10 38 14 60.5t4 36.5q0 12 -7 22.5t-30 28.5q-20 13 -27 22.5t-7 20.5q0 9 2.5 19t7.5 22h305v-10q0 -41 -56 -68q-24 -12 -36 -20q-32 -20 -58 -122l-2 -6l-217 -845q-52 -202 -185.5 -301t-354.5 -99q-191 0 -310.5 92.5t-119.5 235.5q0 32 4 65t12 70z
M1057 1743q0 41 32.5 73.5t73.5 32.5q45 0 77 -31.5t32 -74.5q0 -47 -31 -78t-78 -31q-45 0 -75.5 31t-30.5 78zM688 1743q0 41 32.5 73.5t74.5 32.5q44 0 76 -31.5t32 -74.5q0 -47 -30.5 -78t-77.5 -31q-46 0 -76.5 31t-30.5 78z" />
    <glyph glyph-name="Yacute" unicode="&#xdd;" horiz-adv-x="1194" 
d="M514 1446v-21q0 -22 -3.5 -33t-11.5 -16q-10 -8 -30 -19q-43 -25 -43 -61q0 -20 15 -68q1 -4 1 -5l148 -435l434 486q17 19 22 28.5t5 18.5q0 18 -35 39.5t-35 40.5q0 10 2.5 21t8.5 24h328q2 -4 2.5 -6.5t0.5 -7.5q0 -32 -64 -70t-98 -76l-553 -616l-110 -446
q-7 -25 -11 -48t-4 -41q0 -23 35 -49t35 -41q0 -13 -2 -24t-6 -21h-410v10q0 42 59 71q23 12 35 19q32 20 58 128l2 8l114 464l-192 551q-13 36 -27 59.5t-32 37.5q-6 3 -18 10q-46 26 -46 69q0 4 1 10t1 9h424zM729 1579h-90l293 295q31 30 60.5 46.5t54.5 16.5
q35 0 57.5 -22t22.5 -58q0 -23 -17.5 -43.5t-60.5 -46.5z" />
    <glyph glyph-name="Thorn" unicode="&#xde;" horiz-adv-x="1255" 
d="M487 1053l-149 -602h223q171 0 278 100t107 260q0 118 -72.5 180t-209.5 62h-177zM313 350l-32 -127q-8 -28 -12.5 -52t-4.5 -36q0 -22 36 -48t36 -42q0 -10 -2.5 -21.5t-8.5 -23.5h-407v10q0 41 60 71q24 11 36 19q28 17 52 113q4 15 6 23l243 974q3 11 8 31
q13 51 13 68q0 12 -9 24.5t-32 28.5q-2 2 -6 5q-25 21 -25 34q0 10 2.5 21t7.5 23l404 1v-10q0 -41 -55 -69q-23 -11 -35 -19q-32 -22 -58 -120l-2 -7l-20 -86h188q121 0 188.5 -10.5t121.5 -34.5q79 -37 125.5 -112t46.5 -167q0 -82 -32 -157.5t-95 -143.5
q-76 -82 -174.5 -121t-229.5 -39h-334z" />
    <glyph glyph-name="germandbls" unicode="&#xdf;" horiz-adv-x="1214" 
d="M127 915q4 38 19.5 59t52.5 38q27 13 41 25t22 28q7 15 21 46q79 181 196 273q64 52 148 78.5t182 26.5q161 0 258.5 -77t97.5 -202q0 -85 -44.5 -148.5t-162.5 -135.5q-30 -19 -101 -45t-103 -47q-17 -11 -27 -30t-10 -40q0 -23 15 -47t55 -62q17 -17 52 -49
q181 -169 181 -301q0 -143 -112.5 -236.5t-289.5 -93.5q-124 0 -205 53t-81 132q0 45 27.5 75.5t68.5 30.5q37 0 62.5 -25.5t25.5 -62.5q0 -22 -12 -40t-39 -34q27 -23 60.5 -35t76.5 -12q92 0 155.5 61t63.5 148q0 39 -18 80.5t-51 77.5q-20 21 -56 60q-172 181 -172 249
q0 81 134 146l36 18q154 77 216.5 150.5t62.5 173.5q0 82 -53.5 137t-133.5 55q-132 0 -216 -105t-164 -393l-254 -915h-195l256 915h-86z" />
    <glyph glyph-name="agrave" unicode="&#xe0;" horiz-adv-x="1204" 
d="M1001 106l23 -47q-51 -43 -101.5 -64.5t-101.5 -21.5q-73 0 -110 30.5t-37 90.5q0 3 1 10.5t1 12.5q-80 -72 -166.5 -108t-181.5 -36q-137 0 -223.5 95t-86.5 245q0 114 39 226.5t113 214.5q98 134 226.5 206t269.5 72q74 0 135 -21t114 -65l160 82h43l-229 -862
q-5 -18 -7.5 -32.5t-2.5 -20.5q0 -15 10 -27t22 -12q14 0 37 8.5t53 23.5zM717 315l127 464q5 17 7.5 33.5t2.5 31.5q0 49 -42.5 83t-104.5 34q-81 0 -155.5 -37.5t-133.5 -108.5q-88 -104 -144.5 -247t-56.5 -259q0 -106 47.5 -166.5t130.5 -60.5q107 0 200.5 67t121.5 166
zM945 1139h-82l-265 198q-30 23 -44.5 43.5t-14.5 40.5q0 34 21.5 56t54.5 22q20 0 42 -13.5t42 -37.5z" />
    <glyph glyph-name="aacute" unicode="&#xe1;" horiz-adv-x="1204" 
d="M1001 106l23 -47q-51 -43 -101.5 -64.5t-101.5 -21.5q-73 0 -110 30.5t-37 90.5q0 3 1 10.5t1 12.5q-80 -72 -166.5 -108t-181.5 -36q-137 0 -223.5 95t-86.5 245q0 114 39 226.5t113 214.5q98 134 226.5 206t269.5 72q74 0 135 -21t114 -65l160 82h43l-229 -862
q-5 -18 -7.5 -32.5t-2.5 -20.5q0 -15 10 -27t22 -12q14 0 37 8.5t53 23.5zM717 315l127 464q5 17 7.5 33.5t2.5 31.5q0 49 -42.5 83t-104.5 34q-81 0 -155.5 -37.5t-133.5 -108.5q-88 -104 -144.5 -247t-56.5 -259q0 -106 47.5 -166.5t130.5 -60.5q107 0 200.5 67t121.5 166
zM684 1139h-90l293 295q31 30 60.5 46.5t54.5 16.5q35 0 57.5 -22t22.5 -58q0 -23 -17.5 -43.5t-60.5 -46.5z" />
    <glyph glyph-name="acircumflex" unicode="&#xe2;" horiz-adv-x="1204" 
d="M1001 106l23 -47q-51 -43 -101.5 -64.5t-101.5 -21.5q-73 0 -110 30.5t-37 90.5q0 3 1 10.5t1 12.5q-80 -72 -166.5 -108t-181.5 -36q-137 0 -223.5 95t-86.5 245q0 114 39 226.5t113 214.5q98 134 226.5 206t269.5 72q74 0 135 -21t114 -65l160 82h43l-229 -862
q-5 -18 -7.5 -32.5t-2.5 -20.5q0 -15 10 -27t22 -12q14 0 37 8.5t53 23.5zM717 315l127 464q5 17 7.5 33.5t2.5 31.5q0 49 -42.5 83t-104.5 34q-81 0 -155.5 -37.5t-133.5 -108.5q-88 -104 -144.5 -247t-56.5 -259q0 -106 47.5 -166.5t130.5 -60.5q107 0 200.5 67t121.5 166
zM1049 1139h-74l-166 194l-252 -194h-98l309 348h115z" />
    <glyph glyph-name="atilde" unicode="&#xe3;" horiz-adv-x="1204" 
d="M1001 106l23 -47q-51 -43 -101.5 -64.5t-101.5 -21.5q-73 0 -110 30.5t-37 90.5q0 3 1 10.5t1 12.5q-80 -72 -166.5 -108t-181.5 -36q-137 0 -223.5 95t-86.5 245q0 114 39 226.5t113 214.5q98 134 226.5 206t269.5 72q74 0 135 -21t114 -65l160 82h43l-229 -862
q-5 -18 -7.5 -32.5t-2.5 -20.5q0 -15 10 -27t22 -12q14 0 37 8.5t53 23.5zM717 315l127 464q5 17 7.5 33.5t2.5 31.5q0 49 -42.5 83t-104.5 34q-81 0 -155.5 -37.5t-133.5 -108.5q-88 -104 -144.5 -247t-56.5 -259q0 -106 47.5 -166.5t130.5 -60.5q107 0 200.5 67t121.5 166
zM1100 1415q-20 -99 -68.5 -151t-121.5 -52q-17 0 -37 3.5t-43 9.5l-129 35q-14 4 -27.5 6t-32.5 2q-32 0 -51.5 -19t-28.5 -59h-61q14 101 59 152t119 51q15 0 33 -2.5t42 -8.5l129 -35q20 -5 34.5 -7.5t21.5 -2.5q43 0 66.5 18.5t34.5 59.5h61z" />
    <glyph glyph-name="adieresis" unicode="&#xe4;" horiz-adv-x="1204" 
d="M1001 106l23 -47q-51 -43 -101.5 -64.5t-101.5 -21.5q-73 0 -110 30.5t-37 90.5q0 3 1 10.5t1 12.5q-80 -72 -166.5 -108t-181.5 -36q-137 0 -223.5 95t-86.5 245q0 114 39 226.5t113 214.5q98 134 226.5 206t269.5 72q74 0 135 -21t114 -65l160 82h43l-229 -862
q-5 -18 -7.5 -32.5t-2.5 -20.5q0 -15 10 -27t22 -12q14 0 37 8.5t53 23.5zM717 315l127 464q5 17 7.5 33.5t2.5 31.5q0 49 -42.5 83t-104.5 34q-81 0 -155.5 -37.5t-133.5 -108.5q-88 -104 -144.5 -247t-56.5 -259q0 -106 47.5 -166.5t130.5 -60.5q107 0 200.5 67t121.5 166
zM877 1303q0 41 32.5 73.5t73.5 32.5q45 0 77 -31.5t32 -74.5q0 -47 -31 -78t-78 -31q-45 0 -75.5 31t-30.5 78zM508 1303q0 41 32.5 73.5t74.5 32.5q44 0 76 -31.5t32 -74.5q0 -47 -30.5 -78t-77.5 -31q-46 0 -76.5 31t-30.5 78z" />
    <glyph glyph-name="aring" unicode="&#xe5;" horiz-adv-x="1204" 
d="M565 1315q0 91 62.5 154t152.5 63q91 0 154 -63.5t63 -153.5t-63 -152.5t-154 -62.5q-90 0 -152.5 62t-62.5 153zM662 1315q0 -49 35.5 -84t84.5 -35t84 35t35 84q0 50 -34.5 85.5t-84.5 35.5q-49 0 -84.5 -36t-35.5 -85zM1001 106l23 -47q-51 -43 -101.5 -64.5
t-101.5 -21.5q-73 0 -110 30.5t-37 90.5q0 3 1 10.5t1 12.5q-80 -72 -166.5 -108t-181.5 -36q-137 0 -223.5 95t-86.5 245q0 114 39 226.5t113 214.5q98 134 226.5 206t269.5 72q74 0 135 -21t114 -65l160 82h43l-229 -862q-5 -18 -7.5 -32.5t-2.5 -20.5q0 -15 10 -27
t22 -12q14 0 37 8.5t53 23.5zM717 315l127 464q5 17 7.5 33.5t2.5 31.5q0 49 -42.5 83t-104.5 34q-81 0 -155.5 -37.5t-133.5 -108.5q-88 -104 -144.5 -247t-56.5 -259q0 -106 47.5 -166.5t130.5 -60.5q107 0 200.5 67t121.5 166z" />
    <glyph glyph-name="ae" unicode="&#xe6;" horiz-adv-x="1835" 
d="M985 531q11 -2 23 -2.5t36 -0.5q218 0 361 91t143 219q0 56 -35.5 89.5t-97.5 33.5q-124 0 -244 -118.5t-186 -311.5zM725 340l119 439q5 17 7.5 34t2.5 31q0 49 -42.5 83t-104.5 34q-81 0 -155.5 -37.5t-133.5 -108.5q-88 -104 -144.5 -247t-56.5 -259
q0 -106 47.5 -166.5t130.5 -60.5q108 0 203.5 73.5t126.5 184.5zM762 219q-82 -120 -192.5 -183t-239.5 -63q-139 0 -225.5 94.5t-86.5 245.5q0 115 39 228t113 213q98 134 227.5 206t274.5 72q76 0 135.5 -21t107.5 -65l160 82h43l-43 -121q88 64 179.5 94.5t195.5 30.5
q129 0 207 -52.5t78 -137.5q0 -188 -192 -289.5t-548 -101.5h-28q-9 -27 -13 -51.5t-4 -47.5q0 -127 72 -202.5t192 -75.5q75 0 152.5 30t161.5 93l41 -58q-96 -83 -195.5 -124.5t-206.5 -41.5q-146 0 -251.5 64t-153.5 182z" />
    <glyph glyph-name="ccedilla" unicode="&#xe7;" horiz-adv-x="948" 
d="M756 154q-91 -89 -190 -133t-212 -44q-153 0 -250.5 105.5t-97.5 271.5q0 152 66.5 286.5t195.5 244.5q83 69 183 107t198 38q91 0 149 -41t58 -104q0 -43 -27 -68.5t-73 -25.5q-36 0 -59 21t-23 54q0 6 1 14.5t1 12.5q0 26 -13.5 41.5t-35.5 15.5q-57 0 -134.5 -48.5
t-142.5 -127.5q-72 -89 -110.5 -196.5t-38.5 -221.5q0 -130 59 -203t164 -73q67 0 140.5 31.5t150.5 93.5zM91 -381l36 90q58 -36 118.5 -56t115.5 -20q56 0 83 22t27 66q0 42 -26.5 64t-77.5 22q-13 0 -33 -2t-63 -8l65 203h64l-35 -115q11 2 24 3t37 1q88 0 137.5 -43.5
t49.5 -121.5q0 -86 -59.5 -133.5t-165.5 -47.5q-57 0 -130 19t-167 57z" />
    <glyph glyph-name="egrave" unicode="&#xe8;" horiz-adv-x="1090" 
d="M242 531q11 -2 23 -2.5t36 -0.5q218 0 361 91t143 219q0 56 -35.5 88t-97.5 32q-125 0 -245 -117t-185 -310zM784 197l41 -58q-94 -82 -194.5 -123t-208.5 -41q-193 0 -309.5 106.5t-116.5 280.5q0 149 71 281.5t205 235.5q98 75 209 112t236 37t199.5 -51.5t74.5 -134.5
q0 -188 -192 -289.5t-547 -101.5h-29q-8 -27 -12 -51.5t-4 -47.5q0 -127 72 -202.5t192 -75.5q74 0 152 30t161 93zM867 1139h-82l-265 198q-30 23 -44.5 43.5t-14.5 40.5q0 34 21.5 56t54.5 22q20 0 42 -13.5t42 -37.5z" />
    <glyph glyph-name="eacute" unicode="&#xe9;" horiz-adv-x="1090" 
d="M242 531q11 -2 23 -2.5t36 -0.5q218 0 361 91t143 219q0 56 -35.5 88t-97.5 32q-125 0 -245 -117t-185 -310zM784 197l41 -58q-94 -82 -194.5 -123t-208.5 -41q-193 0 -309.5 106.5t-116.5 280.5q0 149 71 281.5t205 235.5q98 75 209 112t236 37t199.5 -51.5t74.5 -134.5
q0 -188 -192 -289.5t-547 -101.5h-29q-8 -27 -12 -51.5t-4 -47.5q0 -127 72 -202.5t192 -75.5q74 0 152 30t161 93zM606 1139h-90l293 295q31 30 60.5 46.5t54.5 16.5q35 0 57.5 -22t22.5 -58q0 -23 -17.5 -43.5t-60.5 -46.5z" />
    <glyph glyph-name="ecircumflex" unicode="&#xea;" horiz-adv-x="1090" 
d="M242 531q11 -2 23 -2.5t36 -0.5q218 0 361 91t143 219q0 56 -35.5 88t-97.5 32q-125 0 -245 -117t-185 -310zM784 197l41 -58q-94 -82 -194.5 -123t-208.5 -41q-193 0 -309.5 106.5t-116.5 280.5q0 149 71 281.5t205 235.5q98 75 209 112t236 37t199.5 -51.5t74.5 -134.5
q0 -188 -192 -289.5t-547 -101.5h-29q-8 -27 -12 -51.5t-4 -47.5q0 -127 72 -202.5t192 -75.5q74 0 152 30t161 93zM971 1139h-74l-166 194l-252 -194h-98l309 348h115z" />
    <glyph glyph-name="edieresis" unicode="&#xeb;" horiz-adv-x="1090" 
d="M242 531q11 -2 23 -2.5t36 -0.5q218 0 361 91t143 219q0 56 -35.5 88t-97.5 32q-125 0 -245 -117t-185 -310zM784 197l41 -58q-94 -82 -194.5 -123t-208.5 -41q-193 0 -309.5 106.5t-116.5 280.5q0 149 71 281.5t205 235.5q98 75 209 112t236 37t199.5 -51.5t74.5 -134.5
q0 -188 -192 -289.5t-547 -101.5h-29q-8 -27 -12 -51.5t-4 -47.5q0 -127 72 -202.5t192 -75.5q74 0 152 30t161 93zM799 1303q0 41 32.5 73.5t73.5 32.5q45 0 77 -31.5t32 -74.5q0 -47 -31 -78t-78 -31q-45 0 -75.5 31t-30.5 78zM430 1303q0 41 32.5 73.5t74.5 32.5
q44 0 76 -31.5t32 -74.5q0 -47 -30.5 -78t-77.5 -31q-46 0 -76.5 31t-30.5 78z" />
    <glyph glyph-name="igrave" unicode="&#xec;" horiz-adv-x="530" 
d="M434 1020l-201 -766l-4 -17q-24 -90 -24 -114q0 -23 8 -36t23 -13q18 0 41 9t49 28l30 -48q-42 -42 -100.5 -65t-124.5 -23q-61 0 -98 32.5t-37 86.5q0 17 8 55.5t27 104.5l137 489q8 29 12 54t4 41q0 31 -38 61l-3 2l-4 4q-20 16 -20 27q0 9 2 18t6 17q65 8 140 21
t167 32zM521 1139h-82l-265 198q-30 23 -44.5 43.5t-14.5 40.5q0 34 21.5 56t54.5 22q20 0 42 -13.5t42 -37.5z" />
    <glyph glyph-name="iacute" unicode="&#xed;" horiz-adv-x="530" 
d="M434 1020l-201 -766l-4 -17q-24 -90 -24 -114q0 -23 8 -36t23 -13q18 0 41 9t49 28l30 -48q-42 -42 -100.5 -65t-124.5 -23q-61 0 -98 32.5t-37 86.5q0 17 8 55.5t27 104.5l137 489q8 29 12 54t4 41q0 31 -38 61l-3 2l-4 4q-20 16 -20 27q0 9 2 18t6 17q65 8 140 21
t167 32zM260 1139h-90l293 295q31 30 60.5 46.5t54.5 16.5q35 0 57.5 -22t22.5 -58q0 -23 -17.5 -43.5t-60.5 -46.5z" />
    <glyph glyph-name="icircumflex" unicode="&#xee;" horiz-adv-x="530" 
d="M434 1020l-201 -766l-4 -17q-24 -90 -24 -114q0 -23 8 -36t23 -13q18 0 41 9t49 28l30 -48q-42 -42 -100.5 -65t-124.5 -23q-61 0 -98 32.5t-37 86.5q0 17 8 55.5t27 104.5l137 489q8 29 12 54t4 41q0 31 -38 61l-3 2l-4 4q-20 16 -20 27q0 9 2 18t6 17q65 8 140 21
t167 32zM625 1139h-74l-166 194l-252 -194h-98l309 348h115z" />
    <glyph glyph-name="idieresis" unicode="&#xef;" horiz-adv-x="530" 
d="M434 1020l-201 -766l-4 -17q-24 -90 -24 -114q0 -23 8 -36t23 -13q18 0 41 9t49 28l30 -48q-42 -42 -100.5 -65t-124.5 -23q-61 0 -98 32.5t-37 86.5q0 17 8 55.5t27 104.5l137 489q8 29 12 54t4 41q0 31 -38 61l-3 2l-4 4q-20 16 -20 27q0 9 2 18t6 17q65 8 140 21
t167 32zM453 1303q0 41 32.5 73.5t73.5 32.5q45 0 77 -31.5t32 -74.5q0 -47 -31 -78t-78 -31q-45 0 -75.5 31t-30.5 78zM84 1303q0 41 32.5 73.5t74.5 32.5q44 0 76 -31.5t32 -74.5q0 -47 -30.5 -78t-77.5 -31q-46 0 -76.5 31t-30.5 78z" />
    <glyph glyph-name="eth" unicode="&#xf0;" horiz-adv-x="1180" 
d="M803 891q-18 62 -47 127.5t-72 142.5l-377 -123l-26 64l362 121q-26 48 -63 98t-84 100l69 60q56 -58 102.5 -113t80.5 -102l313 104l29 -65l-295 -97q119 -164 176 -317t57 -309q0 -121 -36.5 -223t-110.5 -187q-83 -95 -194.5 -146t-237.5 -51q-188 0 -304 119
t-116 309q0 101 39.5 199.5t113.5 181.5q80 89 188 140t216 51q59 0 112.5 -20.5t104.5 -63.5zM592 897q-81 0 -149.5 -47t-125.5 -141q-45 -75 -71.5 -173.5t-26.5 -195.5q0 -134 63 -211.5t171 -77.5q64 0 125 33.5t108 93.5q67 88 106 207.5t39 239.5q0 126 -64 199
t-175 73z" />
    <glyph glyph-name="ntilde" unicode="&#xf1;" horiz-adv-x="1194" 
d="M143 0h-198l205 744q8 29 13 54t5 40q0 29 -40 60l-1 1q-15 11 -20.5 18t-6.5 15q0 9 2 18t6 16q87 4 166 17t152 37l-39 -143q104 78 204.5 116.5t199.5 38.5q121 0 189.5 -54t68.5 -149q0 -20 -5.5 -48t-17.5 -68l-133 -459q-2 -7 -5 -19q-22 -79 -22 -106
q0 -28 8 -41.5t23 -13.5q19 0 41 9t49 28l29 -48q-47 -42 -103.5 -65t-115.5 -23q-66 0 -103 31.5t-37 85.5q0 20 8.5 58.5t26.5 103.5l139 500q11 36 16 63t5 43q0 35 -32 58.5t-83 23.5q-74 0 -171.5 -46.5t-211.5 -135.5zM1011 1415q-20 -99 -68.5 -151t-121.5 -52
q-17 0 -37 3.5t-43 9.5l-129 35q-14 4 -27.5 6t-32.5 2q-32 0 -51.5 -19t-28.5 -59h-61q14 101 59 152t119 51q15 0 33 -2.5t42 -8.5l129 -35q20 -5 34.5 -7.5t21.5 -2.5q43 0 66.5 18.5t34.5 59.5h61z" />
    <glyph glyph-name="ograve" unicode="&#xf2;" horiz-adv-x="1180" 
d="M596 946q-85 0 -158 -50t-133 -148q-47 -81 -73.5 -183t-26.5 -203q0 -143 65 -225t179 -82q67 0 131 35t114 98q72 93 114 219.5t42 251.5q0 133 -68 210t-186 77zM2 442q0 127 67.5 253t182.5 214q75 57 168.5 88t189.5 31q198 0 320.5 -123t122.5 -321
q0 -109 -40 -213t-114 -189q-87 -100 -203.5 -153.5t-251.5 -53.5q-201 0 -321.5 127.5t-120.5 339.5zM846 1139h-82l-265 198q-30 23 -44.5 43.5t-14.5 40.5q0 34 21.5 56t54.5 22q20 0 42 -13.5t42 -37.5z" />
    <glyph glyph-name="oacute" unicode="&#xf3;" horiz-adv-x="1180" 
d="M596 946q-85 0 -158 -50t-133 -148q-47 -81 -73.5 -183t-26.5 -203q0 -143 65 -225t179 -82q67 0 131 35t114 98q72 93 114 219.5t42 251.5q0 133 -68 210t-186 77zM2 442q0 127 67.5 253t182.5 214q75 57 168.5 88t189.5 31q198 0 320.5 -123t122.5 -321
q0 -109 -40 -213t-114 -189q-87 -100 -203.5 -153.5t-251.5 -53.5q-201 0 -321.5 127.5t-120.5 339.5zM585 1139h-90l293 295q31 30 60.5 46.5t54.5 16.5q35 0 57.5 -22t22.5 -58q0 -23 -17.5 -43.5t-60.5 -46.5z" />
    <glyph glyph-name="ocircumflex" unicode="&#xf4;" horiz-adv-x="1180" 
d="M596 946q-85 0 -158 -50t-133 -148q-47 -81 -73.5 -183t-26.5 -203q0 -143 65 -225t179 -82q67 0 131 35t114 98q72 93 114 219.5t42 251.5q0 133 -68 210t-186 77zM2 442q0 127 67.5 253t182.5 214q75 57 168.5 88t189.5 31q198 0 320.5 -123t122.5 -321
q0 -109 -40 -213t-114 -189q-87 -100 -203.5 -153.5t-251.5 -53.5q-201 0 -321.5 127.5t-120.5 339.5zM950 1139h-74l-166 194l-252 -194h-98l309 348h115z" />
    <glyph glyph-name="otilde" unicode="&#xf5;" horiz-adv-x="1180" 
d="M596 946q-85 0 -158 -50t-133 -148q-47 -81 -73.5 -183t-26.5 -203q0 -143 65 -225t179 -82q67 0 131 35t114 98q72 93 114 219.5t42 251.5q0 133 -68 210t-186 77zM2 442q0 127 67.5 253t182.5 214q75 57 168.5 88t189.5 31q198 0 320.5 -123t122.5 -321
q0 -109 -40 -213t-114 -189q-87 -100 -203.5 -153.5t-251.5 -53.5q-201 0 -321.5 127.5t-120.5 339.5zM1001 1415q-20 -99 -68.5 -151t-121.5 -52q-17 0 -37 3.5t-43 9.5l-129 35q-14 4 -27.5 6t-32.5 2q-32 0 -51.5 -19t-28.5 -59h-61q14 101 59 152t119 51q15 0 33 -2.5
t42 -8.5l129 -35q20 -5 34.5 -7.5t21.5 -2.5q43 0 66.5 18.5t34.5 59.5h61z" />
    <glyph glyph-name="odieresis" unicode="&#xf6;" horiz-adv-x="1180" 
d="M596 946q-85 0 -158 -50t-133 -148q-47 -81 -73.5 -183t-26.5 -203q0 -143 65 -225t179 -82q67 0 131 35t114 98q72 93 114 219.5t42 251.5q0 133 -68 210t-186 77zM2 442q0 127 67.5 253t182.5 214q75 57 168.5 88t189.5 31q198 0 320.5 -123t122.5 -321
q0 -109 -40 -213t-114 -189q-87 -100 -203.5 -153.5t-251.5 -53.5q-201 0 -321.5 127.5t-120.5 339.5zM778 1303q0 41 32.5 73.5t73.5 32.5q45 0 77 -31.5t32 -74.5q0 -47 -31 -78t-78 -31q-45 0 -75.5 31t-30.5 78zM409 1303q0 41 32.5 73.5t74.5 32.5q44 0 76 -31.5
t32 -74.5q0 -47 -30.5 -78t-77.5 -31q-46 0 -76.5 31t-30.5 78z" />
    <glyph glyph-name="divide" unicode="&#xf7;" horiz-adv-x="1706" 
d="M854 367q51 0 88 -37t37 -88q0 -52 -36.5 -88.5t-88.5 -36.5q-53 0 -89 36t-36 89q0 51 37 88t88 37zM254 680h1198v-139h-1198v139zM854 1106q51 0 88 -37.5t37 -89.5q0 -51 -36.5 -88t-88.5 -37t-88.5 36.5t-36.5 88.5t37 89.5t88 37.5z" />
    <glyph glyph-name="oslash" unicode="&#xf8;" horiz-adv-x="1180" 
d="M219 246l561 622q-37 41 -81.5 59.5t-102.5 18.5q-85 0 -158 -50t-133 -148q-47 -78 -73.5 -174.5t-26.5 -188.5q0 -29 3.5 -64t10.5 -75zM825 793l-573 -627q29 -54 76.5 -82.5t107.5 -28.5q77 0 143.5 34t114.5 97q71 92 112.5 218.5t41.5 254.5q0 33 -5.5 66.5
t-17.5 67.5zM102 127q-50 70 -75 144.5t-25 154.5q0 109 41 211.5t119 189.5q85 97 202 149t250 52q73 0 135 -17t115 -53l103 113h116l-153 -164q62 -65 92.5 -144.5t30.5 -176.5q0 -110 -40 -214.5t-114 -189.5q-89 -101 -206.5 -154t-254.5 -53q-83 0 -151 23t-125 70
l-119 -131h-111z" />
    <glyph glyph-name="ugrave" unicode="&#xf9;" horiz-adv-x="1194" 
d="M1100 1020l-205 -766q-2 -7 -5 -18q-24 -89 -24 -111q0 -25 8 -38t23 -13q18 0 40.5 9t49.5 28l31 -48q-37 -43 -93 -66.5t-122 -23.5q-67 0 -105.5 36t-38.5 100q0 4 1.5 11t1.5 11q-101 -79 -205 -118.5t-211 -39.5q-120 0 -184 52t-64 149q0 48 38 185q5 16 7 24
l104 360l2 6q15 56 15 87t-40 62l-1 1q-3 3 -8 7q-17 16 -17 26q0 9 2 18t6 16q61 8 141.5 21.5t176.5 32.5l-211 -770q-8 -28 -12 -55.5t-4 -53.5q0 -35 30.5 -59.5t75.5 -24.5q72 0 171.5 48t209.5 137l141 501q8 27 11.5 50.5t3.5 44.5q0 18 -9 32.5t-30 28.5q-3 3 -8 7
q-17 16 -17 26q0 9 2 18t6 16q61 8 141.5 21.5t174.5 32.5zM822 1139h-82l-265 198q-30 23 -44.5 43.5t-14.5 40.5q0 34 21.5 56t54.5 22q20 0 42 -13.5t42 -37.5z" />
    <glyph glyph-name="uacute" unicode="&#xfa;" horiz-adv-x="1194" 
d="M1100 1020l-205 -766q-2 -7 -5 -18q-24 -89 -24 -111q0 -25 8 -38t23 -13q18 0 40.5 9t49.5 28l31 -48q-37 -43 -93 -66.5t-122 -23.5q-67 0 -105.5 36t-38.5 100q0 4 1.5 11t1.5 11q-101 -79 -205 -118.5t-211 -39.5q-120 0 -184 52t-64 149q0 48 38 185q5 16 7 24
l104 360l2 6q15 56 15 87t-40 62l-1 1q-3 3 -8 7q-17 16 -17 26q0 9 2 18t6 16q61 8 141.5 21.5t176.5 32.5l-211 -770q-8 -28 -12 -55.5t-4 -53.5q0 -35 30.5 -59.5t75.5 -24.5q72 0 171.5 48t209.5 137l141 501q8 27 11.5 50.5t3.5 44.5q0 18 -9 32.5t-30 28.5q-3 3 -8 7
q-17 16 -17 26q0 9 2 18t6 16q61 8 141.5 21.5t174.5 32.5zM561 1139h-90l293 295q31 30 60.5 46.5t54.5 16.5q35 0 57.5 -22t22.5 -58q0 -23 -17.5 -43.5t-60.5 -46.5z" />
    <glyph glyph-name="ucircumflex" unicode="&#xfb;" horiz-adv-x="1194" 
d="M1100 1020l-205 -766q-2 -7 -5 -18q-24 -89 -24 -111q0 -25 8 -38t23 -13q18 0 40.5 9t49.5 28l31 -48q-37 -43 -93 -66.5t-122 -23.5q-67 0 -105.5 36t-38.5 100q0 4 1.5 11t1.5 11q-101 -79 -205 -118.5t-211 -39.5q-120 0 -184 52t-64 149q0 48 38 185q5 16 7 24
l104 360l2 6q15 56 15 87t-40 62l-1 1q-3 3 -8 7q-17 16 -17 26q0 9 2 18t6 16q61 8 141.5 21.5t176.5 32.5l-211 -770q-8 -28 -12 -55.5t-4 -53.5q0 -35 30.5 -59.5t75.5 -24.5q72 0 171.5 48t209.5 137l141 501q8 27 11.5 50.5t3.5 44.5q0 18 -9 32.5t-30 28.5q-3 3 -8 7
q-17 16 -17 26q0 9 2 18t6 16q61 8 141.5 21.5t174.5 32.5zM926 1139h-74l-166 194l-252 -194h-98l309 348h115z" />
    <glyph glyph-name="udieresis" unicode="&#xfc;" horiz-adv-x="1194" 
d="M1100 1020l-205 -766q-2 -7 -5 -18q-24 -89 -24 -111q0 -25 8 -38t23 -13q18 0 40.5 9t49.5 28l31 -48q-37 -43 -93 -66.5t-122 -23.5q-67 0 -105.5 36t-38.5 100q0 4 1.5 11t1.5 11q-101 -79 -205 -118.5t-211 -39.5q-120 0 -184 52t-64 149q0 48 38 185q5 16 7 24
l104 360l2 6q15 56 15 87t-40 62l-1 1q-3 3 -8 7q-17 16 -17 26q0 9 2 18t6 16q61 8 141.5 21.5t176.5 32.5l-211 -770q-8 -28 -12 -55.5t-4 -53.5q0 -35 30.5 -59.5t75.5 -24.5q72 0 171.5 48t209.5 137l141 501q8 27 11.5 50.5t3.5 44.5q0 18 -9 32.5t-30 28.5q-3 3 -8 7
q-17 16 -17 26q0 9 2 18t6 16q61 8 141.5 21.5t174.5 32.5zM754 1303q0 41 32.5 73.5t73.5 32.5q45 0 77 -31.5t32 -74.5q0 -47 -31 -78t-78 -31q-45 0 -75.5 31t-30.5 78zM385 1303q0 41 32.5 73.5t74.5 32.5q44 0 76 -31.5t32 -74.5q0 -47 -30.5 -78t-77.5 -31
q-46 0 -76.5 31t-30.5 78z" />
    <glyph glyph-name="yacute" unicode="&#xfd;" horiz-adv-x="948" 
d="M483 262l269 492q23 41 35 76.5t12 60.5h-8q-34 0 -57 23t-23 57q0 33 26 57.5t64 24.5q45 0 74.5 -31t29.5 -78q0 -35 -16.5 -83.5t-46.5 -102.5l-510 -934q-85 -154 -148 -207t-147 -53q-61 0 -97 26t-36 70q0 36 25.5 62t60.5 26q34 0 53.5 -23.5t19.5 -64.5v-10h3
q71 0 187 203l1 2l90 157l-186 856q-7 27 -17.5 38.5t-29.5 11.5q-23 0 -85 -53l-8 -6l-30 36q55 69 110 103t111 34q55 0 87 -31t48 -102zM452 1139h-90l293 295q31 30 60.5 46.5t54.5 16.5q35 0 57.5 -22t22.5 -58q0 -23 -17.5 -43.5t-60.5 -46.5z" />
    <glyph glyph-name="thorn" unicode="&#xfe;" horiz-adv-x="1161" 
d="M-147 -412l419 1633q8 30 12.5 55.5t4.5 38.5q0 32 -39 62l-3 2l-4 3q-20 16 -20 27q0 8 2 16.5t6 19.5l306 11l-144 -528q77 52 153.5 77t155.5 25q167 0 258 -92.5t91 -261.5q0 -116 -49 -243t-132 -226q-89 -108 -214.5 -169t-258.5 -61q-69 0 -126.5 17t-106.5 51
l-115 -457h-196zM340 702l-117 -448v-2q-18 -68 -18 -94q0 -48 41 -76.5t112 -28.5q75 0 149 37t134 105q90 100 142.5 239t52.5 277q0 109 -51.5 172t-139.5 63q-63 0 -132.5 -29t-117.5 -75q-27 -25 -52 -128q-2 -7 -3 -12z" />
    <glyph glyph-name="ydieresis" unicode="&#xff;" horiz-adv-x="948" 
d="M483 262l269 492q23 41 35 76.5t12 60.5h-8q-34 0 -57 23t-23 57q0 33 26 57.5t64 24.5q45 0 74.5 -31t29.5 -78q0 -35 -16.5 -83.5t-46.5 -102.5l-510 -934q-85 -154 -148 -207t-147 -53q-61 0 -97 26t-36 70q0 36 25.5 62t60.5 26q34 0 53.5 -23.5t19.5 -64.5v-10h3
q71 0 187 203l1 2l90 157l-186 856q-7 27 -17.5 38.5t-29.5 11.5q-23 0 -85 -53l-8 -6l-30 36q55 69 110 103t111 34q55 0 87 -31t48 -102zM645 1303q0 41 32.5 73.5t73.5 32.5q45 0 77 -31.5t32 -74.5q0 -47 -31 -78t-78 -31q-45 0 -75.5 31t-30.5 78zM276 1303
q0 41 32.5 73.5t74.5 32.5q44 0 76 -31.5t32 -74.5q0 -47 -30.5 -78t-77.5 -31q-46 0 -76.5 31t-30.5 78z" />
    <glyph glyph-name="Cacute" unicode="&#x106;" horiz-adv-x="1331" 
d="M1135 238q-113 -135 -232 -199t-256 -64q-256 0 -417.5 160.5t-161.5 415.5q0 177 66.5 347.5t191.5 309.5q112 124 251 192t281 68q92 0 157 -15t128 -50q8 -4 21 -13q28 -18 44 -18q19 0 38.5 10.5t37.5 30.5l76 -4l-92 -364q-7 -2 -14 -2.5t-19 -0.5q-69 0 -82 88
q-3 15 -4 23q-20 117 -83.5 173t-174.5 56q-118 0 -233 -79t-201 -220q-70 -113 -108 -258t-38 -297q0 -212 95.5 -327t271.5 -115q101 0 195.5 49.5t195.5 157.5zM841 1579h-90l293 295q31 30 60.5 46.5t54.5 16.5q35 0 57.5 -22t22.5 -58q0 -23 -17.5 -43.5t-60.5 -46.5z
" />
    <glyph glyph-name="cacute" unicode="&#x107;" horiz-adv-x="948" 
d="M756 154q-91 -89 -190 -133t-212 -44q-153 0 -250.5 105.5t-97.5 271.5q0 152 66.5 286.5t195.5 244.5q83 69 183 107t198 38q91 0 149 -41t58 -104q0 -43 -27 -68.5t-73 -25.5q-36 0 -59 21t-23 54q0 6 1 14.5t1 12.5q0 26 -13.5 41.5t-35.5 15.5q-57 0 -134.5 -48.5
t-142.5 -127.5q-72 -89 -110.5 -196.5t-38.5 -221.5q0 -130 59 -203t164 -73q67 0 140.5 31.5t150.5 93.5zM538 1139h-90l293 295q31 30 60.5 46.5t54.5 16.5q35 0 57.5 -22t22.5 -58q0 -23 -17.5 -43.5t-60.5 -46.5z" />
    <glyph glyph-name="Ccaron" unicode="&#x10c;" horiz-adv-x="1331" 
d="M1135 238q-113 -135 -232 -199t-256 -64q-256 0 -417.5 160.5t-161.5 415.5q0 177 66.5 347.5t191.5 309.5q112 124 251 192t281 68q92 0 157 -15t128 -50q8 -4 21 -13q28 -18 44 -18q19 0 38.5 10.5t37.5 30.5l76 -4l-92 -364q-7 -2 -14 -2.5t-19 -0.5q-69 0 -82 88
q-3 15 -4 23q-20 117 -83.5 173t-174.5 56q-118 0 -233 -79t-201 -220q-70 -113 -108 -258t-38 -297q0 -212 95.5 -327t271.5 -115q101 0 195.5 49.5t195.5 157.5zM700 1927h74l166 -195l252 195h96l-309 -348h-113z" />
    <glyph glyph-name="ccaron" unicode="&#x10d;" horiz-adv-x="948" 
d="M756 154q-91 -89 -190 -133t-212 -44q-153 0 -250.5 105.5t-97.5 271.5q0 152 66.5 286.5t195.5 244.5q83 69 183 107t198 38q91 0 149 -41t58 -104q0 -43 -27 -68.5t-73 -25.5q-36 0 -59 21t-23 54q0 6 1 14.5t1 12.5q0 26 -13.5 41.5t-35.5 15.5q-57 0 -134.5 -48.5
t-142.5 -127.5q-72 -89 -110.5 -196.5t-38.5 -221.5q0 -130 59 -203t164 -73q67 0 140.5 31.5t150.5 93.5zM397 1487h74l166 -195l252 195h96l-309 -348h-113z" />
    <glyph glyph-name="dcroat" unicode="&#x111;" horiz-adv-x="1180" 
d="M825 772q7 21 10 38t3 34q0 48 -46.5 79t-117.5 31q-90 0 -173 -48t-149 -138q-76 -106 -122 -238t-46 -241q0 -104 48.5 -161.5t136.5 -57.5q103 0 202 70.5t127 172.5zM649 102q-105 -68 -188 -98.5t-160 -30.5q-146 0 -231.5 89t-85.5 241q0 131 48 258t138 232
q94 111 222.5 174t260.5 63q62 0 117.5 -16t108.5 -49l53 186h-305l24 88h305q6 24 9.5 43.5t3.5 32.5q0 18 -9 32t-34 31q-1 1 -3 2q-20 14 -20 23q0 12 2 22.5t6 20.5l303 10l-59 -217h197l-25 -88h-199l-278 -1012q-3 -10 -3.5 -14.5t-0.5 -7.5q0 -21 13.5 -33t35.5 -12
q16 0 36.5 8.5t47.5 28.5l31 -50q-57 -44 -114.5 -65t-121.5 -21q-57 0 -91 30.5t-34 82.5v16z" />
    <glyph glyph-name="Gbreve" unicode="&#x11e;" horiz-adv-x="1458" 
d="M1323 700q-34 -29 -55 -57.5t-27 -54.5l-71 -288q-4 -15 -5.5 -24.5t-1.5 -13.5q0 -18 15.5 -36.5t15.5 -20.5q0 -13 -16.5 -37t-40.5 -43q-102 -76 -223 -113t-267 -37q-268 0 -427 158t-159 424q0 163 63 330t177 305q119 143 264 210.5t334 67.5q71 0 135 -12.5
t117 -36.5q25 -11 65 -38t56 -27q17 0 35.5 10.5t38.5 32.5l73 -4l-90 -361q-7 -1 -14 -1.5t-19 -0.5q-66 0 -81 90q-1 11 -3 19l-3 18q-19 115 -79 160q-42 32 -93 47.5t-111 15.5q-120 0 -224.5 -57t-191.5 -170q-101 -131 -158 -308t-57 -362q0 -196 99.5 -309
t273.5 -113q126 0 201.5 56t103.5 170l59 231q3 11 4.5 20.5t1.5 18.5q0 15 -7 26t-33 31q-3 2 -6 5q-31 24 -31 47q0 7 1.5 15.5t4.5 16.5h356zM1315 1896q-89 -150 -181.5 -218.5t-203.5 -68.5q-112 0 -169 72t-58 215h63q12 -74 54 -108.5t120 -34.5q94 0 167 34t138 109
h70z" />
    <glyph glyph-name="gbreve" unicode="&#x11f;" horiz-adv-x="1063" 
d="M535 963q-112 0 -190.5 -103.5t-78.5 -255.5q0 -102 47 -160.5t127 -58.5q105 0 185 109.5t80 257.5q0 96 -46.5 153.5t-123.5 57.5zM195 408q-60 45 -89.5 105t-29.5 134q0 166 125 276.5t317 110.5q39 0 86 -11t98 -32q37 57 77.5 85t86.5 28q44 0 71.5 -22t27.5 -58
q0 -34 -23 -56t-59 -22q-37 0 -66 33q-8 8 -10 8q-5 0 -15.5 -9t-25.5 -26q66 -56 97.5 -117.5t31.5 -132.5q0 -172 -119 -283.5t-303 -111.5q-50 0 -100 12t-103 37l-110 -135q49 9 91 14t77 5q226 0 349.5 -82t123.5 -232q0 -159 -146.5 -258.5t-386.5 -99.5
q-181 0 -290 61.5t-109 159.5q0 49 27.5 79t72.5 30q38 0 66 -24t28 -54q0 -13 -10 -37.5t-10 -36.5q0 -43 68 -71.5t174 -28.5q148 0 254 71.5t106 163.5q0 90 -94 139.5t-266 49.5q-142 0 -283 -41q-27 -9 -33 -9q-16 0 -27.5 10.5t-11.5 24.5q0 20 15.5 48t46.5 65z
M964 1456q-89 -150 -181.5 -218.5t-203.5 -68.5q-112 0 -169 72t-58 215h63q12 -74 54 -108.5t120 -34.5q94 0 167 34t138 109h70z" />
    <glyph glyph-name="Idotaccent" unicode="&#x130;" horiz-adv-x="602" 
d="M281 224q-7 -29 -11 -51.5t-4 -31.5q0 -27 35 -55t35 -41q0 -10 -2.5 -21.5t-8.5 -23.5h-405v10q0 42 60 71q24 12 36 19q28 18 55 125l3 11l243 974q3 13 9 37q12 47 12 62q0 12 -9 24.5t-32 28.5q-2 2 -6 5q-25 21 -25 34q0 10 2.5 21t7.5 23l404 1v-10q0 -39 -53 -68
q-23 -12 -35 -20q-35 -25 -58 -113q-2 -9 -4 -15zM435 1743q0 44 34 78t78 34q48 0 81.5 -33t33.5 -79q0 -50 -33 -82.5t-82 -32.5q-46 0 -79 33.5t-33 81.5z" />
    <glyph glyph-name="dotlessi" unicode="&#x131;" horiz-adv-x="530" 
d="M434 1020l-201 -766l-4 -17q-24 -90 -24 -114q0 -23 8 -36t23 -13q18 0 41 9t49 28l30 -48q-42 -42 -100.5 -65t-124.5 -23q-61 0 -98 32.5t-37 86.5q0 17 8 55.5t27 104.5l137 489q8 29 12 54t4 41q0 31 -38 61l-3 2l-4 4q-20 16 -20 27q0 9 2 18t6 17q65 8 140 21
t167 32z" />
    <glyph glyph-name="Lslash" unicode="&#x141;" horiz-adv-x="1110" 
d="M444 106q168 0 240.5 31t130.5 111q9 12 24 35q55 82 122 82q4 0 12 -1.5t12 -1.5l-90 -362h-973v10q0 42 59 71q23 12 35 19q28 18 55 125l3 11l84 333l-181 -108l31 133l185 106l127 511q1 6 3 15q15 65 15 83q0 12 -9 24.5t-32 28.5q-2 2 -6 5q-25 21 -25 34
q0 10 2.5 21t7.5 23l402 1v-10q0 -41 -55 -69q-23 -11 -36 -20q-16 -11 -27.5 -33.5t-29.5 -92.5l-102 -406l338 197l-33 -133l-336 -197l-145 -576h192z" />
    <glyph glyph-name="lslash" unicode="&#x142;" horiz-adv-x="522" 
d="M109 627l-187 -109l35 121l180 104l121 471q9 37 13.5 60t4.5 35q0 29 -39 60l-1 1l-3 2q-24 17 -24 31q0 10 3.5 20.5t11.5 22.5l311 43l-164 -633l186 109l-33 -119l-180 -105l-127 -487q-15 -53 -21 -82.5t-6 -46.5q0 -24 8.5 -36.5t24.5 -12.5q18 0 39.5 8.5
t47.5 25.5l30 -47q-47 -42 -103.5 -65t-115.5 -23q-66 0 -102.5 31.5t-36.5 87.5q0 36 31 155l1 4z" />
    <glyph glyph-name="OE" unicode="&#x152;" horiz-adv-x="1985" 
d="M1573 543h-19q-31 0 -45.5 14t-27.5 64q-17 57 -39 73.5t-76 16.5h-139l-150 -605h195q168 0 240 31t130 110q10 14 24 35q55 83 122 83q4 0 12 -1.5t12 -1.5l-90 -362h-800q-70 0 -178 -12.5t-146 -12.5q-237 0 -383.5 171t-146.5 450q0 145 44.5 285.5t131.5 265.5
q113 162 263 241.5t343 79.5q73 0 172.5 -11t126.5 -11h635q25 0 177 14q41 4 64 6l-88 -346h-16q-72 0 -87 91q-3 20 -5 32q-14 73 -57.5 99t-165.5 26h-215l-138 -557h191q58 0 104 70q9 14 15 23q10 14 26 22t37 8q9 0 19.5 -1.5t23.5 -4.5zM885 213l250 993q2 7 3 14.5
t1 22.5q0 64 -59 101.5t-160 37.5q-145 0 -257.5 -65t-199.5 -199q-81 -125 -127.5 -288t-46.5 -318q0 -206 96 -324t262 -118q117 0 167 29.5t71 113.5z" />
    <glyph glyph-name="oe" unicode="&#x153;" horiz-adv-x="1896" 
d="M1049 531q11 -2 23 -2.5t36 -0.5q218 0 361 91t143 219q0 56 -35 88t-96 32q-126 0 -246.5 -117.5t-185.5 -309.5zM596 946q-85 0 -158 -50t-133 -148q-48 -83 -75 -185t-27 -201q0 -143 65.5 -225t180.5 -82q67 0 131 35t114 98q71 91 112.5 218t41.5 253
q0 134 -67.5 210.5t-184.5 76.5zM1004 807q107 111 237 166t283 55q125 0 200.5 -51.5t75.5 -134.5q0 -188 -193 -289.5t-548 -101.5l-29 -1q-7 -23 -10.5 -47t-3.5 -51q0 -127 71 -202.5t191 -75.5q74 0 151.5 30t161.5 93l41 -58q-95 -82 -194.5 -123t-206.5 -41
q-120 0 -210.5 42t-156.5 128q-86 -84 -191 -127t-227 -43q-199 0 -321.5 125.5t-122.5 327.5q0 108 41 210.5t119 188.5q85 96 202.5 148.5t245.5 52.5q132 0 230.5 -55t163.5 -166z" />
    <glyph glyph-name="Scedilla" unicode="&#x15e;" horiz-adv-x="1104" 
d="M1007 1102q-4 -1 -10.5 -1.5t-17.5 -0.5q-34 0 -52 18t-40 90q-29 91 -78.5 131.5t-130.5 40.5q-104 0 -178 -82t-74 -196q0 -51 25 -99.5t71 -87.5l189 -159q105 -89 154.5 -176t49.5 -185q0 -184 -146 -302t-380 -118q-96 0 -201.5 35t-117.5 35q-24 0 -39 -9t-27 -30
h-84l92 350h8q59 0 100 -100q6 -15 9 -23q38 -88 96.5 -126.5t153.5 -38.5q128 0 220.5 84t92.5 198q0 62 -28.5 121t-79.5 102l-209 175q-80 65 -121 145.5t-41 169.5q0 175 123.5 290t312.5 115q106 0 202 -42t97 -42q20 0 38.5 11t37.5 32h70zM105 -381l36 90
q58 -36 118.5 -56t115.5 -20q56 0 83 22t27 66q0 42 -26.5 64t-77.5 22q-13 0 -33 -2t-63 -8l65 203h64l-35 -115q11 2 24 3t37 1q88 0 137.5 -43.5t49.5 -121.5q0 -86 -59.5 -133.5t-165.5 -47.5q-57 0 -130 19t-167 57z" />
    <glyph glyph-name="scedilla" unicode="&#x15f;" horiz-adv-x="909" 
d="M645 913q-29 23 -64.5 34t-80.5 11q-92 0 -148.5 -46t-56.5 -119q0 -84 170 -193q43 -28 65 -43q100 -66 144.5 -131.5t44.5 -144.5q0 -136 -116 -220t-306 -84q-171 0 -269 53.5t-98 145.5q0 46 33.5 78.5t79.5 32.5q43 0 71.5 -29t28.5 -72q0 -18 -8.5 -37.5
t-23.5 -35.5q33 -30 77.5 -45t102.5 -15q95 0 161 55.5t66 133.5q0 88 -185 210q-24 16 -38 25q-118 78 -157.5 134t-39.5 130q0 128 109 208.5t287 80.5q150 0 235.5 -48t85.5 -130q0 -46 -27 -74t-71 -28t-72.5 26.5t-28.5 67.5q0 19 7.5 36t21.5 33zM52 -381l36 90
q58 -36 118.5 -56t115.5 -20q56 0 83 22t27 66q0 42 -26.5 64t-77.5 22q-13 0 -33 -2t-63 -8l65 203h64l-35 -115q11 2 24 3t37 1q88 0 137.5 -43.5t49.5 -121.5q0 -86 -59.5 -133.5t-165.5 -47.5q-57 0 -130 19t-167 57z" />
    <glyph glyph-name="Scaron" unicode="&#x160;" horiz-adv-x="1104" 
d="M1007 1102q-4 -1 -10.5 -1.5t-17.5 -0.5q-34 0 -52 18t-40 90q-29 91 -78.5 131.5t-130.5 40.5q-104 0 -178 -82t-74 -196q0 -51 25 -99.5t71 -87.5l189 -159q105 -89 154.5 -176t49.5 -185q0 -184 -146 -302t-380 -118q-96 0 -201.5 35t-117.5 35q-24 0 -39 -9t-27 -30
h-84l92 350h8q59 0 100 -100q6 -15 9 -23q38 -88 96.5 -126.5t153.5 -38.5q128 0 220.5 84t92.5 198q0 62 -28.5 121t-79.5 102l-209 175q-80 65 -121 145.5t-41 169.5q0 175 123.5 290t312.5 115q106 0 202 -42t97 -42q20 0 38.5 11t37.5 32h70zM543 1927h74l166 -195
l252 195h96l-309 -348h-113z" />
    <glyph glyph-name="scaron" unicode="&#x161;" horiz-adv-x="909" 
d="M645 913q-29 23 -64.5 34t-80.5 11q-92 0 -148.5 -46t-56.5 -119q0 -84 170 -193q43 -28 65 -43q100 -66 144.5 -131.5t44.5 -144.5q0 -136 -116 -220t-306 -84q-171 0 -269 53.5t-98 145.5q0 46 33.5 78.5t79.5 32.5q43 0 71.5 -29t28.5 -72q0 -18 -8.5 -37.5
t-23.5 -35.5q33 -30 77.5 -45t102.5 -15q95 0 161 55.5t66 133.5q0 88 -185 210q-24 16 -38 25q-118 78 -157.5 134t-39.5 130q0 128 109 208.5t287 80.5q150 0 235.5 -48t85.5 -130q0 -46 -27 -74t-71 -28t-72.5 26.5t-28.5 67.5q0 19 7.5 36t21.5 33zM291 1487h74
l166 -195l252 195h96l-309 -348h-113z" />
    <glyph glyph-name="Ydieresis" unicode="&#x178;" horiz-adv-x="1194" 
d="M514 1446v-21q0 -22 -3.5 -33t-11.5 -16q-10 -8 -30 -19q-43 -25 -43 -61q0 -20 15 -68q1 -4 1 -5l148 -435l434 486q17 19 22 28.5t5 18.5q0 18 -35 39.5t-35 40.5q0 10 2.5 21t8.5 24h328q2 -4 2.5 -6.5t0.5 -7.5q0 -32 -64 -70t-98 -76l-553 -616l-110 -446
q-7 -25 -11 -48t-4 -41q0 -23 35 -49t35 -41q0 -13 -2 -24t-6 -21h-410v10q0 42 59 71q23 12 35 19q32 20 58 128l2 8l114 464l-192 551q-13 36 -27 59.5t-32 37.5q-6 3 -18 10q-46 26 -46 69q0 4 1 10t1 9h424zM922 1743q0 41 32.5 73.5t73.5 32.5q45 0 77 -31.5t32 -74.5
q0 -47 -31 -78t-78 -31q-45 0 -75.5 31t-30.5 78zM553 1743q0 41 32.5 73.5t74.5 32.5q44 0 76 -31.5t32 -74.5q0 -47 -30.5 -78t-77.5 -31q-46 0 -76.5 31t-30.5 78z" />
    <glyph glyph-name="Zcaron" unicode="&#x17d;" horiz-adv-x="1165" 
d="M1229 1446v-62l-1049 -1294h283q162 0 241 30.5t132 108.5q9 14 24 40q50 85 121 85q4 0 12 -1t13 -1l-95 -352h-1001l10 90l1030 1266h-282q-125 0 -192 -31.5t-124 -116.5q-4 -6 -12 -19q-45 -71 -111 -71q-3 0 -12 1t-14 1l90 350q38 -12 78 -18t82 -6h776zM573 1927
h74l166 -195l252 195h96l-309 -348h-113z" />
    <glyph glyph-name="zcaron" unicode="&#x17e;" horiz-adv-x="1053" 
d="M-115 0l848 854q-42 -19 -81 -28t-79 -9q-58 0 -143 18.5t-111 18.5q-39 0 -78 -20t-79 -62l-41 35q71 113 159 166t203 53q55 0 158 -21.5t150 -21.5q55 0 114.5 21.5t67.5 21.5q11 0 15.5 -2.5t4.5 -9.5q0 -8 -4.5 -17t-13.5 -18l-819 -815q65 20 109 29.5t73 9.5
q67 0 187 -50.5t165 -50.5q25 0 39 13.5t14 38.5v8q-29 5 -46 24.5t-17 46.5q0 35 25 58.5t61 23.5t60 -28.5t24 -73.5q0 -103 -82.5 -172.5t-210.5 -69.5q-79 0 -214.5 46t-201.5 46q-52 0 -115 -15.5t-141 -47.5zM362 1487h74l166 -195l252 195h96l-309 -348h-113z" />
    <glyph glyph-name="florin" unicode="&#x192;" horiz-adv-x="1057" 
d="M821 922l-22 -84h-195q-60 -404 -112.5 -663.5t-96.5 -375.5q-43 -109 -127 -175t-178 -66q-63 0 -105 30t-42 74q0 37 24.5 61.5t61.5 24.5q20 0 36 -6t25 -16q6 -7 15 -25q21 -41 47 -41q91 0 229 868q31 199 49 310h-194l24 84h189q43 264 146 406t251 142
q70 0 110.5 -28.5t40.5 -77.5q0 -33 -25 -56.5t-61 -23.5t-72 45t-53 45q-54 0 -92 -104t-71 -348h198z" />
    <glyph glyph-name="circumflex" unicode="&#x2c6;" 
d="M854 1139h-74l-166 194l-252 -194h-98l309 348h115z" />
    <glyph glyph-name="caron" unicode="&#x2c7;" 
d="M348 1487h74l166 -195l252 195h96l-309 -348h-113z" />
    <glyph glyph-name="breve" unicode="&#x2d8;" 
d="M944 1456q-89 -150 -181.5 -218.5t-203.5 -68.5q-112 0 -169 72t-58 215h63q12 -74 54 -108.5t120 -34.5q94 0 167 34t138 109h70z" />
    <glyph glyph-name="dotaccent" unicode="&#x2d9;" 
d="M492 1303q0 44 34 78t78 34q48 0 81.5 -33t33.5 -79q0 -50 -33 -82.5t-82 -32.5q-46 0 -79 33.5t-33 81.5z" />
    <glyph glyph-name="ring" unicode="&#x2da;" 
d="M451 1368q0 -63 43 -106t106 -43q62 0 106 43.5t44 105.5t-44 106t-106 44q-63 0 -106 -43.5t-43 -106.5zM352 1368q0 105 72 176.5t176 71.5q105 0 176.5 -71.5t71.5 -176.5q0 -104 -71.5 -176t-176.5 -72q-104 0 -176 72t-72 176z" />
    <glyph glyph-name="ogonek" unicode="&#x2db;" 
d="M449 35q-84 -65 -129.5 -131.5t-45.5 -124.5q0 -60 23.5 -92.5t67.5 -32.5q36 0 66.5 17.5t57.5 54.5l29 -17q-36 -75 -93 -116.5t-126 -41.5q-72 0 -115 42t-43 112q0 84 64 165t196 165h48z" />
    <glyph glyph-name="tilde" unicode="&#x2dc;" 
d="M905 1415q-20 -99 -68.5 -151t-121.5 -52q-17 0 -37 3.5t-43 9.5l-129 35q-14 4 -27.5 6t-32.5 2q-32 0 -51.5 -19t-28.5 -59h-61q14 101 59 152t119 51q15 0 33 -2.5t42 -8.5l129 -35q20 -5 34.5 -7.5t21.5 -2.5q43 0 66.5 18.5t34.5 59.5h61z" />
    <glyph glyph-name="hungarumlaut" unicode="&#x2dd;" 
d="M834 1417q34 48 57.5 65t50.5 17q30 0 52 -23t22 -55q0 -19 -13.5 -38.5t-46.5 -47.5l-239 -196h-80zM524 1407q29 51 53 71.5t54 20.5q31 0 52.5 -21.5t21.5 -52.5q0 -18 -12 -38t-40 -48l-200 -200h-74z" />
    <glyph glyph-name="Omega" unicode="&#x3a9;" horiz-adv-x="1569" 
d="M1112 231v-26h311l60 184h61l-117 -389h-505q120 216 181.5 435t61.5 427q0 277 -95.5 418t-283.5 141q-189 0 -284.5 -140t-95.5 -419q0 -209 61 -426t182 -436h-506l-116 389h61l59 -184h312v26q-165 183 -237 335t-72 311q0 267 183 443.5t453 176.5t452.5 -177
t182.5 -443q0 -158 -71.5 -309t-237.5 -337z" />
    <glyph glyph-name="pi" unicode="&#x3c0;" horiz-adv-x="1389" 
d="M1370 885l-43 -199h-340q-33 -137 -37 -401q-1 -58 -2 -87q-3 -125 -32.5 -183t-90.5 -58q-42 0 -64 28t-22 83q0 58 77 259t114 359h-387q-35 -142 -40 -414q-1 -49 -1 -73q-4 -127 -33 -184.5t-90 -57.5q-42 0 -63 28t-21 83q0 59 76 260t112 358h-188
q-91 0 -135.5 -41.5t-67.5 -152.5h-57q40 218 124 305.5t251 87.5h960z" />
    <glyph glyph-name="endash" unicode="&#x2013;" 
d="M979 573l-37 -147h-1026l35 147h1028z" />
    <glyph glyph-name="emdash" unicode="&#x2014;" horiz-adv-x="2048" 
d="M2030 426h-2048l36 147h2048z" />
    <glyph glyph-name="quoteleft" unicode="&#x2018;" horiz-adv-x="528" 
d="M465 1470l41 -49q-81 -60 -128.5 -119.5t-47.5 -99.5q0 -14 24 -23q14 -5 23 -10q31 -15 46 -40t15 -60q0 -54 -36 -91.5t-89 -37.5q-44 0 -74 41t-30 104q0 102 70 208t186 177z" />
    <glyph glyph-name="quoteright" unicode="&#x2019;" horiz-adv-x="528" 
d="M256 948l-41 49q81 60 128.5 119.5t47.5 100.5q0 13 -23 22q-16 6 -24 10q-31 16 -46 41t-15 60q0 54 36 91.5t89 37.5q44 0 74 -41t30 -105q0 -101 -70 -207t-186 -178z" />
    <glyph glyph-name="quotesinglbase" unicode="&#x201a;" horiz-adv-x="528" 
d="M-8 -293l-41 49q83 62 129.5 121t46.5 100q0 10 -22 18q-17 6 -27 11q-31 16 -46.5 40.5t-15.5 59.5q0 55 37 93.5t90 38.5q45 0 75 -41t30 -105q0 -101 -70 -207t-186 -178z" />
    <glyph glyph-name="quotedblleft" unicode="&#x201c;" horiz-adv-x="915" 
d="M852 1468l43 -49q-82 -59 -129 -118t-47 -99q0 -13 23 -22q16 -6 24 -11q31 -15 46 -40t15 -60q0 -54 -36.5 -91.5t-90.5 -37.5q-44 0 -73 40t-29 103q0 102 69 208t185 177zM465 1468l41 -49q-82 -60 -129 -119t-47 -98q0 -14 24 -23q14 -5 23 -10q31 -15 46 -40t15 -60
q0 -54 -36 -91.5t-89 -37.5q-45 0 -74.5 40t-29.5 103q0 102 70 208t186 177z" />
    <glyph glyph-name="quotedblright" unicode="&#x201d;" horiz-adv-x="915" 
d="M256 948l-41 49q81 60 128.5 119.5t47.5 100.5q0 13 -23 22q-16 6 -24 10q-31 16 -46 41t-15 60q0 54 36 91.5t89 37.5q44 0 74 -41t30 -105q0 -101 -70 -207t-186 -178zM643 948l-41 49q81 60 128.5 120t47.5 100q0 13 -23 22q-16 6 -24 10q-31 16 -46 41t-15 60
q0 54 36 91.5t89 37.5q44 0 74 -41t30 -105q0 -101 -70 -207t-186 -178z" />
    <glyph glyph-name="quotedblbase" unicode="&#x201e;" horiz-adv-x="915" 
d="M-8 -293l-41 49q82 61 128 120t46 101q0 11 -21 18q-17 6 -26 11q-31 16 -46.5 40.5t-15.5 59.5q0 55 37 93.5t90 38.5q45 0 74 -41t29 -105q0 -102 -69 -207.5t-185 -177.5zM377 -293l-39 49q82 61 128 120t46 101q0 11 -21 18q-17 6 -26 11q-31 16 -46.5 40.5
t-15.5 59.5q0 55 36.5 93.5t88.5 38.5q45 0 75 -41t30 -105q0 -101 -70 -207t-186 -178z" />
    <glyph glyph-name="dagger" unicode="&#x2020;" 
d="M272 -250q53 248 79 453t26 377v36q59 62 99.5 154t64.5 215q-67 0 -159.5 -36t-125.5 -36q-47 0 -73.5 22t-26.5 60q0 45 24.5 72t67.5 27q25 0 120 -36t171 -36h10q12 42 18 86.5t6 87.5q0 50 -10 109t-10 69q0 43 24.5 68.5t65.5 25.5q43 0 68.5 -24t25.5 -64
q0 -37 -39 -94q-4 -5 -6 -8q-38 -55 -62.5 -115t-41.5 -139h24q65 0 149 35t109 35q51 0 79 -24t28 -69q0 -38 -25 -63t-63 -25q-23 0 -120.5 36t-184.5 36q-12 -50 -17.5 -90t-5.5 -76q0 -46 9 -96.5t26 -104.5q-79 -155 -148.5 -371t-132.5 -497h-43z" />
    <glyph glyph-name="daggerdbl" unicode="&#x2021;" 
d="M369 618q59 62 99.5 154t63.5 215q-67 0 -159 -36t-125 -36q-46 0 -72 22t-26 60q0 46 24.5 72.5t67.5 26.5q25 0 118.5 -36t169.5 -36h11q12 43 18 86t6 86q0 50 -10 110.5t-10 69.5q0 43 25 68.5t67 25.5t67 -23.5t25 -64.5q0 -37 -39 -94q-4 -5 -6 -8
q-37 -53 -61 -112t-41 -142h24q65 0 148 34t108 34q52 0 79.5 -23.5t27.5 -66.5q0 -39 -25 -64t-63 -25q-23 0 -120.5 36t-185.5 36q-10 -44 -15 -86t-5 -82q0 -46 8.5 -95t26.5 -103q-62 -75 -103.5 -168t-62.5 -207q67 0 159 35.5t126 35.5q46 0 72 -21.5t26 -59.5
q0 -46 -24 -72.5t-66 -26.5q-26 0 -120.5 36t-170.5 36h-10q-13 -43 -19 -86t-6 -86q0 -50 10.5 -110.5t10.5 -69.5q0 -43 -25.5 -69t-67.5 -26t-67 24t-25 64q0 38 40 95q4 6 5 7q39 56 63.5 116t41.5 139h-25q-65 0 -149 -35t-109 -35q-51 0 -78.5 24t-27.5 68
q0 39 24.5 63.5t63.5 24.5q23 0 120 -35.5t185 -35.5q10 45 15 86t5 78q0 42 -8 93.5t-24 114.5z" />
    <glyph glyph-name="bullet" unicode="&#x2022;" horiz-adv-x="1208" 
d="M307 762q0 123 87 209t210 86q122 0 208.5 -86.5t86.5 -208.5t-87.5 -209.5t-209.5 -87.5q-123 0 -209 87t-86 210z" />
    <glyph glyph-name="ellipsis" unicode="&#x2026;" horiz-adv-x="2048" 
d="M189 -23q-50 0 -77.5 31t-27.5 86q0 61 37 102.5t90 41.5q48 0 77.5 -32t29.5 -85q0 -60 -38 -102t-91 -42zM871 -23q-50 0 -77.5 31t-27.5 86q0 61 37 102.5t90 41.5q48 0 77.5 -32t29.5 -85q0 -60 -38 -102t-91 -42zM1555 -23q-50 0 -77.5 31t-27.5 86q0 61 37 102.5
t90 41.5q48 0 77.5 -32t29.5 -85q0 -60 -38 -102t-91 -42z" />
    <glyph glyph-name="perthousand" unicode="&#x2030;" horiz-adv-x="2304" 
d="M301 565q-106 0 -167.5 83.5t-61.5 230.5q0 134 44 258.5t126 218.5q53 62 111 93.5t120 31.5q110 0 171 -80.5t61 -226.5q0 -133 -50 -268t-135 -234q-42 -50 -100 -78.5t-119 -28.5zM223 782q0 -73 24.5 -117t63.5 -44q32 0 64.5 25t54.5 67q25 49 47 120t41 166
q17 84 26 153t9 116q0 76 -23.5 116.5t-66.5 40.5q-36 0 -70 -29t-59 -81q-48 -98 -79.5 -248t-31.5 -285zM414 -25h-107l828 1495h112zM1247 891q106 0 168 -83.5t62 -229.5q0 -134 -44.5 -258t-125.5 -218q-54 -63 -112.5 -95t-119.5 -32q-110 0 -170.5 80.5t-60.5 227.5
q0 134 49 270t133 233q42 50 100.5 77.5t120.5 27.5zM1985 891q106 0 167.5 -83.5t61.5 -229.5q0 -134 -44.5 -258t-125.5 -218q-54 -63 -112 -95t-120 -32q-110 0 -170.5 80.5t-60.5 227.5q0 133 50 269t134 234q42 50 100 77.5t120 27.5zM2062 674q0 74 -24 118t-64 44
q-31 0 -64 -25.5t-55 -67.5q-26 -51 -48.5 -123.5t-41.5 -162.5q-16 -79 -24 -148t-8 -121q0 -76 23 -116.5t67 -40.5q36 0 70 29t59 81q47 98 78.5 248t31.5 285zM1325 674q0 73 -25 117.5t-65 44.5q-31 0 -63 -25t-54 -68q-26 -51 -49 -123.5t-41 -162.5
q-16 -79 -24.5 -148t-8.5 -121q0 -76 23.5 -116.5t66.5 -40.5q36 0 70.5 29t58.5 81q48 98 79.5 248t31.5 285z" />
    <glyph glyph-name="guilsinglleft" unicode="&#x2039;" horiz-adv-x="678" 
d="M254 489l137 -339q4 -10 6 -17t2 -12q0 -10 -6.5 -17.5t-13.5 -7.5q-14 0 -47 42l-2 3l-279 359l471 395q11 9 16.5 11.5t10.5 2.5q10 0 16 -5t6 -15q0 -18 -29 -53l-3 -4z" />
    <glyph glyph-name="guilsinglright" unicode="&#x203a;" horiz-adv-x="678" 
d="M297 514l-135 340q-4 10 -6 17t-2 12q0 10 5.5 17t12.5 7q9 0 19.5 -8.5t31.5 -36.5l277 -358l-471 -395q-11 -9 -16.5 -12t-10.5 -3q-10 0 -16 5.5t-6 15.5q0 17 29 53l4 5z" />
    <glyph glyph-name="franc" unicode="&#x20a3;" horiz-adv-x="1849" 
d="M281 223q-8 -29 -12.5 -52t-4.5 -36q0 -22 36 -48t36 -42q0 -10 -2.5 -21.5t-8.5 -23.5h-403v10q0 42 59 71q23 12 35 19q28 18 55 125l3 11l246 975q1 6 3 15q15 65 15 83q0 12 -9 24.5t-32 28.5q-2 2 -6 5q-25 21 -25 34q0 10 2.5 21t7.5 23l691 1q22 0 79.5 6
t159.5 18l-88 -350h-16q-72 0 -85 88q-3 23 -5 35q-14 73 -57.5 99t-166.5 26h-215l-139 -557h191q58 0 104 71q9 13 15 22q11 15 26.5 22.5t36.5 7.5q9 0 19.5 -1.5t22.5 -4.5l-95 -385h-19q-31 0 -46 14t-27 64q-17 58 -38.5 74t-74.5 16h-139zM1413 1016q19 -5 26.5 -32
t7.5 -89q0 -65 -10 -139.5t-30 -157.5q97 209 192.5 319.5t179.5 110.5q50 0 82.5 -31t32.5 -77q0 -48 -34 -83.5t-79 -35.5q-35 0 -58.5 21t-35.5 65q-98 -54 -215 -293.5t-213 -593.5h-201l119 432q51 184 66.5 255.5t15.5 111.5q0 34 -9 48.5t-40 22.5q-31 9 -39 21
t-8 37q49 13 112.5 35.5t137.5 52.5z" />
    <glyph glyph-name="trademark" unicode="&#x2122;" horiz-adv-x="1683" 
d="M780 1442h191l137 -391l143 391h181v-25l-30 -2q-21 -2 -31.5 -15t-10.5 -38v-375q0 -25 10.5 -38t31.5 -15l30 -2v-29h-240v29l31 2q21 2 32 15.5t11 37.5v387l-172 -473h-21l-172 475v-389q0 -24 11 -37.5t32 -15.5l33 -2v-29h-197v29l34 2q20 2 31 15.5t11 37.5v371
q0 24 -11 37.5t-31 15.5l-34 4v27zM250 1442h444l11 -182h-27q-8 78 -40.5 114.5t-94.5 36.5h-17v-424q0 -24 10.5 -37.5t30.5 -15.5l33 -2v-29h-254v29l31 2q21 2 32 15.5t11 37.5v424h-17q-64 0 -96.5 -36t-40.5 -115h-26z" />
    <glyph glyph-name="partialdiff" unicode="&#x2202;" horiz-adv-x="1059" 
d="M756 621q15 87 22.5 168.5t7.5 156.5q0 129 -36.5 194.5t-108.5 65.5q-55 0 -127 -58t-108 -58t-60 22t-24 53q0 62 72 111t173 49q180 0 287 -155t107 -418q0 -335 -144.5 -556t-357.5 -221q-152 0 -253.5 108t-101.5 271q0 198 110.5 326.5t272.5 128.5
q101 0 166 -45.5t103 -142.5zM707 494q0 116 -43.5 178.5t-122.5 62.5q-109 0 -179.5 -129t-70.5 -336q0 -116 43 -177.5t123 -61.5q109 0 179.5 130t70.5 333z" />
    <glyph glyph-name="Delta" unicode="&#x2206;" horiz-adv-x="1350" 
d="M602 1174l-389 -957h768zM666 1497h30l600 -1497h-1243z" />
    <glyph glyph-name="product" unicode="&#x220f;" horiz-adv-x="1630" 
d="M53 1473h1522v-74h-191v-1718h191v-74h-596v74h192v1718h-714v-1718h192v-74h-596v74h191v1718h-191v74z" />
    <glyph glyph-name="summation" unicode="&#x2211;" horiz-adv-x="1462" 
d="M16 1473h1162l110 -365h-78l-73 227q-11 34 -41.5 49t-98.5 15h-690l809 -832v-37l-825 -735h887q61 0 79 13t29 51l72 229h78l-148 -481h-1272v41l920 815l-920 956v54z" />
    <glyph glyph-name="minus" unicode="&#x2212;" horiz-adv-x="1706" 
d="M254 682h1198v-141h-1198v141z" />
    <glyph glyph-name="fraction" unicode="&#x2215;" horiz-adv-x="342" 
d="M-342 -25l920 1495h104l-920 -1495h-104z" />
    <glyph glyph-name="periodcentered" unicode="&#x2219;" horiz-adv-x="528" 
d="M135 731q0 55 37 92t92 37q56 0 93.5 -37t37.5 -92t-38 -93t-93 -38t-92 38t-37 93z" />
    <glyph glyph-name="radical" unicode="&#x221a;" horiz-adv-x="1305" 
d="M1116 1661h189v-96h-115l-594 -1606h-66l-319 883l-125 -45l-25 80l283 98l256 -709z" />
    <glyph glyph-name="infinity" unicode="&#x221e;" horiz-adv-x="1706" 
d="M915 559q50 -89 116.5 -133.5t150.5 -44.5q101 0 165 67.5t64 172.5q0 101 -59 168t-148 67q-81 0 -146.5 -66.5t-142.5 -230.5zM793 666q-49 88 -115.5 132t-151.5 44q-101 0 -165 -66.5t-64 -171.5q0 -101 59 -168t148 -67q81 0 146.5 66t142.5 231zM864 483
q-71 -136 -148.5 -199t-172.5 -63q-135 0 -228.5 112t-93.5 277q0 175 83.5 283t217.5 108q95 0 170 -61.5t150 -202.5q68 138 147 203.5t176 65.5q133 0 227.5 -113t94.5 -279q0 -174 -83.5 -281.5t-217.5 -107.5q-95 0 -168.5 58.5t-153.5 199.5z" />
    <glyph glyph-name="integral" unicode="&#x222b;" horiz-adv-x="1067" 
d="M311 -262q106 0 120 688q2 108 3 165q12 515 107 737t297 222q80 0 130 -42t50 -107q0 -54 -32 -85.5t-87 -31.5q-42 0 -70 19t-40 54q-6 15 -10.5 51t-20.5 36q-107 0 -121 -619q-4 -193 -8 -303q-17 -479 -111.5 -686t-290.5 -207q-79 0 -129.5 41.5t-50.5 106.5
q0 56 34 87.5t95 31.5q33 0 57 -14.5t39 -42.5q10 -18 15 -59.5t24 -41.5z" />
    <glyph glyph-name="approxequal" unicode="&#x2248;" horiz-adv-x="1706" 
d="M1530 586v-156q-105 -73 -199.5 -107t-189.5 -34t-285 67.5t-293 67.5q-82 0 -171.5 -36t-213.5 -122v156q108 73 204 109t183 36q115 0 305 -68.5t273 -68.5q88 0 177 35.5t210 120.5zM1530 954v-155q-105 -73 -199.5 -107.5t-189.5 -34.5t-285 68t-293 68
q-83 0 -171.5 -36t-213.5 -122v156q106 72 202 107.5t185 35.5q116 0 305.5 -67.5t272.5 -67.5q87 0 175 34.5t212 120.5z" />
    <glyph glyph-name="notequal" unicode="&#x2260;" horiz-adv-x="1706" 
d="M1208 1194l105 -82l-187 -235h326v-136h-416l-205 -262h621v-135h-709l-249 -317l-105 84l184 233h-319v135h408l204 262h-612v136h702z" />
    <glyph glyph-name="lessequal" unicode="&#x2264;" horiz-adv-x="1706" 
d="M262 162h1184v-139h-1184v139zM1444 1206v-147l-936 -309l936 -306v-149l-1182 395v121z" />
    <glyph glyph-name="greaterequal" unicode="&#x2265;" horiz-adv-x="1706" 
d="M262 162h1184v-139h-1184v139zM262 1206l1184 -395v-121l-1184 -395v149l938 306l-938 309v147z" />
    <glyph glyph-name="lozenge" unicode="&#x25ca;" horiz-adv-x="1012" 
d="M506 1409l-385 -817l385 -825l385 825zM506 1653l500 -1061l-500 -1069l-500 1069z" />
    <glyph glyph-name="apple" unicode="&#xf000;" horiz-adv-x="1618" 
d="M836 1216q-1 6 -1.5 14t-0.5 23q0 124 95 229.5t236 131.5q1 -10 1.5 -23t0.5 -39q0 -131 -103.5 -234.5t-203.5 -103.5h-8q-3 0 -7.5 1t-8.5 1zM1505 403q-114 -247 -205 -342.5t-204 -95.5q-50 0 -131.5 33t-122.5 33q-45 0 -131 -33t-127 -33q-64 0 -128.5 44
t-129.5 132q-102 140 -157.5 295.5t-55.5 300.5q0 219 125 356.5t323 137.5q68 0 155 -34t124 -34q34 0 121.5 35t152.5 35q110 0 198 -40t161 -124q-102 -65 -151.5 -145.5t-49.5 -182.5q0 -113 60 -200t173 -138z" />
    <glyph glyph-name="fi" unicode="&#xf001;" horiz-adv-x="1145" 
d="M197 915l-84 1q2 36 16.5 57.5t52.5 38.5q50 22 66 70l6 18q73 203 206.5 296t352.5 93q155 0 243.5 -45.5t88.5 -124.5q0 -42 -28.5 -68t-74.5 -26t-72 26t-26 72q0 14 7 46q1 3 1 5q-20 23 -49 33t-78 10q-148 0 -244 -97.5t-159 -313.5h493q24 0 57.5 3.5t75.5 10.5
l-223 -857q-2 -10 -4 -21t-2 -17q0 -21 10.5 -35t26.5 -14q19 0 40.5 8.5t45.5 26.5l29 -48q-48 -43 -105.5 -65.5t-120.5 -22.5q-61 0 -96 31.5t-35 85.5q0 23 8.5 66t22.5 96l137 489q9 30 14 55.5t5 39.5q0 44 -26 60.5t-107 16.5h-271l-254 -915h-200z" />
    <glyph glyph-name="fl" unicode="&#xf002;" horiz-adv-x="1145" 
d="M113 916q2 36 16.5 57.5t52.5 38.5q50 22 66 70l6 18q73 202 202 295.5t335 93.5q47 0 96 -7t100 -22l197 8l-357 -1304q0 -2 -1 -7q-7 -26 -7 -34q0 -23 9.5 -36t25.5 -13q17 0 38 8.5t52 28.5l29 -48q-45 -42 -103.5 -65t-119.5 -23q-63 0 -99.5 32.5t-36.5 86.5
q0 19 8.5 57.5t26.5 102.5l279 1006q-26 10 -37.5 28.5t-11.5 48.5q0 20 1 31.5t2 20.5q-19 12 -39 18t-42 6q-138 0 -226.5 -95t-150.5 -312h315l-24 -91h-318l-252 -915h-202l254 915z" />
    </font>
</defs>
</svg>
