<?xml version="1.0" encoding="utf-8"?>
<!-- Generator: Adobe Illustrator 26.0.2, SVG Export Plug-In . SVG Version: 6.00 Build 0)  -->
<svg version="1.1" id="Layer_1" xmlns="http://www.w3.org/2000/svg" xmlns:xlink="http://www.w3.org/1999/xlink" x="0px" y="0px"
	 width="278px" height="97.3px" viewBox="0 0 278 97.3" style="enable-background:new 0 0 278 97.3;" xml:space="preserve">
<style type="text/css">
	.st0{fill:#FFFBDD;}
</style>
<g>
	<g>
		<path class="st0" d="M75.1,65c-2.6,0-5.1,0-7.7,0c-1.4-14.3-2.7-28.6-4.1-42.8c-0.1,0-0.3,0-0.4,0c-0.1,0.2-0.3,0.4-0.4,0.6
			c-7.4,13.3-14.9,26.5-21,40.4c-0.2,0.4-0.6,0.7-0.8,1c-0.3-0.3-0.8-0.6-1-1C32.9,49.7,26,36.3,19.2,22.8c-0.1-0.2-0.2-0.4-0.5-0.5
			C17.1,36.5,15,50.7,14.6,65c-1.1,0-2,0-2.9,0s-1.9,0-2.9,0c2.7-19.1,5.4-38.1,8.1-57.2c1.3-0.3,2.2-0.1,2.9,1.4
			c6.9,14,14.1,27.7,22,41.2c0.2,0.4,0.5,0.8,0.8,1.4c0.9-1.7,1.7-3.2,2.5-4.7c7-12.8,13.9-25.6,20.9-38.4c0.2-0.4,0.7-0.9,1.2-1
			c0.8-0.2,1.3,0.1,1.3,1c0.9,9.3,1.9,18.6,3,27.8c1.1,9.1,2.3,18.3,3.5,27.4C75.1,64.2,75.1,64.6,75.1,65z"/>
	</g>
	<g>
		<path class="st0" d="M270.8,24.8c-1.4,3-2.8,5.7-4,8.5c-4.2,10.1-8.4,20.3-12.5,30.5c-0.4,1-0.8,1.3-1.9,1.2c-1-0.1-2.1,0-3,0
			c-3.4-10-6.8-20.1-10.3-30.1c-0.2,0-0.4,0-0.6,0c-0.7,1.6-1.6,3.2-2.2,4.9c-2.9,8-5.8,16-8.6,24c-0.4,1.1-0.8,1.4-1.8,1.2
			c-0.4-0.1-0.9-0.2-1.3-0.1c-2,0.2-2,0.2-2.7-1.7c-4.2-12.6-8.6-25.1-13.8-37.4c-0.1-0.2-0.2-0.5-0.3-0.9c2.5,0,4.9,0,7.4,0
			c3.1,10.3,6.3,20.8,10.7,31.1c4.6-10.3,8.2-20.7,11.7-31.1c1.4,0,2.9,0,4.3,0c1.6,5.1,3.2,10.4,4.9,15.6
			c1.8,5.1,3.8,10.2,5.7,15.3c0.2,0,0.4,0,0.6,0c4.1-10.3,8.2-20.6,12.2-30.9C267.2,24.8,268.9,24.8,270.8,24.8z"/>
	</g>
	<g>
		<path class="st0" d="M164.4,44.9c-0.2-11.1,8.5-20,20-20.5c5.1-0.2,9.8,0.6,13.9,3.9c4.4,3.5,6.6,8.2,7.1,13.8
			c0.7,7.7-1.3,14.3-7.4,19.4c-8.6,7.2-28.1,6.9-32.7-10.2C164.8,49.2,164.7,47,164.4,44.9z M172,44.3c0,5,0.5,8.6,2.2,12
			c2.2,4.3,5.7,6.7,10.5,6.8c4.3,0.1,7.6-1.7,9.7-5.4c4.5-7.9,4.8-16.1,1.2-24.4c-1.3-3-3.5-5.1-6.7-6c-5.5-1.5-11.1,0.8-14,5.6
			C172.6,37,172,41.3,172,44.3z"/>
	</g>
	<g>
		<path class="st0" d="M117.2,45c-9.8,0-19.4,0-29,0c-0.4,6.2,2.4,12.7,7.1,15.5c5.7,3.4,12.3,2.1,19.7-3.8c0,1.4,0,2.7,0,3.9
			c0,0.2-0.3,0.5-0.5,0.7c-7.4,4.9-15.2,6.3-23.4,2.5c-5.9-2.7-9-7.6-10.1-13.8c-0.9-5.9-0.6-11.7,2.5-17c3-5.1,7.7-7.9,13.6-8.5
			c3.9-0.4,7.7-0.2,11.2,1.9c5,2.9,7.4,7.5,8.3,13C116.9,41.1,117,43,117.2,45z M88.1,41.6c7.5,0,14.9,0,22.7,0
			c-0.5-2.7-0.6-5.3-1.4-7.7c-2.3-7.4-11.4-9.4-16.9-3.9C89.3,33.2,88.2,37.2,88.1,41.6z"/>
	</g>
	<g>
		<path class="st0" d="M126.7,2.1c2.3,0,4.4,0,6.6,0c0,21,0,41.9,0,63c-2.2,0-4.3,0-6.6,0C126.7,44.2,126.7,23.1,126.7,2.1z"/>
	</g>
	<g>
		<path class="st0" d="M148.3,2.1c2.2,0,4.4,0,6.6,0c0,21,0,42,0,63c-2.2,0-4.4,0-6.6,0C148.3,44.1,148.3,23.1,148.3,2.1z"/>
	</g>
</g>
<g>
	<g>
		<path class="st0" d="M208.5,82.1c-0.2-1.3-0.4-2.6-0.6-4.4c-0.8,1.6-1.5,2.8-2.3,4.2c-0.7-1.3-1.4-2.5-2.2-4.2
			c-0.2,1.7-0.4,2.9-0.6,4.2c-0.2,0-0.3-0.1-0.4-0.1c0.2-1.8,0.5-3.7,0.7-5.5c0.1,0,0.2-0.1,0.3-0.1c0.8,1.4,1.5,2.9,2.4,4.5
			c0.9-1.6,1.7-3,2.5-4.4c0.1,0,0.2,0.1,0.3,0.1c0.2,1.9,0.4,3.7,0.6,5.6C208.8,82,208.6,82.1,208.5,82.1z"/>
	</g>
	<g>
		<path class="st0" d="M199.6,76.6c-0.7-0.1-1.2-0.1-1.7-0.1c0-0.1,0-0.1,0-0.2c1.3,0,2.6,0,3.9,0c0,0.1,0,0.1,0,0.2
			c-0.4,0-0.9,0.1-1.7,0.1c0,1.8,0,3.6,0,5.5c-0.2,0-0.3,0-0.5,0C199.6,80.3,199.6,78.5,199.6,76.6z"/>
	</g>
</g>
<g>
	<path class="st0" d="M77.2,89c0-0.7,0.2-1.3,0.7-1.8c0.5-0.4,1.1-0.7,1.9-0.9L82,86c0.4-0.1,0.6-0.3,0.6-0.6c0-0.4-0.1-0.7-0.4-1
		c-0.3-0.2-0.7-0.4-1.2-0.4c-0.5,0-0.9,0.1-1.3,0.4c-0.3,0.3-0.5,0.7-0.5,1.1l-1.9-0.4c0.1-0.8,0.5-1.5,1.1-2
		c0.7-0.6,1.5-0.8,2.5-0.8c1.3,0,2.2,0.3,2.8,0.9c0.6,0.6,0.9,1.4,0.9,2.3V90c0,0.6,0,1,0.1,1.4h-1.9c-0.1-0.2-0.1-0.5-0.1-1.1
		c-0.6,0.9-1.5,1.4-2.7,1.4c-0.9,0-1.6-0.3-2.1-0.8C77.4,90.4,77.2,89.7,77.2,89z M80.5,90c0.6,0,1.2-0.2,1.6-0.5
		c0.4-0.4,0.6-0.9,0.6-1.7v-0.4l-2.3,0.3c-0.8,0.1-1.2,0.5-1.2,1.2c0,0.3,0.1,0.6,0.3,0.8C79.8,89.9,80.1,90,80.5,90z"/>
	<path class="st0" d="M98.2,84.3c-0.7,0-1.2,0.2-1.7,0.7c-0.5,0.5-0.7,1.1-0.7,2c0,0.8,0.2,1.5,0.7,2c0.5,0.5,1,0.7,1.7,0.7
		c0.6,0,1.1-0.2,1.5-0.5c0.4-0.3,0.6-0.7,0.7-1.1l1.8,0.7c-0.2,0.8-0.7,1.4-1.4,2c-0.7,0.6-1.6,0.8-2.6,0.8c-1.3,0-2.4-0.4-3.2-1.3
		c-0.9-0.9-1.3-2-1.3-3.3c0-1.3,0.4-2.4,1.3-3.3c0.9-0.9,1.9-1.3,3.2-1.3c1.1,0,2,0.3,2.7,0.8c0.7,0.6,1.1,1.2,1.3,2l-1.9,0.7
		c-0.1-0.5-0.3-0.8-0.7-1.2C99.3,84.5,98.8,84.3,98.2,84.3z"/>
	<path class="st0" d="M110.7,89c0-0.7,0.2-1.3,0.7-1.8c0.5-0.4,1.1-0.7,1.9-0.9l2.2-0.3c0.4-0.1,0.6-0.3,0.6-0.6
		c0-0.4-0.1-0.7-0.4-1c-0.3-0.2-0.7-0.4-1.2-0.4c-0.5,0-0.9,0.1-1.3,0.4c-0.3,0.3-0.5,0.7-0.5,1.1l-1.9-0.4c0.1-0.8,0.5-1.5,1.1-2
		c0.7-0.6,1.5-0.8,2.5-0.8c1.3,0,2.2,0.3,2.8,0.9c0.6,0.6,0.9,1.4,0.9,2.3V90c0,0.6,0,1,0.1,1.4h-1.9c-0.1-0.2-0.1-0.5-0.1-1.1
		c-0.6,0.9-1.5,1.4-2.7,1.4c-0.9,0-1.6-0.3-2.1-0.8C110.9,90.4,110.7,89.7,110.7,89z M114,90c0.6,0,1.2-0.2,1.6-0.5
		c0.4-0.4,0.6-0.9,0.6-1.7v-0.4l-2.3,0.3c-0.8,0.1-1.2,0.5-1.2,1.2c0,0.3,0.1,0.6,0.3,0.8C113.3,89.9,113.6,90,114,90z"/>
	<path class="st0" d="M136,78.4v11.4c0,0.6,0,1.1,0.1,1.6h-2c-0.1-0.3-0.1-0.7-0.1-1.1c-0.2,0.4-0.6,0.7-1,1c-0.5,0.3-1,0.4-1.6,0.4
		c-1.2,0-2.3-0.4-3-1.3c-0.8-0.9-1.2-2-1.2-3.3c0-1.3,0.4-2.4,1.2-3.2c0.8-0.9,1.8-1.3,3-1.3c0.7,0,1.3,0.1,1.7,0.4
		c0.4,0.3,0.7,0.5,0.9,0.9v-5.3H136z M129.3,87c0,0.8,0.2,1.5,0.6,2c0.4,0.5,1,0.8,1.7,0.8c0.7,0,1.2-0.3,1.7-0.8
		c0.4-0.5,0.6-1.2,0.6-2c0-0.8-0.2-1.5-0.6-2c-0.4-0.5-1-0.7-1.7-0.7c-0.7,0-1.3,0.2-1.7,0.7C129.5,85.5,129.3,86.2,129.3,87z"/>
	<path class="st0" d="M151.9,88.3l1.8,0.6c-0.3,0.8-0.7,1.5-1.4,2c-0.7,0.5-1.5,0.8-2.5,0.8c-1.2,0-2.3-0.4-3.2-1.3
		c-0.9-0.8-1.3-2-1.3-3.4c0-1.3,0.4-2.4,1.3-3.3c0.8-0.9,1.8-1.3,3-1.3c1.3,0,2.4,0.4,3.1,1.2c0.8,0.8,1.1,1.9,1.1,3.3
		c0,0.4,0,0.6-0.1,0.7h-6.4c0,0.7,0.3,1.2,0.7,1.6c0.5,0.4,1,0.6,1.7,0.6C150.8,89.9,151.5,89.4,151.9,88.3z M147.3,86.1h4.3
		c0-0.5-0.2-1-0.6-1.4c-0.4-0.4-0.9-0.6-1.6-0.6c-0.6,0-1.1,0.2-1.5,0.6C147.6,85.1,147.4,85.6,147.3,86.1z"/>
	<path class="st0" d="M164.9,91.4h-2.1v-8.7h2v1.1c0.2-0.4,0.6-0.8,1.1-1c0.5-0.2,1-0.4,1.5-0.4c0.6,0,1.1,0.1,1.6,0.4
		c0.5,0.3,0.8,0.6,1,1.1c0.6-1,1.6-1.5,2.8-1.5c0.9,0,1.6,0.3,2.2,0.8c0.6,0.6,0.9,1.4,0.9,2.5v5.7h-2v-5.3c0-0.5-0.1-1-0.4-1.3
		c-0.3-0.3-0.7-0.5-1.3-0.5c-0.5,0-1,0.2-1.3,0.6c-0.3,0.4-0.5,0.8-0.5,1.4v5.2h-2v-5.3c0-0.5-0.1-1-0.4-1.3
		c-0.3-0.3-0.7-0.5-1.3-0.5c-0.6,0-1,0.2-1.3,0.5c-0.3,0.4-0.5,0.8-0.5,1.4V91.4z"/>
	<path class="st0" d="M188.3,94.9h-2.2l2.1-4.6l-3.7-7.7h2.3l2.5,5.5l2.3-5.5h2.2L188.3,94.9z"/>
</g>
</svg>
